<svg xmlns="http://www.w3.org/2000/svg" width="805" height="123"><defs><clipPath id="a"><path d="M0 0h805v123H0z"/></clipPath></defs><g clip-path="url(#a)"><path fill="#1a1446" d="M753.3 37.84h4.6v1.2h-3.4v1.5h3.1v1h-3.1v1.7h3.6v1.1h-4.8v-6.5zm-3.9 2.1a1.4 1.4 0 00-1.4-1.2c-1.3 0-1.9 1.1-1.9 2.3 0 1.1.5 2.3 1.9 2.3a1.51 1.51 0 001.5-1.3l1.1.5a2.67 2.67 0 01-2.7 1.9c-2.1 0-3.1-1.6-3.1-3.4a3.19 3.19 0 013.1-3.4 2.49 2.49 0 012.6 2.1l-1.1.2zm-12.7-2.1h1.1l2.7 4.6v-4.6h1.2v6.5h-1.1l-2.8-4.6v4.6h-1.1v-6.5zm-6.3 0h1.5l2.1 6.5h-1.3l-.3-1.3h-2.5l-.3 1.3h-1.3l2.1-6.5zm.7 1.2l-.9 3h1.8l-.9-3zm-10.3-1.2h2.7a2 2 0 012.2 2c0 1.5-.9 1.8-1.3 1.9l1.5 2.6h-1.3l-1.3-2.4H722v2.4h-1.2v-6.5zm1.2 3h1.3c.6 0 1.1-.3 1.1-.9s-.4-1-1.3-1H722v1.9zm-4.8 1.5c0 1.3-1 2.2-2.6 2.2s-2.6-.9-2.6-2.2v-4.5h1.2v4.2c0 .8.3 1.3 1.4 1.3 1 0 1.4-.5 1.4-1.3v-4.2h1.2v4.5zm-13 0a2.22 2.22 0 002 1c.6 0 1.4-.2 1.4-.9 0-.5-.5-.6-1.3-.9l-.7-.1c-1-.3-1.9-.6-1.9-1.8a2.27 2.27 0 012.5-2.1 3.23 3.23 0 012.7 1.3l-1 .8a1.75 1.75 0 00-1.7-.9c-.7 0-1.2.3-1.2.7 0 .6.6.7 1.3.9l.8.2c.9.2 1.9.6 1.9 1.8 0 1.6-1.5 2.2-2.9 2.2a3.5 3.5 0 01-2.8-1.4l.9-.8zm-8.7-4.5h1.1l2.8 4.6v-4.6h1.1v6.5h-1.1l-2.8-4.6v4.6h-1.1v-6.5zm-4.9 6.5v-6.5h1.2v6.5zm26.2-10.6v-.5h67.3v.5zm-53.1 0v-.5h46.7v.5zm122.6-7.5a1.35 1.35 0 011.3 1.4 1.3 1.3 0 11-2.6 0 1.35 1.35 0 011.3-1.4zm0 2.5a.97.97 0 001-1.1 1.03 1.03 0 00-1-1.1.97.97 0 00-1 1.1 1.03 1.03 0 001 1.1zm-.5-1.8h.6c.4 0 .6.1.6.4s-.1.4-.3.4l.4.6h-.3l-.4-.6h-.2v.6h-.3v-1.4zm.3.6h.3c.2 0 .3 0 .3-.2s-.2-.2-.3-.2h-.3zm-5.8-9.2c0-1.1-.3-1.5-1.5-1.5v-.3l3.4-.3h.3v10.9c0 1 .3 1.3 1.4 1.5v.3h-5.2v-.3c1.2-.2 1.5-.6 1.5-1.5v-8.8zm-3 5.6v3.6c0 .7.1 1 .4 1a.67.67 0 00.6-.7h.3a1.72 1.72 0 01-1.9 1.5 1.88 1.88 0 01-1.9-1.1l-.2.1a3.02 3.02 0 01-2.4.9 2.15 2.15 0 01-2.3-2c0-2.1 3.1-2.2 4.9-3 0-1.3-.5-2-1.9-2a2.27 2.27 0 00-2.3 1.3h-.3a3.27 3.27 0 013.4-2.6c1.8.1 3.6.8 3.6 3zm-2.3 3.7v-2.9c-1.9.8-2.5 1.3-2.5 2.3 0 .9.4 1.4 1.1 1.4.4 0 .8-.2 1.4-.8zm-14.5-4.7c0-.9-.3-1.1-1.2-1.3v-.3l3.1-.3h.3v5.7a1.34 1.34 0 001.5 1.4c.8 0 1.2-.3 1.9-1.4v-3.9c0-.6-.4-1-1.2-1.1v-.4l3.2-.3h.3v6.2c0 1 .2 1.3 1.2 1.5v.3l-3.5.3v-1.9a3.7 3.7 0 01-3.1 1.9 2.32 2.32 0 01-2.6-2.4l.1-4zm-6.3-1h-1.4v-.4a13.9 13.9 0 003.3-3.2h.4v3h2.5v.6h-2.5v4.4c0 1.2.3 2 1.4 2a1.54 1.54 0 001.1-.6l.3.2a2.74 2.74 0 01-2.5 1.4 2.33 2.33 0 01-2.6-2.5v-4.9zm-11 1c0-.9-.3-1.2-1.2-1.3v-.3l3.1-.3h.3v5.7a1.34 1.34 0 001.5 1.4c.8 0 1.2-.3 1.9-1.4v-3.9c0-.6-.4-1-1.2-1.1v-.3l3.2-.3h.3v6.2c0 1 .2 1.3 1.2 1.5v.3l-3.5.3v-2.1a3.7 3.7 0 01-3.1 1.9 2.32 2.32 0 01-2.6-2.4l.1-3.9zm-2.7 3.8c.1 1.1.6 1.6 1.8 1.9v.3h-5.9v-.3c1.3-.3 1.5-1.1 1.3-2.7l-1-6.8-3.9 9.8h-.4l-3.9-9.8-1 7c-.2 1.4 0 2.3 1.4 2.5v.3h-4.3v-.3c1.3-.1 1.9-.8 2.2-2.7l1.2-7.8a2.84 2.84 0 00-1.7-.9v-.3h4.3l3.1 7.9 3.2-7.9h4v.4a1.5 1.5 0 00-1.4 1.9l1 7.5zm-22.3-5.5h3.2v.3c-1 .3-1.2.6-1.9 2l-3.9 8.9c-.9 1.9-1.7 2.6-3.3 2.6h-.6l.4-2.4a2.56 2.56 0 001.1.2c1.4 0 2.2-1 3.2-3.6l-2.8-5.9c-.5-1-.9-1.5-1.9-1.5h-2.1v4.4c0 1.3.3 2 1.4 2a1.38 1.38 0 001.1-.6l.3.2a2.57 2.57 0 01-2.5 1.4 2.3 2.3 0 01-2.6-2.5v-4.9h-1.4v-.4a16.06 16.06 0 003.3-3.2h.4v3h6.8v.3c-.9.1-.9.6-.4 1.5l1.7 3.4 1-2.5c.7-1.6.5-2.2-.5-2.5v-.2zm-13.1 2.7a2.81 2.81 0 00-1.7-1c-.7 0-1.1.3-1.7 1.1v3.1c0 .9.2 1.2 1.3 1.4v.3h-5v-.3c1-.3 1.3-.6 1.3-1.4v-4.1c0-1-.4-1.4-1.4-1.5v-.3l3.4-.3h.3v2.4c.8-1.7 1.6-2.5 2.6-2.5a1.97 1.97 0 011.4.6l-.5 2.5zm-7.3.5H692c-.1 2.5 1.3 3.8 2.7 3.8a3.45 3.45 0 002.8-1.7h.3a4.2 4.2 0 01-4.1 2.7 4.02 4.02 0 01-4.2-4.1 4.18 4.18 0 014.3-4.2 3.85 3.85 0 014 3.5zm-5.8-.5h3.3c0-1.5-.8-2.5-1.7-2.5s-1.6 1-1.6 2.5zm-10.1-7.8v6.2a3.7 3.7 0 012.9-1.4 3.77 3.77 0 013.7 4c0 2.4-1.4 4.3-5.2 4.3a21.7 21.7 0 01-3.8-.3v-11.1q0-.9-1.2-1.2v-.3l3.1-.2zm0 6.7v4.5c0 .9.3 1.3 1.2 1.3 1.7 0 2.8-1 2.8-3.5 0-1.9-.9-3.2-2.3-3.2-.6 0-1 .2-1.7.9zm-6.2-6.7a1.24 1.24 0 011.3 1.2 1.35 1.35 0 01-1.3 1.4 1.42 1.42 0 01-1.4-1.3 1.5 1.5 0 011.4-1.3zm1.2 11.2a1.18 1.18 0 001.2 1.3v.3h-4.9v-.3c1-.2 1.3-.5 1.3-1.5v-4.2c0-.9-.3-1.2-1.4-1.4v-.3l3.4-.3h.3v6.4zm-9.2-.4c0 1 .4 1.3 1.9 1.3s2.2-.4 3.1-2.4h.4l-.4 3.1h-9.1v-.3c1.4-.3 1.5-.6 1.5-1.9v-7.7c0-1-.3-1.3-1.5-1.7v-.3h5.7v.3c-1.2.3-1.5.6-1.5 1.6l-.1 8zM660.8 20.84c.1.1-.1.3-.1.3l-3 3.4a21.63 21.63 0 01.3 8.4 17.7 17.7 0 00-11.5 4.7 24.02 24.02 0 00-3.6 4.6c-.4 0-.7-.3-1-.4a18.52 18.52 0 014.1-5 19.68 19.68 0 014.7-3 14.13 14.13 0 00-7.7 4.7 20.8 20.8 0 00-1.9 2.8 4.58 4.58 0 00-.6-.4c-2.5-2.6-3.8-6.7-3.8-11.3a21.87 21.87 0 011.1-7l-.1-1.7h-.7a.9.9 0 01-.7-.3c-.3-.1-.3-.3-.4-.4l-.2-.4a.86.86 0 01-.6-.7 1.45 1.45 0 01.2-.7c0-.3-.2-.9-.1-1.1-.3 0-.6-.4-.8-.7a.82.82 0 01.1-.7.46.46 0 01-.5-.3.64.64 0 010-.6 2.6 2.6 0 01-1.3-2.5 5.26 5.26 0 01.6-2v-.6a.58.58 0 01.7 0l.6-.6a2.47 2.47 0 01-.4-1.9 2.56 2.56 0 012.7-2.1 7.18 7.18 0 011.7.2 1.58 1.58 0 001.3-.5 1.2 1.2 0 01.6 1.2 1.23 1.23 0 001-.2 1.45 1.45 0 00.8-.9 1.73 1.73 0 01.9 1.5 1.87 1.87 0 01-1.3 1.9c-.7.3-1.5.4-1.6.9 0 .3 0 .3.1.4l.5-.1a.43.43 0 01.4.4.52.52 0 00-.2.4 9.69 9.69 0 00.3 1.1 2.42 2.42 0 01.1 1.7 3.77 3.77 0 01-.9 1.5 15.94 15.94 0 00.8 2.3l.2-.2a9.92 9.92 0 017.1-1.6l.4-2.2s0-.3.2-.3.2.3.2.3l.6 2.5a9.64 9.64 0 014.2 2.6l2.1-1.7s.2-.2.3-.2c.1.1 0 .4 0 .4l-1.2 3.1a11.09 11.09 0 01.9 1.9l3.6-1.3c.5.4.7.3.8.4z"/><path fill="#fff" d="M638.3 19.24a2.37 2.37 0 00-1-.3 1.69 1.69 0 00-1 .3c-.1-.1-.2-.3-.1-.4a1.24 1.24 0 01.2-.3v-1.9s.5-.4.7-.4c.1 0 .2-.1.2-.3l.8.8a1.4 1.4 0 01.3.9v1c.1.1.2.2.2.3l-.3.3zm.7 5.7c-.1-.1-.4-7.2-.4-7.5l.4-.3v-.1a.78.78 0 01-.7-.3l-.1-2.2a1.9 1.9 0 01-.9-.3.59.59 0 01-.1-.8 3.5 3.5 0 001.2.3c.1 0 .3.2.4.3.1 0 .4.2.5.2s.2.3.2.4l3.6 9.3.3 1.7.6 1.5a3.52 3.52 0 00-1.9.9 5.82 5.82 0 00-1.3 2.6c0-.2-1.7-5.5-1.8-5.7zm4.5 8.8a8.51 8.51 0 01-1 3.5c-.3.6-1.3 1.7-1.6 2.2a11.88 11.88 0 00.6-3.7 17.78 17.78 0 010-4 4.33 4.33 0 011.5-2.9 3.1 3.1 0 012.8-.6l1.1 2.1a2.66 2.66 0 00-1.9.4c-1.1.6-1.4 1.5-1.5 3zm.1 2.8a16.37 16.37 0 00.7-2.8 3.98 3.98 0 011.1-2.5 1.9 1.9 0 011.4-.3l1.2 2.4c.1.3.4.3.7.3a18.93 18.93 0 00-5.1 2.9zm10.4-8a4.3 4.3 0 011-.9v1.5s1 1.9 1.4 2.8h-1.1a4.4 4.4 0 01-.6-1.2l-.7-1.4a.76.76 0 010-.8zm-16.8-15.5c-.9 0-1.5.3-1.5.6a.96.96 0 01.2-.9 1.84 1.84 0 011.3-.4 2.59 2.59 0 011.4.4.85.85 0 01.3.9 1.92 1.92 0 00-1.7-.6zm-1.8-5.2a1.62 1.62 0 011.6-1.5l1.5.1a5.07 5.07 0 001.3-.2.85.85 0 010 .7 2.35 2.35 0 001.2.2 1.84 1.84 0 001.4-.6 1.2 1.2 0 01-.3 1.1 22.9 22.9 0 01-2.3 1.1 3.4 3.4 0 00-.6.6.52.52 0 00-.4-.2c-.2 0-.3.3-.6.3s-.6-.6-.9-.6c-.6 0-.9.4-1.1.4a.85.85 0 01-.5-.3 1.68 1.68 0 01-.3-1.1zm1.8 3.3c-2 0-3.4.8-3.4 2a1.85 1.85 0 01-.2-.7c0-.4.3-.7.4-1a1.95 1.95 0 00-.1-.8c.1 0 .4.1.6.1.3 0 .3-.1.4-.3a.78.78 0 01.4-.4c.2 0 .6.2.9.1.4-.1.6-.5.9-.5s.6.4.9.5c.3 0 .8-.3 1.1-.2s.1.6.3.8.7 0 .9-.1c0 .2-.1.3 0 .6a4.87 4.87 0 00.4 1.1 2.77 2.77 0 01-.1.9c0-1-1-2.1-3.4-2.1zm-1.4 4.4h-.8a.63.63 0 010-.6h.3l-.1-.4a2.6 2.6 0 011.4-.6v.4a.31.31 0 01-.1.2l-.4.2h.7c.1 0 .2 0 .2.2s0 .3-.1.4a.6.6 0 01-.4.1.37.37 0 01.1.3c0 .1 0 .2-.2.3a.76.76 0 00-.4.2 1.14 1.14 0 00-.3.6c-.2-.1-.3-.5-.4-.7a.65.65 0 01.5-.6zm18.9 9.1c0 .1.1.3 0 .4a10.95 10.95 0 00-1-1.1l-.6.8 1.1 1a1.65 1.65 0 01-1 .2c-.5-.1-1.6-.8-1.7-1.4a6.87 6.87 0 00-2.4-.5 11.28 11.28 0 00-1.4.2c-.2.1-.3 0-.5-.1h-.1l.4.7c.1.1.4-.1.7-.1a3.52 3.52 0 012 .3c.4.3 1.6 1.2 1.9 1.5a.53.53 0 00.8.1c.2-.1.4-.1.4.1s-.1.4 0 .5c.2.1.3-.1.4-.2a.3.3 0 01.4 0l-.6.8a1.61 1.61 0 01-.9.3l-.1.4 1.1 2.5.6 1.1a20.1 20.1 0 00-4.8 1.3l-.4-1.5 1-1.4a8.4 8.4 0 01-1.4.4s-.6.1-.7-.4l-.1-.4c0-.1.1-.3.2-.3h.3l.2-.3-.4-.1-.4.1c-.1 0-.2-.2-.2-.3h1.2v-.1a3.38 3.38 0 00-.8-.3.44.44 0 00-.3.1v-.3l.6-.5-.7-.3-.4.1.3-1.5-.1-.3-.6.4v-.9c0-.2.3-.5.6-.6v-.5c-.3.2-.6.3-.7.5a.92.92 0 00-.3.9.83.83 0 01-.2-.8 1.77 1.77 0 01.5-.8 2.02 2.02 0 010-1.1 2.65 2.65 0 012.8-2 5.78 5.78 0 013.4 1.4c1.2.9 1.9 1.7 1.9 2zm-2.1-.3l.6-.8a7.94 7.94 0 00-1.9-1.1l-.4 1.1c.3.1 1.3.6 1.7.8zm-2.2-1l.2-1.2a2.77 2.77 0 00-1.3-.3 2.5 2.5 0 00-1.3.3l.4 1a6.48 6.48 0 012 .2zm-3.5.8a7.05 7.05 0 01.9-.7l-.4-.9a1.94 1.94 0 00-.5 1.6zm1.1 1.7v.4c.2 0 .5.3.6.5l.3-.1-.2-.2.5-.1c.3 0 .6 0 .7.2l.8-.2.1-.1c-.5-.4-1.3-.9-1.9-.7a3.02 3.02 0 00-.9.3zm7.8-.6a2.93 2.93 0 00-.7-1.6l4.5-2-3.8 3.6zm-12.5-7.5l3.9 3.5a3.18 3.18 0 00-1.1 1.2zm2.2 6.9a1.42 1.42 0 00-.2.6v.6l-1.2-.9-.1-.9v-.1zm7-3l3.9-3.9-2.3 4.9c-.3-.1-1.2-.9-1.6-1zm-3.7-1l.8-6.2 1.1 6.3a5.75 5.75 0 00-1.9-.1z"/><path fill="#cf3339" fill-rule="evenodd" d="M541.55 87.97c-.09 0-.18 0-.18-.09v-.09a20.34 20.34 0 0126.8-10.43 20.04 20.04 0 0110.43 10.43v.09a.09.09 0 01-.1.09h-.08a11.68 11.68 0 00-5.66-1.42 10.6 10.6 0 00-6.28 1.77h-.17a12.06 12.06 0 00-12.65 0h-.17a10.6 10.6 0 00-6.28-1.77 11.68 11.68 0 00-5.66 1.42z"/><path fill="#cf3339" fill-rule="evenodd" d="M561 88.15c0-.1 0-.1-.09-.1-.35 0-.7-.08-.97-.08h-.88a.09.09 0 00-.09.09v16.62a1.68 1.68 0 01-1.68 1.68 1.62 1.62 0 01-1.6-1.15 1.05 1.05 0 00-1.32-.62 1.03 1.03 0 00-.7.97v.27a3.73 3.73 0 004.68 2.39 3.8 3.8 0 002.57-3.54z"/><path fill="#231f20" d="M444.38 108.3h-3.35l-2.22-7.16h-2.83l-.8 7.16h-3.35l2.03-18.12h6.63c3.98 0 5.84.97 5.3 5.57-.35 3.18-1.59 4.42-3.71 5.04zm-5.04-9.99c1.6 0 2.65-.09 3-2.74s-.97-2.56-2.47-2.56h-3.1l-.61 5.3zM533.42 108.3h-3.45l-2.2-7.16h-2.75l-.8 7.16h-3.36l2.04-18.12h6.63c3.98 0 5.83.97 5.3 5.57-.36 3.18-1.6 4.42-3.72 5.04zm-4.96-9.99c1.6 0 2.65-.09 3-2.74s-.88-2.56-2.47-2.56h-3l-.62 5.3zM462.42 90.18h3.54l2.47 13.26 5.22-13.26h3.45l-7.52 18.18h-3.45zM480.28 90.18h10.7l-.36 3h-7.25l-.44 4.34h5.93l-.36 3.1h-5.83l-.53 4.68h7.51l-.35 3h-10.97zM508.4 90.18h10.7l-.36 3h-7.25l-.44 4.34h5.92l-.35 3.1h-5.84l-.53 4.68h7.52l-.36 3h-10.96zM536.25 108.04l.44-3a48.66 48.66 0 005.04.52c2.3 0 2.92-.35 3.1-2.2.17-1.69-.1-1.95-2.66-2.75-4.07-1.32-4.95-1.94-4.6-5.75.44-3.62 2.3-4.95 6.37-4.95a24.44 24.44 0 015.04.53l-.36 2.89a31.29 31.29 0 00-4.95-.45c-1.86 0-2.47.45-2.65 1.95-.18 1.68.18 1.86 2.65 2.65 3.9 1.33 5.13 1.95 4.69 5.75-.44 3.98-2.3 5.22-6.99 5.22a25.13 25.13 0 01-5.12-.45M449.69 108.3h-3.45l7.78-18.21h3.27l3.63 18.21h-3.54l-.53-3h-5.93zm5.48-13.44l-3 7.6h4.15zM504.5 105.3h-7.95l1.68-15.12h-3.45l-2.03 18.12h8.57c1.95 0 2.74-1.06 3.18-3M416.35 90.18l-.35 3h5.66l-1.68 15.12h3.45l1.68-15.12h2.83c1.94 0 2.74-1.15 3.18-3z"/><g fill="#2480fe" fill-rule="evenodd"><path d="M499 16.68a2.89 2.89 0 00-2.7-1.3h-9l-9.4 19.8h4.7l3.6-7.8h2.5a1.6 1.6 0 011.1.5 2.19 2.19 0 01-.3 2.2 43.99 43.99 0 00-2.1 5h4.7a13.34 13.34 0 01.5-1.9c.4-.8 1.4-3.7 1.4-3.7a2.73 2.73 0 00-1-3.7 4.43 4.43 0 003.8-2.6 68 68 0 011.5-3.2 2.4 2.4 0 00.7-3.3zm-4.8 3.4l-.8 1.7-.4 1.1a1.98 1.98 0 01-1.8 1.2h-3.3l2.5-5.4h3.6c.2 0 .4.1.4.3a1.54 1.54 0 01-.2 1.1zM448.9 16.68a2.89 2.89 0 00-2.7-1.3h-9l-9.4 19.8h4.7l3.6-7.8h2.5a1.6 1.6 0 011.1.5 2.19 2.19 0 01-.3 2.2 43.99 43.99 0 00-2.1 5h4.7a13.34 13.34 0 01.5-1.9c.4-.8 1.4-3.7 1.4-3.7a2.73 2.73 0 00-1-3.7 4.43 4.43 0 003.8-2.6 68 68 0 011.5-3.2 2.32 2.32 0 00.7-3.3zm-4.7 3.4l-.9 1.7-.4 1.1a1.98 1.98 0 01-1.8 1.2h-3.3l2.6-5.4h3.5c.2 0 .4.1.4.3a.91.91 0 01-.1 1.1zM460.2 31.28c1-1.9 2.2-4.7 3.7-7.7l1.6-3.4c1.6-3.5-.3-5-2.6-5h-5.7a5.29 5.29 0 00-5.2 3.5c-.5 1.2-1.6 3.3-2.7 5.6l-2.4 5c-2.4 5 1.2 5.9 2.9 5.9h3.7c3.5.2 5.3-.9 6.7-3.9zm-6.4.3h-2.1c-.4 0-1.1-.1-.5-1.3.8-1.8 4.1-8.9 4.8-10.4a1.71 1.71 0 011.6-1.2h2.6c.5-.1 1 .3.5 1.1l-4.7 10.2c-.7 1.4-1.2 1.6-2.2 1.6zM479.1 15.28h-4.8a5.67 5.67 0 00-5.5 3.5c-.9 1.9-5 10.6-5 10.6-1.5 3.2-.7 5.9 3.5 5.9h3.7c3 0 4.5-.4 5.8-3.4l3.5-7.7h-7l-1.5 3.3h2.4l-1.3 3a1.51 1.51 0 01-1.6 1.1h-2.4c-.7 0-1-.4-.5-1.3.5-1.2 5-10.4 5-10.4.5-1 .8-1.2 1.5-1.2h2.6c.6 0 1 .3.5 1.1-.1.3-1.2 2.4-1.2 2.4h4.5l1-2.1c1.2-3.2-.1-4.7-3.2-4.8zM536 35.28l9.4-19.9h-4.8l-9.4 19.9zM557.3 15.38l-10.9 17.5 5.5-17.5h-5l-4.6 19.9h6.5l13.6-19.9zM520 28.28l-.4-7.3a1.64 1.64 0 011.2-2c.2 0 .4-.1.6 0h3.3l1.6-3.5h-5.5c-4.4 0-5.9 2.7-5.7 5.8.1 1.9.4 8.2.4 8.2.1 1.5-.5 2.2-1.9 2.2h-3.7l-1.6 3.7h5.9c3.9-.1 6.1-2.7 5.8-7.1zM531.2 28.28l-.4-7.3a1.64 1.64 0 011.2-2c.2 0 .4-.1.6 0h3.3l1.6-3.5H532c-3.7 0-6 2-5.7 5.8.1 1.9.4 8.2.4 8.2.1 1.5-.5 2.2-1.9 2.2h-3.7l-1.7 3.7h5.8c4.3-.1 6.1-3.3 6-7.1zM504 15.38l-9.3 19.9h11.7l1.7-3.7H501l2.6-5.3h6l1.6-3.3h-6.1l1.9-4.1h6.2l1.6-3.5zM564 15.38l-9.3 19.9h11.7l1.7-3.7H561l2.6-5.3h6l1.6-3.3h-6.1l1.9-4.1h6.2c.1 0 1.6-3.5 1.6-3.5zM421.7 24.88l2.9-6.2h3c.6 0 1.2.4.5 1.6-.9 1.9-1.5 3.2-1.6 3.3a1.71 1.71 0 01-1.8 1.2l-3 .1zm-1.6 3.4h4.6a5.46 5.46 0 005.8-3.5c.4-.8 1.2-2.5 2.1-4.4 1.6-3.5-.4-5-2.4-5h-8.9l-9.3 19.9h4.9l3.2-7zM577.9 16.78a2.43 2.43 0 012.4-2.4h.1a2.46 2.46 0 012.5 2.4 2.5 2.5 0 01-5 0zm4.6 0a2.15 2.15 0 10-2.2 2.1 2.1 2.1 0 002.2-1.9zm-.9 1.4h-.4l-.8-1.3h-.6v1.3h-.4v-2.8h1.2a1.7 1.7 0 01.7.1.82.82 0 01.4.6c0 .5-.4.7-.9.7l.8 1.4zm-1.3-1.6c.4 0 1 .1 1-.4 0-.4-.4-.5-.7-.5h-.8v1h.5z"/></g><g><g fill="#fc2929" fill-rule="evenodd"><path d="M227.5 106.14a8.18 8.18 0 01-4.8-1.4 3.51 3.51 0 01-1.7-2.8 3.34 3.34 0 011.7-2.7 8.1 8.1 0 014.8-1.3 9.47 9.47 0 014.9 1.3 3.5 3.5 0 011.7 2.7c-.1 2.4-3.1 4.2-6.6 4.2zm-7.8-5.4a5.1 5.1 0 00-2.1-2.5 13.56 13.56 0 002 .2 14.91 14.91 0 002.1-.2 4.6 4.6 0 00-2 2.5zm-7.8 5.4a8.18 8.18 0 01-4.8-1.4 3.51 3.51 0 01-1.7-2.8 3.34 3.34 0 011.7-2.7 8.1 8.1 0 014.8-1.3 9.47 9.47 0 014.9 1.3 3.5 3.5 0 011.7 2.7c0 2.4-3.1 4.2-6.6 4.2zm1.3-13.3a3.34 3.34 0 011.7-2.7 8.1 8.1 0 014.8-1.3 8.88 8.88 0 014.8 1.3 3.5 3.5 0 011.7 2.7c0 2.3-3.1 4.1-6.6 4.1a8.18 8.18 0 01-4.8-1.4 3.24 3.24 0 01-1.6-2.7zm14.3 3.7a14.91 14.91 0 00-2.1.2 4.54 4.54 0 002.3-3.9c0-3.1-3.6-5.5-8-5.5s-8 2.4-8 5.5a4.76 4.76 0 002.3 3.9 14.92 14.92 0 00-2.1-.2c-4.4 0-8 2.4-8 5.5s3.5 5.5 8 5.5c3.8 0 7-1.8 7.8-4.2.8 2.4 4 4.2 7.8 4.2 4.4 0 8.1-2.5 8.1-5.5s-3.7-5.5-8.1-5.5zm4 3.2a8.5 8.5 0 00-8 0 2.45 2.45 0 000 4.6 7.92 7.92 0 004 1 8.57 8.57 0 004.1-1 2.8 2.8 0 001.6-2.3 2.91 2.91 0 00-1.7-2.3zm-15.6 0a8.5 8.5 0 00-8 0 2.45 2.45 0 000 4.6 7.92 7.92 0 004 1 8.57 8.57 0 004.1-1 2.8 2.8 0 001.6-2.3 2.91 2.91 0 00-1.7-2.3zm-.2-4.6a7.92 7.92 0 004 1 8.57 8.57 0 004.1-1 2.45 2.45 0 000-4.6 8.5 8.5 0 00-8 0 2.8 2.8 0 00-1.6 2.3 2.53 2.53 0 001.5 2.3zm36-6l-.7 3.4h-.1a3.04 3.04 0 00-.8-.8 4.78 4.78 0 00-2.8-1 3.08 3.08 0 00-1.9.6 1.99 1.99 0 00-.7 1.6c0 1.2.8 1.8 2.3 2.6l.6.3c1.2.8 3.2 2 3.2 4.8 0 3.1-2.1 6.3-7.1 6.3a11.33 11.33 0 01-3.6-.6 5.07 5.07 0 01-1.6-.9v-.2l.7-3.3h.1a5.3 5.3 0 001.2 1 5.47 5.47 0 002.8.9c1.8 0 3.1-1 3.1-2.5 0-1.4-1.1-2-2.3-2.7l-.8-.5c-1.3-.8-3-1.9-3-4.6a5.84 5.84 0 011.3-3.8 6.41 6.41 0 015.2-2.2 8.54 8.54 0 014.7 1.3zm8.3 6.4l-.2.1-2.2-.1-1 4.7a22.12 22.12 0 00-.5 2.5.97.97 0 00.4.9 1.08 1.08 0 00.8.2 2.38 2.38 0 001.2-.3l.1.1-.5 2.7-.2.2a7.61 7.61 0 01-2.1.3c-2.1 0-3.6-.7-3.6-3a24.64 24.64 0 01.8-4.6l.8-3.7-1.7.1-.1-.1.5-2.6.2-.1h1.8l.7-3.5.1-.2a35.95 35.95 0 003.9-1.2l.1.1-.5 2.2-.6 2.5 2.3-.1.1.1zm7.8 7.1a4.94 4.94 0 01-1.9 1.6 1.82 1.82 0 01-2.2-.3 1.84 1.84 0 01.2-2.5c1-1.2 4.4-1.2 4.4-1.2zm3.3-9.2a6.57 6.57 0 00-3.9-.8 24.5 24.5 0 00-2.7.2 10.8 10.8 0 00-1.7.4l-.1.1-.6 2.9.2.1a9.12 9.12 0 011.6-.6 6.46 6.46 0 012-.4 4.48 4.48 0 012 .4 1.6 1.6 0 01.8 1.4v.7h-.6a2.49 2.49 0 00-.8.1c-.5.1-1.1.1-1.5.2-1.2.2-4.5.7-5.5 2.8a4.69 4.69 0 00.2 5.2 2.59 2.59 0 001.7.9h.2a5.96 5.96 0 004.9-2l-.3 1.5.1.1 3.2-.1.1-.1 1.9-9.2c0-.2.1-.5.1-.7v-.6a2.67 2.67 0 00-1.3-2.5zm77.4 2.4a10.05 10.05 0 01-.4 2.5l-1.6 8.1-.1.1-3.7.1-.1-.1s1.9-9 1.9-9.4a1.44 1.44 0 00-1.3-1.5h-.1a3.38 3.38 0 00-1.9.9l-2 9.9-.1.1-1.6.1h-2.1v-.2l.6-3.1c.6-2.6 1.3-6.1 1.3-6.4a1.44 1.44 0 00-1.3-1.5h-.1a3.38 3.38 0 00-1.9.9l-2 9.9-.1.1h-.6l-3.2.1-.1-.1 2.8-13.8.1-.1 3.7-.3.2.1-.4 1.9a6.3 6.3 0 014.1-1.9 2.7 2.7 0 012.6 1.9s2.1-2 4.4-1.9a3.18 3.18 0 013.3 2.8 1.46 1.46 0 00-.3.8zm-19-3.4l-.8 4-.2.2c-.3 0-.6-.1-.9-.1a4.95 4.95 0 00-3.8 1.8l-1.6 8.2-.1.1-3.5.1-.1-.1 2.8-13.8.2-.1 3.5-.3.1.1-.4 2 .2-.1a8.01 8.01 0 012.1-1.5 4.28 4.28 0 012.2-.6h.2zm-15.6 10.2a4.94 4.94 0 01-1.9 1.6 1.82 1.82 0 01-2.2-.3 1.84 1.84 0 01.2-2.5c1-1.2 4.4-1.2 4.4-1.2zm3.3-9.2a7.41 7.41 0 00-3.9-.8 24.5 24.5 0 00-2.7.2 10.8 10.8 0 00-1.7.4l-.1.1-.6 2.9.2.1a9.12 9.12 0 011.6-.6 7.1 7.1 0 012-.4 4.48 4.48 0 012 .4 1.6 1.6 0 01.8 1.4v.7h-.6a2.49 2.49 0 00-.8.1c-.5.1-1.1.1-1.5.2-1.2.2-4.5.7-5.5 2.8a4.69 4.69 0 00.2 5.2 2.59 2.59 0 001.7.9h.2a5.96 5.96 0 004.9-2l-.3 1.5.1.1 3.2-.1.1-.1 1.9-9.2c0-.2.1-.5.1-.7v-.6a2.67 2.67 0 00-1.3-2.5zm-8.3-2.3l-.1.1h-5.9l-1 4.7 5.1-.2.1.1c-.4 1.4-.5 1.7-.8 2.9l-.1.1h-4.9l-.6 3.3-.8 4.3-.1.1-4.2.1-.1-.1.7-3.6 1.1-5.1c.8-4 1.1-5.3 1.9-9.6l.1-.1h6.1l3.9-.1.1.1zm-27.4 4.4l-.2.1-2.2-.1-1 4.7a22.12 22.12 0 00-.5 2.5.97.97 0 00.4.9 1.08 1.08 0 00.8.2 2.38 2.38 0 001.2-.3l.1.1-.5 2.7-.2.2a7.61 7.61 0 01-2.1.3c-2.1 0-3.6-.7-3.6-3a24.64 24.64 0 01.8-4.6l.8-3.7-1.7.1-.1-.1.5-2.6.2-.1h1.8l.7-3.5.1-.2a35.95 35.95 0 003.9-1.2l.1.1-.5 2.2-.6 2.5 2.3-.1.1.1zm8.8 2.5l-2.3.1h-2.2v-.1c0-.2.1-.3.2-.5a5.48 5.48 0 01.8-1.5c.1-.1.1-.2.2-.2a2.34 2.34 0 011.8-.8 1.6 1.6 0 011.4.8 6.91 6.91 0 01.3.8v.3c-.1.3-.1.7-.2 1.1zm1.5-4.8a6.41 6.41 0 00-3-.8 6.24 6.24 0 00-5.4 2.9 10.64 10.64 0 00-1.7 5.8 6.12 6.12 0 001.1 3.9c.4.6 1.5 2 4.9 2a7.46 7.46 0 004.1-.9l.1-.1c.1-.5.5-2.8.7-3.3l-.1-.1a6.47 6.47 0 01-4 1.6 2.93 2.93 0 01-2.2-.7 2.73 2.73 0 01-.8-1.9v-1h.1c2.3-.1 3.5-.1 5.4-.1h2.2l.1-.1a10.55 10.55 0 00.4-3.1 4.76 4.76 0 00-1.9-4.1zM351.3 94.24h.3a.46.46 0 00.5-.4c0-.3-.2-.4-.5-.4h-.3zm-.4-1c.2 0 .5-.1.7 0a1.08 1.08 0 01.8.2.76.76 0 01.2.5.63.63 0 01-.5.6 1 1 0 01.4.5 6.38 6.38 0 01.2.7h-.5c-.1-.2-.1-.4-.2-.6-.1-.3-.2-.4-.5-.4h-.2v1h-.5v-2.5z"/><path d="M351.7 96.24a1.8 1.8 0 111.8-1.8 1.8 1.8 0 01-1.8 1.8m0-4.1a2.2 2.2 0 102.2 2.2 2.22 2.22 0 00-2.2-2.2"/></g></g><g><path fill="#0076c0" d="M354.46 36.1a1.75 1.75 0 111.7-1.8 1.67 1.67 0 01-1.5 1.8zm0-3.3a1.5 1.5 0 101.4 1.6 1.42 1.42 0 00-1.2-1.5c-.1-.1-.1-.1-.2-.1zm.4 2.5l-.5-.8h-.2v.8h-.4v-2h.6c.4 0 .7.2.7.5a.51.51 0 01-.4.5l.5.8zm-.4-1.7h-.3v.5h.3c.2 0 .4-.1.4-.3s-.3-.2-.4-.2zm-91.1-18.8l-13.2 21.3h4.5s3.3-5.3 3.4-5.5h7.6v5.5h4.3V14.8zm2.3 12.1h-5.3c.4-.5 5.2-8.5 5.2-8.5l.1 8.5zm7.2-12.1h4.1v21.3h-4.1zm7.3 0h4.1v21.3h-4.1zm13.2 11.3c-2.2-.6-2.8-.9-2.7-1.9.1-.9.7-1.3 1.9-1.3a10.64 10.64 0 014.7 1.3l.3.2.5-3.6-.2-.1a14.08 14.08 0 00-5.4-1.1 6.49 6.49 0 00-4.6 1.6 4.57 4.57 0 00-1.3 3.1c.1 3.3 1.6 4.2 5.4 5.2 2.4.6 3 1 3 2.1s-.6 1.4-2.3 1.4a11.21 11.21 0 01-5.5-1.8l-.3-.2-.5 3.6.1.1a12.42 12.42 0 006 1.5 6.82 6.82 0 005.1-1.6 4.67 4.67 0 001.3-3.4c.1-3.3-1.7-4.1-5.5-5.1zm15.8 6.5l-.2.1a4.87 4.87 0 01-1.2.1c-1.3 0-1.8-.5-1.8-1.8v-7.6h3l.1-3.5h-3.1v-5.1h-4.1v5.1h-2.1v3.5h2.1v8.1c0 3.2 1.7 4.8 5.2 4.8a9.86 9.86 0 002.4-.3h.2zm8.8-12.9a14.24 14.24 0 00-6.1 1.3l-.2.1.5 3.4.3-.1a14.8 14.8 0 015-1.3q2.4 0 2.4 2.1v.4c-6.2.6-9.1 2.7-9.1 6.4a4.23 4.23 0 003.9 4.5h.6a6.5 6.5 0 004.9-2.1c.1.4.3 1.8.3 1.8h3.6V25.1c0-3.7-2-5.4-6.1-5.4zm-1.4 13.6a1.55 1.55 0 01-1.7-1.3v-.3c0-1.8 1.7-3 5-3.4v3.5a5.9 5.9 0 01-3.3 1.5zm18.2-.7l-.2.1a4.87 4.87 0 01-1.2.1c-1.3 0-1.8-.5-1.8-1.8v-7.6h3l.1-3.5h-3.1v-5.1h-4.1v5.1h-2.1v3.5h2.1v8.1c0 3.2 1.7 4.8 5.2 4.8a9.86 9.86 0 002.4-.3h.2l-.5-3.4zm14.2-1.3a8.65 8.65 0 01-5.1 1.9c-2.2 0-3.6-1.5-3.8-4.1h9.7V28c0-5.5-2.2-8.2-6.8-8.3a6.12 6.12 0 00-4.8 1.9 8.86 8.86 0 00-2.2 6.6c0 5.2 3 8.3 7.6 8.3a10.56 10.56 0 006.2-1.9l.1-.1-.5-3.4-.4.2zm-9-5c.2-2.3 1.2-3.7 2.8-3.7 2.1 0 2.7 2 2.8 3.7zM225.76 7.5c-12.1 0-21.9 7.4-21.9 16.6s9.8 17.2 21.9 17.2 21.9-8.1 21.9-17.2c.1-9.2-9.8-16.6-21.9-16.6zm0 32.7c-10.5 0-19-7.5-19-16s8.5-15.5 19-15.5 19 7 19 15.5-8.5 16-19 16z"/><path fill="#0076c0" d="M221.64 31.19l.4.4.7.4.7.4.1.1.5.3.9.4h.2l1.2-.1a3.52 3.52 0 012 .3.68.68 0 01.4.8s.6-.4.4-.9c-.1-.4-.5-1-2.2-1.1h-1.4l-.7-.5-.3-.2c-.4-.2-.7-.3-1.1-.5l-.6-.1-.5-.8-.2-.3-.6-.9-.3-.4-.4-.5a1.69 1.69 0 00.3-1l-.3.3a3.5 3.5 0 01-1.4.6l-.2.1 1.7 2.2zm2.7-1.1l.1.2a2.5 2.5 0 01.7.4 6.11 6.11 0 011.4.7l.8.4h1.4a2.13 2.13 0 011.5.7.91.91 0 01-.1 1.1 1.56 1.56 0 00.8-1.3c-.1-.7-.7-1.4-3.1-1.4l-.6-.4-.2-.1-1.1-.5-.9-.3c-.1-.1-.1-.3-.2-.4a7.1 7.1 0 00-1-1.4l-.1-.1-.6-.9a1.7 1.7 0 000-1c-.1.1-.2.3-.3.4a5.5 5.5 0 01-.9.7l-.2.1 2.1 3 .5.1zm1-5.4a1.73 1.73 0 00-.1-1l-.1.3a2.05 2.05 0 01-.8.8l-.2.2 1.8 2.5.1.2.4.4a2.5 2.5 0 00.7.4l.3.2.8.4.7.4h.1l1.1.1a2.84 2.84 0 011.3.4 1.25 1.25 0 01.4 1.3 1.5 1.5 0 00.3-1.8 1.91 1.91 0 00-1.4-.7l-1.1-.2-.6-.4-.8-.4-.2-.1-.6-.3-2.1-2.7zm-7.3-14.9l.3.3.9.8.5.4c.4.4.4.5.4.6s-.1.1-.2.2c-.1 0-.1.1-.2.1v.4h.2a4.94 4.94 0 013 1.4 8.04 8.04 0 012.3 4.8l1 5 .4.8.1.2.2.4c.1.2.2.5.4.6l.5.4.7.7.2.2.4.4 1 .2c1.7.3 1.6 1.3 1.6 1.3s1-1.5-1.4-2.1l-.8-.2-.3-.4-.1-.1-.7-.7-.4-.4-.3-.9-.4-1.1-.3-1.5-.1-.5-.4-2.1.1-.4a11.42 11.42 0 01.9-2.6 5.8 5.8 0 011.6-1.9 10.7 10.7 0 012.7-.9c.2 0 .3-.2.4-.4v-.1h-.1a1.14 1.14 0 01-.8-.3v-.1c0-.1.1-.2.1-.3l.5-.5.3-.3 1.4-1.4-1.2-.4-1.3 1.3a15.06 15.06 0 01-2.3 2.1 5.26 5.26 0 00-2.7 2.6l-.3.8a7.45 7.45 0 00-1.3-2.5 6.58 6.58 0 00-2.3-1.7c-.5-.4-2.2-2.1-3.1-2.8zm4.6 25.4c-1.5.8-2.4.1-2.1-.7a17.24 17.24 0 002.1.7zm-2.7-1.3c-1.1.3-1.4-.4-1.2-1.1a2.54 2.54 0 001.2 1.1zm-9.6-19c.1.1.2.1.3.2 0 0 1.3 1.1 1.5 1.3l-.5 1.6a10.8 10.8 0 00-1 3.5v.2l.4 2.2v.2a19.67 19.67 0 01.6 3.5.76.76 0 00.2.5 17.89 17.89 0 013 4.7c0 .1.1.1.1.2a1.61 1.61 0 00.4.7.9.9 0 001 0 4.2 4.2 0 001.4-1.8c.1.1.4.4.4.5a1.42 1.42 0 00.1 2 1.3 1.3 0 001.3.3c-.4 1.2 1.1 2.1 2.5 1.4a1.48 1.48 0 001.3 1.1 7.58 7.58 0 002.6.1 10.95 10.95 0 004.3-1.1 6.67 6.67 0 002.7-2.3l.2-.2a1.8 1.8 0 00.5.7 1.61 1.61 0 001.3.6 1.02 1.02 0 00.6-.5 21.27 21.27 0 013.1-4.7l.1-.2c.3-.9 1.1-3.2 1.5-4.4l.4-.9.1-.2v-1.1a16.11 16.11 0 00-.6-4.4c-.2-.5-.4-1-.6-1.4l-.3-.4a7.83 7.83 0 012-1.6h.1l-.9-1c-.2.1-.4.3-.6.4a1.79 1.79 0 01-1.7.4 2.01 2.01 0 01-.8-.4l-.1-.1h-.4l.2.2c.3.4.6.9.9 1.3l.2.4.2.4v.1l.2.5v.1l.1.3.4 1.5a13.06 13.06 0 01.5 3.9v.1l-.5 1.4a35.7 35.7 0 00-1.3 4.1v.1a17.48 17.48 0 00-2.9 4.2l-.1.2c-.1 0-.3-.2-.4-.2a2.05 2.05 0 01-.5-1.7 2.81 2.81 0 011-2.1c.1-.1.1-.2 0-.2a3.75 3.75 0 01.7-2.9l.2-.1-.1.1a8.1 8.1 0 01-2.7-5.6v-.3l-.3.1c-.1.1-.1.1-.1.2a4.1 4.1 0 00-.1 1.1 7.6 7.6 0 00.3 2.1 8.03 8.03 0 001.5 2.9 3.19 3.19 0 00-.4 2.1v.6a2.95 2.95 0 00-1.1 2.2v.7l-.4.5-.1.1a6.04 6.04 0 01-2.6 2.4 13.46 13.46 0 01-5.9 1.1.65.65 0 01-.6-.6v-.1a.37.37 0 01.1-.3l.2-.2a7.38 7.38 0 003.9-.4l.3-.4.1-.2h-.2a11.13 11.13 0 01-5.7-.7 7.05 7.05 0 01-3.5-3.1l-.4-.5a2.3 2.3 0 00-.4-1.4 4.35 4.35 0 00-.6-.7 5.02 5.02 0 00.2-1.2 2.6 2.6 0 00-.4-1.5 3.18 3.18 0 001.5-2.5 2.28 2.28 0 00-.3-1.1l-.4-.2v.3c.2 1.6-1.3 2.6-2.2 3.3l-.4.1.2.1c.7.4.8 2.1.6 3v.2h.1l.4.3a2.86 2.86 0 01-.2 3.6c-.2.2-.3.2-.3.2-.1 0-.3-.4-.3-.4l-.3-.5a18.71 18.71 0 00-2.5-4.1v-.1a38.55 38.55 0 00-.9-4.9l-.2-.8v-.3a12.07 12.07 0 011.2-4.1l.4-.9.3-.6.1-.1a4.04 4.04 0 011.3-1.3l.3-.2-.3-.1a5.63 5.63 0 00-1.2.4l-.1.1a1.53 1.53 0 01-1.3.2 10.9 10.9 0 00-1.1-.6l-.8.8z"/></g><g><path fill="#004696" d="M24.75 112.34h8.1v-26.8h-7.5v16.7l-2.2-2.1v-13.3a49.18 49.18 0 01.9-11.5 4.66 4.66 0 00-4.1 3.1 4.06 4.06 0 00-3.3 2.6 8.08 8.08 0 00-.7 2.2c-3 .7-3.3 6-3 6.9l-4.6-4.5H.25v26.9h7.5v-16.2l3.6 3.4c.2.5.4.9.6 1.4l-1.4-1.2a6.52 6.52 0 001.2 5l-1.7-1.5a5.82 5.82 0 001.9 4.9l-2.3-1.1a5.65 5.65 0 002.3 4.3l-1.9-.3a4.63 4.63 0 001.9 3s-3.3-.1-4.7-.1a53.21 53.21 0 00-6.9.4 6.79 6.79 0 004.2 1.9l-2.1 1.3a7.69 7.69 0 003 .3l-1.2 1.5a20.48 20.48 0 015.4-1.4c1.3.1 7.3 2.4 11.4 2.4a12.51 12.51 0 006.2-1.9 8.25 8.25 0 012.6-1 2.58 2.58 0 012.1.3c.2-.6.6-2.2-1.8-2.6a1.72 1.72 0 00-1.1-1.1c-1.2-.2-6.6-.6-6.8-.6-.5 0-2-.3-.6-2.3a13.53 13.53 0 01.9-1.1zm-.2 2c1.8.2 3 .2 4.3.4a.96.96 0 01.7.9c-.5-.1-1-.1-1.6-.2l-.1.5a4.96 4.96 0 011.7-.2s1.8 0 1.7 1.2a3.72 3.72 0 00-1.8-.2 9.61 9.61 0 00-2.8 1.1 29.17 29.17 0 01-3.1 1.4l1.9-1.9-1.8-.6 1.5-1.2-2.3-1.2a9.57 9.57 0 011.7 0zm-2.6-4.8c-.9.9-1.9 2.3-1.6 3.3.2.9 1.3 1.3 1.3 1.3l2.5 1.3-1.6 1.4 1.9.6s-1.8 1.9-2 2c-.5.1-1.1.1-1.6.2-4.1 0-9.9-2.4-11.3-2.5a13.03 13.03 0 00-3.9.9l1.2-1.2a14.16 14.16 0 01-2.9.2l2-1.4a8.02 8.02 0 01-4-1.1s3.3-.2 7.7-.2c1.8 0 4.8.2 4.8.2a5.77 5.77 0 01-3.5-3l2.9.5a8.17 8.17 0 01-3.3-4l3.2 1.1a9.32 9.32 0 01-2.9-4.6l2.5 1.6c-.6-.7-2.4-4.2-2.2-5.2l2.3 1.6c-1.2-1.4-2.4-5.1-1.6-6.5a6.29 6.29 0 002.3 3.8c-1-1.5-3.3-6.8-1.2-9.2.5 5.4 2.8 7.2 2.8 7.2-1.9-3-4-12.2 0-14-.8 5.9 1.1 9.1 1.1 9.1-1.2-5.4-1.2-13.2 2.9-13.9a17.26 17.26 0 00-.5 10.3c-.3-13.6 4.1-13.4 4.1-13.4a64.11 64.11 0 00-.7 10.7v19.8a4.63 4.63 0 01-.7 3.1z"/><g fill="#1a1818"><path d="M78.75 91.4a1.7 1.7 0 11-.2 3.4 1.74 1.74 0 01-1.6-1.7 1.76 1.76 0 011.8-1.7M124.35 91.4a1.7 1.7 0 11-.2 3.4 1.74 1.74 0 01-1.6-1.7 1.71 1.71 0 011.8-1.7M63.65 101.9h-.2a9.86 9.86 0 00-2.4.3c-.5.2-1.1.5-1.1 1.1 0 .8.8 1.1 1.4 1.1a2.06 2.06 0 002.3-1.8v-.7zm2.9-1.7v6.3h-2.7v-1.1a4.16 4.16 0 01-3 1.3 3.55 3.55 0 01-3.9-3v-.3c0-3 3.3-3.7 6.5-3.7h.4c0-.9-.4-1.6-2-1.6a4.2 4.2 0 00-2.8 1l-1.6-1.6a5.8 5.8 0 014.5-1.7 4.53 4.53 0 013.7 1.2 4.49 4.49 0 01.9 3.2M72.65 96v-3.3h-3V96h-2v2.5h2v4.4a3.73 3.73 0 00.9 3 3.52 3.52 0 002.6.8 6.2 6.2 0 002.3-.4V104a4.4 4.4 0 01-1.6.2c-.9 0-1.2-.5-1.2-1.3v-4.3h2.8v-2.5zM148.05 100a1.86 1.86 0 00-2-1.9h-.2a2.35 2.35 0 00-2.3 1.9zm3.2 1.4v.8h-7.6a2.57 2.57 0 002.6 2 3.03 3.03 0 002.7-1.2l1.9 1.4a5.64 5.64 0 01-4.6 2.3 5.43 5.43 0 01-5.8-4.9v-.5a5.07 5.07 0 014.8-5.4h.5c3.9-.2 5.5 2.8 5.5 5.5M51.85 91.3v10.4l-6.4-10.4h-4v15.2h3.3V95.8l6.6 10.7h3.8V91.3zM118.65 96l-1.7 6.5-1.7-6.5h-3.1l-1.6 6.5-1.7-6.5h-3.3l3.3 10.4h3l1.8-6.6 2 6.6h2.8l3.3-10.4zM77.35 96h3v10.4h-3zM122.85 96h3v10.4h-3zM103.65 96.7a3.11 3.11 0 00-2.6-.9 4.1 4.1 0 00-3.1 1.4V96h-2.9v10.4h3v-5.7a2.77 2.77 0 01.5-1.6 1.61 1.61 0 011.3-.6 1.37 1.37 0 011.3.6 3.78 3.78 0 01.4 2.1v5.3h3V100a3.63 3.63 0 00-.9-3.3M135.85 101.3a2.7 2.7 0 100 .2c.1-.2.1-.2 0-.2m2.9-10v15.2h-2.8v-1.2a4.05 4.05 0 01-3.3 1.4 5.49 5.49 0 01-3.7-1.4 6.14 6.14 0 01-1.6-4 5.05 5.05 0 014.7-5.4h.4a4.28 4.28 0 013.2 1.2v-5.6zM87.75 98.4a2.8 2.8 0 102.6 3v-.1a2.66 2.66 0 00-2.4-2.8c-.1-.1-.1-.1-.2-.1m5.6 2.8a5.6 5.6 0 11-5.8-5.4h.2a5.38 5.38 0 015.7 5.1v.3M151.55 93.61a1.9 1.9 0 013.8 0 1.97 1.97 0 01-1.9 1.9 1.88 1.88 0 01-1.9-1.8v-.1m-.5 0a2.4 2.4 0 102.4-2.4 2.5 2.5 0 00-2.4 2.4m2.1-.9h.4c.3 0 .6 0 .6.4s-.3.4-.6.4h-.4zm-.6 2.3h.5v-1.1h.4l.7 1.1h.5l-.7-1.2a.58.58 0 00.6-.6v-.1a.84.84 0 00-.9-.9h-1.1z"/></g></g><g><path fill="#ed3327" d="M30 .02c.04.1.13.06.2.07a26.92 26.92 0 013.18.35 25.4 25.4 0 013.31.8c.4.12.47.28.3.68-.24.13-.46-.02-.68-.04-.33-.02-.64-.1-.96-.15a3.82 3.82 0 01-.74-.12c-.27.07-.52-.13-.79-.05A25 25 0 0018.6 4.64C6.24 11.28 2.06 27.18 8.37 39.44c-.23.09-5.5.12-6.72.05C-6.25 19.71 8.92-.66 29.95.02z"/><path fill="#252122" d="M101.16 53.01a.4.4 0 00-.25-.13 2.4 2.4 0 01-1.56-1.76 1.6 1.6 0 01-.04-.85 2.44 2.44 0 01.68-1.54c1.06-1.18 2.77-1.23 4.24-1.34.09-2-2.7-1.75-3.88-.96a1.63 1.63 0 01-.25-.67 1.9 1.9 0 01-.18-.69c1.77-.99 5.03-1.25 6.05.9a4 4 0 01.37 1.7c.03 1.72-.05 3.45.1 5.15-.53.06-1.08 0-1.62.02-.31 0-.31-.01-.31-.32 0-.17-.13-.32-.06-.49-.08-.06-.13-.03-.17.02a3.56 3.56 0 01-.7.58 2.32 2.32 0 01-.66.25c-.1.03-.21.02-.27.13zm3.14-4.2a4.34 4.34 0 00-2.13.33 1.28 1.28 0 00-.08 2.3 1.68 1.68 0 002.21-1.42c.02-.4 0-.79 0-1.22zM126.78 53.01c-.05-.16-.24 0-.3-.13-2.92-.61-3.6-4.18-2.36-6.52a3.97 3.97 0 015.02-1.7c1.74.73 2.28 2.9 1.98 4.61h-5.53c-.04 2.44 3.12 2.49 4.8 1.76a11.3 11.3 0 01.33 1.45 6.42 6.42 0 01-1.63.46c-.04.01-.1 0-.1.07zm2.43-5.22c.06-2.8-3.55-2.55-3.59 0zM87.37 53.01c-.01-.14-.17-.1-.23-.12a2.67 2.67 0 01-1.77-2.2 47.88 47.88 0 01-.08-6.15h2.04c.07 1.53 0 3.07.03 4.61-.1 1.35.78 2.64 2.16 2.03a1.9 1.9 0 001.11-1.73c0-1.64 0-3.27 0-4.91h2.09c.04 2.76-.05 5.5.07 8.25a6.93 6.93 0 01-1.89-.03 1.78 1.78 0 010-.55c.02-.18-.12-.32-.13-.51a3.7 3.7 0 01-1.9 1.31zM79.64 53.01a.07.07 0 00-.06-.07 4.37 4.37 0 01-1.33-.42c-.23-.2.25-1.25.3-1.59.91.48 3.5 1.23 3.46-.48-.23-1.13-2.52-1.02-3.27-2.32a2.17 2.17 0 01-.25-1.96c.7-2.06 3.57-2.18 5.23-1.31l-.38 1.4a.42.42 0 01-.36-.06 3.85 3.85 0 00-1.12-.32c-1.66-.29-2.04 1.4-.4 1.85 1.17.4 2.52 1.05 2.6 2.46a2.44 2.44 0 01-1.95 2.65 1.06 1.06 0 00-.5.17zM119.71 53.01c-.08-.12-.23-.1-.34-.13a3.82 3.82 0 01-2.93-3.81c-.37-3.72 3.42-5.6 6.6-4.34a14.62 14.62 0 01-.36 1.6c-2.64-1.03-4.72.55-3.95 3.38.47 1.58 2.33 1.98 3.72 1.41a.45.45 0 01.32-.04l.28 1.49c-.43.31-.96.2-1.38.44z"/><path fill="#ed3327" d="M13.15 39.5h-1.64a24.27 24.27 0 01.07-23.9C21.8-2.08 48.11.18 55.15 19.36c-1.04.42-2.11.75-3.16 1.14a20.98 20.98 0 00-17.6-11.15A22.02 22.02 0 0013.15 39.5z"/><path fill="#252122" d="M77.87 22.39c-.22.84-.45 1.7-.7 2.56-5.5-2.21-10.4.93-9.53 7.05.5 4.74 5.65 6.1 9.54 4.42.24.84.34 1.7.55 2.5-.08.18-.79.38-1 .42a13.36 13.36 0 01-2.21.37c-4.87.61-9.45-1.8-10.2-6.94-.74-4.46 1.11-9.1 5.65-10.6a11.33 11.33 0 017.9.22zM20.8 39.48a13.98 13.98 0 01-.04-1.73c.03-.51 1.1-1.19 1.46-1.59 1.16-1.08 2.33-2.14 3.43-3.3 1.4-1.49 3.06-3.2 3.04-5.39-.1-1.94-1.78-2.82-3.58-2.62a6.66 6.66 0 00-3.1 1.38c-.4-.76-.6-1.5-.97-2.27 3.16-2.63 9.76-2.62 10.73 2.18.88 4.63-3.48 7.9-6.5 10.68h7.02v2.66zM136.28 42.57a5.83 5.83 0 003.77-3.26.86.86 0 00-.05-.75c-.45-.99-.82-2-1.22-3.01-.7-1.72-1.37-3.44-2.05-5.17-.21-.53-.46-1.05-.65-1.59a13.4 13.4 0 01-.73-2.02h3.5c1.05 3.02 2.03 6.25 3.08 9.2.73-2.86 1.62-5.67 2.43-8.5.11-.2.08-.66.32-.7 1.1-.02 2.22-.03 3.33 0-.99 3-2.2 5.93-3.25 8.9-1.46 3.79-3.14 8.95-7.77 9.58zM121.85 26.77h3.2c.06 4.23-.08 8.46.12 12.7h-2.8c-.02-.08-.1-.18-.1-.27.06-.38-.11-.74-.05-1.11.03-.16-.07-.27-.1-.44a5 5 0 01-2.7 1.97 5.1 5.1 0 01-3.2-.16 4.34 4.34 0 01-2.5-3.62c-.2-3-.13-6.06-.08-9.07h3.16c.09 2.4 0 4.8.04 7.2a4.9 4.9 0 00.3 1.76 2.23 2.23 0 003.42 1.02 2.83 2.83 0 001.19-1.66c.28-2.74.02-5.55.1-8.32zM88.9 36.81l.44 2.16c-3.21 1.2-7.73 1.46-9.9-1.68a7.8 7.8 0 01.15-8.32 5.96 5.96 0 015.83-2.44c3.62.3 5.08 4.32 4.55 7.5-2.86 0-5.68 0-8.54 0 .2 3.98 4.7 3.55 7.46 2.78zM87 31.77c.16-4.25-5.33-4-5.55 0zM94.32 26.78l.15 1.81a.1.1 0 00.14-.05 4.04 4.04 0 011.64-1.52 4.9 4.9 0 015.07.33 5.57 5.57 0 011.82 4.54q0 3.8 0 7.59h-3.2c-.06-2.41 0-4.83-.02-7.24a3.2 3.2 0 00-1.2-2.8 2.64 2.64 0 00-3.87 2.47c0 2.53 0 5.04 0 7.57h-3.24c-.06-4.23.07-8.45-.09-12.68a21.97 21.97 0 012.8-.02zM41.94 38.91c.16-.8.43-1.56.61-2.37 1.36.7 4.01 1.61 5.13.17.8-1.22-.65-2.12-1.69-2.42-1.61-.54-3.6-1.59-3.68-3.51-.3-4.3 5.09-5.14 8.16-3.56-.18.76-.4 1.51-.6 2.23a.23.23 0 01-.26-.03 6.19 6.19 0 00-2.59-.65c-1.15-.05-2.17 1.12-1.33 2.13.82.8 2.02.92 3 1.45a3.75 3.75 0 011.88 5.21c-1.53 2.78-6.14 2.65-8.63 1.35zM59.6 29.17h-3c-.09 1.84 0 3.7-.03 5.54a4.57 4.57 0 00.16 1.4c.42 1.36 1.65 1 2.72.94.08.71.03 1.45.06 2.16 0 .25.01.26-.23.32-1.86.45-4.4.5-5.36-1.5a5.22 5.22 0 01-.37-1.12c-.3-2.57-.05-5.16-.13-7.73h-1.78a15.7 15.7 0 01-.03-2.42h1.8V24.4l3.15-.91v3.26h3.04zM111.85 37l.06 2.41a6.6 6.6 0 01-2.85.35 3.18 3.18 0 01-2.72-1.7 5.24 5.24 0 01-.47-1.4c-.17-2.49-.01-5-.06-7.48h-1.82v-2.42c.6-.02 1.2 0 1.8 0V24.4l3.15-.91v3.26H112v2.4c-1 .06-2.01 0-3 .02-.15 1.86 0 3.8-.05 5.69-.04 2.08.97 2.61 2.9 2.13zM39.8 22.54v16.94h-3.1V25.43c-1.1.45-2.13 1.01-3.2 1.54l-.56-2.43c1.4-.68 2.8-1.5 4.25-2.05h2.44a.21.21 0 01.17.05zM134.45 26.55v3.01c-2.38-.52-4.02 1.1-3.91 3.46 0 2.16 0 4.3 0 6.46h-3.21c-.06-4.24.07-8.47-.1-12.71H130c.07.77.06 1.57.12 2.34.06.02.1.03.13-.04a3.69 3.69 0 014.2-2.52zM115.2 52.83h-2.04c-.1-1.47.02-2.97-.05-4.45.09-1.32-.62-2.7-2.1-2.22-1.32.48-1.21 1.74-1.19 2.89-.03 1.26.06 2.53-.03 3.78h-2.1c-.03-2.76.08-5.55-.08-8.29h1.85c.04.4.08.8.12 1.2a3.14 3.14 0 014.21-.97 3.58 3.58 0 011.43 3.21c-.02 1.61.08 3.25-.02 4.85zM71.82 52.83H69.7c-.04-2.76.1-5.54-.1-8.29h1.86l.1 1.09c.09.05.13-.01.16-.06 1.34-1.94 4.74-1.52 5.29.86.43 2.09.13 4.27.2 6.4h-2.06c-.1-1.52-.01-3.09-.03-4.62a2.02 2.02 0 00-1.05-2.05 1.77 1.77 0 00-2.26 1.9c0 1.6 0 3.17 0 4.77zM94.44 44.54h1.78c.12.53 0 1.04.14 1.59a2.4 2.4 0 012.77-1.72v1.95a2.03 2.03 0 00-2.54 2.24c-.02 1.41.05 2.82-.02 4.22H94.5c-.04-2.75.05-5.51-.06-8.28zM67.95 52.83h-2.08v-8.29h2.08z"/></g></g></svg>