<?xml version="1.0" encoding="UTF-8"?><svg id="Layer_1" xmlns="http://www.w3.org/2000/svg" viewBox="0 0 394.13 55.87"><defs><style>.cls-1{fill:#6cbceb;}.cls-1,.cls-2,.cls-3{stroke-width:0px;}.cls-2{fill:#2e74a6;}.cls-3{fill:#1f2937;}</style></defs><path class="cls-3" d="M100.44,13.47h12.02v1.22c-1.59.11-2.78.46-3.57,1.08-.79.61-1.27,1.3-1.45,2.06-.18.76-.27,2.24-.27,4.43v11.97c0,3.06-.12,5.34-.36,6.82-.24,1.49-.93,2.95-2.07,4.38-1.14,1.43-2.75,2.57-4.82,3.42s-4.46,1.27-7.17,1.27c-3.2,0-5.91-.54-8.14-1.63s-3.8-2.49-4.75-4.22c-.95-1.72-1.42-4.04-1.42-6.94l.03-3.69v-11.2c0-2.87-.08-4.72-.25-5.55-.17-.83-.52-1.41-1.06-1.73-.54-.32-1.72-.48-3.54-.48h-.82v-1.22h16.43v1.22h-.72c-1.77,0-2.93.15-3.48.44s-.92.84-1.1,1.63c-.19.8-.28,2.69-.28,5.68v11.33c0,3.93.18,6.72.54,8.36.36,1.65,1.38,3.08,3.07,4.31s3.92,1.84,6.72,1.84c2.19,0,4.19-.41,5.98-1.23s3.13-1.85,4.01-3.08c.88-1.23,1.41-2.49,1.61-3.8.19-1.3.29-3.35.29-6.14v-12.26c0-2.03-.12-3.46-.35-4.27-.23-.81-.73-1.46-1.49-1.94-.76-.48-1.96-.77-3.61-.88v-1.22Z"/><path class="cls-3" d="M114.59,49.08v-11.57h1.33c1.5,7.54,5.07,11.31,10.7,11.31,2.53,0,4.49-.72,5.88-2.16,1.39-1.44,2.08-3.06,2.08-4.84s-.61-3.32-1.83-4.54c-1.22-1.2-3.45-2.49-6.69-3.87-2.88-1.24-5.06-2.32-6.53-3.25-1.47-.93-2.61-2.14-3.44-3.62-.82-1.49-1.23-3.07-1.23-4.75,0-2.57.89-4.7,2.67-6.41,1.78-1.71,4.03-2.56,6.75-2.56,1.52,0,2.96.25,4.3.74,1.34.5,2.72,1.52,4.14,3.08.81-.97,1.27-2.03,1.38-3.16h1.17v9.42h-1.17c-.67-2.74-1.86-4.9-3.57-6.48-1.71-1.57-3.69-2.36-5.93-2.36s-3.71.58-4.71,1.74c-1,1.16-1.5,2.43-1.5,3.81,0,1.66.63,3.07,1.88,4.22,1.24,1.17,3.48,2.48,6.72,3.93,3.1,1.38,5.35,2.49,6.75,3.33s2.53,2,3.38,3.49c.85,1.49,1.27,3.2,1.27,5.15,0,3.08-1.03,5.58-3.08,7.51s-4.79,2.89-8.23,2.89c-3.95,0-7.24-1.51-9.87-4.54-.58.83-1.02,2-1.3,3.5h-1.33Z"/><path class="cls-3" d="M161.75,36.18h-13.67l-.93,2.28c-1.38,3.31-2.07,5.47-2.07,6.48,0,1.08.37,1.9,1.1,2.46.73.56,1.68.84,2.83.84v1.22h-10.7v-1.22c1.59-.25,2.78-.81,3.56-1.69.78-.88,1.72-2.72,2.81-5.53.09-.27.51-1.29,1.27-3.08l10.46-24.98h1.04l12.02,28.59,1.65,3.77c.37.85.87,1.52,1.5,2,.63.49,1.57.79,2.83.92v1.22h-14.15v-1.22c1.73,0,2.91-.13,3.52-.38s.92-.77.92-1.53c0-.39-.41-1.55-1.22-3.48l-2.76-6.66ZM161.3,34.99l-6.37-15.34-6.34,15.34h12.71Z"/><path class="cls-3" d="M218.89,38.87l-.27,10.59h-30.58v-1.22h1.06c1.54,0,2.61-.2,3.2-.58.59-.39.97-1,1.14-1.82.17-.82.25-2.74.25-5.75v-17.65c0-2.87-.08-4.72-.25-5.55-.17-.83-.52-1.41-1.06-1.73-.54-.32-1.72-.48-3.54-.48h-.8v-1.22h17.28v1.22h-1.59c-1.77,0-2.93.15-3.48.44s-.92.84-1.1,1.63c-.19.8-.28,2.69-.28,5.68v18.84c0,2.6.07,4.23.21,4.88.14.65.53,1.16,1.15,1.53.63.36,1.98.54,4.05.54h2.73c2.21,0,3.85-.2,4.92-.58,1.07-.39,2.09-1.24,3.05-2.55.96-1.31,1.84-3.39,2.64-6.24h1.25Z"/><path class="cls-3" d="M228.1,26.84v15.15c0,2.32.04,3.78.11,4.38.07.6.33,1.06.77,1.38s1.23.48,2.36.48h.56v1.22h-11.7v-1.22h.9c1.26,0,2.07-.18,2.46-.54.38-.36.6-.8.66-1.3s.09-1.97.09-4.39v-6.58c0-2.55-.12-4.11-.36-4.67s-.56-.92-.96-1.06-1.09-.21-2.08-.21h-.72v-1.22c3.15-.32,5.59-.79,7.32-1.41h.58ZM222.98,15.75c0-.76.27-1.42.81-1.96s1.19-.82,1.95-.82,1.41.27,1.94.82c.53.55.8,1.2.8,1.96s-.27,1.44-.8,1.99c-.53.55-1.18.82-1.94.82s-1.41-.27-1.95-.82c-.54-.55-.81-1.21-.81-1.99Z"/><path class="cls-3" d="M246.15,27.72v1.22h-4.54v13.06c0,2.32.03,3.78.09,4.38.06.6.31,1.06.76,1.38.44.32,1.23.48,2.36.48h1.14v1.22h-11.76v-1.22c1.22,0,2.07-.12,2.53-.37.47-.25.76-.62.88-1.13.12-.5.17-2.08.17-4.74v-13.06h-4.06v-1.22h4.06v-1.96c0-2.19.09-3.89.27-5.1s.68-2.45,1.5-3.73c.82-1.28,1.86-2.27,3.1-2.96s2.73-1.04,4.45-1.04c2.09,0,3.76.43,5.02,1.3,1.26.87,1.88,1.75,1.88,2.65,0,.51-.18.94-.53,1.27-.35.34-.77.5-1.25.5-.94,0-1.8-.73-2.58-2.18-.87-1.59-1.99-2.39-3.37-2.39-1.11,0-2.09.4-2.93,1.21-.84.81-1.34,1.81-1.5,3.01s-.24,3.79-.24,7.75v1.65h4.54Z"/><path class="cls-3" d="M268.29,35.07h-15.15c-.07,1.04-.11,1.82-.11,2.34,0,3.82.6,6.69,1.79,8.61,1.19,1.92,2.98,2.88,5.35,2.88,3.22,0,5.5-1.44,6.85-4.33h1.27c-.57,1.8-1.69,3.22-3.37,4.23-1.68,1.02-3.51,1.53-5.49,1.53-1.84,0-3.58-.46-5.22-1.39-1.64-.93-2.98-2.24-4.02-3.94s-1.57-3.76-1.57-6.18c0-3.43,1.01-6.29,3.03-8.56,2.02-2.27,4.54-3.41,7.56-3.41,2.85,0,5.05.87,6.61,2.6,1.56,1.73,2.38,3.61,2.47,5.63ZM263.64,34.01c.05-.41.08-.77.08-1.09,0-1.56-.46-2.76-1.37-3.62-.91-.86-2.03-1.29-3.36-1.29-3.22,0-5.14,2-5.76,6h10.4Z"/><path class="cls-3" d="M319.12,49.46h-9.69c-1.72-1.2-4.34-4.35-7.88-9.45-1.13-1.63-2.31-3.19-3.53-4.69-1.22-1.49-2.06-2.41-2.52-2.73s-1.18-.49-2.15-.49h-1.43v7.99c0,2.83.07,4.69.2,5.56.13.88.49,1.53,1.06,1.95.57.42,1.68.64,3.3.64h1.73v1.22h-17.23v-1.22h1.17c1.54,0,2.61-.2,3.2-.58.59-.39.97-1,1.13-1.82s.24-2.74.24-5.75v-17.65c0-2.87-.08-4.72-.24-5.55-.16-.83-.51-1.41-1.06-1.73-.55-.32-1.73-.48-3.56-.48h-.61v-1.22l5.15-.27c3.43-.16,6.16-.24,8.18-.24,3.43,0,6.22.32,8.37.96,2.15.64,3.89,1.68,5.21,3.13,1.33,1.45,1.99,3.19,1.99,5.2,0,2.35-.87,4.36-2.6,6.03-1.73,1.66-4.28,2.7-7.64,3.1,1.5.73,3.93,3.35,7.27,7.86,2.73,3.66,4.87,6.06,6.42,7.19,1.56,1.13,3.4,1.73,5.52,1.8v1.22ZM291.92,30.88c1.33-.04,2.7-.09,4.11-.16,1.42-.07,2.65-.27,3.69-.58,1.04-.32,1.89-.78,2.53-1.39.65-.61,1.15-1.41,1.53-2.4.37-.99.56-2.21.56-3.66,0-2.53-.63-4.56-1.9-6.08s-4.02-2.28-8.27-2.28c-.66,0-1.41.04-2.26.11v16.46Z"/><path class="cls-3" d="M342.08,45.47h.98c-.16,3.03-1.65,4.54-4.46,4.54-1.2,0-2.15-.32-2.85-.96-.7-.64-1.15-1.58-1.37-2.84-1.77,1.26-3.38,2.2-4.84,2.84-1.46.64-2.76.96-3.91.96-1.47,0-2.73-.42-3.79-1.27-1.06-.85-1.59-1.97-1.59-3.37,0-1.82.89-3.41,2.67-4.78,1.78-1.36,4.23-2.69,7.36-3.98l4.11-1.67v-1.06c0-1.5-.1-2.59-.29-3.27-.2-.67-.7-1.27-1.51-1.8-.81-.53-1.88-.8-3.21-.8-2.65,0-4.13.89-4.43,2.65-.28,1.8-1.03,2.71-2.23,2.71-1.08,0-1.62-.51-1.62-1.54s.72-2.09,2.15-3.25c1.43-1.16,3.66-1.74,6.69-1.74,2.25,0,3.99.35,5.23,1.06,1.24.71,2.06,1.51,2.46,2.42.4.9.6,2.28.6,4.14v8.79c0,2.05.11,3.37.32,3.96s.67.88,1.38.88c1.17,0,1.89-.87,2.18-2.6ZM334.38,36.18l-2.89,1.17c-4.56,1.86-6.85,4.19-6.85,7.01,0,1.12.29,2.01.88,2.69s1.34,1.02,2.28,1.02c.83,0,1.8-.27,2.89-.82s2.33-1.37,3.69-2.47v-8.6Z"/><path class="cls-3" d="M356.36,28.94h-6.56v13.14c0,2.02.09,3.38.27,4.07s.55,1.26,1.13,1.69,1.19.64,1.84.64c1.27,0,2.38-.73,3.32-2.18l.85.5c-.55,1.17-1.36,2.05-2.43,2.64-1.07.59-2.15.89-3.25.89-1.27,0-2.39-.38-3.36-1.13-.97-.75-1.57-1.63-1.8-2.64-.24-1.01-.36-2.78-.36-5.31v-12.32h-3.16v-1.22c1.45-.04,2.75-.65,3.9-1.83,1.15-1.19,1.88-2.85,2.2-4.99h.85v6.82h6.56v1.22Z"/><path class="cls-3" d="M376.83,35.07h-15.15c-.07,1.04-.11,1.82-.11,2.34,0,3.82.6,6.69,1.79,8.61,1.19,1.92,2.98,2.88,5.35,2.88,3.22,0,5.5-1.44,6.85-4.33h1.27c-.57,1.8-1.69,3.22-3.37,4.23-1.68,1.02-3.51,1.53-5.49,1.53-1.84,0-3.58-.46-5.22-1.39-1.64-.93-2.98-2.24-4.02-3.94s-1.57-3.76-1.57-6.18c0-3.43,1.01-6.29,3.03-8.56,2.02-2.27,4.54-3.41,7.56-3.41,2.85,0,5.05.87,6.61,2.6,1.56,1.73,2.38,3.61,2.47,5.63ZM372.18,34.01c.05-.41.08-.77.08-1.09,0-1.56-.46-2.76-1.37-3.62-.91-.86-2.03-1.29-3.36-1.29-3.22,0-5.14,2-5.76,6h10.4Z"/><path class="cls-3" d="M380.01,50.15v-7.14h1.04c1.2,4.12,3.35,6.18,6.45,6.18,1.34,0,2.35-.41,3.01-1.22s1-1.71,1-2.68c0-1.13-.35-2.06-1.06-2.79-.73-.73-2.13-1.6-4.22-2.63-2.19-1.08-3.77-2.14-4.72-3.19-.96-1.03-1.43-2.29-1.43-3.79s.51-2.8,1.54-4.1c1.03-1.3,2.47-1.95,4.33-1.95s3.46.77,4.7,2.31c.27-.27.61-.91,1.04-1.94h.98v6.72h-.98c-.35-1.61-1.04-2.99-2.06-4.15-1.02-1.16-2.22-1.74-3.6-1.74-1.06,0-1.92.33-2.57.98s-.98,1.42-.98,2.28c0,.96.36,1.78,1.09,2.47.71.71,2.06,1.51,4.06,2.42,3.01,1.36,4.85,2.69,5.52,3.98.67,1.31,1.01,2.56,1.01,3.77,0,1.89-.62,3.43-1.87,4.62-1.25,1.19-2.82,1.78-4.71,1.78-2,0-3.78-.82-5.34-2.47-.48.53-.87,1.29-1.17,2.28h-1.04Z"/><path class="cls-1" d="M16.85,36.85c3.76-3.76,4.62-9.25,2.65-14.06l-1.04,1.04c-2.62,2.62-6.87,2.62-9.49,0l-6.15-6.15c-.65-.65-1.69-.65-2.34,0-.64.65-.64,1.69,0,2.34l6.05,6.05c3.97,3.97,4.32,10.54.21,14.66l-5.78,5.78c-.86.86-.86,2.25,0,3.12.85.85,2.25.87,3.12,0,29.8-29.79-21.34,21.35,12.77-12.77Z"/><path class="cls-2" d="M43.43,40.03c-3.26-3.26-5.09-7.69-5.09-12.3s1.83-9.04,5.1-12.3l10.33-10.33c1.08-1.08,1.08-2.84,0-3.92-1.08-1.08-2.84-1.08-3.92,0l-11.64,11.64c-3.67,3.67-9.63,3.67-13.3,0L13.27,1.17c-1.08-1.08-2.84-1.08-3.92,0-1.08,1.08-1.08,2.84,0,3.92l10.15,10.15c3.38,3.38,5.28,7.96,5.28,12.74,0,4.45-1.77,8.72-4.92,11.86l-9.7,9.7c-1.45,1.44-1.45,3.79,0,5.23,1.44,1.44,3.79,1.44,5.23,0l14.5-14.49c.92-.92,2.42-.93,3.34,0l14.49,14.49c1.45,1.44,3.79,1.44,5.23,0,1.45-1.44,1.45-3.79,0-5.23l-9.52-9.52Z"/><path class="cls-1" d="M13.71,22.89c1.94,0,3.51-1.57,3.51-3.51s-1.57-3.51-3.51-3.51-3.51,1.58-3.51,3.51,1.57,3.51,3.51,3.51Z"/><path class="cls-1" d="M46.25,36.85c-3.76-3.76-4.62-9.25-2.65-14.06l1.04,1.04c2.62,2.62,6.87,2.62,9.49,0l6.15-6.15c.65-.65,1.69-.65,2.34,0,.64.65.64,1.69,0,2.34l-6.05,6.05c-3.97,3.97-4.32,10.54-.21,14.66l5.78,5.78c.86.86.86,2.25,0,3.12-.85.85-2.25.87-3.12,0-29.79-29.79,21.34,21.35-12.77-12.77Z"/><path class="cls-1" d="M49.39,22.89c-1.93,0-3.51-1.57-3.51-3.51s1.57-3.51,3.51-3.51,3.51,1.58,3.51,3.51-1.57,3.51-3.51,3.51Z"/><path class="cls-2" d="M31.55,0c-3.25,0-5.89,2.64-5.89,5.89s2.64,5.9,5.89,5.9,5.89-2.64,5.89-5.9-2.64-5.89-5.89-5.89Z"/></svg>