<?xml version="1.0" encoding="iso-8859-1"?>
<!-- Uploaded to: SVG Repo, www.svgrepo.com, Generator: SVG Repo Mixer Tools -->
<svg height="800px" width="800px" version="1.1" id="Layer_1" xmlns="http://www.w3.org/2000/svg" xmlns:xlink="http://www.w3.org/1999/xlink" 
	 viewBox="0 0 512 512" xml:space="preserve">
<path style="fill:#6ab06d;" d="M0,256.006C0,397.402,114.606,512.004,255.996,512C397.394,512.004,512,397.402,512,256.006
	C512.009,114.61,397.394,0,255.996,0C114.606,0,0,114.614,0,256.006z"/>
<path style="fill:#6ab06d;" d="M503.255,322.401c-0.372-0.388-73.406-73.453-73.937-73.935c-4.101-4.513-9.955-7.399-16.518-7.399
	h-81.019c-0.435-0.457-101.2-97.742-145.428-145.392c-0.489-0.526-0.99-1.026-1.515-1.516c-5.641-6.049-13.612-9.893-22.514-9.893
	h-31.222c-17.29,0-31.902,14.154-31.902,30.91v125.891c-12.352,0-22.4,10.048-22.4,22.4c0,6.595,2.916,12.471,7.468,16.574v39.105
	c0,26.88,10.629,50.379,28.201,67.135c0.503,0.506,6.573,6.649,6.85,6.919l-11.863,23.727c-1.617,3.233-0.56,6.974,2.183,9.117
	c0.41,0.582,75.247,75.373,75.828,75.828c0.081,0.114,0.206,0.188,0.294,0.294c22.326,6.358,45.867,9.834,70.236,9.834
	C374.423,512.002,474.007,431.594,503.255,322.401z"/>
<path style="fill:#F4F6F9;" d="M435.2,263.467c0-12.352-10.048-22.4-22.4-22.4H114.133v-125.89c0-8.51,7.926-15.977,16.967-15.977
	h31.222c8.78,0,15.929,7.148,15.951,15.936c-14.571,3.595-26.807,17.055-26.807,31.263V166.4c0,4.127,3.34,7.467,7.467,7.467H211.2
	c4.127,0,7.467-3.34,7.467-7.467v-20.001c0-14.39-11.417-27.591-25.458-31.211l0.003-0.013c0-17.041-13.854-30.91-30.887-30.91
	h-31.222C113.812,84.267,99.2,98.42,99.2,115.177v125.89c-12.352,0-22.4,10.048-22.4,22.4c0,6.594,2.916,12.47,7.467,16.574v39.105
	c0,30.386,13.546,56.487,35.394,73.367l-12.206,24.414c-1.844,3.69-0.35,8.174,3.34,10.019c1.072,0.532,2.209,0.787,3.332,0.787
	c2.741,0,5.374-1.509,6.687-4.127l11.467-22.933c14.237,7.719,30.885,12.127,49.053,12.127h149.333
	c18.167,0,34.816-4.407,49.055-12.127l11.467,22.933c1.312,2.618,3.945,4.127,6.687,4.127c1.123,0,2.26-0.255,3.332-0.787
	c3.69-1.844,5.184-6.33,3.34-10.019l-12.206-24.414c21.846-16.88,35.392-42.981,35.392-73.367v-39.105
	C432.284,275.937,435.2,270.061,435.2,263.467z M203.733,146.399v12.534H166.4v-12.534c0-8.261,10.113-17.332,19.359-17.332
	C194.662,129.067,203.733,137.817,203.733,146.399z M99.2,256h313.6c4.119,0,7.467,3.347,7.467,7.467
	c0,4.119-3.347,7.467-7.467,7.467H99.2c-4.119,0-7.467-3.347-7.467-7.467C91.733,259.347,95.081,256,99.2,256z M412.8,319.146
	c0,44.88-35.307,78.721-82.133,78.721H181.333c-46.827,0-82.133-33.841-82.133-78.721v-33.279h313.6V319.146z"/>
</svg>