<!DOCTYPE svg PUBLIC "-//W3C//DTD SVG 1.1//EN" "http://www.w3.org/Graphics/SVG/1.1/DTD/svg11.dtd">

<!-- Uploaded to: SVG Repo, www.svgrepo.com, Transformed by: SVG Repo Mixer Tools -->
<svg height="800px" width="800px" version="1.1" id="Layer_1" xmlns="http://www.w3.org/2000/svg" xmlns:xlink="http://www.w3.org/1999/xlink" viewBox="0 0 512 512" xml:space="preserve" fill="#000000">

<g id="SVGRepo_bgCarrier" stroke-width="0"/>

<g id="SVGRepo_tracerCarrier" stroke-linecap="round" stroke-linejoin="round"/>

<g id="SVGRepo_iconCarrier"> <polygon style="fill:#0d8155;" points="395.294,426.666 512,512 512,341.334 "/> <polygon style="fill:#6ab06d;" points="512,170.666 302.672,302.672 170.666,512 341.334,512 404.028,483.44 426.666,426.666 512,341.334 "/> <g> <polygon style="fill:#0d8152;" points="341.334,512 512,512 426.666,426.666 "/> <polygon style="fill:#0d8155;" points="512,0 206.89,256 341.334,341.334 512,170.666 "/> </g> <polygon style="fill:#6ab06d;" points="341.334,0 141.409,141.409 0,341.334 25.774,401.241 85.334,426.666 426.666,85.334 405.42,29.954 "/> <polygon style="fill:#6ab06d;" points="512,0 341.334,0 426.666,85.334 "/> <polygon style="fill:#0d8155;" points="0,512 170.666,512 341.334,341.334 256,256 85.334,426.666 32.74,444.43 "/> <polygon style="fill:#6ab06d;" points="0,512 85.334,426.666 0,341.334 "/> <polygon style="fill:#0d8155;" points="170.666,0 53.962,85.334 170.666,170.666 341.334,0 "/> <polygon style="fill:#0d8155;" points="0,170.666 0,341.334 170.666,170.666 85.334,85.334 31.347,105.187 "/> <polygon style="fill:#6ab06d;" points="0,0 0,170.666 170.666,0 "/> </g>

</svg>