<?xml version="1.0" ?>

<!-- Uploaded to: SVG Repo, www.svgrepo.com, Generator: SVG Repo Mixer Tools -->
<svg width="800px" height="800px" viewBox="0 0 500 500" id="Layer_1" version="1.1" xml:space="preserve" xmlns="http://www.w3.org/2000/svg" xmlns:xlink="http://www.w3.org/1999/xlink">

<style type="text/css">
	.st0{fill:#ffffff;}
	.st1{fill:#ffffff;}
	.st2{fill:#ffffff;}
	.st3{fill:#ffffff;}
	.st4{fill:#ffffff;}
	.st5{fill:#ffffff;}
	.st6{fill:#ffffff;}
	.st7{fill:#ffffff;}
	.st8{fill:#ffffff;}
	.st9{fill:#ffffff;}
	.st10{fill:#ffffff;}
	.st11{fill:#ffffff;}
	.st12{fill:#6ab06d;}
	.st13{fill:#6ab06d;}
	.st14{fill:#6ab06d;}
	.st15{fill:#6ab06d;}
	.st16{fill:#6ab06d;}
	.st17{fill:#6ab06d;}
	.st18{fill:#F4D100;}
</style>

<g id="AC">

<g>

<g>

<g>

<g>

<path class="st17" d="M450.91,271.57H51.61c-17.83,0-32.29-14.46-32.29-32.29V136.9c0-3.77,3.06-6.83,6.83-6.83h450.21       c3.77,0,6.83,3.06,6.83,6.83v102.38C483.2,257.11,468.74,271.57,450.91,271.57z"/>

<path class="st11" d="M397.19,148.45H105.34c-0.89,0-1.62-0.72-1.62-1.62v0c0-0.89,0.72-1.62,1.62-1.62h291.85       c0.89,0,1.62,0.72,1.62,1.62v0C398.8,147.73,398.08,148.45,397.19,148.45z"/>

</g>

<g>

<path class="st11" d="M442.21,235.86c-0.39,0-0.78-0.15-1.07-0.45L428.93,223H73.14l-11.79,11.25       c-0.6,0.57-1.55,0.55-2.12-0.05c-0.57-0.6-0.55-1.55,0.05-2.12L71.94,220h358.25l13.08,13.31c0.58,0.59,0.57,1.54-0.02,2.12       C442.96,235.72,442.58,235.86,442.21,235.86z"/>

</g>

</g>

<path class="st11" d="M437.73,266.78H64.79c-2.82,0-5.11-2.29-5.11-5.11v-17.64c0-2.82,2.29-5.11,5.11-5.11h372.94     c2.82,0,5.11,2.29,5.11,5.11v17.64C442.84,264.5,440.55,266.78,437.73,266.78z"/>

</g>

<circle class="st11" cx="466.18" cy="145.22" r="3.23"/>

</g>

<g>

<g>

<path class="st17" d="M251.26,372.43c-1.38,0-2.5-1.12-2.5-2.5v-79.22c0-1.38,1.12-2.5,2.5-2.5s2.5,1.12,2.5,2.5v79.22     C253.76,371.31,252.64,372.43,251.26,372.43z"/>

</g>

<g>

<path class="st17" d="M198.37,372.43c-1.38,0-2.5-1.12-2.5-2.5v-79.22c0-1.38,1.12-2.5,2.5-2.5s2.5,1.12,2.5,2.5v79.22     C200.87,371.31,199.75,372.43,198.37,372.43z"/>

</g>

<g>

<path class="st17" d="M304.15,372.43c-1.38,0-2.5-1.12-2.5-2.5v-79.22c0-1.38,1.12-2.5,2.5-2.5s2.5,1.12,2.5,2.5v79.22     C306.65,371.31,305.53,372.43,304.15,372.43z"/>

</g>

<g>

<path class="st17" d="M382.51,372.43h-6.02c-12.1,0-21.95-9.85-21.95-21.95v-59.77c0-1.38,1.12-2.5,2.5-2.5s2.5,1.12,2.5,2.5     v59.77c0,9.35,7.6,16.95,16.95,16.95h6.02c9.35,0,16.95-7.6,16.95-16.95c0-1.38,1.12-2.5,2.5-2.5s2.5,1.12,2.5,2.5     C404.46,362.58,394.62,372.43,382.51,372.43z"/>

</g>

<g>

<path class="st17" d="M126.03,372.43h-6.02c-12.1,0-21.95-9.85-21.95-21.95c0-1.38,1.12-2.5,2.5-2.5s2.5,1.12,2.5,2.5     c0,9.35,7.6,16.95,16.95,16.95h6.02c9.35,0,16.95-7.6,16.95-16.95v-59.77c0-1.38,1.12-2.5,2.5-2.5s2.5,1.12,2.5,2.5v59.77     C147.98,362.58,138.13,372.43,126.03,372.43z"/>

</g>

</g>

</g>

</svg>