<!DOCTYPE svg PUBLIC "-//W3C//DTD SVG 1.1//EN" "http://www.w3.org/Graphics/SVG/1.1/DTD/svg11.dtd">

<!-- Uploaded to: SVG Repo, www.svgrepo.com, Transformed by: SVG Repo Mixer Tools -->
<svg fill="#6ab06d" height="800px" width="800px" version="1.1" id="Capa_1" xmlns="http://www.w3.org/2000/svg" xmlns:xlink="http://www.w3.org/1999/xlink" viewBox="0 0 189.904 189.904" xml:space="preserve" stroke="#6ab06d">

<g id="SVGRepo_bgCarrier" stroke-width="0"/>

<g id="SVGRepo_tracerCarrier" stroke-linecap="round" stroke-linejoin="round"/>

<g id="SVGRepo_iconCarrier"> <path d="M44.785,189.844c-4.453,0-8.907-1.695-12.297-5.086L5.085,157.356c-6.78-6.781-6.78-17.813,0-24.594l27.136-27.135 c0.511-0.512,1.22-0.777,1.941-0.727c0.722,0.05,1.386,0.411,1.822,0.988l2.35,3.114l99.718-99.718 c8.881-8.882,22.168-11.634,33.847-7.012l16.052,6.978c0.861,0.375,1.439,1.2,1.498,2.138l0.45,7.25 c0.081,1.311-0.865,2.461-2.167,2.633l-4.452,0.589l0.323,4.402c0.097,1.32-0.853,2.488-2.165,2.662l-4.49,0.595l0.351,4.787 c0.097,1.32-0.853,2.487-2.165,2.661l-4.993,0.661l0.305,4.923c0.081,1.311-0.865,2.461-2.167,2.633l-4.452,0.589l0.323,4.403 c0.097,1.32-0.853,2.488-2.165,2.662l-4.49,0.595l0.351,4.787c0.097,1.32-0.853,2.487-2.165,2.661l-4.993,0.661l0.305,4.923 c0.081,1.311-0.865,2.461-2.167,2.633l-4.452,0.589l0.323,4.403c0.097,1.32-0.853,2.488-2.165,2.662l-4.49,0.595l0.351,4.786 c0.097,1.32-0.853,2.487-2.165,2.661l-4.993,0.662l0.306,4.923c0.081,1.311-0.865,2.461-2.167,2.633l-4.453,0.589l0.323,4.402 c0.097,1.32-0.853,2.488-2.165,2.662l-4.49,0.595l0.351,4.787c0.097,1.32-0.853,2.487-2.165,2.661l-4.993,0.661l0.306,4.923 c0.081,1.311-0.865,2.46-2.167,2.633l-4.452,0.59l0.322,4.403c0.097,1.32-0.853,2.487-2.165,2.661l-4.49,0.595l0.352,4.786 c0.097,1.321-0.853,2.488-2.166,2.662l-4.994,0.661l0.306,4.923c0.082,1.311-0.865,2.461-2.167,2.633l-4.453,0.59l0.323,4.402 c0.097,1.32-0.853,2.488-2.165,2.662l-4.491,0.595l0.351,4.786c0.097,1.321-0.853,2.488-2.165,2.662l-3.329,0.44l3.134,4.153 c0.751,0.995,0.654,2.392-0.228,3.273l-20.357,20.357C53.693,188.149,49.239,189.844,44.785,189.844z M33.724,111.194L8.62,136.297 c-4.831,4.832-4.831,12.692,0,17.524l27.403,27.403c4.832,4.831,12.692,4.83,17.524,0l18.819-18.82l-5.092-6.749 c-0.003-0.004-0.007-0.009-0.011-0.014L33.724,111.194z M68.155,148.52l2.92,3.869l3.794-0.502l-0.351-4.786 c-0.097-1.321,0.853-2.488,2.165-2.662l4.491-0.595l-0.323-4.402c-0.097-1.32,0.853-2.488,2.165-2.662l4.479-0.593l-0.305-4.903 c-0.019-0.264,0.005-0.522,0.065-0.768c0-0.001,0-0.002,0.001-0.004c0.09-0.368,0.263-0.707,0.499-0.992 c0.001,0,0.002-0.001,0.002-0.003c0.235-0.284,0.532-0.517,0.874-0.675c0.002-0.001,0.002,0,0.004-0.002 c0.229-0.106,0.478-0.179,0.74-0.211l4.948-0.655l-0.351-4.786c-0.097-1.321,0.853-2.488,2.165-2.662l4.49-0.595l-0.322-4.403 c-0.097-1.32,0.853-2.487,2.165-2.661l4.479-0.593l-0.305-4.902c-0.019-0.267,0.005-0.527,0.066-0.775 c-0.001-0.001,0.001-0.003,0.001-0.004c0.091-0.366,0.264-0.702,0.497-0.986c0.001,0,0.003-0.002,0.003-0.003 c0.236-0.285,0.535-0.519,0.879-0.677c0.002-0.001,0.003-0.001,0.004-0.002h0.001c0.228-0.104,0.474-0.176,0.733-0.208l4.948-0.655 l-0.351-4.787c-0.097-1.32,0.853-2.487,2.165-2.661l4.49-0.595l-0.323-4.402c-0.097-1.321,0.853-2.488,2.165-2.662l4.479-0.593 l-0.305-4.9c-0.02-0.271,0.006-0.535,0.068-0.786c0.001-0.001,0.001-0.002,0.001-0.004c0.093-0.368,0.268-0.705,0.505-0.989 c0.001,0,0.004-0.002,0.003-0.004c0.229-0.274,0.519-0.5,0.851-0.657c0,0,0.004-0.001,0.003-0.002 c0.233-0.109,0.487-0.185,0.755-0.217l4.947-0.655l-0.351-4.787c-0.097-1.32,0.853-2.487,2.165-2.661l4.49-0.595l-0.323-4.402 c-0.097-1.32,0.853-2.488,2.165-2.662l4.479-0.593l-0.304-4.904c-0.019-0.261,0.005-0.517,0.063-0.76 c-0.001-0.001-0.001-0.002,0.001-0.004c0.089-0.367,0.259-0.704,0.491-0.989c0.001,0,0,0,0.003-0.003 c0.237-0.291,0.54-0.528,0.89-0.688c0,0,0.001-0.001,0.002-0.001l0.001,0c0.228-0.104,0.475-0.176,0.734-0.208l4.947-0.655 l-0.351-4.787c-0.097-1.32,0.853-2.487,2.165-2.661l4.49-0.595l-0.323-4.402c-0.097-1.32,0.853-2.488,2.165-2.662l4.479-0.593 l-0.304-4.903c-0.019-0.269,0.006-0.531,0.068-0.781c0.092-0.367,0.265-0.704,0.5-0.988c0.001-0.001,0.002-0.002,0.003-0.003 c0,0,0,0,0.001,0c0.229-0.277,0.521-0.505,0.854-0.663c0.002,0,0.003-0.001,0.004-0.001l0,0c0.234-0.11,0.488-0.186,0.757-0.218 l4.946-0.655l-0.351-4.787c-0.097-1.32,0.853-2.487,2.165-2.661l4.49-0.595l-0.323-4.402c-0.097-1.32,0.853-2.488,2.165-2.662 l4.479-0.593l-0.211-3.395l-14.571-6.336c-9.745-3.856-20.922-1.542-28.395,5.93L41.375,113.031L68.155,148.52z M45.765,177.727 c-2.124,0-4.247-0.808-5.863-2.425l-25.36-25.36c-1.566-1.566-2.429-3.648-2.429-5.863c0-2.215,0.863-4.297,2.429-5.863l1.976-1.976 c1.566-1.566,3.648-2.429,5.863-2.429s4.297,0.862,5.863,2.429l25.36,25.36h0c3.232,3.233,3.232,8.494,0,11.726l-1.977,1.977 C50.012,176.919,47.888,177.727,45.765,177.727z M22.381,138.811c-0.879,0-1.706,0.342-2.328,0.964l-1.976,1.976 c-0.622,0.622-0.964,1.449-0.964,2.328c0,0.879,0.343,1.706,0.964,2.328l25.36,25.36c1.284,1.283,3.371,1.283,4.655,0l1.977-1.977 c1.283-1.283,1.283-3.372,0-4.655l-25.36-25.36C24.087,139.153,23.261,138.811,22.381,138.811z"/> </g>

</svg>