<!DOCTYPE svg PUBLIC "-//W3C//DTD SVG 1.1//EN" "http://www.w3.org/Graphics/SVG/1.1/DTD/svg11.dtd">
<!-- Uploaded to: SVG Repo, www.svgrepo.com, Transformed by: SVG Repo Mixer Tools -->
<svg height="800px" width="800px" version="1.1" id="Layer_1" xmlns="http://www.w3.org/2000/svg" xmlns:xlink="http://www.w3.org/1999/xlink" viewBox="0 0 512 512" xml:space="preserve" fill="#262727" stroke="#262727">
<g id="SVGRepo_bgCarrier" stroke-width="0"/>
<g id="SVGRepo_tracerCarrier" stroke-linecap="round" stroke-linejoin="round"/>
<g id="SVGRepo_iconCarrier"> <g transform="translate(1 1)"> <path style="fill:#FFFFFF;" d="M214.04,468.333V331.8h-9.387l-5.12-42.667h-25.6l8.533,42.667h17.067v136.533 c0,18.773,15.36,34.133,34.133,34.133C223.427,502.467,214.04,487.107,214.04,468.333"/> <path style="fill:#22bfa5;" d="M267.8,289.133l-5.12,42.667h-9.387v136.533c0,18.773-8.533,34.133-19.627,34.133 c18.773,0,34.133-15.36,34.133-34.133V331.8h17.067l8.533-42.667H267.8z"/> <path style="fill:#57e0ea;" d="M242.2,306.2c-5.12,0-8.533-3.413-8.533-8.533v-59.733c0-18.773,15.36-34.133,34.133-34.133 c70.827-5.973,179.2-15.36,186.027-17.067c15.36-3.413,27.307-17.92,27.307-34.133v-34.133c0-18.773-15.36-34.133-34.133-34.133 c-5.12,0-8.533-3.413-8.533-8.533s3.413-8.533,8.533-8.533c28.16,0,51.2,23.04,51.2,51.2V152.6c0,24.747-17.067,46.08-40.96,51.2 c-7.68,1.707-158.72,14.507-188.587,17.067c-10.24,0-17.92,7.68-17.92,17.067v59.733C250.733,302.787,247.32,306.2,242.2,306.2z"/> <path style="fill:#1e8a7d;" d="M276.333,289.133H191l8.533,42.667h14.507v136.533c0,18.773,8.533,34.133,19.627,34.133 c11.093,0,19.627-15.36,19.627-34.133V331.8H267.8L276.333,289.133z"/> <path style="fill:#57e0ea;" d="M395.8,127H80.067C70.68,127,63,119.32,63,109.933V24.6c0-9.387,7.68-17.067,17.067-17.067H395.8 c9.387,0,17.067,7.68,17.067,17.067v85.333C412.867,119.32,405.187,127,395.8,127"/> <path style="fill:#22bfa5;" d="M421.4,7.533h-25.6c9.387,0,17.067,7.68,17.067,17.067v85.333c0,9.387-7.68,17.067-17.067,17.067 h25.6c9.387,0,17.067-7.68,17.067-17.067V24.6C438.467,15.213,430.787,7.533,421.4,7.533"/> <path style="fill:#FFFFFF;" d="M63,109.933V24.6c0-9.387,7.68-17.067,17.067-17.067h-25.6C45.08,7.533,37.4,15.213,37.4,24.6 v85.333C37.4,119.32,45.08,127,54.467,127h25.6C70.68,127,63,119.32,63,109.933"/> <path d="M421.4,135.533H54.467c-14.507,0-25.6-11.093-25.6-25.6V24.6c0-14.507,11.093-25.6,25.6-25.6H421.4 C435.907-1,447,10.093,447,24.6v85.333C447,124.44,435.907,135.533,421.4,135.533z M54.467,16.067 c-4.267,0-8.533,4.267-8.533,8.533v85.333c0,5.12,3.413,8.533,8.533,8.533H421.4c5.12,0,8.533-3.413,8.533-8.533V24.6 c0-5.12-3.413-8.533-8.533-8.533H54.467z"/> <path d="M233.667,297.667c-5.12,0-8.533-3.413-8.533-8.533V229.4c0-18.773,15.36-34.133,34.133-34.133 c70.827-5.973,179.2-15.36,186.027-17.067c15.36-3.413,27.307-17.92,27.307-34.133v-34.133c0-18.773-15.36-34.133-34.133-34.133 c-5.12,0-8.533-3.413-8.533-8.533s3.413-8.533,8.533-8.533c28.16,0,51.2,23.04,51.2,51.2v34.133c0,24.747-17.067,46.08-40.96,51.2 c-7.68,1.707-158.72,14.507-188.587,17.067c-10.24,0-17.92,7.68-17.92,17.067v59.733 C242.2,294.253,238.787,297.667,233.667,297.667z"/> <path d="M37.4,75.8H20.333c-5.12,0-8.533-3.413-8.533-8.533s3.413-8.533,8.533-8.533H37.4c5.12,0,8.533,3.413,8.533,8.533 S42.52,75.8,37.4,75.8z"/> <path d="M225.133,434.2h-25.6c-5.12,0-8.533-3.413-8.533-8.533s3.413-8.533,8.533-8.533h25.6c5.12,0,8.533,3.413,8.533,8.533 S230.253,434.2,225.133,434.2z"/> <path d="M225.133,468.333h-25.6c-5.12,0-8.533-3.413-8.533-8.533s3.413-8.533,8.533-8.533h25.6c5.12,0,8.533,3.413,8.533,8.533 S230.253,468.333,225.133,468.333z"/> <path d="M233.667,511C209.773,511,191,492.227,191,468.333v-128h-8.533c-4.267,0-7.68-2.56-8.533-6.827L165.4,290.84 c-0.853-2.56,0-5.12,1.707-6.827c1.707-1.707,4.267-3.413,6.827-3.413H293.4c2.56,0,5.12,0.853,6.827,3.413 c1.707,1.707,2.56,4.267,1.707,6.827l-8.533,42.667c-0.853,4.267-4.267,6.827-8.533,6.827h-8.533v128 C276.333,492.227,257.56,511,233.667,511z M189.293,323.267h10.24c5.12,0,8.533,3.413,8.533,8.533v136.533 c0,14.507,11.093,25.6,25.6,25.6c14.507,0,25.6-11.093,25.6-25.6V331.8c0-5.12,3.413-8.533,8.533-8.533h10.24l5.12-25.6h-98.987 L189.293,323.267z"/> <path d="M131.267,101.4H37.4c-5.12,0-8.533-3.413-8.533-8.533s3.413-8.533,8.533-8.533h93.867c5.12,0,8.533,3.413,8.533,8.533 S136.387,101.4,131.267,101.4z"/> <path d="M216.6,50.2H37.4c-4.267,0-8.533-3.413-8.533-8.533s3.413-8.533,8.533-8.533h179.2c5.12,0,8.533,3.413,8.533,8.533 S221.72,50.2,216.6,50.2z"/> <path d="M438.467,50.2H370.2c-5.12,0-8.533-3.413-8.533-8.533s3.413-8.533,8.533-8.533h68.267c5.12,0,8.533,3.413,8.533,8.533 S443.587,50.2,438.467,50.2z"/> <path d="M438.467,101.4h-153.6c-5.12,0-8.533-3.413-8.533-8.533s3.413-8.533,8.533-8.533h153.6c5.12,0,8.533,3.413,8.533,8.533 S443.587,101.4,438.467,101.4z"/> </g> </g>
</svg>