<?xml version="1.0" encoding="iso-8859-1"?>
<!-- Uploaded to: SVG Repo, www.svgrepo.com, Generator: SVG Repo Mixer Tools -->
<!DOCTYPE svg PUBLIC "-//W3C//DTD SVG 1.1//EN" "http://www.w3.org/Graphics/SVG/1.1/DTD/svg11.dtd">
<svg version="1.1" id="Capa_1" xmlns="http://www.w3.org/2000/svg" xmlns:xlink="http://www.w3.org/1999/xlink" 
	 viewBox="0 0 58 58" xml:space="preserve">
<g>
	<rect style="fill:#556080;" width="58" height="58"/>
	<g>
		<rect x="5" y="37" style="fill:#556080;" width="48" height="8"/>
		<path style="fill:#26B99A;" d="M54,46H4V36h50V46z M6,44h46v-6H6V44z"/>
	</g>
	<g>
		<rect x="5" y="45" style="fill:#556080;" width="48" height="8"/>
		<path style="fill:#26B99A;" d="M54,54H4V44h50V54z M6,52h46v-6H6V52z"/>
	</g>
	<g>
		<rect x="5" y="29" style="fill:#556080;" width="48" height="8"/>
		<path style="fill:#26B99A;" d="M54,38H4V28h50V38z M6,36h46v-6H6V36z"/>
	</g>
	<g>
		<rect x="5" y="21" style="fill:#556080;" width="48" height="8"/>
		<path style="fill:#26B99A;" d="M54,30H4V20h50V30z M6,28h46v-6H6V28z"/>
	</g>
	<g>
		<rect x="5" y="13" style="fill:#556080;" width="48" height="8"/>
		<path style="fill:#26B99A;" d="M54,22H4V12h50V22z M6,20h46v-6H6V20z"/>
	</g>
	<g>
		<rect x="5" y="5" style="fill:#556080;" width="48" height="8"/>
		<path style="fill:#26B99A;" d="M54,14H4V4h50V14z M6,12h46V6H6V12z"/>
	</g>
</g>
</svg>