<?xml version="1.0" standalone="no"?>
<!DOCTYPE svg PUBLIC "-//W3C//DTD SVG 20010904//EN"
 "http://www.w3.org/TR/2001/REC-SVG-20010904/DTD/svg10.dtd">
<svg version="1.0" xmlns="http://www.w3.org/2000/svg"
 width="260.000000pt" height="260.000000pt" viewBox="0 0 260.000000 260.000000"
 preserveAspectRatio="xMidYMid meet">
<metadata>
Created by potrace 1.14, written by Peter Selinger 2001-2017
</metadata>
<g transform="translate(0.000000,260.000000) scale(0.100000,-0.100000)"
fill="#000000" stroke="none">
<path d="M1749 2534 c-206 -146 -369 -277 -365 -293 3 -9 10 -46 17 -83 6 -38
15 -65 21 -62 5 3 93 69 196 147 209 158 339 245 463 311 l84 46 -161 0 -160
0 -95 -66z"/>
<path d="M2515 2553 c-94 -20 -240 -75 -350 -132 -201 -104 -731 -486 -721
-520 3 -9 10 -47 17 -84 10 -63 13 -67 29 -55 10 7 107 81 217 163 242 184
367 267 526 350 111 58 311 135 351 135 13 0 16 13 16 80 0 44 -3 80 -7 79 -5
0 -39 -7 -78 -16z"/>
<path d="M2503 2226 c-116 -43 -288 -133 -435 -228 -104 -68 -552 -400 -562
-416 -2 -4 3 -44 11 -89 l15 -83 23 18 c304 232 455 342 565 414 131 87 337
198 433 233 l47 18 0 83 c0 46 -1 84 -2 84 -2 -1 -44 -16 -95 -34z"/>
<path d="M1230 2153 c-158 -108 -407 -210 -615 -252 -141 -28 -358 -44 -498
-36 l-117 7 2 -783 3 -784 70 -12 c414 -68 861 30 1344 296 72 40 131 75 131
79 0 15 -249 1524 -252 1527 -2 1 -32 -17 -68 -42z m-496 -630 c30 -78 61
-153 68 -167 l13 -25 101 48 c55 27 126 65 157 85 32 19 57 33 57 29 0 -13
-102 -187 -161 -275 -33 -48 -59 -93 -59 -99 0 -7 34 -77 75 -157 42 -80 73
-147 71 -150 -8 -8 -169 35 -248 67 l-72 29 -91 -85 c-91 -86 -233 -198 -240
-191 -2 2 23 86 55 186 33 100 60 186 60 191 0 5 -35 32 -77 61 -43 29 -115
82 -161 119 l-82 66 190 5 c138 4 193 9 199 18 4 7 25 98 46 202 21 105 39
189 41 188 1 -2 27 -67 58 -145z"/>
<path d="M2445 1852 c-154 -81 -257 -144 -423 -263 -141 -102 -449 -335 -455
-346 -3 -5 2 -45 10 -90 l15 -82 137 105 c349 269 593 435 784 534 l87 45 0
83 c0 59 -3 82 -12 82 -7 0 -71 -31 -143 -68z"/>
<path d="M2505 1527 c-180 -100 -387 -243 -710 -490 -93 -72 -171 -131 -172
-132 -4 -2 27 -158 32 -164 3 -2 22 9 43 26 250 201 676 504 828 589 36 20 68
42 70 49 3 6 4 48 2 92 l-3 80 -90 -50z"/>
<path d="M2529 1236 c-120 -72 -283 -186 -491 -342 -473 -356 -737 -509 -1073
-619 -218 -72 -413 -105 -620 -105 -109 0 -244 11 -317 26 -26 5 -28 3 -28
-30 0 -32 3 -36 38 -45 455 -122 984 -56 1526 190 159 73 355 178 591 319 99
59 240 140 313 180 l132 72 0 194 c0 107 -3 194 -7 194 -5 0 -33 -15 -64 -34z"/>
</g>
</svg>
