<!DOCTYPE svg PUBLIC "-//W3C//DTD SVG 1.1//EN" "http://www.w3.org/Graphics/SVG/1.1/DTD/svg11.dtd">

<!-- Uploaded to: SVG Repo, www.svgrepo.com, Transformed by: SVG Repo Mixer Tools -->
<svg height="800px" width="800px" version="1.1" id="Layer_1" xmlns="http://www.w3.org/2000/svg" xmlns:xlink="http://www.w3.org/1999/xlink" viewBox="0 0 508.19 508.19" xml:space="preserve" fill="#000000">

<g id="SVGRepo_bgCarrier" stroke-width="0"/>

<g id="SVGRepo_tracerCarrier" stroke-linecap="round" stroke-linejoin="round"/>

<g id="SVGRepo_iconCarrier"> <path style="fill:rgb(75 85 99 );" d="M182.452,187.145c-7.945,37.959-45.021,62.676-82.979,54.731s-62.676-45.021-54.731-82.979 L22.673,263.062c-7.945,37.959,16.772,75.917,54.731,82.979c37.959,7.945,75.917-16.772,82.979-54.731L182.452,187.145z"/> <path style="fill:#0d8155;" d="M161.266,288.662c-7.945,37.959-45.021,62.676-82.979,54.731s-62.676-45.021-54.731-82.979 L1.486,363.697c-7.945,37.959,16.772,75.917,54.731,82.979c37.959,7.945,75.917-16.772,82.979-54.731L161.266,288.662z"/> <path style="fill:#6ab06d;" d="M203.638,83.862c-7.945,37.959-45.021,62.676-82.979,54.731 C82.7,130.648,57.983,93.572,65.928,55.614L44.742,158.897c-7.945,37.959,16.772,75.917,54.731,82.979 c37.959,7.945,75.917-16.772,82.979-54.731L203.638,83.862z"/> <path style="fill:rgb(75 85 99 );" d="M318.397,215.393c-7.945,37.959-45.021,62.676-82.979,54.731 c-37.959-7.945-62.676-45.021-54.731-82.979L159.5,291.31c-7.945,37.959,16.772,75.917,54.731,82.979 c37.959,7.945,75.917-16.772,82.979-54.731L318.397,215.393z"/> <path style="fill:#6ab06d;" d="M297.211,319.559c-7.945,37.959-45.021,62.676-82.979,54.731 c-37.959-7.945-62.676-45.021-54.731-82.979l-22.069,103.283c-7.945,37.959,16.772,75.917,54.731,82.979 c37.959,7.945,75.917-16.772,82.979-54.731L297.211,319.559z"/> <path style="fill:#0d8155;" d="M339.583,112.11c-7.945,37.959-45.021,62.676-82.979,54.731s-62.676-45.021-54.731-82.979 l-21.186,104.166c-7.945,37.959,16.772,75.917,54.731,82.979c37.959,7.945,75.917-16.772,82.979-54.731L339.583,112.11z"/> <path style="fill:#6ab06d;" d="M456.107,240.11c-7.945,37.959-45.021,62.676-82.979,54.731 c-37.959-7.945-62.676-45.021-54.731-82.979L297.21,316.028c-7.945,37.959,16.772,75.917,54.731,82.979 c37.959,7.945,75.917-16.772,82.979-54.731L456.107,240.11z"/> <path style="fill:rgb(75 85 99 );" d="M434.921,343.393c-7.945,37.959-45.021,62.676-82.979,54.731s-62.676-45.021-54.731-82.979 L276.024,419.31c-7.945,37.959,16.772,75.917,54.731,82.979c37.959,7.945,75.917-16.772,82.979-54.731L434.921,343.393z"/> <path style="fill:#0d8155;" d="M477.293,136.828c-7.945,37.959-45.021,62.676-82.979,54.731s-62.676-45.021-54.731-82.979 l-21.186,104.166c-7.945,37.959,16.772,75.917,54.731,82.979c37.959,7.945,75.917-16.772,82.979-54.731L477.293,136.828z"/> <path style="fill:rgb(75 85 99 );" d="M499.362,39.724c-7.945,37.959-45.021,60.028-82.979,52.083 c-38.841-7.945-57.379-49.434-49.434-87.393L339.583,112.11c-7.945,37.959,16.772,75.917,54.731,82.979 c37.959,7.945,75.917-16.772,82.979-54.731L499.362,39.724z"/> <path style="fill:#6ab06d;" d="M366.948,4.414c-7.945,37.959,10.593,79.448,49.434,87.393c37.959,7.945,75.917-13.241,82.979-52.083 l8.828-35.31C508.19,4.414,366.948,4.414,366.948,4.414z"/> <path style="fill:#0d8155;" d="M96.824,4.414H75.638l-9.71,51.2c-0.883,4.414-1.766,8.828-1.766,14.124 c0,32.662,22.952,61.793,56.497,68.855c37.959,7.945,75.917-16.772,82.979-54.731l0,0l15.89-79.448h-4.414 C215.114,4.414,96.824,4.414,96.824,4.414z"/> <path style="fill:rgb(75 85 99 );" d="M220.411,4.414c-14.124,20.303-53.848,35.31-80.331,35.31S87.997,19.421,78.286,4.414H82.7h114.759 H220.411z"/> <path style="fill:#6ab06d;" d="M366.948,4.414c-7.945,37.959-43.255,52.966-79.448,52.966c-23.835,0-30.897-13.241-44.138-26.483 c-7.945-7.945-11.476-15.89-26.483-26.483L199.224,92.69c-7.945,37.959,18.538,82.097,56.497,90.041 c37.959,7.945,75.917-16.772,82.979-54.731L366.948,4.414z"/> <path style="fill:rgb(75 85 99 );" d="M277.79,63.559c37.959,7.062,81.214-21.186,89.159-59.145H216.879 C221.293,32.662,247.776,57.379,277.79,63.559"/> </g>

</svg>