<svg xmlns="http://www.w3.org/2000/svg" xmlns:xlink="http://www.w3.org/1999/xlink" viewBox="0 0 1275.55 523.63"><defs><style>.cls-1{fill:#222d52;}.cls-2{fill:url(#linear-gradient);}.cls-3{fill:#808588;}.cls-4{fill:url(#linear-gradient-2);}</style><linearGradient id="linear-gradient" x1="300.99" x2="300.99" y2="281.84" gradientUnits="userSpaceOnUse"><stop offset="0.13" stop-color="#c49e66"></stop><stop offset="1" stop-color="#6c5940"></stop></linearGradient><linearGradient id="linear-gradient-2" x1="630.54" y1="414.72" x2="630.54" y2="523.63" gradientUnits="userSpaceOnUse"><stop offset="0" stop-color="#c49e66"></stop><stop offset="0.77" stop-color="#6c5940"></stop></linearGradient></defs><g id="Layer_2" data-name="Layer 2"><g id="Layer_1-2" data-name="Layer 1"><path class="cls-1" d="M675.77,244.42H576.22v-12.6c4.12-.44,8.23-.77,12.3-1.33,12.92-1.77,18.77-8.88,17.82-21.88-1.13-15.44-2.41-30.88-3.67-46.32q-3.88-47.55-7.82-95.1a4.88,4.88,0,0,0-1.41-3.38c-1.52,3.74-3.08,7.47-4.55,11.23q-32.34,82.48-64.62,165c-1.06,2.72-1.8,4.88-5.68,4.82s-4.67-2-5.82-4.75q-35.43-86.34-71-172.62c-.67-1.62-1.43-3.19-2.73-6.07-1.79,21.66-3.47,41.87-5.13,62.08q-3.36,40.83-6.67,81.67c-.18,2.15-.34,4.32-.32,6.48.05,9,4.66,15.34,13.35,17.62a73.06,73.06,0,0,0,14.29,2c3.8.22,5.37,1.22,4.79,5.36-1.11,8-.92,8-9.05,8H380.67V231.77c3.07-.36,5.88-.6,8.67-1,11.57-1.84,17.35-7.57,18.6-19.35,1.51-14.24,2.61-28.52,3.78-42.8q4.23-52,8.35-104.09c1.21-15.23-5.7-23.11-21.05-24.07l-5.77-.35V27.13c1.5-.06,3.1-.19,4.7-.19,23,0,46,.1,69-.12,3.9,0,5.43,1.4,6.73,4.81Q501,103.2,528.63,174.68c.53,1.38,1.1,2.74,2,5,.91-2.21,1.56-3.67,2.12-5.17q26.44-71.36,52.79-142.75c1.28-3.49,2.71-4.94,6.62-4.91,24,.19,48,.1,72.23.1.24.95.5,1.69.61,2.45,1.47,10.12,1.46,10.12-8.41,11.13-14.68,1.48-21.75,9.68-20.52,24.54,3.73,44.81,7.64,89.61,11.48,134.42.31,3.65.47,7.32.91,10.95,1.62,13.35,6.46,18.34,19.7,20.47C678.4,232.53,679.07,233.7,675.77,244.42Z"></path><path class="cls-1" d="M1156.78,127.61c15.8,0,31,.54,46-.19,10.24-.5,15.57-7.27,17-18.92.52-4.13.78-8.29,1.23-13.22h12.49v75.5c-3.14.36-6.42,1.05-9.67.93-1.08,0-2.7-2-3-3.35-.78-3.39-.68-7-1.44-10.37-2.13-9.51-7.57-14.89-17.2-15.25-14.94-.54-29.91-.14-45.21-.14-.1,1.19-.25,2.14-.25,3.09,0,21.83-.1,43.66,0,65.49.06,13,5.93,19.82,18.83,20.39,13.95.62,28.06,1,41.91-.36,20.52-2.09,35.7-13.57,46.51-31,1.4-2.26,2.62-4.63,3.92-6.93,7.64.81,8.62,2.15,6.73,9.28-3.75,14.13-7.51,28.25-11.33,42.6H1087.23v-12.7c4.3-.65,8.71-1.1,13-2,8.13-1.71,12.57-7.06,13.77-15.13a66.46,66.46,0,0,0,.71-9.45q.06-70,0-140a55.85,55.85,0,0,0-.33-6.47c-1.42-12.26-7-17.71-19.2-19-2.63-.27-5.26-.47-8-.72V26.6h167.57a15.13,15.13,0,0,1,4,.1c3,.86,5.3,2.08,4.28,6.25q-5,20.61-9.42,41.37c-.89,4.2-3.39,4.6-6.89,4.71-3.93.12-3.51-2.53-3.9-5-3.56-22.57-15.45-32.82-40.18-34a241,241,0,0,0-26.47.41c-12.82.8-19.31,7.86-19.37,20.7C1156.71,83.16,1156.78,105.13,1156.78,127.61Z"></path><path class="cls-1" d="M697.3,40.06V26.93h5.58c32.5,0,65-.09,97.49.05,12.39.05,24.52,1.74,36,6.89C855,42.21,864.22,56.6,867.07,76.65c6.25,44-26,68.46-59.14,73.66-13.24,2.08-26.82,2-41.17,2.91v3.63c0,17,0,34,0,51,0,14.94,5.59,21,20.62,22.71a95.91,95.91,0,0,0,11,.84c3.12,0,4.25,1.27,3.93,4.19s-.63,5.59-1,8.7H697.44V231.85c3.63-.45,7.24-.77,10.81-1.37,9.87-1.66,14.94-6.87,16.34-16.79a49.22,49.22,0,0,0,.31-7q0-71,0-142c0-.83,0-1.66,0-2.5-.29-13.68-6.61-20.47-20.28-21.7C702.34,40.29,700,40.22,697.3,40.06Zm69.82,97.39c5.77,0,11.43.47,17-.08,16.59-1.65,29.32-9.49,36.6-24.82A67.24,67.24,0,0,0,826,71.15c-3.72-21-17.77-32-39.06-30.79-13.29.75-20,7.12-20.1,20.42-.27,24.81-.1,49.62-.09,74.44A17.44,17.44,0,0,0,767.12,137.45Z"></path><path class="cls-1" d="M122.62,76.76c-1-13.06-6.77-22.87-16.84-30a48.75,48.75,0,0,0-39.94-7.94c-10.72,2.37-18.45,8.86-21.4,19.54C41.16,70.29,42.81,81.57,51.6,91c11.18,12,26.06,18.15,40.22,25.55,11.91,6.21,24.18,12.19,34.89,20.15,25.92,19.25,29.82,47.77,19.82,71.17-8.45,19.74-24.93,31.24-45,37.49-23.43,7.3-46.86,4.22-70-1.51-8.49-2.1-16.64-5.72-24.74-9.14C5,234,3.31,231.2,3.13,229.22,1.87,216,1,202.66.05,189.37c-.36-5,1-6.6,6-6.92,1.83-.11,3.66-.23,5.48-.36l6.06-.43c.28,1.78.59,3.5.8,5.23A52.79,52.79,0,0,0,70,233.51c9.54.22,18.6-1.23,26.69-6.62,17.24-11.49,19.72-36.78,5.07-51.4C90.42,164.19,76.07,157.73,62,150.91,47.4,143.82,33.44,136,21.89,124.26-3.51,98.39-3.64,43.87,47.63,26.49c16.1-5.46,32.42-4.63,48.91-2.63,9.4,1.14,18.86,2,28.32,2.31,4,.11,8-1.79,12-2.57a5.51,5.51,0,0,1,3.86.43,4.34,4.34,0,0,1,1.53,3.52q-4.77,22.71-9.92,45.35C131,78.82,126.21,75.42,122.62,76.76Z"></path><path class="cls-1" d="M1060.27,192.6c8.06,1.79,8.43,2.34,6.52,9.58-3.71,14-7.42,27.95-11.19,42.18H884.05V232c4.76-.79,9.38-1.29,13.86-2.35,8-1.88,11.89-7.49,13-15.26a59.75,59.75,0,0,0,.48-8.46q0-70,0-140c0-1.83,0-3.67-.16-5.49-1-12.72-6.62-18.47-19.34-19.91-2.46-.27-4.94-.32-7.78-.5V27.16c1.72-.08,3.49-.22,5.26-.22q44.24,0,88.47,0c1.77,0,4.91.66,5.06,1.45a46.48,46.48,0,0,1,.4,10.75c0,.42-2.26.87-3.5,1.06-4.43.66-8.94.91-13.29,1.88C959.22,43.77,955.3,48.9,954,56a48.67,48.67,0,0,0-.82,8.94q-.07,70.73,0,141.47c0,1.34,0,2.67.06,4,1.09,14.79,7,20.73,21.76,20.94,12.14.17,24.4.54,36.4-.9,21.18-2.55,36.27-14.68,46.46-33.16C1058.65,195.73,1059.47,194.13,1060.27,192.6Z"></path><path class="cls-2" d="M362.2,0c6.81,12.1,10.63,24,11.69,36.67,1.66,20-4.31,38.11-14.06,55.24-12,21.13-28,39.25-43.62,57.69-16.33,19.34-32.73,38.62-45.68,60.52-11.69,19.77-19.37,40.82-20.81,63.93-.14,2.3-.61,4.57-1.06,7.79-10-12-17.1-24.47-19.76-39.23-3.42-18.94,1.49-36.29,10.37-52.82,11.68-21.76,28.07-40,44.08-58.49,16.88-19.51,33.86-39,49.86-59.19,12.56-15.88,22.1-33.68,26.19-53.87C360.54,12.61,361.16,6.86,362.2,0Z"></path><path class="cls-3" d="M629.85,285.34c7.24,0,14.23-.23,21.19.17,1.63.09,3.6,2,4.63,3.63,11.28,17.48,22.4,35.07,33.58,52.61,1,1.49,2,2.92,3.76,5.47V285.69h21.56V380c-6.89,0-13.85.21-20.78-.17-1.46-.08-3.16-2.1-4.15-3.62-11.76-18-23.4-36-35.09-54-.87-1.35-1.83-2.64-3.45-5v62.5H629.85Z"></path><path class="cls-3" d="M1103.67,380c-7,0-13.85.24-20.62-.18-1.62-.11-3.52-2.18-4.59-3.81-11.59-17.69-23-35.47-34.55-53.22-1-1.53-2-3-3.69-5.55v62.43h-21.89V285.36c7.65,0,15.1-.17,22.52.17,1.3.05,2.81,2,3.72,3.46q17,26.47,33.88,53.05c.88,1.4,1.8,2.77,3.53,5.42V285.61h21.69Z"></path><path class="cls-1" d="M148.55,12.93a110,110,0,0,1,43.57,5c33.73,10.8,56.42,33.84,70.59,65.52,5.2,11.61,8.31,24.16,12.48,36.24a13.37,13.37,0,0,1-2.28,13.2c-6.52,8.39-13.29,16.59-20.61,25.67-2.78-5.63-5.42-10.22-7.38-15.09-6.81-17-13-34.21-20.16-51.05-11.47-27-27.89-50.38-53-66.57-6-3.87-12.47-7-18.73-10.44Z"></path><path class="cls-3" d="M781,379.6V285.26c17.55.95,35.07-2.28,52.14,2.9,22,6.66,34,25.82,31.48,49.35-2.73,25-18.27,40.44-43.3,41.95C808.05,380.26,794.72,379.6,781,379.6Zm22.25-18.82c13.1.61,26.3,1.58,34.18-11.28,6.87-11.21,6.71-23.37-.31-34.52-8-12.65-21.05-11.22-33.87-10.77Z"></path><path class="cls-3" d="M1239.12,342.93h-19.63V326.42H1261c0,12.45,0,24.75-.07,37.05a5.52,5.52,0,0,1-1.58,3.42c-18.87,19-61.25,21.52-79.7-3.15-12.39-16.57-13.37-35.07-5.21-53.43,8-17.93,23.58-25.5,42.63-26.27,15.85-.64,29.92,3.67,41.26,16.43l-14.79,12.88c-6.36-6.59-13.74-10.42-22.67-10.82-17.29-.77-30,13.23-28.62,31.56,1.12,15.2,8.17,25.64,20.67,27.66,6.78,1.09,14.1-.47,21.07-1.54,3.69-.57,5.86-3.33,5.25-7.71C1238.79,349.6,1239.12,346.59,1239.12,342.93Z"></path><path class="cls-3" d="M560.05,322.24v18.23H523.67V361.4h39.64v18.2h-62.2V285.72h61v17.4H523.85v19.12Z"></path><path class="cls-3" d="M402.58,361.59h32.54V380H380.83V285.69h21.75Z"></path><path class="cls-1" d="M289.13,323.85c-21.46-7.16-33.8-26.57-31.57-50.22,3.34-35.5,19.56-65.18,43.08-91.28a19.14,19.14,0,0,1,2.64-2.27,4.17,4.17,0,0,1,2.84-.88c-.76,1.5-1.5,3-2.28,4.49C292.66,205,283.56,227,279.71,251c-3.75,23.27-.95,45.74,7.45,67.64C287.73,320.1,288.29,321.6,289.13,323.85Z"></path><path class="cls-3" d="M952.42,379.69H930.35V285.75h22.07Z"></path></g></g></svg>