<?xml version="1.0" encoding="utf-8"?>
<!-- Generator: Adobe Illustrator 27.7.0, SVG Export Plug-In . SVG Version: 6.00 Build 0)  -->
<svg version="1.1" id="Layer_1" xmlns="http://www.w3.org/2000/svg" xmlns:xlink="http://www.w3.org/1999/xlink" x="0px" y="0px"
	 viewBox="0 0 158 48" style="enable-background:new 0 0 158 48;" xml:space="preserve">
<style type="text/css">
	.st0{fill-rule:evenodd;clip-rule:evenodd;fill:#231F20;}
</style>
<g>
	<path class="st0" d="M0.9,9.9h6.5c4.1,0,5.3,0,6.9,2c0.8,0.8,1.2,2.4,1.2,3.7c0,1.6-0.8,2.9-2.4,4.1c3.7,1.2,3.3,4.5,3.3,5.7
		c0,1.6-0.4,3.3-2,4.5c-2,1.6-2.9,2-6.5,2H0.9V9.9L0.9,9.9z M6.7,18h1.6c0.8,0,2,0,2-1.6c0-1.6-1.2-1.6-2-1.6H6.7V18L6.7,18z
		 M6.7,27h2c0.8,0,2.9,0,2.4-2c0.4-2-1.2-2-2.4-2h-2V27L6.7,27z"/>
	<polygon class="st0" points="18.1,9.9 23,9.9 23,31.9 18.1,31.9 18.1,9.9 	"/>
	<path class="st0" d="M33.2,14.8c6.1,0,9,4.5,9,9c0,3.7-2.9,8.6-9,8.6c-5.7,0-8.6-4.9-9-8.6C24.6,19.2,27.4,14.8,33.2,14.8
		L33.2,14.8z M33.2,27.8c2.4,0,4.1-2,4.1-4.1c0-2.9-1.6-4.5-4.1-4.5c-2,0-3.7,1.6-3.7,4.5C29.5,25.8,31.1,27.8,33.2,27.8L33.2,27.8z
		"/>
	<path class="st0" d="M52.3,14.8c6.1,0,9,4.5,9,9c0,3.7-2.9,8.6-9,8.6c-6.1,0-9-4.9-9-8.6C43.3,19.2,46.2,14.8,52.3,14.8L52.3,14.8z
		 M52.3,27.8c2,0,4.1-2,4.1-4.1c0-2.9-2-4.5-4.1-4.5c-2,0-4.1,1.6-4.1,4.5C48.2,25.8,50.3,27.8,52.3,27.8L52.3,27.8z"/>
	<path class="st0" d="M62.5,15.2H67v2c0.4-0.8,1.6-2.4,4.5-2.4c1.6,0,3.7,0.4,4.9,2.9c1.2-1.6,2.9-2.9,5.3-2.9c1.2,0,3.3,0,4.5,1.6
		c1.6,1.6,1.6,2.9,1.6,6.5v9h-4.9v-9c0-1.2,0-3.7-2.4-3.7c-2.9,0-2.9,2.4-2.9,3.7v9h-4.9v-9c0-1.2,0-3.7-2.4-3.7
		c-2.9,0-2.9,2.9-2.9,3.7v9h-4.9V15.2L62.5,15.2z"/>
	<path class="st0" d="M89.8,9.9h5.3v6.9c1.6-2,4.1-2,4.5-2c3.7,0,8.6,2.4,8.2,8.6c0.4,6.1-4.1,9-8.2,9c-2.4,0-4.1-1.2-4.9-2v1.6
		h-4.9V9.9L89.8,9.9z M98.8,27.8c2.4,0,4.1-2,4.1-4.1c0-2.4-1.6-4.5-4.1-4.5c-2.4,0-4.1,2-4.1,4.5C94.7,25.8,96.3,27.8,98.8,27.8
		L98.8,27.8z"/>
	<path class="st0" d="M126.5,26.6c-0.8,2-2,3.3-3.7,4.5c-1.2,0.8-2.9,1.2-4.5,1.2c-4.9,0-9-3.7-9-8.6c0-4.9,3.7-9,8.6-9
		c5.3,0,9,4.1,9,9c0,0.8,0,0.8,0,1.2h-12.6c0.4,2,2,3.3,4.1,3.3c1.6,0,2.4-0.8,2.9-1.6H126.5L126.5,26.6z M122,21.7
		c0-0.8-1.2-2.9-3.7-2.9c-2.4,0-3.7,2-4.1,2.9H122L122,21.7z"/>
	<path class="st0" d="M129,15.2h4.5v2c0.8-0.8,2.9-2,4.9-1.6v4.5c-2,0-4.5,0-4.5,2.9v9H129V15.2L129,15.2z"/>
	<path class="st0" d="M157.1,29.8c0,2.4-0.4,5.7-1.2,6.9c-1.2,2-4.1,4.1-8.2,3.7c-5.7-0.8-7.3-3.3-7.7-5.7h5.3
		c0.8,1.2,2.4,1.2,2.9,1.6c2.4-0.4,4.1-0.4,3.7-5.7v-0.4c-0.4,0.8-1.6,2-4.5,2c-4.5,0-8.2-3.3-8.2-8.6c0-5.7,4.1-9,8.2-9
		c2,0,3.7,0.4,4.5,2v-1.6h5.3V29.8L157.1,29.8z M148.1,27.8c2.4,0,4.1-1.6,3.7-4.1c0.4-2.9-1.6-4.5-3.7-4.5c-2,0-4.1,1.6-4.1,4.5
		C144,26.2,146.1,27.8,148.1,27.8L148.1,27.8z"/>
</g>
</svg>
