<?xml version="1.0" encoding="utf-8"?>
<!-- Generator: Adobe Illustrator 27.7.0, SVG Export Plug-In . SVG Version: 6.00 Build 0)  -->
<svg version="1.1" id="Layer_1" xmlns="http://www.w3.org/2000/svg" xmlns:xlink="http://www.w3.org/1999/xlink" x="0px" y="0px"
	 viewBox="0 0 158 48" style="enable-background:new 0 0 158 48;" xml:space="preserve">
<style type="text/css">
	.st0{fill:#231F20;}
</style>
<g>
	<path class="st0" d="M47.1,7.3L45.4,7h-0.1V5.7h9.2V7h-0.3c-1.1-0.1-1.6,0.3-1.6,1.3V9l3.9,20.3l2.4-13.3l-1.3-6.7
		c-0.3-1.7-0.9-2.4-2.1-2.2h-0.1V5.7h8.9V7h-0.1c-1.4-0.1-2.1,0.4-2.1,1.6L66,29.1h0.3l3.6-19.5V8.8c0-1.4-0.7-2-2.1-1.8h-0.4V5.7
		h7.8V7h-0.4l-1.8,0.3l-1.2,2.6l-6.2,29.3h-1.8L59.9,20l-4,19.2h-2L48,9.2L47.1,7.3z"/>
	<path class="st0" d="M88.8,5.3v11.6h-1.2v-0.4c0-6.6-1.8-9.9-5.5-9.9c-2.5-0.1-3.8,1.2-3.7,4.1c0,1.4,0.4,2.9,1.3,4.2l3.9,3.6
		l4.9,4.9c1.3,2,2,4.5,2,7.2c0,5.5-2.6,8.3-7.8,8.3c-2,0-3.9-0.7-5.9-2.1l-0.8,2h-0.9V27h1.1v0.4c0,3.6,0.8,6.2,2.2,8
		c1.2,1.3,2.5,2,3.9,2c3,0,4.6-1.7,4.6-5.3c0-3.3-2-6.4-5.9-9.5c-4.1-3-6.2-6.3-6.2-10.1C74.7,10.1,75.5,8.3,77,7
		c1.2-1.4,2.8-2.1,4.7-2.1c2,0,3.7,0.7,5.4,2.1L88,5.3H88.8z"/>
	<path class="st0" d="M98,30.9c0,2-1.7,3.1-2.9,3.2c-0.6,1,0.9,2.5,0.9,2.5c0.7,0.8,1.6,1.2,2.6,1.2c0,0,1.8,0,2.5-0.6
		c0.7-0.6,0.5-2.5,0.5-4.1s0-24.1,0-24.1c-0.1-1.3-0.7-2-1.8-2h-0.9V5.7h10.1V7h-0.9c-1.2,0-1.8,0.7-1.7,2v23.2
		c-0.1,4.7-2.6,7.1-7.5,7.2c-1.7-0.1-3.2-0.7-4.1-1.8c-1.4-1.4-2.1-3.2-2.1-5.4c0,0,0.1-1.6,1.1-2.6s1.7-0.9,1.7-0.9
		C97,28.6,97.9,29.4,98,30.9"/>
</g>
</svg>
