<svg width="171" height="34" viewBox="0 0 171 34" fill="none" xmlns="http://www.w3.org/2000/svg">
<g clip-path="url(#clip0_1_5308)">
<path fill-rule="evenodd" clip-rule="evenodd" d="M18.9506 1.00315H23.0544V24.5848H18.9448L18.9506 1.00315ZM35.3908 10.6156L36.5562 10.7452L37.5846 11.1105L38.4591 11.6719L39.1736 12.3803L39.7252 13.1946L40.1176 14.0733L40.3534 14.9826L40.435 15.8861L40.3694 16.7794L40.169 17.6645L39.8215 18.527L39.3087 19.3232L38.6201 20.0157L37.7567 20.5574L36.7249 20.9012L35.5389 21.0203L34.3405 20.8948L33.2875 20.5361L32.3967 19.9868L31.6792 19.2943L31.1266 18.5099L30.7375 17.6686L30.5051 16.8125L30.4282 15.9683L30.5042 15.1204L30.7302 14.2385L31.1032 13.3604L31.6351 12.5239L32.3262 11.7761L33.1896 11.1671L34.2171 10.7604L35.3908 10.6156V10.6156ZM26.5439 16.037L26.7464 17.9447L27.3183 19.6739L28.2104 21.2154L29.3758 22.5395L30.7606 23.6216L32.312 24.4288L33.9715 24.932L35.6829 25.1033L37.3688 24.9238L38.9692 24.4024L40.4442 23.5691L41.7506 22.4534L42.8406 21.0908L43.6735 19.5097L44.2045 17.7449L44.3926 15.8213L44.1907 13.9011L43.6221 12.1322L42.7332 10.5409L41.5727 9.15957L40.1894 8.02637L38.6389 7.17654L36.9745 6.64441L35.2517 6.45919L33.5528 6.65267L31.947 7.20323L30.471 8.08037L29.1689 9.24567L28.0805 10.6648L27.254 12.2958L26.7276 14.1003L26.5439 16.037V16.037ZM56.0099 10.6156L57.1753 10.7452L58.2037 11.1105L59.0791 11.6719L59.7936 12.3803L60.3455 13.1946L60.737 14.0733L60.9734 14.9826L61.0553 15.8861L60.9888 16.7794L60.7894 17.6645L60.4409 18.527L59.9281 19.3232L59.2395 20.0164L58.3761 20.5574L57.3437 20.9012L56.1583 21.0203L54.9599 20.8948L53.9069 20.5361L53.0155 19.9868L52.2976 19.2943L51.7451 18.5086L51.3566 17.6683L51.1252 16.8121L51.0482 15.968L51.1236 15.1201L51.3502 14.2382L51.7235 13.3601L52.2545 12.5236L52.9465 11.7758L53.8099 11.1668L54.8374 10.7601L56.0099 10.6156V10.6156ZM47.1623 16.037L47.3658 17.9447L47.9377 19.6739L48.8298 21.2154L49.9952 22.5395L51.3791 23.6216L52.9311 24.4288L54.5899 24.932L56.3008 25.1033L57.9873 24.9235L59.5867 24.4021L61.0621 23.5688L62.37 22.4531L63.4591 21.0905L64.292 19.5093L64.8239 17.7446L65.0114 15.8209L64.8104 13.9008L64.2415 12.1319L63.3516 10.5406L62.1912 9.15926L60.8078 8.02605L59.2583 7.17622L57.5939 6.64409L55.8714 6.45887L54.1725 6.65235L52.567 7.20291L51.0901 8.08006L49.7877 9.24535L48.7002 10.6645L47.8728 12.2955L47.3467 14.1L47.1623 16.037V16.037ZM68.3524 6.97703H71.5977V10.2626L74.0492 7.87451L75.2481 7.11014L76.4935 6.66696L77.7445 6.54465L78.9635 6.75465L80.1319 7.30775L81.2204 8.23668L82.9288 10.5974L84.0107 8.71703L84.6042 8.03526L85.3211 7.46405L86.1411 7.00848L87.0381 6.68126L87.988 6.48111L88.9604 6.41916L89.931 6.49446L90.8664 6.7143L91.7471 7.07297L92.5474 7.57302L93.2483 8.2138L93.8304 9.002L94.2789 9.94936L94.5704 11.0721L94.6778 12.4159V24.5848H90.6469L90.715 13.6854L90.2323 12.0528L89.3239 10.9088L88.1315 10.3144L86.855 10.2416L85.6326 10.6086L84.5682 11.3497L83.7697 12.4328L83.3926 13.7629V24.5101H79.4994V14.6359L79.2232 12.8365L78.4112 11.4711L77.2163 10.6851L75.8653 10.4948L74.5444 10.8456L73.4031 11.6855L72.6021 12.9716L72.3211 14.5511V24.5105H68.2872L68.3524 6.97703V6.97703ZM98.3734 0.928809H102.265V9.74953L104.126 8.03113L104.698 7.64037L105.289 7.3411L105.88 7.12285L106.443 6.97481L106.958 6.88458L107.713 6.8293L109.205 6.97798L110.714 7.4129L112.182 8.13851L113.536 9.15195L114.702 10.4539L115.62 12.0401L116.223 13.924L116.442 16.1145L116.255 17.851L115.729 19.4649L114.905 20.931L113.838 22.2104L112.572 23.2683L111.169 24.0612L109.684 24.5587L108.147 24.7313L107.375 24.6934L106.678 24.5848L106.063 24.4202L105.51 24.2067L105.001 23.9593L104.056 23.3804L102.41 22.2672V24.5848H98.3731V0.928809H98.3734V0.928809ZM102.188 15.7431L102.308 16.9243L102.651 17.9832L103.176 18.9051L103.85 19.6726L104.628 20.2839L105.485 20.7271L106.385 21.0019L107.3 21.0956L108.213 21.0063L109.117 20.7426L109.982 20.3144L110.776 19.7206L111.464 18.9686L112.007 18.0572L112.361 17.0024L112.488 15.8194L112.365 14.6398L112.024 13.5726L111.5 12.6427L110.831 11.86L110.052 11.2376L109.199 10.7789L108.296 10.4939L107.376 10.3932L106.454 10.4882L105.549 10.7617L104.684 11.2055L103.892 11.8113L103.206 12.5792L102.666 13.4992L102.313 14.5622L102.188 15.7431V15.7431ZM147.291 7.85132L147.907 7.42498L148.521 7.11999L149.103 6.93319L149.628 6.84868L149.878 6.85345V10.7179L149.165 10.7337L148.272 10.8627L147.373 11.1321L146.512 11.596L145.775 12.3009L145.27 13.2731L145.103 14.4145V24.6604H140.93L141.129 6.97671H144.74V10.8557L146.693 8.40982L147.291 7.85132V7.85132ZM4.95392 14.256L8.59262 14.2808L9.66997 14.5924L10.5014 15.2812L10.9973 16.1879L11.1863 17.1797L11.0918 18.176L10.7169 19.0998L10.0329 19.8563L9.0725 20.2696H4.96931L4.95392 14.256V14.256ZM4.95669 5.02036L8.18414 5.04165L9.13961 5.31963L9.88144 5.93532L10.3235 6.74353L10.4915 7.6229L10.4066 8.50576L10.0741 9.32827L9.45974 10.0069L8.5997 10.3773H4.96931L4.95669 5.02036V5.02036ZM0.134436 24.4355H9.88545L11.1133 24.2804L12.2113 23.8528L13.2117 23.1882L14.0902 22.3152L14.8151 21.2878L15.3597 20.1504L15.7001 18.9578L15.8201 17.743L15.7546 16.5987L15.5696 15.6109L15.2772 14.7862L14.889 14.1041L14.4042 13.5405L13.8206 13.0745L13.1277 12.6952L10.4552 11.7113L12.7361 10.6832L13.1492 10.384L13.5343 9.97795L13.8803 9.46297L14.1709 8.84633L14.3943 8.12708L14.5369 7.31283L14.5883 6.43092L14.5064 5.67354L14.2515 4.79321L13.8089 3.85507L13.1809 2.94171L12.3649 2.12555L11.3568 1.46603L10.1434 1.02285L8.65911 0.853516H0.123047L0.134436 24.4355ZM162.065 33.917L160.189 33.8166L158.508 33.5126L157.042 33.0198L155.805 32.3486L154.797 31.5102L154.017 30.5063L153.462 29.326L153.353 28.8562H157.971L158.034 28.9934L158.446 29.5389L158.93 29.9646L159.453 30.2756L159.986 30.4929L160.517 30.6289L161.023 30.7039L161.506 30.7242L162.046 30.687L162.703 30.5679L163.43 30.3525L164.183 30.0161L164.91 29.5316L165.548 28.859L165.997 27.9781L166.153 26.9691V21.4215L164.292 23.1453L163.719 23.5351L163.128 23.8354L162.54 24.052L161.974 24.201L161.459 24.2884L160.708 24.343L159.211 24.1966L157.702 23.7617L156.233 23.0364L154.88 22.022L153.713 20.7226L152.797 19.1354L152.195 17.2534L151.977 15.0578L152.163 13.3239L152.69 11.7094L153.511 10.2439L154.58 8.9626L155.844 7.90691L157.248 7.11332L158.734 6.61486L160.273 6.43949L161.042 6.47921L161.739 6.58817L162.354 6.75433L162.907 6.96528L163.415 7.21593C164.312 7.73854 165.154 8.32246 166.011 8.89303V6.58754H170.048L170.063 26.5319L169.897 28.1719L169.442 29.5935L168.721 30.8357L167.763 31.8904L166.59 32.7485L165.232 33.3833L163.717 33.781L162.065 33.917V33.917ZM166.231 15.4305L166.108 14.2509L165.767 13.1905L165.239 12.2714L164.569 11.5016L163.787 10.8932L162.934 10.4488L162.034 10.1743L161.12 10.0783L160.203 10.1702L159.3 10.4332L158.436 10.863L157.643 11.452L156.955 12.2069L156.412 13.1167L156.057 14.174L155.933 15.352L156.053 16.5357L156.393 17.6013L156.917 18.5334L157.587 19.314L158.364 19.9382L159.221 20.396L160.122 20.6807L161.044 20.7795L161.963 20.6858L162.87 20.4116L163.734 19.9703L164.527 19.3629L165.212 18.5973L165.754 17.6766L166.105 16.6145L166.231 15.4305V15.4305ZM137.083 12.6215L136.635 11.615L135.958 10.4958L135.153 9.49569L134.229 8.616L133.207 7.86816L132.103 7.26804L130.94 6.82486L129.733 6.55196L128.52 6.45792L126.81 6.65298L125.204 7.20354L123.727 8.08069L122.425 9.24599L121.337 10.6651L120.51 12.2961L119.983 14.1006L119.799 16.0373L120.002 17.945L120.574 19.6742L121.466 21.2157L122.632 22.5398L124.015 23.6219L125.567 24.4291L127.226 24.9323L128.947 25.1042L130.284 24.9943L131.582 24.6728L132.809 24.154L133.947 23.4465L134.971 22.5697L135.86 21.5327L136.593 20.3531L136.704 20.0901H132.623C132.332 20.3928 132.001 20.6238 131.66 20.8551L131.172 21.1156L130.637 21.3291L130.061 21.4854L129.447 21.5817L128.784 21.615L127.782 21.5324L126.859 21.2941L126.03 20.925L125.304 20.444L124.677 19.883L124.152 19.2606L123.725 18.6017L122.856 16.8172H137.437V16.7801H137.605C137.655 16.2644 137.65 15.7568 137.636 15.2478L137.589 14.6963L137.51 14.1632L137.401 13.6416L137.259 13.1307L137.083 12.6215V12.6215ZM128.65 10.0964L129.511 10.1625L130.31 10.3519L131.042 10.648L131.704 11.0365L132.291 11.5045L132.803 12.0267L133.24 12.5938L134.329 14.371H123.036L124.148 12.598L124.584 12.0385L125.088 11.5203L125.665 11.0524L126.311 10.6607L127.029 10.3582L127.81 10.1648L128.65 10.0964V10.0964Z" fill="#5C626E"/>
</g>
<defs>
<clipPath id="clip0_1_5308">
<rect width="170.041" height="33.0635" fill="white" transform="translate(0.0703125 0.853516)"/>
</clipPath>
</defs>
</svg>
