<svg width="143" height="49" viewBox="0 0 143 49" fill="none" xmlns="http://www.w3.org/2000/svg">
<path d="M111.78 20.9438V15.1211H116.807C117.179 15.1211 117.289 15.3229 117.272 15.6392V16.1021L117.29 31.7992C117.29 32.5016 117.156 32.7788 116.382 32.7411L111.8 32.7223L111.726 31.4089C111.466 31.3147 111.374 31.5193 111.262 31.631C109.073 33.8863 105.307 33.3319 103.489 30.7805C101.635 28.1915 101.673 23.9392 103.563 21.3878C105.437 18.8714 108.794 18.4852 111.224 20.4997C111.391 20.61 111.503 20.7015 111.781 20.9438H111.78ZM109.702 23.7723C108.459 23.7723 107.513 24.7708 107.513 26.1407C107.513 27.5106 108.421 28.5091 109.683 28.5091C110.946 28.5091 111.89 27.5106 111.89 26.1609C111.89 24.8112 110.944 23.7764 109.701 23.7764L109.702 23.7723ZM100.74 32.7008H95.2419L95.1679 31.4224C94.9257 31.3107 94.8341 31.5341 94.7036 31.6444C92.3258 33.7733 88.8904 33.4395 86.9957 30.8855C85.0647 28.2951 85.101 23.8881 87.0697 21.3367C88.9644 18.8741 92.307 18.5108 94.6861 20.5226L95.1706 20.9303V15.1211H100.26C100.631 15.1211 100.744 15.3068 100.724 15.6392V31.6296L100.743 32.7035L100.74 32.7008ZM95.3361 26.1689C95.3361 24.8233 94.3699 23.8006 93.1427 23.7818C91.8979 23.7818 90.9331 24.7991 90.9331 26.1501C90.9331 27.5012 91.875 28.5185 93.1265 28.5185C94.3376 28.5185 95.3199 27.5012 95.3361 26.1676V26.1689ZM69.6878 32.359H64.2958V25.7249C64.2769 24.5044 63.7306 23.8114 62.8156 23.8302C61.883 23.849 61.3165 24.503 61.299 25.7249L61.2802 31.5556L61.2438 32.3388H55.9258V15.1211H61.2815V20.824C61.739 20.7877 61.8669 20.4782 62.0862 20.2951C63.5853 19.0746 65.2485 18.7651 67.0382 19.4205C68.7566 20.0395 69.6152 21.4067 69.6703 23.121L69.6892 32.359H69.6878ZM131.074 31.9916H125.802L125.73 30.8841C124.791 31.7279 123.779 32.2029 122.627 32.3267C119.542 32.6604 117.433 30.393 118.123 27.4379C118.442 26.0842 119.335 25.2754 120.64 24.8354C122.023 24.3779 123.425 24.4492 124.842 24.7008L125.694 24.8421C125.783 23.7696 125.321 23.1897 124.241 23.0309C122.805 22.8021 121.422 23.1654 119.985 23.6458L119.045 20.1646C122.131 19.1796 125.163 18.8284 128.196 19.9184C129.792 20.4809 130.731 21.7296 130.927 23.4171C131.264 26.243 130.962 29.0796 131.089 31.9808L131.074 31.9916ZM124.814 26.6816C123.732 26.6642 123.094 27.1567 123.058 28.0179C123.023 28.758 123.466 29.2667 124.175 29.3016C125.114 29.3555 125.771 28.5804 125.844 27.4379C125.897 26.5592 125.225 26.8054 124.815 26.6816H124.814ZM84.8722 27.4218H76.9006C77.1697 28.6705 78.2678 29.3501 79.4923 29.1482C80.1853 29.0379 80.7707 28.7069 81.2847 28.2305C81.5162 28.0287 81.6924 27.808 82.0302 28.1013L84.5331 30.1763C82.5146 32.7842 79.935 33.4261 77.0055 32.8569C74.4488 32.3428 72.6564 30.8182 72.0347 28.1202C71.413 25.4221 71.892 22.9044 73.9522 20.9949C75.9936 19.1029 78.4265 18.8647 80.9295 19.765C83.5212 20.7015 84.587 22.8869 84.8534 25.5674C84.9072 26.1057 84.8709 26.7059 84.8709 27.4218H84.8722ZM76.7579 24.9242H80.0413C79.7749 23.6014 79.207 23.0322 78.2651 23.0874C77.4308 23.1412 76.9194 23.7602 76.7579 24.9242ZM55.1547 22.9259L51.3936 25.0628C50.1098 23.6633 49.0091 23.4413 48.0914 24.3442C47.1494 25.266 47.1736 27.1082 48.1452 28.0112C49.0629 28.8401 50.2 28.5817 51.4111 27.2011L55.2462 29.3945C54.054 32.1585 50.7517 33.5956 47.3943 32.8582C44.3302 32.1585 42.0736 29.2478 42.1462 26.06C42.2202 22.7631 44.5146 20.0045 47.6863 19.4097C51.0437 18.784 54.0513 20.1633 55.1547 22.9286V22.9259ZM142.811 19.2832V24.8812C142.66 24.9175 142.549 24.9538 142.434 24.9538C139.842 25.118 138.81 26.138 138.697 28.6544L138.678 32.3549H133.157V19.481H138.678V21.5049C139.693 20.1014 140.876 19.08 142.81 19.2805L142.811 19.2832Z" fill="#5C626E"/>
<path d="M9.89535 39.6333C11.1253 39.9024 11.9367 39.5592 12.6486 38.4894C13.1397 37.7399 13.0415 36.7805 12.3794 35.8708C11.9125 35.2437 11.3218 34.7768 10.5722 34.5682C10.3031 34.4942 10.1685 34.3959 10.1914 34.0636C10.5951 30.3025 10.5117 26.5279 10.3758 22.7668C10.3777 22.627 10.3858 22.4873 10.4 22.3483C12.3673 22.5568 14.5446 21.2785 15.2928 19.4591C15.5996 18.7217 15.5135 17.9601 15.2188 17.2469C14.3576 15.1571 12.736 13.9527 10.5722 13.436C10.4246 13.4263 10.2859 13.3616 10.1835 13.2548C10.0812 13.1479 10.0225 13.0066 10.0192 12.8587L8.51875 4.0204C8.42051 3.48213 8.24962 2.9506 7.97779 2.47289L7.36282 1.26853C7.22826 0.936148 6.89588 0.555327 7.11657 0.248517C7.37494 -0.0959717 7.87821 0.00226146 8.27384 0.0520508C9.41765 0.186617 10.4269 0.703349 11.3715 1.33043L13.7937 3.03941C16.1056 4.76186 18.6004 5.06732 21.281 4.02174L22.6576 3.4929C23.8875 3.00173 25.1538 2.76624 26.4927 2.86582L30.7827 3.11208C32.7244 3.41889 33.696 4.32855 34.1387 6.27168C34.4079 7.51373 34.4953 8.7921 34.4455 10.057C34.3352 13.1049 34.8264 16.0923 35.1587 19.1039L36.1303 26.0367C36.2433 27.492 35.9674 28.9512 35.331 30.2648C35.1964 30.5339 35.0349 30.7196 34.7524 30.8542C32.2696 32.1083 31.7287 34.7633 33.5103 36.9016C33.914 37.4062 34.4321 37.8233 34.9502 38.2297C36.4627 39.422 37.1032 41.0327 37.0158 42.9126C36.966 44.1547 36.2285 44.9782 35.1345 45.5192C34.0176 46.0574 32.7985 46.2458 31.5685 46.3535L29.0118 46.488C28.3847 46.5378 27.8437 46.3535 27.3405 46.0332L25.793 45.024C24.6357 44.2502 23.4206 44.2125 22.1664 44.705C21.5743 44.9392 20.9863 45.2218 20.5072 45.6147C18.7242 47.0653 16.6452 47.7166 14.4114 47.9373C14.0306 47.9736 13.6363 48.0476 13.2541 48.1096C11.9515 48.2939 11.0782 47.8027 10.5628 46.597C10.2183 45.7735 10.108 44.9015 10.034 44.0403C9.87248 42.5654 9.94784 41.1027 9.93573 39.6265L9.89535 39.6333ZM16.3989 34.0891C14.8743 34.0649 13.8664 34.8885 13.7076 36.2772C13.4735 38.2688 14.7169 40.7515 16.4864 41.7352C17.4822 42.2734 18.5022 42.4618 19.4738 41.7109C20.6539 40.8013 21.7116 39.7692 21.6739 38.0965C21.6739 37.9983 21.6241 37.9 21.5999 37.8005C21.1208 35.8331 18.7229 34.1268 16.4124 34.0864L16.3989 34.0891ZM24.6613 12.0499C24.7061 12.8552 24.9694 13.633 25.4229 14.2999C26.6528 16.0573 28.4466 16.7221 30.0574 14.2757C30.5983 13.4642 30.5741 12.6528 30.0439 11.8535C29.2096 10.637 28.016 10.0234 26.5654 9.9857C25.361 9.97225 24.6478 10.7729 24.6599 12.0378L24.6613 12.0499ZM28.8059 44.413C29.4693 44.4265 30.1085 44.2785 30.6629 43.9084C31.438 43.3796 31.4622 42.6058 30.7127 42.0514C29.7411 41.314 27.8464 41.3247 26.891 42.0756C26.202 42.6166 26.1913 43.3405 26.891 43.8573C27.4562 44.261 28.1075 44.3955 28.8086 44.3955L28.8059 44.413ZM23.2483 32.0222C22.7074 32.0585 22.1906 32.1568 21.7479 32.4892C20.9607 33.0678 20.9607 33.964 21.7345 34.5547C22.558 35.1818 23.9602 35.1818 24.7958 34.5682C25.5709 33.9896 25.583 33.0812 24.8093 32.5026C24.3423 32.1581 23.8 32.0478 23.2483 32.0236V32.0222ZM31.0424 7.51238C30.4274 7.49893 29.8622 7.64695 29.3832 8.04123C28.7911 8.53239 28.7803 9.22137 29.3468 9.73676C30.1812 10.4984 31.9305 10.4984 32.7514 9.73676C33.2923 9.23213 33.2923 8.56872 32.7514 8.07756C32.2602 7.63349 31.6695 7.49893 31.0424 7.51238ZM25.0677 38.1665C25.7674 38.1799 26.3326 37.7628 26.346 37.2084C26.3595 36.6674 25.8051 36.1991 25.1161 36.1884C24.4406 36.1749 23.8619 36.619 23.8377 37.1599C23.8243 37.7251 24.3666 38.1557 25.0677 38.1692V38.1665ZM23.5067 26.182C22.8433 26.182 22.3387 26.6369 22.3494 27.1913C22.3629 27.708 22.8783 28.1494 23.4932 28.1629C24.1324 28.1763 24.6613 27.7188 24.6613 27.1671C24.6747 26.6019 24.1701 26.1847 23.504 26.1847L23.5067 26.182ZM33.1954 6.17211C32.9371 6.24612 32.5805 6.30667 32.6168 6.75074C32.6531 7.13156 32.9734 7.2419 33.2923 7.22979C33.6368 7.22979 33.9813 7.09523 33.9678 6.68884C33.9436 6.29591 33.6112 6.19767 33.1927 6.17211H33.1954ZM8.83901 43.8828L7.34802 38.5312L2.5346 20.2612C2.44983 19.9288 2.43772 19.6341 2.55882 19.3138C3.07556 17.8134 2.83603 16.4839 1.59668 15.4383C1.40425 15.2768 1.35446 15.0817 1.30871 14.8597L0.611657 10.8631C0.504004 9.96552 1.04496 9.26443 1.28449 8.47587C1.34504 8.2673 1.56169 8.37764 1.70568 8.38975C3.07825 8.47587 4.09826 7.79766 4.47235 6.44662C4.79531 5.26513 5.03753 4.07288 4.01483 3.06363C3.90717 2.95329 3.85873 2.8416 3.95427 2.68281C4.55578 1.74758 5.19228 0.839261 6.08311 0.00091566C6.57562 1.61301 7.14079 3.0892 7.38166 4.67573L8.66811 12.3648C8.75289 12.8197 8.71656 13.078 8.19713 13.2395C7.13945 13.584 6.68192 14.4937 6.56216 15.5271C6.31994 17.8147 6.98335 19.8332 8.71521 21.3579C8.91975 21.5422 9.00318 21.7145 9.0153 21.9849L8.88073 33.6599C8.8444 33.9923 8.78384 34.252 8.50798 34.5076C7.87014 35.1105 7.90647 35.934 7.97914 36.7468C8.00518 36.9906 8.06169 37.2302 8.14734 37.46C8.89284 39.5391 8.56854 41.7392 8.98973 43.8573C8.91706 43.8573 8.85785 43.8707 8.78519 43.8707L8.83901 43.8828Z" fill="#5C626E"/>
</svg>
