<svg width="60" height="46" viewBox="0 0 60 46" fill="none" xmlns="http://www.w3.org/2000/svg">
<path d="M26.142 34.5793L26.7877 34.2838L26.8643 33.8351L25.2773 32.5656L25.8574 32.0402L25.343 29.8842L25.9997 29.9498L26.4374 28.9867L29.2502 13.9382L30.1804 9.08984H31.1216L30.465 11.4757L33.6498 29.2822L33.9344 30.0265H34.799L34.5144 30.9239L34.5582 31.9198L34.7333 32.4889L33.7921 33.3864L33.212 33.8351L33.7155 34.5793" fill="white"/>
<path fill-rule="evenodd" clip-rule="evenodd" d="M57.0162 23.4261C55.8452 22.1237 54.2582 21.3576 52.54 21.281C51.6863 21.2482 50.8436 21.3795 50.0556 21.675L50.9093 21.0731C53.9627 18.9061 54.8602 14.5831 52.9011 11.4311C51.9599 9.92076 50.5043 8.89199 48.8189 8.54177C47.0678 8.1806 45.2729 8.56365 43.7626 9.6362C43.281 9.97548 42.8542 10.3804 42.4602 10.8291C43.7297 7.27222 42.2085 3.2009 38.958 1.62491C38.1043 1.21997 37.1959 1.00108 36.2876 1.00108V2.19402C37.0318 2.20496 37.7651 2.36913 38.4655 2.70841C40.534 3.6934 41.7488 5.92606 41.7488 8.24627C41.7488 9.04521 41.5956 9.87698 41.2782 10.665C41.2782 10.665 38.3889 17.8445 36.2766 23.0759V34.5675L51.9818 34.5785C53.6891 34.6441 55.3308 34.0312 56.6003 32.8274C57.8808 31.6235 58.6141 29.9818 58.6907 28.2198V27.6835C58.6579 26.1075 58.0669 24.6081 57.0162 23.4261ZM36.2876 1.00108C35.4996 0.990138 34.7116 1.14336 33.9564 1.4498C32.26 2.12835 30.9139 3.4964 30.2025 5.31317L30.0821 5.66339L29.9508 5.31317C29.2175 3.4964 27.8932 2.12835 26.1749 1.4498C24.5552 0.793139 22.7822 0.858805 21.1843 1.62491C17.9338 3.2009 16.4126 7.27222 17.6821 10.8291C17.2881 10.3804 16.8613 9.96454 16.3907 9.6362C14.8803 8.56365 13.0855 8.1806 11.3344 8.54177C9.62703 8.89199 8.18237 9.92076 7.2521 11.4311C5.29306 14.5831 6.1905 18.9061 9.24398 21.0731C9.24398 21.0731 9.55042 21.292 10.0976 21.686C9.28776 21.3795 8.45598 21.2482 7.60232 21.281C4.1439 21.4233 1.42969 24.3892 1.42969 27.9243L1.44063 28.2198C1.59385 31.8861 4.6145 34.7426 8.17143 34.5785L26.6456 34.5675C26.9082 34.5675 27.1271 34.4034 27.2037 34.1516C27.2803 33.9109 27.1928 33.6263 26.9848 33.484L25.6387 32.5209L25.967 32.3896C26.164 32.2254 26.2406 31.9409 26.1531 31.711L25.6606 30.4087L26.0874 30.54C26.3391 30.5072 26.558 30.3211 26.6018 30.0584L29.896 12.1862C30.2134 10.654 30.3666 9.78943 30.4433 9.28598H30.9139C30.5199 9.80037 30.2244 10.468 30.2244 11.256C30.2244 11.4639 30.2572 11.6828 30.301 11.9126L30.2353 12.0768L30.2463 12.1972L33.5734 30.0584C33.6171 30.3211 33.8251 30.5072 34.0768 30.54C34.2519 30.5509 34.3942 30.5072 34.5036 30.4087L34.0111 31.711L33.9674 31.9299C33.9674 32.105 34.033 32.2801 34.1753 32.4005L34.5146 32.5319L33.1684 33.495C32.9605 33.6372 32.8729 33.9218 32.9386 34.1626C33.0152 34.4252 33.245 34.5785 33.4967 34.5785H36.2766V23.0869C35.412 25.221 34.6897 27.0159 34.3504 27.8914C33.7704 24.8051 31.4283 12.2519 31.4064 12.0768L31.4501 11.9236L31.4283 11.7813C31.3954 11.6062 31.3626 11.4311 31.3626 11.2669C31.3626 9.90981 32.7306 9.24221 32.8072 9.22032C33.0152 9.11087 33.1465 8.89199 33.1465 8.6731L33.1356 8.54177C33.0699 8.26816 32.8291 8.07116 32.5555 8.0821C32.5555 8.0821 31.483 8.10399 30.8154 8.10399C30.8482 7.26127 31.0014 6.39667 31.2641 5.77284C31.866 4.27345 32.9714 3.14618 34.3832 2.57707C34.9961 2.32535 35.6418 2.20496 36.2876 2.21591V1.00108Z" fill="#5C626E"/>
<path d="M31.9503 34.4618L33.217 33.556L48.8893 22.349L49.0198 22.2557H49.05C50.0769 21.6409 51.2598 21.3126 52.5402 21.3697L31.9503 34.4618ZM31.9503 34.4618L33.5075 34.4627M31.9503 34.4618L33.5075 34.4627M33.5075 34.4627L51.982 34.4737C55.5162 34.6223 58.4791 31.8031 58.6213 28.2049M33.5075 34.4627L58.6213 28.2049M58.6213 28.2049C58.7744 24.5955 56.059 21.5249 52.5405 21.3697L58.6213 28.2049Z" fill="#5C626E" stroke="white"/>
<path d="M34.0879 31.7377L33.4966 33.2784L34.8436 32.3249L50.8771 20.9756L50.8779 20.975C53.8906 18.8332 54.7777 14.5897 52.8407 11.4715L52.8397 11.4701C50.8895 8.35445 46.841 7.56378 43.7983 9.7185L43.7962 9.71997C42.7689 10.4553 41.9822 11.4461 41.4783 12.5378H41.4562L41.3331 12.8586L34.0879 31.7377Z" fill="#5C626E" stroke="white"/>
<mask id="path-5-outside-1_1_5372" maskUnits="userSpaceOnUse" x="29.2266" y="-0.398438" width="15" height="34" fill="black">
<rect fill="white" x="29.2266" y="-0.398438" width="15" height="34"/>
<path fill-rule="evenodd" clip-rule="evenodd" d="M30.8219 12.0752L34.138 29.9474L41.821 10.8932C43.1671 7.5442 41.7663 3.63706 38.7128 2.17051C35.6374 0.693017 32.0695 2.1924 30.7343 5.51949C30.3513 6.46071 30.198 7.73026 30.2309 8.70431L30.2309 9.06547C30.2309 9.06547 30.3622 9.6893 30.8875 11.911"/>
</mask>
<path fill-rule="evenodd" clip-rule="evenodd" d="M30.8219 12.0752L34.138 29.9474L41.821 10.8932C43.1671 7.5442 41.7663 3.63706 38.7128 2.17051C35.6374 0.693017 32.0695 2.1924 30.7343 5.51949C30.3513 6.46071 30.198 7.73026 30.2309 8.70431L30.2309 9.06547C30.2309 9.06547 30.3622 9.6893 30.8875 11.911" fill="#5C626E"/>
<path d="M34.138 29.9474L33.1548 30.1298L33.7813 33.5062L35.0655 30.3213L34.138 29.9474ZM41.821 10.8932L42.7484 11.2671L42.7488 11.2661L41.821 10.8932ZM38.7128 2.17051L38.2797 3.07188L38.2798 3.07193L38.7128 2.17051ZM30.7343 5.51949L31.6606 5.89645L31.6624 5.89193L30.7343 5.51949ZM30.2309 8.70431L31.2309 8.70427L31.2309 8.68744L31.2303 8.67062L30.2309 8.70431ZM30.2309 9.06547L29.2309 9.0655L29.2309 9.1696L29.2523 9.27146L30.2309 9.06547ZM29.8387 12.2576L33.1548 30.1298L35.1212 29.7649L31.8051 11.8927L29.8387 12.2576ZM35.0655 30.3213L42.7484 11.2671L40.8935 10.5192L33.2106 29.5734L35.0655 30.3213ZM42.7488 11.2661C44.2725 7.47563 42.7188 2.98517 39.1457 1.26909L38.2798 3.07193C40.8138 4.28895 42.0618 7.61278 40.8931 10.5202L42.7488 11.2661ZM39.1458 1.26914C35.5024 -0.481242 31.3371 1.33256 29.8063 5.14705L31.6624 5.89193C32.802 3.05224 35.7724 1.86727 38.2797 3.07188L39.1458 1.26914ZM29.8081 5.14254C29.3577 6.24922 29.1954 7.66725 29.2314 8.738L31.2303 8.67062C31.2007 7.79327 31.3448 6.67219 31.6606 5.89645L29.8081 5.14254ZM29.2309 8.70434L29.2309 9.0655L31.2309 9.06543L31.2309 8.70427L29.2309 8.70434ZM30.2309 9.06547C29.2523 9.27146 29.2523 9.2715 29.2524 9.27155C29.2524 9.27157 29.2524 9.27162 29.2524 9.27166C29.2524 9.27173 29.2524 9.27182 29.2524 9.27191C29.2525 9.2721 29.2525 9.27232 29.2526 9.27259C29.2527 9.27312 29.2528 9.2738 29.253 9.27464C29.2534 9.27631 29.2539 9.27862 29.2545 9.28159C29.2558 9.28751 29.2576 9.29608 29.2601 9.30753C29.265 9.33041 29.2725 9.36483 29.283 9.41268C29.3041 9.50835 29.3374 9.65793 29.3871 9.87658C29.4864 10.3138 29.6512 11.0282 29.9144 12.1411L31.8607 11.6809C31.5985 10.5722 31.4351 9.86374 31.3374 9.43362C31.2885 9.21859 31.2562 9.07336 31.2362 8.98264C31.2262 8.93729 31.2194 8.90561 31.2151 8.8857C31.2129 8.87575 31.2114 8.86874 31.2105 8.86445C31.21 8.8623 31.2097 8.86083 31.2096 8.86002C31.2095 8.85961 31.2094 8.85936 31.2094 8.85927C31.2094 8.85923 31.2094 8.85922 31.2094 8.85926C31.2094 8.85927 31.2094 8.8593 31.2094 8.85934C31.2094 8.85936 31.2094 8.85939 31.2094 8.8594C31.2094 8.85944 31.2094 8.85948 30.2309 9.06547Z" fill="white" mask="url(#path-5-outside-1_1_5372)"/>
<path d="M26.6218 34.4635L28.1787 34.4617L26.9119 33.5567L11.2395 22.3605L11.1091 22.2674H11.0815C10.0692 21.6507 8.86593 21.3244 7.59956 21.3814C4.06879 21.5366 1.36705 24.6078 1.49666 28.2138L1.4968 28.2171C1.65007 31.813 4.61097 34.6341 8.12535 34.4854L26.6218 34.4635Z" fill="#5C626E" stroke="white"/>
<path d="M25.2926 32.3244L26.6382 33.2765L26.0484 31.7373L18.8472 12.9446V12.9282L18.8102 12.8374C18.3178 11.6298 17.4948 10.5219 16.3598 9.71793L16.359 9.71737C13.306 7.56368 9.25725 8.35345 7.3069 11.4812L7.30645 11.4819C5.37005 14.599 6.24448 18.8434 9.26992 20.9859L9.27006 20.986L25.2926 32.3244Z" fill="#5C626E" stroke="white"/>
<path d="M30.4105 8.70055C30.4421 7.67688 30.2716 6.34743 29.8716 5.33566L29.8716 5.33566L29.8701 5.33196C28.4261 1.76292 24.5605 0.105705 21.2008 1.7198C17.8875 3.31111 16.4102 7.50991 17.8451 11.0797L17.8454 11.0804L25.5393 30.1346L26.1816 31.7252L26.4945 30.0386L29.8098 12.1712C30.1273 10.6274 30.2768 9.77585 30.3471 9.3064C30.3823 9.07171 30.3984 8.92689 30.4055 8.83569C30.4091 8.78994 30.4106 8.75381 30.4107 8.72411C30.4108 8.71624 30.4107 8.70839 30.4105 8.70055Z" fill="#5C626E" stroke="white"/>
<path fill-rule="evenodd" clip-rule="evenodd" d="M8.325 38.4747H8.18272C6.54106 38.4747 5.59984 39.6896 5.59984 40.8497C5.59984 41.9879 6.51917 43.148 8.325 43.148C9.23338 43.148 10.5248 42.8744 10.8313 41.769H15.4936C15.3404 43.6295 12.3416 45.2274 8.48916 45.2274H8.18272C3.48758 45.1289 0.882812 43.5967 0.882812 40.9372C0.882812 37.7415 4.11141 36.4062 8.0295 36.4062C14.0817 36.4062 15.1324 38.5185 15.2966 39.6239H10.8313C10.098 38.5623 8.86127 38.4747 8.325 38.4747Z" fill="#5C626E"/>
<path fill-rule="evenodd" clip-rule="evenodd" d="M21.3362 36.6797L26.0204 41.342V36.6797H30.1136V45.0521H24.3459L19.804 40.1928V45.0521H15.9297V36.6797" fill="#5C626E"/>
<path fill-rule="evenodd" clip-rule="evenodd" d="M37.0757 38.2878H37.3493C38.2795 38.2878 38.8049 38.6271 38.8049 38.9226C38.8049 39.229 38.2576 39.5793 37.196 39.5793H37.0757V41.4836H37.8199C38.7064 41.4836 39.1879 41.9104 39.1879 42.2497C39.1879 42.5561 38.7611 42.8845 37.8199 42.8845H37.0757V45.0405H38.4328C42.0335 45.0405 44.0363 43.6177 44.0363 42.4576C44.0363 41.593 43.4015 40.7394 41.738 40.4329C42.8433 40.1593 43.4672 39.4917 43.4672 38.846C43.4672 37.6968 42.5041 36.6571 37.3821 36.6681H37.0757V38.2878ZM35.3355 38.2878H37.0757V36.679H31.0781V45.0515H37.0757V42.8954H35.1932V41.4945H37.0757V39.5902H35.3355V38.2878Z" fill="#5C626E"/>
<path fill-rule="evenodd" clip-rule="evenodd" d="M51.7742 38.4747H51.621C49.9684 38.4747 49.0272 39.6896 49.0272 40.8497C49.0272 41.9879 49.9574 43.148 51.7742 43.148C52.6717 43.148 53.9631 42.8744 54.2695 41.769H58.9318C58.7786 43.6295 55.7799 45.2274 51.9274 45.2274H51.6319C46.9368 45.1289 44.332 43.5967 44.332 40.9372C44.332 37.7415 47.5606 36.4062 51.4678 36.4062C57.52 36.4062 58.5926 38.5185 58.7458 39.6239H54.2805C53.6676 38.5076 52.2886 38.4747 51.7742 38.4747Z" fill="#5C626E"/>
</svg>
