<svg width="143" height="35" viewBox="0 0 143 35" fill="none" xmlns="http://www.w3.org/2000/svg">
<path d="M26.8042 0.828193C24.0821 0.839591 21.3743 2.28 20.0228 5.14858L19.3984 6.47266V17.4135V28.3543L20.0228 29.6784C20.9918 31.735 22.4916 33.0334 24.7395 33.7501C26.3504 34.2638 28.9184 33.9931 30.5565 33.1409C31.619 32.5881 33.1226 30.9423 33.703 29.6971L34.2346 28.5532V17.4135V6.27374L33.6535 5.09263C32.2585 2.23555 29.5262 0.816799 26.8042 0.828193ZM26.9278 6.24887C27.0262 6.24947 27.1247 6.25928 27.2183 6.27996C27.5322 6.34929 28.0557 6.71525 28.3867 7.0943L28.9925 7.78432V17.3638V26.9432L28.5474 27.5959C28.3026 27.9566 27.8428 28.3427 27.5274 28.4538C27.212 28.5649 26.8559 28.6543 26.7362 28.6527C26.2594 28.6463 25.5195 28.116 25.0918 27.4778L24.6405 26.8064V17.4384C24.6413 8.49618 24.6553 8.03777 25.0238 7.42999C25.4597 6.71115 26.2387 6.24422 26.9278 6.24887Z" fill="#5C626E"/>
<path d="M89.1705 33.6446C86.8775 32.7894 85.3712 31.3161 84.5032 29.0796C84.1977 28.2926 84.167 26.9634 84.1724 14.7571L84.1783 1.3021L86.8501 1.24675L89.5219 1.19141L89.5248 14.0774C89.5271 24.0353 89.5843 27.0763 89.7768 27.4606C89.9138 27.7341 90.3407 28.1286 90.7254 28.3371C91.5898 28.8057 92.3143 28.6617 93.1079 27.8636L93.676 27.2923V14.2419V1.19141L96.3498 1.24675L99.0235 1.3021L99.0229 14.7646C99.0223 27.9202 99.0129 28.2524 98.6101 29.3351C98.0282 30.8992 96.5436 32.4693 94.8935 33.2659C93.1732 34.0963 90.8022 34.2532 89.1705 33.6446H89.1705Z" fill="#5C626E"/>
<path d="M0.703125 17.4154V1.20312H7.32994H13.9568V3.98806V6.773H10.0994H6.24196V10.5628V14.3526L8.6652 14.3188L11.0884 14.2849L11.1435 16.994L11.1985 19.7031H8.72023H6.24196V26.6654V33.6278H3.47254H0.703125V17.4154Z" fill="#5C626E"/>
<path d="M41.6523 17.4154V1.20312H45.7649C50.2431 1.20312 51.4689 1.38963 53.0275 2.30818C54.2033 3.00109 55.4322 4.3942 56.0573 5.74293C56.5631 6.83407 56.5832 7.01582 56.6476 11.0897C56.7012 14.4799 56.6519 15.5517 56.3962 16.5552C56.0271 18.004 55.3544 19.2389 54.425 20.1735L53.7679 20.8343L55.5018 26.8056C56.4554 30.0898 57.2961 32.9683 57.37 33.2023C57.5029 33.6235 57.4759 33.6278 54.6496 33.6278H51.795L50.9642 30.3952C50.1363 27.1739 48.0224 19.1036 47.8431 18.4796C47.7752 18.2431 47.9133 18.1149 48.3369 18.0213C49.1217 17.848 50.5395 16.6038 50.8765 15.7928C51.0721 15.3221 51.1475 14.1382 51.1475 11.5383V7.93594L50.5693 7.35447C50.0319 6.81412 49.885 6.773 48.4922 6.773H46.9934V20.2004V33.6278H44.3229H41.6523V17.4154Z" fill="#5C626E"/>
<path d="M67.5605 33.4786C67.5593 33.3965 67.5371 27.3766 67.5111 20.1009L67.4637 6.87246L65.0404 6.81661L62.6172 6.76076V3.98194V1.20312H70.1342H77.6512V3.98806V6.773H75.2774H72.9036V20.2004V33.6278H70.2331C68.7643 33.6278 67.5617 33.5606 67.5605 33.4786Z" fill="#5C626E"/>
<path d="M106.141 17.4149V1.20264H108.869H111.598L111.808 1.9486C111.924 2.35888 112.825 5.24577 113.81 8.3639C114.796 11.482 115.883 14.9508 116.228 16.0722C116.572 17.1936 116.937 18.1112 117.04 18.1112C117.154 18.1112 117.221 14.8461 117.214 9.70664L117.201 1.3021L119.88 1.24675L122.559 1.19141V17.4093V33.6273H119.534H116.509L115.943 31.7872C115.631 30.7752 115.083 29.02 114.723 27.8868C114.364 26.7537 113.562 24.1801 112.94 22.1678C112.319 20.1555 111.736 18.509 111.646 18.509C111.556 18.509 111.482 21.9106 111.482 26.0681V33.6273H108.811H106.141V17.4149H106.141Z" fill="#5C626E"/>
<path d="M129.68 17.4154V1.20312H136.307H142.933V3.98806V6.773H138.973H135.012L135.066 10.5028L135.12 14.2327H137.642H140.164L140.164 16.9679L140.164 19.7031H137.592H135.021V23.8805V28.0579H138.977H142.933V30.8428V33.6278H136.307H129.68V17.4154H129.68Z" fill="#5C626E"/>
</svg>
