<svg width="127" height="43" viewBox="0 0 127 43" fill="none" xmlns="http://www.w3.org/2000/svg">
<path d="M124.389 1.16016C125.362 1.35485 126.044 1.93893 126.044 2.91241C126.044 3.20445 125.946 3.69121 125.849 4.0806C125.167 6.9037 122.636 17.0279 121.663 23.7449L120.689 22.7714L123.805 2.13364L124.389 1.16016Z" fill="#5C626E"/>
<path d="M61.5017 3.98535C60.2362 4.2774 58.8733 4.2774 57.7051 3.98535L59.7495 6.02967L61.5017 3.98535Z" fill="#5C626E"/>
<path d="M41.5452 3.98535C42.8107 4.2774 44.1736 4.2774 45.3418 3.98535L43.2975 6.02967L41.5452 3.98535Z" fill="#5C626E"/>
<path d="M30.2536 3.88574C33.174 11.3815 37.8467 22.5766 40.1831 26.9573L36.7759 25.8864L28.3066 4.76187L30.2536 3.88574Z" fill="#5C626E"/>
<path d="M27.5254 3.88574C28.4989 4.17779 29.2777 4.17779 30.1539 3.88574L28.2069 5.05393L27.5254 3.88574Z" fill="#5C626E"/>
<path d="M28.8885 4.7627L37.5525 25.8872C37.0658 26.4713 36.7737 26.7634 36.2869 26.9581C33.7559 20.5331 31.1275 14.1081 28.7912 7.78049L27.623 5.83353L28.8885 4.7627Z" fill="#5C626E"/>
<path d="M21.4939 26.9581L18.9629 26.0819L27.9189 5.05476L28.8924 4.7627V7.87785C27.5295 11.8691 24.025 20.7278 21.4939 26.9581Z" fill="#5C626E"/>
<path d="M19.3479 0.868164L20.2239 2.81513L22.3657 1.84165L23.2418 0.965518C21.879 1.16021 20.6134 1.16021 19.3479 0.868164Z" fill="#5C626E"/>
<path d="M13.3149 17.6121L11.8547 18.1961L10.9785 16.5412L20.1293 1.939L20.8108 1.74429C21.6869 1.54959 22.6604 1.3549 23.3418 0.868164C21.7842 2.81513 16.5274 11.9659 13.3149 17.6121Z" fill="#5C626E"/>
<path d="M11.3703 17.4173L11.7597 17.028L20.8131 1.74429L19.4502 0.868164C18.3794 2.91247 14.2908 9.43481 11.7597 13.7181L10.4941 16.0545L11.3703 17.4173Z" fill="#5C626E"/>
<path d="M4.06668 0.868164C6.11099 4.3727 9.12881 9.43481 11.7572 13.7181V17.028L11.1731 17.6121L2.21704 1.64697L4.06668 0.868164Z" fill="#5C626E"/>
<path d="M2.60591 1.84165L4.06613 0.868164C2.50856 1.16021 1.8271 1.25756 0.269531 0.868164L0.853715 1.54961L2.60591 1.84165Z" fill="#5C626E"/>
<path d="M11.7567 17.028L11.0753 18.0014L10.1991 17.6121C8.44685 14.6916 3.48202 5.63822 0.269531 0.868164C0.950968 1.3549 1.72985 1.54959 2.80068 1.74429L11.7567 17.028Z" fill="#5C626E"/>
<path d="M13.607 29.9773L10.9785 28.7117L11.1733 17.8087L11.7573 16.9326L13.4122 17.5167L13.607 29.9773Z" fill="#5C626E"/>
<path d="M11.7559 29.1005L9.90625 29.9766L10.101 17.6134L11.7559 17.0293V29.1005Z" fill="#5C626E"/>
<path d="M17.6973 26.9573C20.9098 20.4349 24.4143 11.6736 27.5294 3.88574L28.8923 4.66452L20.131 26.0811L18.3788 26.6652L17.6973 26.9573Z" fill="#5C626E"/>
<path d="M37.4575 25.7897L40.1832 26.9579C39.1124 26.6659 37.7496 26.5685 36.3867 26.9579L36.8735 25.6924L37.4575 25.7897Z" fill="#5C626E"/>
<path d="M22.9512 19.4624L24.8008 18.6836C27.5266 18.7809 30.2523 18.7809 32.9781 18.6836L34.925 19.5597L33.1727 19.9491H24.3141L22.9512 19.4624Z" fill="#5C626E"/>
<path d="M24.2167 20.2405L22.9512 19.4617C26.9424 19.3643 30.9338 19.3643 34.925 19.4617L33.6595 20.2405C30.447 20.1431 27.3319 20.1431 24.2167 20.2405Z" fill="#5C626E"/>
<path d="M45.3449 26.9595L42.6191 26.0834V5.44557L43.398 5.05619L45.3449 3.98535C44.9555 11.5785 44.9555 19.269 45.3449 26.9595Z" fill="#5C626E"/>
<path d="M43.3981 25.8887V26.4728L41.4512 27.0568C41.7432 19.3663 41.7432 11.6759 41.4512 3.98535L43.3981 5.05619V25.8887Z" fill="#5C626E"/>
<path d="M57.6096 26.9595L60.3354 26.0834V5.44557L59.5566 5.05619L57.6096 3.98535C57.999 11.5785 57.999 19.269 57.6096 26.9595Z" fill="#5C626E"/>
<path d="M43.3984 15.3738L45.0533 14.6924C49.3366 14.7897 53.62 14.7897 57.9033 14.6924L59.5582 15.3738L57.5139 15.8605H45.0533L43.3984 15.3738Z" fill="#5C626E"/>
<path d="M75.0326 3.88574C67.5368 3.88574 63.7402 8.55845 63.7402 15.4702C63.7402 24.0368 69.3864 27.0546 74.9353 27.0546C81.4576 27.0546 86.1303 23.3554 86.1303 15.4702C86.1303 7.97436 81.7496 3.88574 75.0326 3.88574ZM74.7405 5.05393H74.9353C79.9 5.05393 83.5993 8.4611 83.5993 15.5675C83.5993 22.6739 79.9 26.0811 74.9353 26.0811C69.4838 26.0811 66.2713 22.1872 66.2713 15.6649C66.3686 8.07172 70.3598 5.15128 74.7405 5.05393Z" fill="#5C626E"/>
<path d="M75.0309 3.59277C66.8537 3.59277 62.5703 8.75221 62.5703 15.4692C62.5703 22.7703 67.2431 27.2484 74.9336 27.2484C83.3055 27.2484 87.3941 22.1863 87.3941 15.5666C87.3941 8.07078 82.5267 3.59277 75.0309 3.59277ZM75.0309 4.37155C81.4559 4.37155 85.7392 8.26547 85.7392 15.4692C85.7392 22.965 81.2612 26.5669 74.9336 26.5669C69.6768 26.5669 64.128 23.7438 64.128 15.4692C64.128 8.9469 67.7298 4.37155 75.0309 4.37155Z" fill="#5C626E"/>
<path d="M103.163 2.71582C95.472 2.71582 90.3125 6.99914 90.3125 15.4684C90.3125 23.743 95.18 28.3184 103.26 28.3184C109.393 28.3184 116.012 25.2032 116.012 15.5658C115.915 5.24688 108.614 2.71582 103.163 2.71582ZM103.065 3.6893C109.198 3.6893 113.676 7.38854 113.676 15.5658C113.676 24.4245 108.225 27.3449 103.065 27.3449C97.6137 27.3449 92.5516 24.1324 92.5516 15.4684C92.6489 6.31771 98.1978 3.6893 103.065 3.6893Z" fill="#5C626E"/>
<path d="M103.068 2.23047C94.9882 2.23047 88.7578 6.80583 88.7578 15.3725C88.7578 22.3815 92.8465 28.6118 103.165 28.6118C111.829 28.6118 117.476 23.8418 117.476 15.4698C117.476 7.68197 112.219 2.23047 103.068 2.23047ZM103.165 3.10663C108.52 3.10663 115.626 5.54032 115.626 15.6645C115.626 25.0099 109.104 28.1251 103.165 28.1251C95.3775 28.1251 90.6075 23.6471 90.6075 15.5672C90.6075 7.29258 95.6696 3.10663 103.165 3.10663Z" fill="#5C626E"/>
<path d="M118.154 28.32C118.154 27.3465 118.738 26.373 120.004 26.373C121.172 26.373 122.048 27.0545 122.048 28.1253C122.048 29.4882 121.172 29.9749 120.296 29.9749C119.03 30.0723 118.154 29.4882 118.154 28.32Z" fill="#5C626E"/>
<path d="M120.104 23.5519C121.077 16.9322 121.564 10.0205 122.148 3.01142C122.148 1.64854 123.024 1.06445 123.997 1.06445H124.387L124.095 2.71935L120.785 23.2598L120.104 23.5519Z" fill="#5C626E"/>
<path d="M9.91016 29.9761L11.7598 28.6133L13.6094 29.9761C13.6094 29.9761 12.6359 29.7815 11.7598 29.7815C10.981 29.7815 9.91016 29.9761 9.91016 29.9761Z" fill="#5C626E"/>
<path d="M17.6992 26.9595L20.2302 25.8887C20.6196 26.3754 21.0091 26.7648 21.4958 26.9595C20.6197 26.7648 19.1594 26.5701 17.6992 26.9595Z" fill="#5C626E"/>
<path d="M41.5488 26.9595C42.8144 26.6675 44.0799 26.6675 45.3454 26.9595L43.3985 25.8887L41.5488 26.9595Z" fill="#5C626E"/>
<path d="M45.0514 16.2502L43.3965 15.374C48.7506 15.4714 54.1048 15.4714 59.4589 15.374L57.8041 16.2502C53.6181 16.1528 49.3347 16.2502 45.0514 16.2502Z" fill="#5C626E"/>
<path d="M59.5547 25.8848V26.4689L61.5016 27.0529C61.2096 19.3624 61.2096 11.6719 61.5016 3.98145L59.5547 5.05228V25.8848Z" fill="#5C626E"/>
<path d="M61.4997 26.9585C60.2342 26.6665 58.9687 26.6665 57.7031 26.9585L59.6501 25.8877L61.4997 26.9585Z" fill="#5C626E"/>
<path d="M120.88 22.8701L120.004 23.6489C120.588 23.5515 120.977 23.6489 121.464 23.8436L120.88 22.8701Z" fill="#5C626E"/>
<path d="M123.996 4.46999C125.017 4.46999 125.845 3.72904 125.845 2.81506C125.845 1.90107 125.017 1.16016 123.996 1.16016C122.974 1.16016 122.146 1.90107 122.146 2.81506C122.146 3.72904 122.974 4.46999 123.996 4.46999Z" fill="#5C626E"/>
<path d="M40.811 34.4336V35.2124H36.917V37.9381H40.4216V38.7169H36.917V42.8055H34.7754V34.4336H40.811Z" fill="#5C626E"/>
<path d="M42.7576 34.4336H44.8992V42.8055H42.7576V34.4336Z" fill="#5C626E"/>
<path d="M46.849 34.4336H48.0172L52.8846 39.6904V34.4336H54.2475V43.0002H53.274L48.0172 37.1593V43.0002H46.6543V34.4336H46.849Z" fill="#5C626E"/>
<path d="M60.4779 34.2412L64.3718 42.8078H62.2301L61.2567 40.4715H57.9468L56.7786 42.8078H55.4158L59.5044 34.2412H60.4779ZM58.3362 39.6927H60.8673L59.6991 36.967L58.3362 39.6927Z" fill="#5C626E"/>
<path d="M65.3438 34.4336H66.7066L71.574 39.6904V34.4336H72.9369V43.0002H71.9634L66.7066 37.1593V43.0002H65.3438V34.4336Z" fill="#5C626E"/>
<path d="M77.0245 38.5237C77.0245 39.1077 77.0245 39.4971 77.2192 39.8865C77.4139 40.2759 77.6086 40.6653 77.8033 40.86C77.998 41.0547 78.3873 41.4441 78.7767 41.4441C79.1661 41.4441 79.5555 41.6388 79.9449 41.6388C80.3343 41.6388 80.529 41.6388 80.7237 41.4441C80.9184 41.2494 81.3078 41.2494 81.5025 41.0547L82.0866 40.4706C82.2813 40.2759 82.476 40.0812 82.6707 39.6918L83.4495 40.2759C83.2548 40.6653 83.0601 40.86 82.8654 41.0547C82.6707 41.2494 82.2813 41.6388 81.8919 41.8335C81.5025 42.0282 81.3078 42.2229 80.9184 42.4176C80.529 42.6123 80.1396 42.6123 79.7502 42.6123C78.9714 42.6123 78.3873 42.4176 77.8033 42.2229C77.2192 42.0282 76.6351 41.6388 76.2457 41.2494C75.8563 40.86 75.4669 40.4706 75.2722 39.8865C75.0775 39.3024 74.8828 38.7184 74.8828 38.1343C74.8828 37.5502 75.0775 36.9661 75.2722 36.382C75.4669 35.7979 75.8563 35.4085 76.2457 35.0191C76.6351 34.6297 77.2192 34.2403 77.8033 34.0456C78.3873 33.8509 78.9714 33.6562 79.7502 33.6562C80.1396 33.6562 80.7237 33.6563 81.1131 33.8509C81.5025 34.0456 81.8919 34.0456 82.2813 34.2403C82.6707 34.435 82.8654 34.6297 83.2548 35.0191C83.4494 35.2138 83.6441 35.6032 84.0335 35.9926L83.2548 36.5767C83.0601 36.382 82.8654 36.1873 82.6707 35.7979L82.0866 35.2138C81.1131 35.6032 80.9184 35.4085 80.7237 35.4085C80.529 35.4085 80.1396 35.2138 79.9449 35.2138C79.5555 35.2138 79.1661 35.2138 78.7767 35.4085C78.3873 35.6032 78.1926 35.7979 77.8033 35.9926C77.6086 36.1873 77.4139 36.5767 77.2192 36.9661C77.0245 37.3555 77.0245 38.1343 77.0245 38.5237Z" fill="#5C626E"/>
<path d="M91.6287 34.4336V35.2124H87.3454V37.9381H90.8499V38.7169H87.3454V42.0267H91.6287V42.8055H85.3984V34.4336H91.6287Z" fill="#5C626E"/>
</svg>
