<?xml version="1.0" encoding="utf-8"?>
<!-- Generator: Adobe Illustrator 27.7.0, SVG Export Plug-In . SVG Version: 6.00 Build 0)  -->
<svg version="1.1" id="Layer_1" xmlns="http://www.w3.org/2000/svg" xmlns:xlink="http://www.w3.org/1999/xlink" x="0px" y="0px"
	 viewBox="0 0 158 48" style="enable-background:new 0 0 158 48;" xml:space="preserve">
<style type="text/css">
	.st0{fill:#52525B;}
</style>
<g id="layer1" transform="translate(260.95542,41.213839)">
	<path id="path1139" class="st0" d="M-259-28.7h9.2l5.4,13.7l5.4-13.7h9l-13.5,32.5h-9l3.7-8.6L-259-28.7z"/>
	<path id="path1141" class="st0" d="M-220.6-29.3c-6.9,0-11.3,6.2-11.3,12.4c0,7,4.8,12.5,11.2,12.5c4.8,0,6.6-2.9,6.6-2.9V-5h8
		v-23.7h-8v2.2C-214.2-26.6-216.2-29.3-220.6-29.3z M-218.9-21.7c3.2,0,4.8,2.5,4.8,4.8c0,2.5-1.8,4.9-4.8,4.9
		c-2.6,0-4.9-2.1-4.9-4.8C-223.7-19.5-221.9-21.7-218.9-21.7z"/>
	<path id="path1145" class="st0" d="M-203.3-5v-34.2h8.4v12.7c0,0,2-2.8,6.2-2.8c5.1,0,8.1,3.8,8.1,9.3v15h-8.4v-13
		c0-1.8-0.9-3.6-2.9-3.6s-3.1,1.8-3.1,3.6v13H-203.3z"/>
	<path id="path1147" class="st0" d="M-166.3-29.3c-7.9,0-12.7,6-12.7,12.5c0,7.4,5.7,12.4,12.7,12.4c6.8,0,12.7-4.8,12.7-12.3
		C-153.6-24.8-159.8-29.3-166.3-29.3z M-166.2-21.6c2.8,0,4.7,2.3,4.7,4.8c0,2.1-1.8,4.7-4.7,4.7c-2.7,0-4.7-2.2-4.7-4.8
		C-170.9-19.3-169.2-21.6-166.2-21.6z"/>
	<path id="path1153" class="st0" d="M-139.5-29.3c-7.9,0-12.7,6-12.7,12.5c0,7.4,5.7,12.4,12.7,12.4c6.8,0,12.7-4.8,12.7-12.3
		C-126.8-24.8-133-29.3-139.5-29.3z M-139.5-21.6c2.8,0,4.7,2.3,4.7,4.8c0,2.1-1.8,4.7-4.7,4.7c-2.7,0-4.7-2.2-4.7-4.8
		C-144.2-19.3-142.5-21.6-139.5-21.6z"/>
	<circle id="path1155" class="st0" cx="-120.2" cy="-10.1" r="5.6"/>
	<path id="path1157" class="st0" d="M-112.8-17.8h-10.1l8.9-21.5h10L-112.8-17.8z"/>
</g>
</svg>
