<?xml version="1.0" encoding="UTF-8"?>
<svg id="Layer_1" data-name="Layer 1" xmlns="http://www.w3.org/2000/svg" version="1.1" viewBox="0 0 158 48">
  <defs>
    <style>
      .cls-1 {
        fill: #0076c0;
        stroke-width: 0px;
      }
    </style>
  </defs>
  <path class="cls-1" d="M155.2,36.4c-1,0-1.8-.7-1.8-1.8s.7-1.8,1.8-1.8,1.8.7,1.8,1.8c0,1.1-.7,1.8-1.8,1.8ZM155.2,33c-.8,0-1.5.6-1.5,1.6s.7,1.6,1.5,1.6,1.5-.6,1.5-1.6-.7-1.6-1.5-1.6ZM155.7,35.6l-.6-.8h-.2v.8h-.3v-2h.6c.4,0,.7.2.7.6s-.2.5-.4.5l.6.8h-.3ZM155.2,33.8h-.3v.6h.2c.2,0,.4,0,.4-.3,0-.2-.1-.3-.4-.3h0ZM62.1,14.6l-13.5,21.8h4.6s3.3-5.4,3.5-5.6h7.8v5.6h4.4V14.6h-6.7,0ZM64.4,26.9h-5.3c.3-.5,5.3-8.7,5.3-8.7v8.7h0ZM71.9,14.6h4.2v21.8h-4.2V14.6ZM79.2,14.6h4.2v21.8h-4.2V14.6ZM92.8,26.1c-2.3-.6-2.8-.9-2.7-1.9,0-.9.8-1.4,1.9-1.4s3.3.5,4.8,1.4h.2c0,.1.6-3.5.6-3.5h-.1c-1.6-.8-3.5-1.2-5.5-1.2s-3.6.6-4.7,1.7c-.8.9-1.3,2-1.3,3.2,0,3.4,1.7,4.3,5.5,5.3,2.5.6,3,1,3,2.2,0,1.1-.7,1.5-2.4,1.5s-3.8-.7-5.5-1.8l-.3-.2-.6,3.6h.1c1.4.8,3.7,1.6,6.1,1.6s4.1-.6,5.2-1.7c.8-.9,1.3-2,1.2-3.5,0-3.6-1.9-4.5-5.7-5.5ZM108.9,32.7h-.2c-.3.1-.7.2-1.2.2-1.3,0-1.8-.6-1.8-1.8v-7.7h3.1v-3.5c0,0-3.1,0-3.1,0v-5.2h-4.2v5.2h-2.2v3.5h2.2v8.4c0,3.3,1.7,4.9,5.3,4.9s1.9-.1,2.5-.3h.2s-.6-3.7-.6-3.7h0ZM117.9,19.5c-2.6,0-4.6.6-6.2,1.3h-.2c0,0,.5,3.6.5,3.6h.2c1.9-.9,3.5-1.3,5.1-1.3s2.5.7,2.5,2.2v.4c-6.3.6-9.3,2.8-9.3,6.5s1.8,4.6,4.6,4.6,3.5-.7,5-2.1c0,.5.3,1.8.3,1.8h3.7v-11.3c0-3.8-2-5.5-6.2-5.5h0ZM116.5,33.4c-1,0-1.7-.6-1.7-1.7,0-1.8,1.8-3,5.1-3.5v3.6c-1,1-2.2,1.6-3.4,1.6ZM135,32.7h-.2c-.3.1-.7.2-1.2.2-1.3,0-1.9-.6-1.9-1.8v-7.7h3.1v-3.5c0,0-3.1,0-3.1,0v-5.2h-4.2v5.2h-2.2v3.5h2.2v8.4c0,3.3,1.7,4.9,5.3,4.9s1.9-.1,2.5-.3h.2s-.5-3.7-.5-3.7h0ZM149.6,31.4c-1.9,1.3-3.5,1.9-5.2,1.9s-3.7-1.5-3.9-4.2h9.9v-1.1c0-5.6-2.3-8.5-6.9-8.5-2,0-3.7.6-4.9,1.9-1.5,1.5-2.3,3.9-2.3,6.8,0,5.3,3,8.5,7.8,8.5s4.5-.7,6.3-1.9h.1c0,0-.5-3.5-.5-3.5l-.3.2h0ZM140.5,26.3c.2-2.4,1.2-3.7,2.9-3.7s2.8,2,2.9,3.7h-5.7ZM23.7,7.1C11.4,7.1,1.4,14.7,1.4,24.1s10,17.6,22.4,17.6,22.4-8.2,22.4-17.6c0-9.4-10-17-22.4-17ZM23.7,40.5c-10.7,0-19.4-7.7-19.4-16.4s8.7-15.9,19.4-15.9,19.4,7.1,19.4,15.9-8.7,16.4-19.4,16.4Z"/>
  <path id="a" class="cls-1" d="M19.5,31.4l.4.4s.8.4.8.4l.7.4h0c0,0,.5.4.5.4l.9.5c0,0,.2,0,.2,0h1.2c.7,0,1.5,0,2,.2.6.3.4.8.4.8,0,0,.6-.4.5-.9,0-.4-.6-1-2.3-1.1-.5,0-1.3,0-1.3,0h0s-.8-.5-.8-.5l-.3-.2s-1.1-.6-1.1-.6c0,0-.6-.3-.6-.3,0,0-.6-.8-.6-.8l-.2-.3-.6-.9-.3-.4s-.4-.5-.4-.5c0,0,.3-.5.3-1,0,0,0,0-.3.3-.2.2-1,.5-1.4.6h-.2c0,0,1.7,2.3,1.7,2.3,0,0,.8,1.1.8,1.1ZM22.3,30.1h.1c0,.2.8.5.8.5.5.2,1.1.5,1.5.7l.8.5c0,0,.9,0,1.5,0,.7,0,1.2.3,1.5.7.4.5,0,1.1,0,1.1.1,0,.9-.5.8-1.3,0-.8-.7-1.5-3.2-1.4,0,0-.7-.4-.7-.4h-.2c0-.1-1.1-.7-1.1-.7,0,0-.9-.3-.9-.3,0,0-.2-.4-.2-.4-.3-.5-.7-1-1-1.5h-.1c0-.1-.6-1-.7-1.1.2-.4,0-1,0-1,0,0-.1.2-.3.4-.2.2-.6.6-.9.7h-.2c0,.1,2.2,3.1,2.2,3.1l.2.3h0ZM23.3,24.7c.1-.5-.1-1-.1-1v.3c-.2.3-.5.6-1,.9h-.1c0,0,1.8,2.6,1.8,2.6,0,0,.1.2.1.2l.3.5s.7.4.7.4h.3c0,.1.8.6.8.6l.7.5h0s1.1,0,1.1,0c.7,0,1.1.3,1.3.4.7.5.3,1.3.3,1.3,0,0,.9-.9.3-1.8-.2-.3-.5-.6-1.5-.8l-1.1-.2s-.6-.4-.6-.4l-.8-.5h-.2c0-.1-.7-.4-.7-.4l-1.7-2.8h0ZM15.8,9.4c0,0,.2.2.2.2l.9.8s.5.5.5.5c.4.4.5.6.5.6,0,0,0,.1-.2.1s-.2,0-.2,0v.3s.2,0,.2,0c1.2,0,2.3.8,3,1.5,1.3,1.2,2.2,3.2,2.4,5l1,5.1.4.8v.2c0,0,.2.3.2.3.1.3.4.6.4.6,0,0,.5.4.5.4l.7.7.2.2.3.3s1,.1,1,.1c1.7.3,1.7,1.3,1.7,1.3,0,0,1-1.6-1.4-2.2,0,0-.8-.1-.8-.1h0s-.3-.4-.3-.4c0,0,0-.1,0-.1,0,0-.8-.7-.8-.7l-.3-.3s-.3-.8-.3-.8l-.4-1.1c-.1-.3-.2-.8-.3-1.6,0,0,0-.5,0-.5l-.3-2.1s0-.4,0-.4c.1-.8.4-1.7.9-2.7.5-1.1,1.7-1.9,1.7-1.9.8-.5,2.1-.8,2.7-.9.3,0,.3-.2.4-.3h0c0,0,0-.1,0-.1-.4,0-.8-.2-.8-.3,0,0,0,0,0,0,0,0,0-.2.1-.3,0,0,.5-.5.5-.5l.3-.3s1.3-1.3,1.5-1.4l-1.2-.4c-.2.2-1.3,1.4-1.3,1.4-.9,1-1.9,2-2.4,2.2-1.1.5-2.3,1.6-2.8,2.6,0,0-.2.5-.3.8-.3-1-.8-1.8-1.4-2.5-.6-.8-1.4-1.3-2.4-1.7-.5-.5-2.3-2.1-3.2-2.9,0,0-1.1.4-1.1.4ZM20.5,35.3c-1.6.8-2.5.1-2.1-.7.5.3,1.3.6,2.1.7ZM17.7,34.1c-1.1.3-1.5-.5-1.2-1.1.2.2,1,.9,1.2,1.1ZM8,14.7c0,0,.3.2.3.2,0,0,1.4,1.1,1.6,1.3,0,0-.6,1.6-.6,1.6-.5,1.3-1,2.6-1,3.6v.2s.4,2.3.4,2.3v.2c.3,1.2.6,2.6.7,3.5,0,.3,0,.4.2.5.7.7,1.8,2.1,3.1,4.8,0,0,0,.1,0,.1.1.4.3.6.5.7.2.1.7.2,1,0,.7-.4,1.1-1.1,1.4-1.8.1.1.4.5.4.5-1.1,2,.9,2.7,1.6,2.4-.4,1.2,1.1,2.1,2.5,1.5.2.8.8,1,1.4,1.1.6.1,1.4.2,2.6,0,1.9-.2,3.7-.7,4.4-1.1,1.5-.8,2.3-1.7,2.8-2.4,0,0,0-.1.2-.2.2.3.3.5.5.7.5.5.9.7,1.3.6.3,0,.5-.2.6-.5.7-1.6,2.1-3.6,3.2-4.9,0,0,.1-.2.1-.2.2-.9,1.1-3.2,1.6-4.5l.3-.9s0-.2,0-.2c0-.4,0-.7,0-1.1,0-1.6-.2-3.1-.7-4.4-.2-.7-.4-1.1-.6-1.4l-.2-.4c.3-.5,1.3-1.1,2-1.6,0,0,0,0,0,0l-.9-1c0,0-.6.4-.6.4-.7.5-1.4.6-1.8.5,0,0-.6-.3-.6-.3,0,0-.1,0-.1,0,0,0-.2,0-.2,0,0,0-.2,0-.2,0h-.1s.2.2.2.2c.4.5.6.9.9,1.4,0,0,.2.3.2.3l.2.4h0c0,0,.2.6.2.6h0c0,.1.1.4.1.4l.4,1.6c.4,1.6.6,2.9.6,4,0,0,0,.1,0,.1,0,0-.5,1.5-.5,1.5-.5,1.5-1.2,3.4-1.4,4.2h0c-1.4,1.6-2.5,3.4-2.9,4.4,0,.1-.1.2-.1.2,0,0-.2-.1-.3-.2-.4-.3-.6-1-.6-1.7,0-.9.4-1.7,1-2.2.1,0,0-.2,0-.3-.2-1,.1-2.5.7-3h.2c0-.1-.2-.2-.2-.2-1.8-1.4-2.6-3.9-2.7-5.8v-.2s-.3.1-.3.1c0,0-.1.2-.1.2,0,.4-.1.7-.1,1.1,0,1,.2,1.8.3,2.1.2,1,.8,2,1.5,2.9h0c-.3.5-.5,1.5-.5,2.2s0,.4,0,.6c-.8.7-1.1,1.6-1.1,2.3,0,0,0,.7,0,.7,0,0-.4.5-.4.5h0c-.8,1.2-1.3,2-2.7,2.6-1.4.7-4.2,1.3-6,1.1-.7,0-.6-.7-.6-.7,0,0,0-.2,0-.2,0,0,.1-.1.2-.2,1.7.2,3.3,0,4-.4,0,0,.2-.3.2-.3h0c0-.1-.2-.1-.2-.1-1.5.4-4.3-.1-5.9-.8-1.7-.7-2.2-1.4-3.6-3.2l-.4-.5c0-.5-.2-1-.4-1.5-.2-.4-.5-.7-.6-.7.1-.3.2-.7.2-1.2s-.1-1.2-.3-1.6c1-.8,1.6-1.6,1.5-2.6,0-.4-.3-1.1-.3-1.1l-.4-.2v.3c.2,1.6-1.3,2.6-2.3,3.3,0,0-.3.2-.3.2h.2c.8.6.8,2.2.6,3.2h0c0,0,0,.1,0,.1h0s.4.3.4.3c.8,1.1.7,2.7-.1,3.6-.2.2-.3.2-.3.2-.1,0-.2-.3-.3-.4,0,0-.2-.5-.2-.5-.7-1.4-1.2-2.6-2.6-4.2,0,0,0-.1,0-.1-.3-2.1-.6-3.6-.9-5.1l-.2-.8s0-.2,0-.2c0-1.6.6-2.8,1.1-4.2l.3-.9.3-.7s0-.1,0-.1c.3-.5.8-.9,1.3-1.3l.2-.2h-.3c0-.1-.6,0-1.2.2h-.1c-.5.3-1,.4-1.4.3,0,0-1-.6-1.1-.6l-.9.9h0Z"/>
</svg>