<?xml version="1.0" encoding="UTF-8"?>
<svg id="Layer_1" data-name="Layer 1" xmlns="http://www.w3.org/2000/svg" version="1.1" viewBox="0 0 158 48">
  <defs>
    <style>
      .cls-1 {
        fill: #002663;
      }

      .cls-1, .cls-2, .cls-3 {
        stroke-width: 0px;
      }

      .cls-2 {
        fill: #fff;
      }

      .cls-3 {
        fill: #616265;
      }
    </style>
  </defs>
  <path class="cls-3" d="M36,25.8c0,1,.4,1.3,1.9,1.3s2.2-.4,3.2-2.5h.3l-.3,3.2h-9.3v-.3c1.4-.3,1.5-.7,1.5-2v-7.7c0-1.1-.2-1.4-1.5-1.7v-.3h5.8v.3c-1.2.3-1.5.7-1.5,1.6v8.1ZM45.3,26.2c0,.8.4,1.2,1.3,1.3v.3h-4.9v-.3c1-.2,1.3-.5,1.3-1.5v-4.1c0-1-.3-1.2-1.4-1.4v-.3l3.4-.3h.3v6.4ZM44.1,14.9c.8,0,1.4.7,1.4,1.4s-.7,1.3-1.4,1.3-1.3-.5-1.3-1.3.7-1.4,1.3-1.4M50.4,21.7c.8-.8,1.2-1,1.9-1,1.3,0,2.3,1.4,2.3,3.3s-1.2,3.6-2.9,3.6-1.2-.4-1.2-1.3v-4.6ZM50.4,14.9h-.3l-3.2.2v.4c.7.1,1.1.4,1.1,1.1v11.2c1.2.2,2.4.3,3.8.3,3.8,0,5.3-2,5.3-4.3s-1.6-4-3.8-4-2.1.4-2.9,1.4v-6.3ZM60.6,22.8c.1-1.5.7-2.5,1.6-2.5s1.6,1,1.7,2.5h-3.4ZM66.5,23.2c-.2-2.2-1.9-3.5-4-3.5s-4.4,1.8-4.4,4.2,1.9,4.1,4.2,4.1,3.5-1,4.1-2.7h-.3c-.8,1.2-1.6,1.7-2.8,1.7s-2.8-1.3-2.7-3.9h5.9ZM74,22.8c-.7-.8-1.2-1.1-1.7-1.1s-1.2.3-1.7,1.1v3.3c0,.9.2,1.2,1.3,1.4v.3h-4.9v-.3c1-.2,1.3-.5,1.3-1.4v-4.1c0-1-.4-1.4-1.5-1.5v-.3l3.5-.3h.3v2.5c.8-1.7,1.6-2.5,2.6-2.5s1,.2,1.4.7l-.5,2.4ZM87.2,20.1v.3c1,.2,1.2.8.5,2.5l-1.1,2.5-1.6-3.5c-.5-1-.5-1.4.3-1.5v-.3h-6.9v-3h-.4c-1.1,1.4-2.3,2.6-3.3,3.3v.3h1.4v5c0,1.8,1.1,2.5,2.6,2.5s2-.4,2.5-1.4l-.2-.2c-.4.4-.8.7-1.2.7-1.1,0-1.4-.8-1.4-2v-4.6h2.1c1.2,0,1.5.4,2,1.5l2.8,6c-.9,2.6-1.7,3.6-3.2,3.6s-.5,0-1.1-.2l-.4,2.4h.7c1.6,0,2.5-.7,3.3-2.5l4-9c.5-1.4.9-1.7,1.9-2v-.3h-3.3ZM109.7,25.6c.2,1.1.7,1.7,1.9,2v.3h-6v-.3c1.3-.3,1.5-1.1,1.3-2.7l-1-6.8-3.9,9.9h-.4l-3.9-9.9-1.1,7.1c-.2,1.4.1,2.4,1.4,2.5v.3h-4.4v-.3c1.3-.1,1.9-.9,2.2-2.7l1.2-7.8c-.5-.5-1.2-.9-1.7-.9v-.3h4.4l3.2,7.9,3.2-7.9h4.1v.3c-1.3.2-1.5.9-1.4,2l1.1,7.5ZM112.6,21.8c0-.9-.3-1.2-1.2-1.3v-.4l3.2-.3h.3v5.8c0,1,.7,1.4,1.5,1.4s1.2-.3,1.9-1.4v-3.9c0-.7-.3-1-1.2-1.1v-.4l3.3-.3h.3v6.2c0,1.1.2,1.3,1.2,1.6v.3l-3.6.3v-2c-.9,1.3-1.9,2-3,2s-2.6-.9-2.6-2.4v-4ZM123.7,20.7h-1.4v-.4c1-.5,2.3-1.8,3.4-3.2h.3v2.9h2.6v.7h-2.6v4.5c0,1.3.3,2.1,1.4,2.1s.8-.2,1.2-.7l.2.2c-.5,1-1.3,1.4-2.5,1.4s-2.6-.8-2.6-2.5v-5ZM130.1,21.8c0-.9-.3-1.2-1.3-1.3v-.4l3.3-.3h.3v5.8c0,1,.7,1.4,1.4,1.4s1.3-.3,2-1.4v-3.9c0-.7-.4-1-1.2-1.1v-.4l3.2-.3h.4v6.2c0,1.1.2,1.3,1.2,1.6v.3l-3.6.3v-2c-.9,1.3-1.9,2-3.2,2s-2.5-.9-2.5-2.4v-4ZM144.7,26.6c-.5.4-1,.8-1.4.8-.7,0-1.1-.5-1.1-1.4s.5-1.5,2.5-2.4v3ZM147.1,22.7c0-2.2-1.7-2.9-3.5-2.9s-3,1-3.5,2.7h.3c.5-.9,1.3-1.3,2.3-1.3,1.4,0,2,.6,2,2.1-1.9.6-5,.9-5,2.9s1.1,2.1,2.4,2.1,1.6-.2,2.4-1h.2c.4.7,1,1,1.9,1s1.9-.5,2-1.5h-.3c-.1.4-.3.8-.7.8s-.4-.3-.4-1.1v-3.7ZM150.2,17.1c0-1.1-.4-1.5-1.5-1.6v-.3l3.5-.2h.3v11c0,1.1.2,1.3,1.4,1.6v.3h-5.2v-.3c1.2-.2,1.5-.5,1.5-1.6v-8.8Z"/>
  <path class="cls-1" d="M29.1,19.6c-.1-.1-.3,0-.3,0l-3.7,1.3c-.2-.6-.5-1.3-1-2l1.2-3.1s.1-.3,0-.4c-.1-.1-.3.1-.3.1l-2.2,1.7c-.8-.9-1.7-1.5-2.9-2.1-.3-.2-.8-.3-1.3-.4l-.7-2.6s0-.2-.2-.2-.2.2-.2.2l-.4,2.3c-.4-.1-.9-.1-1.4-.1-1.6,0-3.1.3-4.3.9-.5.2-1,.5-1.5.9,0,0-.1.1-.2.1-.4-1.1-.8-2.1-.9-2.3.3-.2.8-1.1.9-1.6.2-.8.2-1.1,0-1.7-.1-.3-.4-.8-.4-1.1.1-.1.1-.3.2-.4,0-.2-.2-.3-.4-.3-.2-.1-.3,0-.5,0,0-.1-.1-.1,0-.3.1-.4.9-.7,1.6-1,.9-.3,1.3-1,1.3-2,.1-.8-.3-1.3-.9-1.5-.1.3-.5.8-.8.9-.3.2-.8.2-1,.1,0-.4-.2-1-.7-1.1-.1.2-.5.5-1.3.4-.7,0-.8-.1-1.7-.1-1.4,0-2.6.9-2.7,2.1-.1.9.2,1.5.4,1.8-.2.1-.5.5-.7.7-.1-.1-.4-.2-.8,0,.1.1.1.3.1.5-.1.2-.7,1.2-.7,2.1-.1,1.4.7,2.3,1.3,2.6-.1.2-.1.4,0,.7,0,.1.1.2.4.2-.1.2-.2.4-.1.7.1.3.4.8.8.8,0,.2.1.9.1,1.1-.1.2-.2.3-.1.7,0,.4.2.8.5.8,0,.2.1.4.2.5.1.1.2.2.4.3.2.2.4.3.8.3h.7s0,.9.1,1.7c-.8,2.1-1.2,4.5-1.2,7,0,4.7,1.4,8.8,3.9,11.4,0,0,.1.2.5.4,0,0,.8-1.3,2-2.8.3-.4.7-.8,1-1.2.7-.4,1.2-1,1.7-1.3,1.5-1.1,3.4-1.8,5-2.2-1.9,1-2.9,1.4-4.8,2.9-1.1,1-2.9,2.7-4.1,5.1.2.1.7.3,1,.4.3-.3,1.6-2.8,3.7-4.8,4.1-3.9,9-4.8,11.7-4.7.1-1.1.2-2.2.2-3.4,0-1.8-.2-3.6-.7-5.2l3.1-3.4s.2-.2.2-.3"/>
  <path class="cls-2" d="M6.2,18.1c-.1-.1-.7-.3-1-.3s-.8.1-1.1.2c-.1,0-.1-.2-.1-.4.1-.2.2-.2.2-.2v-2c-.1,0,.4-.4.7-.4s.2-.1.2-.3c.2.2.5.5.8.9.1.2.2.4.2.8.1.3.1.8,0,1.1.1.1.2.2.2.3.1.2,0,.2-.1.4M23.9,24.1c0-.3-.4-1.4-.8-1.6l4.7-2.1-3.9,3.7ZM11.3,16.5l3.9,3.6c-.4.1-1,.8-1.1,1.2l-2.8-4.8ZM13.6,23.4c-.1.2-.2.3-.2.7-.1.2,0,.3,0,.5l-1.2-.8c0-.3-.1-.8-.1-1h0c0-.1,1.5.5,1.5.5Z"/>
  <path class="cls-2" d="M6.9,23.9c0-.2-.4-7.4-.4-7.6l.4-.3c-.3,0-.7-.1-.8-.3v-2.2c-.4,0-.9-.2-1-.3-.2-.2-.3-.4-.1-.8.1.1.8.2,1.2.2s.3.2.4.3c.1,0,.4.2.5.2s.1.3.1.3c.1.1,3.7,9.3,3.7,9.5.1.1.3,1.7.3,1.8s.5,1.3.7,1.4c-.5,0-1.3.3-2,.9-.5.7-1.1,2-1.3,2.6,0-.3-1.7-5.6-1.9-5.8M11.5,32.7c-.2,1.4-.5,2.6-1.1,3.5-.3.7-1.2,1.7-1.5,2.2.3-.7.7-2.4.5-3.7,0-.9-.2-2.8,0-4,.2-1.4.7-2.2,1.5-3,.4-.4,1.4-1,2.7-.5l1.2,2.1c-.7-.1-1.4,0-2,.3-1,.8-1.3,1.7-1.4,3.3"/>
  <path class="cls-2" d="M11.6,35.5c.2-.7.7-2.4.7-2.9.2-.8.3-1.7,1.2-2.5.4-.3,1.1-.4,1.4-.3l1.2,2.5c.1.3.4.4.8.3-1.2.4-4.1,1.8-5.2,2.9M22.2,27.5c-.2.2-.1.5,0,.8.1.2.8,1.4.8,1.4.2.7.3.9.5,1.2h1.2c-.4-1-1.5-2.8-1.5-2.8v-1.5c-.3.2-.8.7-1,1M16.9,19.4c.5-.1,1.6,0,2,.2l-1.1-6.4-.9,6.2ZM7.4,13.5s0-.3-.1-.3-.4-.2-.5-.2c-.1-.1-.3-.3-.4-.3-.4,0-1.1-.1-1.2-.2-.2.3-.1.5.1.8.1.1.5.3.9.3v2.2c.2.2.5.3.9.3l-.4.3c0,.2.4,7.4.4,7.6.1.1,1.9,5.4,1.9,5.8.2-.7.8-2,1.3-2.6.7-.5,1.4-.9,2-.9-.1-.1-.7-1.3-.7-1.4s-.2-1.7-.3-1.8c0-.1-3.6-9.3-3.7-9.5M5.2,11.7c1,0,1.4.4,1.6.7.1-.3,0-.7-.3-.9-.2-.2-.7-.4-1.4-.4s-1,.1-1.2.4c-.3.2-.3.4-.3.9.1-.3.8-.7,1.6-.7M3.3,6.5c0,.3.1.8.2,1,.1.1.3.4.5.4.2-.1.5-.5,1.1-.5s.7.5,1,.6c.2,0,.3-.3.7-.3s.2.1.4.2c0-.2.2-.3.5-.5.3-.3,1.7-.7,2.3-1.1.3-.3.3-.8.3-1.1-.2.3-.9.7-1.4.7s-1.1-.1-1.3-.2c.1-.2.2-.5.1-.8-.2.2-1.1.2-1.4.2s-1-.1-1.4-.1c-1.1.1-1.6.9-1.6,1.5"/>
  <path class="cls-2" d="M5.2,9.9c2.4,0,3.4,1.1,3.5,2,.1-.2.1-.5,0-.8,0-.3-.3-1-.3-1.2s0-.3.1-.5c-.2,0-.7.2-.9,0-.3-.1-.1-.7-.4-.8-.3-.1-.8.3-1.1.2-.3,0-.7-.4-.9-.4-.4,0-.5.4-1,.4-.3.1-.7-.1-.9-.1-.1.1-.3.2-.3.4-.1.1-.2.2-.4.3-.2,0-.4-.1-.5-.1,0,.1.1.5,0,.8-.1.3-.3.7-.4,1,0,.4.1.5.2.8-.1-1.2,1.3-2.1,3.4-2M3.8,14.3c-.2,0-.5.3-.8.5.1.2.3.7.4.8.1-.2.3-.5.4-.6.1-.1.2-.1.3-.2q.2-.1.2-.2t-.1-.3c.1,0,.3,0,.4-.1.1-.1.1-.2.1-.4s-.1-.1-.2-.1h-.7s.2-.2.3-.2q.1-.1.2-.2c0-.1,0-.2-.1-.4-.4,0-1.2.4-1.4.5l.2.4h-.3c-.1.2,0,.5,0,.7h.9M23,23.6c-.1-.3-.9-1.1-2.1-2.1-1-.8-2.4-1.4-3.5-1.4-2,0-2.8,1.3-2.9,2.1-.1.3-.1.9,0,1.1-.3.2-.4.4-.4.8-.1.2,0,.5.2.8-.1-.3.1-.6.3-.9.1-.2.4-.3.7-.4v.4c-.1.2-.4.5-.5.7v.9c.1,0,.8-.3.8-.3v.2c.1,0-.1,1.5-.1,1.5h.3l.8.2-.8.5v.2s.1-.1.4-.1.8.3.8.3h0c0,.1-1.2.1-1.2.1,0,.2.1.3.2.3s.3-.1.4-.1c0,0,.2.1.4.1l-.2.2s-.1.1-.3.1-.2.1-.2.2.1.5.1.5c.1.4.7.3.7.3.3,0,1.4-.4,1.4-.4l-1,1.4.4,1.5c.7-.2,2.6-1,4.8-1.3-.2-.3-.2-.5-.5-1.1l-1.1-2.6v-.3c.3.1.8-.1,1-.3s.5-.5.7-.8c-.1-.1-.3-.1-.4,0-.1.1-.2.3-.4.2-.2-.1-.1-.3,0-.5,0-.2-.3-.2-.4,0-.2.1-.5,0-.8-.2-.3-.2-1.5-1.2-1.9-1.4-.7-.3-1.5-.4-2.1-.3-.3,0-.7.2-.8.1l-.4-.7h.1c.1,0,.3.1.4.1.2-.1.9-.2,1.5-.2.9-.1,2,.2,2.4.4,0,.7,1.2,1.3,1.7,1.4.4,0,.7-.1,1-.2l-1.2-1,.7-.8s1,.9,1.1,1.1v-.4M16.1,24.7s.4-.3,1-.4c.7-.1,1.4.3,2,.7v.2c-.1,0-.9.2-.9.2-.2-.2-.4-.2-.8-.2s-.5.1-.5.1l.2.2h-.3c-.2-.1-.4-.3-.7-.4v-.3ZM14.9,23c-.2-.8.3-1.4.7-1.6l.3.9c-.3.1-.8.5-1,.8M18.5,22.2c-.4-.3-1.6-.2-2.1-.1l-.3-1.1c.2-.1.8-.3,1.2-.3s1,.1,1.3.3v1.2ZM20.8,23.2c-.5-.3-1.4-.8-1.7-.9l.4-1.1c.3.2,1.6,1,1.9,1.2l-.5.8ZM20.6,20.4c.4.1,1.4.9,1.6,1.1l2.4-5-4,3.9Z"/>
  <path class="cls-3" d="M156.2,25.2c.8,0,1.4.5,1.4,1.3s-.7,1.4-1.4,1.4-1.3-.5-1.3-1.4.7-1.3,1.3-1.3M156.2,27.6c.7,0,1.1-.4,1.1-1.1s-.4-1.1-1.1-1.1-1,.4-1,1.1.4,1.1,1,1.1M155.7,25.8h.5c.3,0,.5.1.5.4s-.1.3-.3.3l.3.8h-.2l-.4-.7h-.2v.7h-.2v-1.5ZM155.9,26.5h.3c.1,0,.3-.1.3-.3s-.2-.1-.3-.1h-.3v.4ZM32,32.7h47.3v-.5h-47.3v.5ZM85.9,32.7h68.2v-.5h-68.2v.5ZM59.3,43.3h1.3v-6.5h-1.3v6.5ZM64.2,36.8h1.1l2.8,4.7v-4.7h1.1v6.5h-1.1l-2.7-4.7h-.1v4.7h-1.1v-6.5ZM73.1,41.4c.4.7,1.2,1,2,1s1.4-.2,1.4-.9-.5-.7-1.4-.9h-.7c-1.1-.3-2.1-.8-2.1-2s1.4-2.1,2.6-2.1,2.1.4,2.7,1.3l-1,.8c-.3-.5-1-.9-1.7-.9s-1.3.2-1.3.7.7.8,1.4.9l.8.2c1,.2,2,.5,2,1.8s-1.5,2.2-2.9,2.2-2.2-.5-2.8-1.4l1.1-.8ZM86.3,41.4c0,1.3-1.1,2.2-2.7,2.2s-2.6-.9-2.6-2.2v-4.6h1.2v4.2c0,.8.3,1.3,1.4,1.3s1.4-.5,1.4-1.3v-4.2h1.3v4.6ZM89.8,36.8h2.7c1.4,0,2.3.8,2.3,2s-1,1.8-1.3,2l1.4,2.6h-1.4l-1.3-2.4h-1.2v2.4h-1.2v-6.5ZM91,39.8h1.4c.7,0,1.1-.3,1.1-1s-.4-1-1.3-1h-1.2v2ZM99.6,36.8h1.4l2.2,6.5h-1.3l-.3-1.3h-2.5l-.4,1.3h-1.3l2.3-6.5ZM100.2,38l-.9,2.9h1.9l-1-2.9ZM106,36.8h1.1l2.7,4.7h.1v-4.7h1.1v6.5h-1.2l-2.7-4.7v4.7h-1.1v-6.5ZM118.8,39c-.1-.8-.7-1.2-1.4-1.2-1.3,0-1.9,1.1-1.9,2.3s.5,2.3,1.9,2.3,1.3-.5,1.5-1.3l1.2.5c-.5,1.3-1.4,2-2.7,2-2.2,0-3.2-1.6-3.2-3.5s1.2-3.5,3.2-3.5,2.3.8,2.6,2.1l-1.2.3ZM122.7,36.8h4.7v1.1h-3.4v1.5h3v1.1h-3v1.7h3.6v1.1h-4.9v-6.5Z"/>
</svg>