<?xml version="1.0" encoding="UTF-8"?>
<svg id="Layer_1" data-name="Layer 1" xmlns="http://www.w3.org/2000/svg" version="1.1" viewBox="0 0 158 48">
  <defs>
    <style>
      .cls-1 {
        fill: #2480fe;
        stroke-width: 0px;
      }
    </style>
  </defs>
  <g id="layer1">
    <g id="g98">
      <path id="path53" class="cls-1" d="M76.7,24.8c1.7-.2,2.9-1,3.6-2.4.6-1.1,1.4-3,1.4-3,.9-1.8.6-2.8.2-3.4-.6-.9-1.6-1.2-2.5-1.2h-8.4l-8.7,18.5h4.4l3.3-7.3h2.3c.4,0,.8.2,1,.5.3.5.2,1.2-.2,2.1-1.1,2.3-1.9,4.6-1.9,4.6h4.4c.1-.6.3-1.2.5-1.8.3-.8,1.4-3.4,1.4-3.4.8-2.1-.2-2.9-.9-3.3h0ZM76.3,21.7c-.4.8-.9,1.2-1.7,1.2h-3.1l2.3-5h3.3c.2,0,.3,0,.5.2.1.2,0,.6-.1,1.1l-.8,1.6-.5,1Z"/>
      <path id="path55" class="cls-1" d="M30,24.8c1.7-.2,2.9-1,3.6-2.4.6-1.1,1.4-3,1.4-3,.9-1.8.6-2.8.2-3.4-.6-.9-1.6-1.2-2.5-1.2h-8.4l-8.7,18.5h4.4l3.3-7.3h2.4c.4,0,.8.2,1,.5.3.5.2,1.2-.2,2.1-1.1,2.3-1.9,4.6-1.9,4.6h4.4c.1-.6.3-1.2.5-1.8.3-.8,1.4-3.4,1.4-3.4.9-2.1-.2-2.9-.9-3.3ZM29.5,21.7c-.4.8-.9,1.2-1.7,1.2h-3.1l2.4-5h3.3c.2,0,.3,0,.5.2.1.2,0,.6-.1,1.1l-.8,1.6-.5,1Z"/>
      <path id="path57" class="cls-1" d="M50.6,19.4c1.5-3.3-.2-4.7-2.4-4.7h-5.3c-2.2,0-3.8,1.1-4.8,3.2-.5,1.2-1.5,3.1-2.5,5.3l-2.2,4.7c-2.2,4.7,1.1,5.5,2.7,5.5h3.4c3.4,0,5-.9,6.3-3.6.9-1.8,2.1-4.4,3.4-7.1l1.5-3.2ZM46.2,18.8l-4.5,9.5c-.6,1.3-1,1.5-2,1.5h-1.9c-.3,0-1,0-.5-1.2.7-1.6,3.9-8.4,4.5-9.7.4-.9.9-1.1,1.5-1.1h2.4c.5,0,.9.2.5,1h0Z"/>
      <path id="path59" class="cls-1" d="M57.9,23l-1.5,3.1h2.3l-1.3,2.8c-.4.8-.6,1-1.5,1h-2.3c-.7,0-.9-.3-.5-1.2.5-1.1,4.6-9.7,4.6-9.7.5-1,.7-1.1,1.5-1.1h2.4c.6,0,.9.3.5,1,0,.2-1,2.2-1,2.2h4.2s1-2,1-2c1.4-3,.1-4.4-2.7-4.4h-4.5c-2.2,0-4.2,1.2-5.1,3.2-.8,1.8-4.7,10-4.7,10-1.4,3-.6,5.5,3.3,5.5h3.5c2.8,0,4.2-.4,5.4-3.2l3.2-7.1h-6.6Z"/>
      <polygon id="polygon61" class="cls-1" points="120.8 14.7 112.1 33.2 116.6 33.2 125.3 14.7 120.8 14.7"/>
      <polygon id="polygon63" class="cls-1" points="126.3 31 131.5 14.7 126.7 14.7 122.4 33.2 128.5 33.2 141.2 14.7 136.5 14.7 126.3 31"/>
      <path id="path65" class="cls-1" d="M101.7,26.8l-.4-6.9c0-.8.2-1.9,1.7-1.9h3l1.6-3.3h-5.2c-4.1,0-5.5,2.5-5.3,5.5,0,1.8.3,7.7.3,7.7,0,1.4-.5,2.1-1.8,2.1h-3.5l-1.6,3.4h5.5c3.7,0,5.8-2.4,5.6-6.4h0Z"/>
      <path id="path67" class="cls-1" d="M111.6,20c0-.8.2-1.9,1.7-1.9h3l1.6-3.3h-5.2c-3.4,0-5.5,1.9-5.3,5.5,0,1.8.3,7.7.3,7.7,0,1.4-.5,2.1-1.8,2.1h-3.4l-1.6,3.4h5.4c4,0,5.8-2.9,5.6-6.4l-.4-6.8Z"/>
      <path id="path69" class="cls-1" d="M86.2,25h5.6l1.4-3.1h-5.7l1.8-3.8h5.8l1.5-3.3h-10.2l-8.7,18.5h11l1.6-3.4h-6.7l2.3-4.9Z"/>
      <path id="path71" class="cls-1" d="M134,33.2h11l1.6-3.4h-6.7l2.3-4.9h5.6l1.4-3.1h-5.7l1.8-3.8h5.8l1.5-3.3h-10.2l-8.7,18.5Z"/>
      <path id="path73" class="cls-1" d="M18,23.6c.4-.8,1.1-2.3,1.9-4.2,1.5-3.2-.3-4.7-2.2-4.7h-8.3L.7,33.3h4.5l3-6.5h4.4c2.8,0,4.3-.8,5.4-3.2ZM15.7,19.3c-.8,1.7-1.4,3-1.5,3.1-.4.8-.9,1.1-1.7,1.1h-2.8l2.7-5.8h2.8c.6,0,1.1.3.5,1.5Z"/>
      <path id="path75" class="cls-1" d="M156.5,16c0-.1,0-.3-.2-.4-.1,0-.3,0-.4,0h-.7v1.7h.2v-.8h.4l.5.8h.2l-.5-.8c.3,0,.5-.1.5-.5h0ZM155.7,16.3h-.3v-.6h.5c.2,0,.4,0,.4.3,0,.4-.4.3-.6.3Z"/>
      <path id="path77" class="cls-1" d="M155.7,14.9c-.8,0-1.5.7-1.5,1.5,0,.8.7,1.5,1.5,1.5.8,0,1.5-.7,1.5-1.5h0c0-.8-.7-1.5-1.5-1.5ZM155.7,17.7c-.7,0-1.3-.6-1.3-1.3,0-.7.6-1.3,1.3-1.3.7,0,1.3.6,1.3,1.3,0,.7-.6,1.3-1.3,1.3,0,0,0,0,0,0h0Z"/>
    </g>
  </g>
</svg>