<?xml version="1.0" encoding="UTF-8"?>
<svg id="Layer_1" data-name="Layer 1" xmlns="http://www.w3.org/2000/svg" version="1.1" viewBox="0 0 158 48">
  <defs>
    <style>
      .cls-1 {
        fill: #ed1d24;
        stroke-width: 0px;
      }
    </style>
  </defs>
  <path class="cls-1" d="M92.4,19h0c0,0,0,0,0,0-.8-.6-2-.8-3.1-.8-2.6,0-4.5,1.3-5.7,3.1-1.2,1.8-1.8,4.1-1.8,6.2s.2,2.9,1.1,4.2c.5.6,1.5,2.1,5.1,2.1,2.4,0,3.6-.6,4.2-1h.1c.1-.7.5-3.1.7-3.7h-.1c-1.2.9-2.6,1.6-4.1,1.6s-1.8-.2-2.3-.7c-.5-.5-.8-1.2-.8-2s0-.6,0-.9h0c0,0,0,0,0,0,2.4,0,3.6,0,5.6,0s1.4,0,2.3,0h.2c.2-1,.4-2.1.4-3.4,0-1.2-.1-3.2-1.9-4.4M90.8,24.1h0c0,0-2.3,0-2.3,0h-2.3s0,0,0,0h0c0-.2,0-.4.2-.6.2-.5.4-1.1.8-1.6,0,0,.1-.2.2-.3.7-.8,1.4-.9,1.8-.9s1.1.2,1.4.6c0,0,0,.1.1.2.1.2.2.5.3.8,0,.1,0,.2,0,.3,0,.4,0,.9-.2,1.3M81.7,21.4l-.2.2h-2.3c0,0-1.1,5-1.1,5-.1.6-.5,2.2-.5,2.7,0,.5.2.8.4,1,.2.2.6.3.8.3.6,0,.9-.2,1.3-.3h0c0,0-.6,3-.6,3l-.2.2c-.8.2-1.4.3-2.2.3-2.2,0-3.7-.7-3.7-3.2,0-1.2.5-3.3.8-4.9l.9-4h-1.8c0,0-.1,0-.1,0l.5-2.8h.2c0,0,1.8,0,1.8,0l.7-3.7v-.2c2-.5,2.5-.7,4.2-1.3h0c0,.1-.6,2.5-.6,2.5l-.6,2.7h2.4c0,0,0,0,0,0l-.5,2.8ZM110.2,16.7h-.1c0,.1-6.1.1-6.1.1l-1,5.1,5.3-.2h0c-.4,1.6-.5,2-.8,3.3h-.1c0,.1-5.1.1-5.1.1l-.7,3.5-.8,4.6h-.1c0,.1-4.4.2-4.4.2h0c0-.1.8-4,.8-4l1.2-5.5c.9-4.3,1.1-5.7,2-10.3h.1c0-.1,6.4-.1,6.4-.1h4.1c0-.1,0,0,0,0l-.6,3.2ZM118.9,19.2c-.8-.6-2.2-.9-4.1-.9s-1.8,0-2.8.3c-.8.2-1.3.3-1.8.4h-.1c0,.1-.6,3.2-.6,3.2h.2c.4,0,1-.3,1.7-.5.8-.3,1.5-.4,2.1-.4.9,0,1.6.1,2.1.4.5.3.9.9.9,1.5,0,.2,0,.3,0,.4,0,.1,0,.2,0,.3h0c0,0-.3,0-.6.1-.2,0-.5,0-.8,0-.5,0-1.1.1-1.6.2-1.2.2-4.7.7-5.7,3.1-1.1,1.9-.9,4.4.2,5.6.4.4,1,.8,1.7,1h0s.2,0,.2,0c3,.5,5.1-2.1,5.1-2.1l-.3,1.6h.1c0,.1,3.4,0,3.4,0h.1c0-.1,2-10,2-10,0-.2,0-.5,0-.7,0-.3,0-.5,0-.7,0-1.3-.6-2.2-1.4-2.7M115.4,29.1s-.8,1.3-2,1.7c-1.2.4-2,0-2.3-.4-.3-.4-.8-1.5.2-2.7,1.1-1.3,4.6-1.3,4.6-1.3l-.5,2.7ZM131.7,18l-.8,4.3-.2.2c-.2,0-.5,0-.9,0-1.1,0-2.7.4-3.9,2h0s-1.7,8.9-1.7,8.9h-.1c0,.1-3.7.2-3.7.2h0c0,0,2.9-15,2.9-15l.2-.2,3.6-.4v.2c.1,0-.3,2.2-.3,2.2l.2-.2c.8-.7,1.4-1.2,2.2-1.6.7-.4,1.5-.6,2.3-.6s.1,0,.2,0h.1ZM151.4,21.8c0,.9-.2,1.8-.4,2.7l-1.7,8.7h-.1c0,.1-3.9.2-3.9.2h0c0-.1,2-9.8,2-10.3s-.2-1.6-1.5-1.6-2,1-2,1l-2.1,10.7h-.1c0,.1-1.7.2-1.7.2h-1.5c0,0-.7,0-.7,0h0c0,0,0-.1,0-.1,0,0,.3-1.5.7-3.3h0c.6-2.8,1.3-6.6,1.3-6.8,0-.4-.2-1.6-1.5-1.6s-2,1-2,1l-2.1,10.7h-.1c0,.1-.6.1-.6.1h-3.3c0,.1,0,0,0,0l2.9-14.8h.1c0-.1,3.8-.5,3.8-.5l.2.2-.4,2.1s1.9-2,4.2-2.1c2.2,0,2.7,2.1,2.7,2.1,0,0,2.2-2.1,4.5-2.1,1.2,0,3.4.5,3.4,3.6M70.9,19.2c-.8-.6-2.2-.9-4.1-.9s-1.8,0-2.8.3c-.8.2-1.3.3-1.8.4h-.1c0,.1-.6,3.2-.6,3.2h.2c.4,0,1-.3,1.7-.5.8-.3,1.5-.4,2.1-.4.9,0,1.6.1,2.1.4.5.3.9.9.9,1.5s0,.3,0,.4c0,.1,0,.2,0,.3h0c0,0-.3,0-.6.1-.2,0-.5,0-.8,0-.5,0-1.1.1-1.6.2-1.2.2-4.7.7-5.7,3.1-1.1,1.9-.9,4.4.2,5.6.4.4.9.8,1.7,1h0s.2,0,.2,0c3,.5,5.1-2.1,5.1-2.1l-.3,1.6h.1c0,.1,3.4,0,3.4,0h.1c0-.1,2-10,2-10,0-.2,0-.5.1-.7,0-.3,0-.5,0-.7,0-1.3-.6-2.2-1.4-2.7M67.4,29.1s-.8,1.3-2,1.7c-1.2.4-2,0-2.3-.4-.3-.4-.8-1.5.2-2.7,1.1-1.3,4.6-1.3,4.6-1.3l-.5,2.7ZM59.4,21.4l-.2.2h-2.3c0,0-1.1,5-1.1,5-.2.6-.5,2.2-.5,2.7,0,.5.2.8.4,1,.3.2.6.3.8.3.6,0,.9-.2,1.3-.3h0c0,0-.6,3-.6,3l-.2.2c-.8.2-1.4.3-2.2.3-2.1,0-3.7-.7-3.7-3.2,0-1.2.5-3.3.8-4.9l.9-4h-1.8c0,0-.1,0-.1,0l.5-2.8h.2c0,0,1.8,0,1.8,0l.7-3.7v-.2c2-.5,2.5-.7,4.2-1.3h0c0,.1-.6,2.5-.6,2.5l-.6,2.7h2.4c0,0,0,0,0,0l-.5,2.8ZM50.7,14.6l-.7,3.6h-.2c-.3-.3-.4-.5-.8-.8-.9-.7-1.9-1-2.9-1s-1.5.3-2,.7c-.5.4-.7,1-.7,1.7,0,1.3.9,1.9,2.4,2.8l.6.3c1.3.9,3.3,2.2,3.3,5.1,0,3.4-2.2,6.8-7.4,6.8-1.3,0-2.5-.2-3.7-.7-.8-.3-1.2-.6-1.7-.9v-.2s.6-3.5.6-3.5h.2c.3.4.7.7,1.3,1.1,1.3.8,2.4.9,3,.9,1.8,0,3.3-1,3.3-2.7,0-1.5-1.2-2.2-2.4-2.9l-.8-.5c-1.3-.9-3.1-2-3.1-4.9,0-1.1.3-2.7,1.3-4,1.3-1.7,3.4-2.4,5.4-2.4s4.2.9,4.9,1.4h0ZM13.1,21c1.1.6,2.5,1.1,4.2,1.1s3.2-.4,4.2-1.1c1.1-.6,1.7-1.5,1.7-2.4,0-.9-.6-1.8-1.7-2.4-1.1-.6-2.6-1-4.2-1-1.7,0-3.1.4-4.2,1-1.1.6-1.7,1.5-1.7,2.4,0,.9.6,1.8,1.7,2.4M13.4,26c-1.1-.6-2.6-1-4.2-1s-3.1.4-4.2,1c-1.1.6-1.7,1.5-1.7,2.4,0,.9.6,1.8,1.7,2.5,1.1.6,2.5,1.1,4.2,1.1,1.7,0,3.2-.4,4.2-1.1,1.1-.6,1.7-1.5,1.7-2.4,0-.9-.6-1.8-1.7-2.4M29.7,26c-1.1-.6-2.6-1-4.2-1s-3.1.4-4.2,1c-1.1.6-1.7,1.5-1.7,2.4,0,.9.6,1.8,1.7,2.5,1.1.6,2.5,1.1,4.2,1.1,1.7,0,3.2-.4,4.2-1.1,1.1-.6,1.7-1.5,1.7-2.4,0-.9-.6-1.8-1.7-2.4M25.4,22.5c-.8,0-1.5,0-2.2.2,1.5-1.1,2.4-2.6,2.4-4.2,0-3.3-3.7-5.9-8.4-5.9-4.6,0-8.3,2.6-8.3,5.9s.9,3.1,2.4,4.2c-.7-.1-1.4-.2-2.2-.2-4.6,0-8.3,2.6-8.3,5.9s3.7,5.9,8.3,5.9,7.3-1.9,8.2-4.5c.9,2.6,4.1,4.5,8.1,4.5s8.4-2.7,8.4-5.9-3.7-5.9-8.4-5.9M10.5,18.5c0-1.5,1.1-2.5,1.8-2.9,1.3-.9,3.1-1.4,5-1.4s3.7.5,5.1,1.4c.7.5,1.8,1.5,1.8,2.9,0,2.5-3.2,4.4-6.9,4.4-1.9,0-3.7-.5-5-1.5-1.1-.8-1.8-1.9-1.8-3M9.2,32.8c-1.9,0-3.7-.5-5-1.5-1.1-.8-1.8-1.9-1.8-3,0-1.5,1.1-2.5,1.8-2.9,1.3-.9,3.1-1.4,5-1.4,1.9,0,3.7.5,5.1,1.4.7.5,1.8,1.5,1.8,2.9,0,2.5-3.2,4.4-6.9,4.4M17.3,27c-.4-1-1.1-2-2.1-2.7.7.1,1.4.2,2.1.2s1.5,0,2.2-.2c-1,.7-1.8,1.7-2.1,2.7M25.4,32.8c-1.9,0-3.7-.5-5-1.5-1.1-.8-1.8-1.9-1.8-3,0-1.5,1.1-2.5,1.8-2.9,1.3-.9,3.1-1.4,5-1.4,1.9,0,3.7.5,5.1,1.4.7.5,1.8,1.5,1.8,2.9,0,2.5-3.2,4.4-6.9,4.4"/>
  <path class="cls-1" d="M157.4,21.2c0,1.3-1,2.3-2.2,2.3-1.2,0-2.2-1-2.2-2.3,0-1.3.9-2.3,2.2-2.3,1.2,0,2.2,1,2.2,2.3M153.3,21.1c0,1.1.8,2,1.9,2,1,0,1.9-.9,1.9-2,0-.5-.2-1.1-.5-1.4-.3-.4-.9-.6-1.3-.6-1.1,0-1.9.8-1.9,2M155.2,19.8c.3,0,.4,0,.6,0,.3,0,.4.4.4.7,0,.3-.2.6-.5.7l.5,1.2h-.4s-.5-1.2-.5-1.2h0s-.2,0-.2,0h-.2s0,0,0,0v1.2s-.3,0-.3,0v-2.6s.7,0,.7,0ZM155.1,21c.3,0,.4,0,.5,0,.1,0,.2-.2.2-.3,0-.2,0-.3-.2-.4,0,0-.2,0-.5,0h-.3s0,.9,0,.9h.3Z"/>
</svg>