<?xml version="1.0" encoding="UTF-8"?>
<svg id="Layer_1" data-name="Layer 1" xmlns="http://www.w3.org/2000/svg" version="1.1" viewBox="0 0 158 48">
  <defs>
    <style>
      .cls-1 {
        fill: #e31b23;
        fill-rule: evenodd;
      }

      .cls-1, .cls-2 {
        stroke-width: 0px;
      }

      .cls-2 {
        fill: #000;
      }
    </style>
  </defs>
  <path class="cls-1" d="M121.8,17s0,0,0,0c0,0-.1,0-.1-.1s0,0,0,0h0c3-6.9,9.9-11.7,17.9-11.7s14.9,4.8,17.9,11.7h0s0,0,0,0c0,0,0,.1-.1.1,0,0,0,0,0,0h0c-1.4-.8-3.3-1.3-5.5-1.3s-4.7.7-6.1,1.7h0s0,0,0,0,0,0,0,0h0c-1.4-1.1-3.6-1.7-6.1-1.7s-4.7.7-6.1,1.7h0s0,0,0,0,0,0,0,0h0c-1.4-1.1-3.6-1.7-6.1-1.7s-4,.5-5.4,1.3h0Z"/>
  <path class="cls-1" d="M140.5,17.1h0c0,0,0-.1,0-.1h0c-.3,0-.6,0-1,0-.3,0-.6,0-.8,0h0s0,0,0,0h0s0,15.9,0,15.9c0,.9-.7,1.6-1.6,1.6s-1.3-.5-1.6-1.1h0c-.1-.4-.5-.7-.9-.7s-1,.4-1,1,0,.2,0,.3h0c.5,1.4,1.8,2.5,3.4,2.5s3.6-1.6,3.6-3.6v-15.9h0Z"/>
  <path class="cls-2" d="M28.4,36.5h-3.3l-2.1-6.8h-2.7l-.8,6.8h-3.2l1.9-17.4h6.4c3.8,0,5.6.9,5.1,5.3-.3,3-1.5,4.2-3.6,4.8l2.3,7.3ZM23.6,26.9c1.5,0,2.6,0,2.9-2.6.3-2.6-.9-2.5-2.4-2.5h-2.9l-.6,5.1h3ZM114,36.5h-3.3l-2.1-6.8h-2.7l-.8,6.8h-3.2l1.9-17.4h6.4c3.8,0,5.6.9,5.1,5.3-.3,3-1.5,4.2-3.6,4.8l2.3,7.3ZM109.2,26.9c1.5,0,2.6,0,2.9-2.6.3-2.6-.9-2.5-2.4-2.5h-2.9l-.6,5.1h3,0ZM51.6,31.9l5-12.8h3.3l-7.2,17.5h-3.4l-3.5-17.5h3.4l2.4,12.8ZM72.9,22h-7l-.5,4.1h5.7l-.3,2.9h-5.6l-.5,4.5h7.2l-.3,2.9h-10.5l1.9-17.4h10.3l-.3,2.9ZM99.9,22h-7l-.5,4.1h5.7l-.3,2.9h-5.6l-.5,4.5h7.2l-.3,2.9h-10.5l1.9-17.4h10.3l-.3,2.9ZM116.7,36.2l.5-2.9c.5.1,3.2.5,4.9.5s2.8-.4,3-2.1c.2-1.6,0-1.8-2.5-2.6-3.9-1.3-4.8-1.9-4.4-5.5.4-3.5,2.2-4.7,6.1-4.7s4,.3,4.8.5l-.4,2.8c-.9-.1-3.2-.4-4.8-.4s-2.4.5-2.5,1.9c-.2,1.6.1,1.8,2.5,2.6,3.7,1.2,4.9,1.9,4.5,5.5-.4,3.8-2.2,5-6.7,5s-4.2-.3-5-.5M33.5,36.5h-3.3l7.5-17.5h3.2l3.5,17.5h-3.4l-.5-2.9h-5.7l-1.2,2.9ZM38.7,23.6l-2.9,7.3h4l-1.2-7.3ZM86.2,33.6h-7.7l1.6-14.5h-3.3l-1.9,17.4h8.3c1.9,0,2.7-1.1,3.1-2.9M1.5,19.1l-.3,2.9h5.4l-1.6,14.5h3.3l1.6-14.5h2.7c1.9,0,2.7-1.1,3.1-2.9H1.5Z"/>
</svg>