<?xml version="1.0" encoding="utf-8"?>
<!-- Generator: Adobe Illustrator 28.1.0, SVG Export Plug-In . SVG Version: 6.00 Build 0)  -->
<svg version="1.1" id="Layer_1" xmlns="http://www.w3.org/2000/svg" xmlns:xlink="http://www.w3.org/1999/xlink" x="0px" y="0px"
	 viewBox="0 0 2543.9 879.2" style="enable-background:new 0 0 2543.9 879.2;" xml:space="preserve">
<style type="text/css">
	.st0{fill:#1F2937;}
</style>
<g>
	<path class="st0" d="M577,573.1h104.7V57.5H577L577,573.1L577,573.1z M754.2,573.1h104.7V57.5H754.2L754.2,573.1L754.2,573.1z
		 M428.7,57.6l-113,0L21.9,573.1H135l102.9-180.6h118.9l44.4-77.8v258.5h107.9V57.6L428.7,57.6L428.7,57.6z M283.1,313.1
		l118.1-207.2v207.2H283.1z M1232.8,502.1c0,1,9.7,83.2-156,83.2s-153.9-83.2-153.9-83.2V429h104.7v38.6c0,14.3-1.7,26.1,8.6,33.5
		c13.5,9.7,68.5,11.3,82.2,0c8.7-7.2,8.6-31.5,8.6-31.5v-27.4c0-21.3-19.7-28-21.4-28.9c-0.7-0.5-134.6-28.9-160.3-51.2
		c-25.7-22.3-22.4-51.8-22.4-51.8v-92.4c10.7-88.3,159.2-79.7,159.2-79.7s145.3-8.6,150.6,79.7v66H1128v-30.5
		c0-34.6-17.7-41.5-46.5-41.1c-32.1,0.4-51.5,6-51.5,42.6c0,0-5.6,41.1,21.1,49.2c26.7,8.1,117.5,26.9,126,30.5
		c0,0,55.6,12.2,55.6,74.1L1232.8,502.1L1232.8,502.1L1232.8,502.1z M1486.4,217.9v-71.1h-65.9V57.5h-104.7v89.3H1285l-40.6,71.1
		h71.3v355.2h104.7V217.9H1486.4z M1814.9,222.9c0-88.3-150.9-84.7-150.9-84.7s-148.5-8.6-159.2,79.7v65h105.4l-0.1-27.1
		c0-36.6,12.8-44,49.1-44.4c33.1-0.4,50.8,7.6,50.8,42.1v57.8h-94.5c0,0-116-5.6-110.7,91.4v87.3c0,0-1,83.2,80.1,83.2h81.3
		l41.8-73.1h-62.6c0,0-32,8.1-32-54.8s20.2-59.9,28.8-59.9h65.2v187.8h107.9L1814.9,222.9L1814.9,222.9z M2074.7,217.9v-71.1h-67.1
		V57.5h-104.7v89.3h-31.4l-40.5,71.1h72v355.2h104.7V217.9H2074.7L2074.7,217.9z M2195.8,311.3l98.7-0.1v-57.8
		c0-34.6-17.7-42.5-50.7-42.1c-36.3,0.4-47.9,3.8-47.9,40.3L2195.8,311.3L2195.8,311.3z M2195.8,384.6v87c0,0-3.2,33.5,51.3,33.5
		c51.3,0,47.5-33.5,47.5-33.5V431h105.8v56.9c0,107.6-156,95.4-156,95.4c-167.7,0-155-93.4-155-93.4v-272
		c10.7-88.3,159.2-79.7,159.2-79.7s151-3.6,151,84.7v161.5L2195.8,384.6z M2437.6,527.8c0-23.9,19.4-41.5,42.3-41.5
		c22.7,0,42,17.6,42,41.5c0,24.2-19.3,41.8-42,41.8C2457,569.6,2437.6,552,2437.6,527.8z M2479.9,562.7c18.8,0,33.7-14.8,33.7-34.8
		c0-19.7-14.9-34.6-33.7-34.6c-19.1,0-33.9,14.9-33.9,34.6C2446,547.9,2460.8,562.7,2479.9,562.7z M2471.1,552h-7.3v-48.1h18.3
		c11.4,0,16.9,4.2,16.9,13.7c0,8.6-5.4,12.3-12.4,13.2l13.6,21.2h-8.1l-12.7-20.8h-8.3L2471.1,552L2471.1,552L2471.1,552z
		 M2479.8,524.9c6.2,0,11.6-0.4,11.6-7.8c0-6-5.5-7.1-10.5-7.1h-9.9v14.9H2479.8L2479.8,524.9z M465.1,811.4h-18.5v-49.6l-53.3-86
		h22.6l35.5,59.9c2.6,4.2,3.2,5.1,5.6,9.8c3.2-5.2,3.8-6.5,5.6-9.6l33-60.1h19.4l-50,86V811.4z M545.3,813.3
		c-40.5,0-43.7-30.9-43.7-48.8c0-14.2,1-51.3,45.1-51.3c41.1,0,42.9,30.7,43.4,46.3C590.5,776.1,590.1,813.3,545.3,813.3z
		 M546.8,723.9c-26.4,0-27,29.4-27,40.1c0,14,1.4,38.9,26.6,38.9c19.3,0,25.9-15.9,25.6-42.4C571.7,738.8,565.5,723.9,546.8,723.9z
		 M692.1,811.4h-17.1v-11.3c-4.9,4-15.7,13.2-33.2,13.2c-5.3,0.2-10.6-0.9-15.4-3.1c-14.7-6.9-15.1-21.1-15.3-32.1v-62.8h17.2v55.3
		c0,10.4,0.4,16.7,2.6,21.5c3.2,6.7,9.7,10.4,18.1,10.4c7.1,0,15.9-2.9,20.3-7.3c5.1-4.8,5.5-10.2,5.7-15v-64.9h17.1V811.4z
		 M725.9,715.8h-11.7l11.1-21.3h-9.7v-18.6h21.2v17.6L725.9,715.8z M766.2,811.4h-17.4v-96.2h17.4v12.6c3.6-4.4,11.1-14.2,24.6-14.2
		c6.3,0,9.3,1.9,12.1,3.5v15.2c-4.8-3.6-10.6-5.6-16.5-5.6c-3.4-0.1-6.8,0.6-9.9,1.9c-10.1,4.4-10.1,13-10.3,18.2L766.2,811.4
		L766.2,811.4z M893.5,782c-1.4,24.4-23.8,31.3-41.1,31.3c-6,0-21.7-0.6-32.4-11.5c-4.8-5.2-11.5-15.7-11.5-35.7
		c0-31.7,13.5-52.8,45-52.8c31.6,0,41.5,20.7,40.4,49.8h-67c-0.2,11.9,0.1,39.5,26.2,39.5c6,0,22.1-2.1,23.4-20.6L893.5,782
		L893.5,782L893.5,782z M876.8,753c-0.2-5.9-0.8-29-23-29c-14.5,0-25.2,9.8-26.4,29H876.8L876.8,753z M968.3,715.4h17.4v96h-17.4
		V715.4z M968.3,678h17.1v16.7h-17.1V678z M1093.4,811.4h-17.1V755c0-4.4,0-8.9-0.6-13.4c-0.4-3.9-2.2-17.5-19.7-17.5
		c-4.5,0-8.3,0.8-11.7,2.1c-13.1,5.2-13.5,14.6-13.7,20.5v64.7h-17.2v-96h17.2v10.8c8.9-8.4,20.6-13,32.8-12.9
		c9.3,0,18.6,2.9,24.2,9.8c5.7,7.1,5.9,15.9,5.9,23.2V811.4L1093.4,811.4z M1255.4,715.4v81.2c0.1,12.7,0.4,29.6-9.3,40.7
		c-8.9,10.2-23,13.8-36.9,13.8c-24.6,0-32.7-10.2-34.3-12.1c-5.6-7.1-5.5-16.5-5.5-19.7h16.5c0.4,5.3,1,14,11.5,18.8
		c2.6,1.1,6.5,2.3,12.9,2.3c3.2,0,14.1,0,21.6-9.2c6.2-7.3,6.2-15.9,6.4-23.4l0.2-9c-4.4,4.5-13.1,12.7-31.6,12.7
		c-6.4,0.1-12.7-1.4-18.4-4.2c-14.3-7.7-19.7-23.7-19.7-43.2c0-12.9,2.4-25.4,8.9-34.6c7.1-9.8,18.3-16.1,32.5-16.1
		c15.9,0,23.6,7.5,28.4,12.1v-10L1255.4,715.4L1255.4,715.4z M1238.7,749.8c0-7.3-1-12.7-4.8-17.5c-4-5-11.1-8.3-18.9-8.3
		c-5,0-9.9,1.4-13.9,3.6c-11.9,7.3-13.9,22.3-13.9,34.2c0,4.8,0.4,9.6,1,14.4c1,5.7,3.9,24.3,25.2,24.3c6.8,0,13.7-2.3,18.4-6.4
		c6.4-5.7,6.6-11.9,7-18V749.8L1238.7,749.8z M1320.9,813.3c-40.4,0-43.7-30.9-43.7-48.8c0-14.2,1-51.3,45.1-51.3
		c41.1,0,42.9,30.7,43.3,46.3C1366.1,776.1,1365.7,813.3,1320.9,813.3z M1322.3,723.9c-26.4,0-27,29.4-27,40.1
		c0,14,1.5,38.9,26.6,38.9c19.4,0,26-15.9,25.6-42.4C1347.3,738.8,1341,723.9,1322.3,723.9L1322.3,723.9z M1424.9,813.3
		c-40.5,0-43.8-30.9-43.8-48.8c0-14.2,1-51.3,45.2-51.3c41.1,0,42.9,30.7,43.3,46.3C1470.1,776.1,1469.6,813.3,1424.9,813.3z
		 M1426.3,723.9c-26.4,0-27,29.4-27,40.1c0,14,1.4,38.9,26.6,38.9c19.4,0,26-15.9,25.6-42.4C1451.3,738.8,1445.1,723.9,1426.3,723.9
		z M1571.4,811.4h-16.7v-11.9c-4.7,4.8-13.3,13.8-31.4,13.8c-38.1,0-38.1-39.4-38.1-48.4c0-9.2,1.2-25.3,8.9-36.1
		c8.4-11.9,21.4-15.6,33.2-15.6c16.5,0,23.4,7.9,27.4,12.1v-49.5h16.7V811.4L1571.4,811.4z M1554.7,747.5c0-19-14.9-23.4-23.8-23.4
		c-27.4,0-27.6,28.8-27.6,39c0,17.2,3.4,39.5,25.4,39.5c7.7,0,16.3-3.2,20.6-8.6c5.1-5.9,5.2-14.2,5.5-20.6L1554.7,747.5
		L1554.7,747.5L1554.7,747.5z M1733.3,811.4H1716V755c0-4.6,0.2-9-0.5-13.4c-0.4-3.7-2.1-17.5-19.7-17.5c-4.5,0-8.3,0.8-11.7,2.1
		c-13.1,5.2-13.5,14.6-13.7,20.5v64.7h-17.1V675.7h17.1v50.5c8.9-8.4,20.7-13,32.9-12.9c9.2,0,18.5,2.9,24.2,9.8
		c5.6,7.1,5.6,15.9,5.9,23.2L1733.3,811.4L1733.3,811.4L1733.3,811.4z M1837.9,811.4h-13.1c-7.7,0-8.9-2.5-8.4-10.8
		c-2.8,2.5-6.1,5.4-12.1,8.1c-6.9,3.1-14.1,4.6-20.8,4.6c-22.5,0-28.4-16.7-28.4-27.6c0-4,0.8-7.9,2.5-11.4
		c6.8-15.2,23.6-17.1,41.9-19.2l16.9-1.7v-8.6c-0.2-8.5-0.4-20.7-18.7-20.7c-3.4,0-11.5,0-17.1,5.6c-5.5,5.1-5.6,12.1-5.6,16.3
		h-16.4c0-4-0.2-10,2.8-15.7c5.3-10.4,19.2-16.9,37.8-16.9c7.1,0,20.2,1.3,27,7.7c7.1,6.7,7.1,16.1,7.1,23v52.8c0,4,0,6.7,1,9
		c0.9,2.5,2,2.9,3.6,3.3L1837.9,811.4L1837.9,811.4L1837.9,811.4z M1816.3,762.5l-5.1,0.6c-15.7,1.7-24.5,3.6-29,6.1
		c-5.8,2.9-9.3,8.9-9.1,15.3c0,10.8,7.4,17.8,18.3,17.8c5.5,0,11.5-1.9,15.5-4.4c8.9-5.4,9.1-13,9.3-19L1816.3,762.5L1816.3,762.5
		L1816.3,762.5z M1941.3,811.4h-17.1V755c0-4.4,0-8.9-0.6-13.4c-0.4-3.9-2.2-17.5-19.8-17.5c-4.4,0-8.2,0.8-11.6,2.1
		c-13.1,5.2-13.5,14.6-13.7,20.5v64.7h-17.1v-96h17.1v10.8c8.9-8.4,20.7-13,32.9-12.9c9.3,0,18.5,2.9,24.2,9.8
		c5.6,7.1,5.8,15.9,5.8,23.2L1941.3,811.4L1941.3,811.4L1941.3,811.4z M2049.5,811.4h-16.7v-11.9c-4.7,4.8-13.3,13.8-31.4,13.8
		c-38.1,0-38.1-39.4-38.1-48.4c0-9.2,1.2-25.3,8.9-36.1c8.4-11.9,21.3-15.6,33.2-15.6c16.5,0,23.3,7.9,27.4,12.1v-49.5h16.7V811.4
		L2049.5,811.4z M2032.8,747.5c0-19-14.9-23.4-23.8-23.4c-27.4,0-27.7,28.8-27.7,39c0,17.2,3.5,39.5,25.4,39.5
		c7.6,0,16.3-3.2,20.6-8.6c5-5.9,5.2-14.2,5.5-20.6L2032.8,747.5L2032.8,747.5L2032.8,747.5z M2096.8,766.7c-9-2.7-24.5-7.3-24.5-25
		c0-18.8,14.9-28.4,35.9-28.4c9.7,0,19.2,2.5,25.1,6.9c9.7,7.5,9.5,18.4,9.5,22.5h-16.5c0.1-2.3,0.6-5-0.7-8.4
		c-2.6-7.3-9.2-10.8-18.3-10.8c-11.7,0-19.1,6.3-19.1,14c0,10,10.5,13,20.9,16.3l6.9,1.9c7,2.1,14.1,4.3,19.6,8.6
		c1.6,1.2,9.3,7.5,9.3,20c0,6.5-2.6,29-37.5,29c-16.1,0-38.9-3.9-37.7-31.7h17.1c-0.4,7.5,0.4,20.9,22,20.9c2.6,0,19.1,0,19.1-15.2
		c0-11.9-10.1-14.8-19.9-17.5L2096.8,766.7L2096.8,766.7z M2161.1,811.4h20.3v-18.6h-20.3V811.4z"/>
</g>
</svg>
