<?xml version="1.0" encoding="utf-8"?>
<!-- Generator: Adobe Illustrator 28.1.0, SVG Export Plug-In . SVG Version: 6.00 Build 0)  -->
<svg version="1.1" id="Layer_1" xmlns="http://www.w3.org/2000/svg" xmlns:xlink="http://www.w3.org/1999/xlink" x="0px" y="0px"
	 viewBox="0 0 2500 785" style="enable-background:new 0 0 2500 785;" xml:space="preserve">
<style type="text/css">
	.st0{fill:#1F2937;}
</style>
<path class="st0" d="M2422.1,477.4c0,13.3,2.3,17.6,16.7,16.9l-2.2,8.8c-8.9,4.1-18.6,6.3-28.5,6.4c-16.9,0-29.8-7.6-35.6-23.5
	c-9.3,16.5-27.3,23.5-46,23.5c-29.4,0-42.6-14.5-42.6-45.8c0-34.2,39.2-45.4,58.6-52.8c8.6-3.3,16.7-8.2,24.6-13.2
	c4.3-4,5.4-8.6,5.4-14c0-17.2-5.5-35.5-22-35.5c-11.8,0.1-25.2-0.2-43.5,17.4l-8-12.2c16.3-15.6,37.9-24.2,60.4-24.1
	c30.2,0,62.7,11.7,62.7,47.6L2422.1,477.4L2422.1,477.4z M2372.6,463v-48.1c-9,4-20.7,7.2-31.2,15.5c-9.3,7.5-11.5,15.6-11.5,27.1
	c0,13.3,3.8,29.9,19.2,29.9C2364,487.2,2371.8,480.9,2372.6,463z M1955.8,659.5c-1,37,17.4,72.9,55.4,72.9
	c20.6,0,33.7-5.8,44.8-15.1l4.3,3.2l-11.2,18.5c-13,8.3-34.9,10.6-52.5,10.6c-59.6,0-90.1-35.9-90.1-94.5
	c0-50.3,34.6-86.3,86.7-86.3c57.4,0,77.6,39.2,73.7,90.6L1955.8,659.5L1955.8,659.5z M1955.8,645h68.1c0-21.7-4.7-63.1-32.5-63.1
	C1960.6,581.9,1956.5,623.3,1955.8,645z M1067.3,468.4l-7.9,30.9c-21.6,11.1-47.1,15.4-71.1,15.4c-76.9,0-132.3-44.1-132.3-117.8
	c0-93.8,62-138.7,140.2-138.7c23.7,0,52.4,6.1,73.3,17.6c-3.2,12.2-5.3,24.4-8.3,37h-5.1c-13.3-19.4-36.3-33.1-59.6-33.1
	c-59.7,0-81,59.3-81,112.1c0,61.5,27.4,101.3,82.8,101.3c22.3,0,48.1-11.5,64.3-26.9L1067.3,468.4z M1523,463.8
	c0,19.7,1,35.9,28.8,31.2V507c-7.4,4-21.5,5.5-32.6,5.5c-37.4,0-45.6-22-45.6-55.4V355H1449c1.1-6.2,1.1-12.5,0-18.6h24.4v-36.2
	c16.1-6.5,32.3-14,49.6-22.2v58.5h30.5c-1.1,6.2-1.1,12.5,0,18.6h-30.5L1523,463.8L1523,463.8z M1565.9,332
	c8.3,0.7,16.5,1.8,24.8,1.8s16.5-1.1,24.8-1.8v174.3c-8.3-0.8-16.5-1.8-24.8-1.8s-16.5,1-24.8,1.8V332L1565.9,332z M1590.3,252.2
	c15.4,0,28.8,13,28.8,28.4c-0.3,15.7-13.1,28.2-28.8,28.3c-15.5-0.3-27.9-12.9-28.1-28.3C1562.4,265.1,1574.8,252.5,1590.3,252.2z
	 M2500,506.3c-8.3-0.8-16.5-1.8-24.8-1.8c-8.3,0-16.5,1-24.7,1.8V263c8.3,0.7,16.5,1.8,24.7,1.8c8.3,0,16.5-1.1,24.8-1.8V506.3z
	 M706.7,500c9,0.8,18,1.8,26.9,1.8c9,0,18-1,26.9-1.8v246.5c-9-0.8-18-1.8-26.9-1.8c-9,0-18,1.1-26.9,1.8V500z M1089.2,583.1
	l-6.5,29.9l-6.7-1.1c-5.8-13.4-22.9-26.9-39.1-26.9c-12.9,0-24.4,8.3-24.4,23.1c0,34.8,81.3,20.7,82.2,84
	c0.5,33.4-25.8,59.7-69.3,59.7c-17.6,0-40.4-2.5-55.1-12.6c2.2-11.5,4-22.6,5.4-34.1h6.2c8.9,24.4,29.9,28.9,49.2,28.9
	c12.6,0,24.9-12.1,24.9-24.7c0-33.8-80.3-20.8-80.3-83.3c0-36.7,29.1-57.2,61.8-57.2C1055.6,569,1076.1,573.4,1089.2,583.1
	L1089.2,583.1z M1402.1,615.2c-2.3,0.5-9.6-1.2-14.9-1.3c-13.9-0.4-28.8,10.5-33.1,25.9c-3.2,10.4-2.2,30.2-2.2,41.7v65.1
	c-8.3-0.8-16.5-1.8-24.8-1.8s-16.5,1.1-24.8,1.8V572.2c8.3,0.7,16.5,1.7,24.8,1.7s16.5-1,24.8-1.7l1.6,34.9
	c5.3-13.3,27.5-39,48.7-37C1400.7,585.1,1400.7,600.2,1402.1,615.2L1402.1,615.2z M1888.4,618.7l-5.8-2.8
	c-2.6-19.8-19.3-30.8-40.5-30.8c-33.8,0-44.2,43.8-44.2,70.4c0,43.1,15.4,75.2,54.6,75.2c13.3,0,35.9-8.1,44.6-18.5l5,3.3l-12.5,21
	c-10.1,9-37.8,13.1-50.7,13.1c-55.7,0-94.1-30.9-94.1-87.3c0-57.1,38.1-93.4,94.5-93.4c20.5,0,44.9,5,61.8,16.2L1888.4,618.7
	L1888.4,618.7z M1172.8,749c-45.3,0-62.3-33.4-62.3-80.5v-96.4c8.3,0.7,16.5,1.8,24.8,1.8s16.5-1.1,24.8-1.8v93.3
	c0,33.4,4.3,57.9,29.4,57.9c31.3,0,34.6-30.4,34.6-53.1v-98c8.3,0.7,16.5,1.8,24.8,1.8s16.5-1.1,24.8-1.8v174.3
	c-7.9-0.7-15.8-1.8-24.1-1.8c-7.9,0-15.8,1.1-23.7,1.8l-2.2-21.7C1215.6,741.2,1191,749,1172.8,749z M894.5,569.5
	c45.3,0,62.3,33.4,62.3,80.5v96.5c-8.3-0.8-16.5-1.8-24.8-1.8s-16.5,1.1-24.8,1.8v-93.3c0-33.4-4.3-57.9-29.4-57.9
	c-31.3,0-34.6,30.5-34.6,53.1v98.1c-8.3-0.8-16.5-1.8-24.7-1.8c-8.3,0-16.5,1.1-24.8,1.8V572.2c7.9,0.7,15.8,1.7,24.1,1.7
	c7.9,0,15.8-1,23.8-1.7l2.3,20.8C853.6,576.8,876.2,569.5,894.5,569.5L894.5,569.5z M1874.7,419.3c-1,37,17.4,72.9,55.5,72.9
	c20.6,0,33.6-5.8,44.8-15.1l4.3,3.2l-11.3,18.5c-12.9,8.3-34.9,10.6-52.4,10.6c-59.7,0-90.2-35.9-90.2-94.5
	c0-50.3,34.6-86.3,86.7-86.3c57.4,0,77.6,39.2,73.7,90.6L1874.7,419.3L1874.7,419.3z M1874.7,404.9h68.1c0-21.8-4.7-63.2-32.6-63.2
	C1879.7,341.7,1875.5,383.1,1874.7,404.9z M2248.2,463.8c0,19.7,1,35.9,28.8,31.2V507c-7.4,4-21.5,5.5-32.7,5.5
	c-37.4,0-45.6-22-45.6-55.4V355h-24.4c1.1-6.2,1.1-12.5,0-18.6h24.4v-36.2c16.1-6.5,32.3-14,49.6-22.2v58.5h30.5
	c-1.1,6.2-1.1,12.5,0,18.6h-30.5V463.8L2248.2,463.8z M1535,717.6c0,13.3,2.3,17.6,16.7,16.9l-2.2,8.8c-8.9,4.1-18.6,6.3-28.5,6.4
	c-16.9,0-29.8-7.6-35.6-23.5c-9.3,16.5-27.3,23.5-46,23.5c-29.4,0-42.6-14.5-42.6-45.8c0-34.2,39.2-45.4,58.5-52.8
	c8.7-3.3,16.7-8.2,24.6-13.2c4.3-4,5.4-8.6,5.4-14c0-17.3-5.5-35.5-22-35.5c-11.8,0.1-25.2-0.2-43.5,17.4l-8-12.2
	c16.9-15.8,37.8-24.1,60.4-24.1c30.2,0,62.7,11.7,62.7,47.6V717.6L1535,717.6z M1485.4,703.2v-48.1c-9,4-20.8,7.2-31.2,15.4
	c-9.3,7.6-11.5,15.6-11.5,27.1c0,13.3,3.8,29.9,19.2,29.9C1476.8,727.5,1484.6,721.1,1485.4,703.2z M1168.3,330
	c61.2,0,93.5,40.8,93.5,91.1c0,50.4-32.9,91.1-93.5,91.1c-60.6,0-93.6-40.8-93.6-91.1C1074.8,370.8,1107.1,330,1168.3,330z
	 M1168.3,342.5c-31.4,0-43.5,35.2-43.5,78.7s7.2,78.7,43.5,78.7c36.3,0,43.5-35.2,43.5-78.7S1199.6,342.5,1168.3,342.5z
	 M607.3,304.4c-1.1,6-3.3,10.4-9.4,9.4c-10.5-1.1-48.5-0.6-56.7-0.6c-48.8,0-85.8,17.7-102.2,30.3c-8.9,6.8-10.6,9.4-8.3,15.7
	c1.7,4.5,5.8,7.6,10.7,11.3c6.6,4.9,8.3,13.8,8.3,21.5v122.9c0,8.3,2.2,9.9,8.8,11.6l29.7,4.4c7.7,0.6,8.8,3.3,3.3,6.6L458,551.2
	c-7.2,2.8-9.9,6.6-9.9,17.6s8.3,19.2,19.9,19.2c20.9,0.6,53.5,3.3,62.2,7.7c-9.9,4.4-38.5,7.2-62.2,6.6c-23.7-0.5-23.7,5-24.8,11.6
	c-1.1,11,19.3,14.9,31.4,14.9c12.2,0,30.8-1.7,36.3-4.9c9.9-4.4,9.4,7.2,7.2,14.9c-2.2,7.7-21,15.4-44.1,13.8
	c-19.2-1.4-28.7,13.2-29.8,27.5c0,27.1,13.1,37.2,30.4,38.3c32.4,2.2,80.1-26.5,88.6-35c6.6-5.6,11-1.7,5.6,4.4
	c-15.8,19.4-34,35.1-52.9,47.6c-66.8,44-143.6,49.4-164.3,49.4c-26.5,0-31.5-2.8-43-19.9c-49.6,3.3-74.9-19.9-81.5-24.2
	c-6.6-4.4-7.7-10.5-5.5-22l13.2-47.4c49.6,51.8,66.1,30.8,61.7,11L270.1,560c-46.3-6.7-61.7-60.6-61.7-67.2s-3.3-14.3-16.5-11
	c-31.9,7.7-135.6,39.7-160.9,31.9c66.1-24.2,82.6-94.8,93.7-148.8c14.2-70.5,42.9-130,62.7-158.6C280,65.2,490.5,0.2,576.5,0.2
	s92.6,27.5,83.8,74.9L607.3,304.4L607.3,304.4z M365.9,440.4c-11.5-0.6-33.6,7.2-26.5,35.8c3.7,14.7,7.8,29.7,13.6,40.7
	c5.6,10.6,12.8,17.5,22.8,17.2c14.9-0.6,21-13.5,23.1-20.3c4.9-15,11-29.5,18.2-43.5c5.6-10.4,9.9-31.4-13.8-29.2
	C396.3,441.5,371.5,441.5,365.9,440.4L365.9,440.4z M621.7,337.4l50.7-222.6c3.3-9.9,7.7-4.4,11,1.1c3.3,5.5,22,36.3,49.6,54
	c17,10.8,48.9,36.4,69.2,66c12.7,18.4,20.9,38.3,18.3,57.4c-3.1,22.9-18.2,36.2-41.5,45.1c-27.1,10.4-65.1,14.9-107.8,22.1
	c-3.3,25.4-24.7,84.4-39,100.9c-7.8,7.7-9.4,2.8-9.4-1.7C622.7,459.7,627.2,348.5,621.7,337.4L621.7,337.4z M127.9,271.3
	C107,323,101.5,366.1,86,416.7c-15.4,50.7-56.2,81.5-73.8,71.6C-37.4,457.5,77.2,282.3,127.9,271.3L127.9,271.3z M513.1,363.3
	c10.4-0.6,57.3-0.6,68.3,0.5c7.7,0.6,17.1,22.6,13.2,51.8c-1.1,5.5-9.9,5.5-12.1,0c-2.2-5.6-11-17.1-15.4-5.6
	c-5.5,12.2-30.3,13.3-36.9-2.2c-2.2-6-5.2-6.3-12.1-3.3c-3.9,1.7-10.5,4.9-20.4,8.8c-6.9,2.6-12.4-1.7-11.5-9.4
	C486.7,398.5,493.2,366.6,513.1,363.3L513.1,363.3z M1667.3,569.5c45.3,0,62.2,33.4,62.2,80.5v96.5c-8.3-0.8-16.5-1.8-24.8-1.8
	s-16.5,1.1-24.8,1.8v-93.3c0-33.4-4.3-57.9-29.4-57.9c-31.3,0-34.6,30.5-34.6,53.1v98.1c-8.3-0.8-16.5-1.8-24.8-1.8
	s-16.5,1.1-24.8,1.8V572.2c7.9,0.7,15.8,1.7,24.1,1.7c7.9,0,15.8-1,23.7-1.7l2.4,20.8C1626.4,576.8,1648.9,569.5,1667.3,569.5
	L1667.3,569.5z M1381.8,329.4c45.3,0,62.3,33.4,62.3,80.5v96.5c-8.3-0.7-16.5-1.8-24.8-1.8s-16.5,1.1-24.8,1.8V413
	c0-33.4-4.3-57.9-29.4-57.9c-31.3,0-34.6,30.4-34.6,53.1v98.1c-8.3-0.7-16.5-1.8-24.8-1.8s-16.5,1.1-24.8,1.8V332.1
	c7.9,0.7,15.8,1.8,24.1,1.8c7.9,0,15.8-1.1,23.8-1.8l2.3,20.8C1340.8,336.7,1363.3,329.4,1381.8,329.4L1381.8,329.4z M1744.9,329.3
	c45.2,0,62.2,33.4,62.2,80.5v96.5c-8.3-0.8-16.5-1.8-24.8-1.8s-16.5,1-24.8,1.8v-93.4c0-33.4-4.3-57.9-29.4-57.9
	c-31.3,0-34.6,30.4-34.6,53.1v98.1c-8.3-0.8-16.5-1.8-24.8-1.8s-16.5,1-24.8,1.8V331.9c7.9,0.7,15.8,1.8,24.1,1.8
	c7.8,0,15.8-1.1,23.7-1.8l2.4,20.8C1703.9,336.5,1726.5,329.3,1744.9,329.3L1744.9,329.3z M2105.2,329.3c45.3,0,62.3,33.4,62.3,80.5
	v96.5c-8.3-0.8-16.5-1.8-24.8-1.8c-8.3,0-16.5,1-24.8,1.8v-93.4c0-33.4-4.3-57.9-29.4-57.9c-31.3,0-34.6,30.4-34.6,53.1v98.1
	c-8.3-0.8-16.5-1.8-24.7-1.8c-8.3,0-16.5,1-24.8,1.8V331.9c7.9,0.7,15.8,1.8,24.1,1.8c7.9,0,15.8-1.1,23.8-1.8l2.3,20.8
	C2064.3,336.5,2086.8,329.3,2105.2,329.3L2105.2,329.3z M2120.4,745.9c-17.2,0.8-31.9-12.5-32.7-29.7c-0.8-17.2,12.5-31.9,29.7-32.7
	c1,0,2,0,2.9,0c17.2,0,31.2,14,31.2,31.2S2137.6,745.9,2120.4,745.9z M2094.9,714.5c0,15.1,11.2,26.1,25.6,26.1
	c13.9,0.1,25.3-11.1,25.4-25.1c0-0.4,0-0.7,0-1.1c0.4-14-10.6-25.6-24.6-26c-0.3,0-0.5,0-0.8,0c-14-0.1-25.4,11.1-25.6,25.1
	C2094.9,714,2094.9,714.3,2094.9,714.5z M2113.8,717v15.6h-5.5v-36h13.8c8.5,0,12.8,3.1,12.8,10.2c0,6.5-4.1,9.2-9.4,9.9l10.3,15.9
	h-6.1l-9.5-15.6H2113.8L2113.8,717z M2113.8,712.4h6.5c4.7,0,8.8-0.3,8.8-5.8c0-4.4-4.1-5.3-7.8-5.3h-7.4L2113.8,712.4L2113.8,712.4
	z"/>
</svg>
