<?xml version="1.0" encoding="utf-8"?>
<!-- Generator: Adobe Illustrator 28.1.0, SVG Export Plug-In . SVG Version: 6.00 Build 0)  -->
<svg version="1.1" id="Layer_1" xmlns="http://www.w3.org/2000/svg" xmlns:xlink="http://www.w3.org/1999/xlink" x="0px" y="0px"
	 viewBox="0 0 800 56.3" style="enable-background:new 0 0 800 56.3;" xml:space="preserve">
<style type="text/css">
	.st0{fill-rule:evenodd;clip-rule:evenodd;fill:#1F2937;}
	.st1{fill:#1F2937;}
</style>
<g>
	<path class="st0" d="M699.2,13.1h6.7v23.2h-7.2l-14.2-13.7v13.7h-6.8V13.1h7.1l14.4,13.6V13.1z M716.2,13.2h1.9v10.4h-2l-4-7.4v7.4
		h-1.9V13.2h2.1l3.9,7.2V13.2L716.2,13.2z M720.9,23.5h-2.1l3.5-10.4h2.3l3.5,10.4h-2.2l-0.6-2.1h-3.7L720.9,23.5L720.9,23.5z
		 M722.2,19.6h2.5l-1.2-4.1L722.2,19.6L722.2,19.6z M731.5,23.5h-2V15h-3v-1.8h8V15h-3V23.5z M735,13.2h2v10.4h-2V13.2z M742.6,12.9
		c1.2,0,4.7,0.6,4.7,5.5c0,4.9-3.5,5.5-4.7,5.5c-1.3,0-4.7-0.6-4.7-5.5C737.9,13.4,741.3,12.9,742.6,12.9z M742.6,22
		c1.1,0,2.6-0.8,2.6-3.7s-1.5-3.7-2.6-3.7c-1.2,0-2.7,0.8-2.7,3.7S741.5,22,742.6,22z M754.9,13.2h1.8v10.4h-2l-3.9-7.4h-0.1v7.4
		h-1.8V13.2h2.1l3.8,7.2h0.1L754.9,13.2L754.9,13.2z M757.7,13.2h2.1c1.2,5.7,1.4,6.4,1.5,7.6h0.1c0.2-1.1,0.3-2.1,1.3-7.6h2.1
		c1.2,5.7,1.2,6.2,1.5,7.6c0.2-1,0.3-1.9,1.5-7.6h2.1l-2.8,10.4h-1.9c-1.1-5.1-1.2-6.1-1.5-8.1c-0.3,2-0.5,2.7-1.5,8.1h-1.9
		L757.7,13.2L757.7,13.2z M771.2,13.2h2v10.4h-2V13.2z M774.6,13.2h4.2c3.4,0,4,3,4,4.9c0,2.3-0.9,5.5-4,5.5h-4.2V13.2z M776.6,21.7
		h2c1.6,0,2.2-1.7,2.2-3.5c0-3.1-1.3-3.3-2.2-3.3h-2V21.7z M791.4,15h-5.2v2.2h4.7V19h-4.7v2.7h5.4v1.8h-7.4V13.2h7.2V15L791.4,15z
		 M710.2,26.2h2.1v10.3h-2.1V26.2z M720.2,26.2h2v10.3h-2.1l-4.1-7.4v7.4h-2V26.2h2.2l4,7.2V26.2z M725.6,33.3
		c0,0.6,0.3,1.6,2.1,1.6c1.1,0,2.1-0.2,2.1-1.2c0-0.9-0.8-1.1-1.8-1.3l-1.1-0.3c-1.6-0.4-3.2-0.7-3.2-3c0-1.2,0.6-3.2,3.8-3.2
		c3.1,0,3.9,2,3.9,3.4h-2c-0.1-0.5-0.3-1.6-2.1-1.6c-0.8,0-1.7,0.3-1.7,1.2c0,0.9,0.7,1,1.1,1.1l2.5,0.7c1.3,0.4,2.6,0.9,2.6,2.8
		c0,3.1-3.1,3.4-3.9,3.4c-3.7,0-4.3-2.2-4.3-3.5L725.6,33.3L725.6,33.3L725.6,33.3z M741.6,32.9c0,2.7-1.6,3.8-4.1,3.8
		c-1,0-2.3-0.2-3.2-1.2c-0.6-0.7-0.8-1.4-0.9-2.5v-6.8h2.2v6.6c0,1.4,0.8,2.1,1.7,2.1c1.4,0,2.1-0.7,2.1-2v-6.7h2.1L741.6,32.9
		L741.6,32.9L741.6,32.9z M743.7,26.2h5.1c2.7,0,3.2,2,3.2,2.9c0,1.2-0.5,2.1-1.5,2.5c0.9,0.4,1.3,0.7,1.3,2.6c0,1.5,0,1.9,0.4,2
		v0.3h-2.3c-0.1-0.5-0.2-1-0.2-2.1c0-1.3-0.1-1.9-1.6-1.9h-2.2v4h-2.1V26.2z M748.3,30.7c1.1,0,1.6-0.4,1.6-1.4
		c0-0.5-0.3-1.3-1.5-1.3h-2.6v2.8L748.3,30.7L748.3,30.7z M755.6,36.5h-2.2l3.6-10.3h2.4l3.6,10.3h-2.3l-0.6-2.1h-3.7L755.6,36.5z
		 M756.9,32.6h2.6l-1.2-4h-0.1L756.9,32.6L756.9,32.6z M770,26.2h1.9v10.3h-2l-4.1-7.4h-0.1v7.4h-1.9V26.2h2.2l4,7.2V26.2L770,26.2z
		 M780.4,29.6c-0.1-0.7-0.5-1.8-2.2-1.8c-1,0-2.5,0.7-2.5,3.7c0,1.8,0.8,3.6,2.5,3.6c1.2,0,2-0.7,2.2-2h2.1
		c-0.4,2.3-1.8,3.8-4.3,3.8c-2.7,0-4.6-1.8-4.6-5.4c0-3.7,2-5.5,4.6-5.5c3,0,4.2,2.1,4.3,3.7L780.4,29.6L780.4,29.6z M791.3,28h-5.2
		v2.1h4.8V32h-4.8v2.7h5.5v1.8h-7.5V26.2h7.2V28L791.3,28z"/>
	<path class="st0" d="M713.8,38.1h0.8v4.7h-0.9l-2.9-3.8v3.8h-0.7v-4.7h0.9l2.8,3.7V38.1z M715.4,40.4c0-0.9,0.7-1.2,1.6-1.2
		c0.4,0,1.5,0.1,1.5,1v2c0,0.1,0.1,0.2,0.2,0.2c0.1,0,0.2,0,0.3-0.1v0.5c-0.2,0-0.3,0.1-0.4,0.1c-0.7,0-0.8-0.3-0.8-0.6
		c-0.3,0.3-0.7,0.6-1.4,0.6c-0.8,0-1.3-0.4-1.3-1c0-0.4,0.1-1.1,1.2-1.2l1.2-0.1c0.2,0,0.4-0.1,0.4-0.4c0-0.4-0.3-0.6-1-0.6
		c-0.8,0-0.9,0.4-1,0.7L715.4,40.4L715.4,40.4z M717.9,41.1c-0.1,0-0.3,0.1-1.2,0.2c-0.4,0-0.9,0.1-0.9,0.6c0,0.4,0.2,0.6,0.8,0.6
		c0.6,0,1.2-0.4,1.2-0.9L717.9,41.1L717.9,41.1z M720.2,39.9v2.2c0,0.3,0.3,0.3,0.4,0.3h0.3v0.5h-0.5c-0.7,0-0.9-0.3-0.9-0.7v-2.3
		h-0.6v-0.5h0.6v-1h0.7v1h0.7v0.5L720.2,39.9L720.2,39.9L720.2,39.9z M721.3,39.4h0.7v3.5h-0.7V39.4L721.3,39.4z M721.3,38.1h0.7
		v0.6h-0.7V38.1z M724.4,39.3c1.2,0,1.9,1,1.9,1.8c0,0.9-0.7,1.8-1.9,1.8c-1.3,0-1.9-1-1.9-1.8C722.5,40.2,723.1,39.3,724.4,39.3z
		 M724.4,42.5c1,0,1.2-0.9,1.2-1.3c0-0.5-0.2-1.3-1.2-1.3c-1.1,0-1.2,0.9-1.2,1.3C723.1,41.6,723.3,42.5,724.4,42.5z M730.1,42.8
		h-0.7v-2.1c0-0.7-0.3-1-1-1c-0.4,0-1.1,0.3-1.1,1.2v1.9h-0.7v-3.5h0.7v0.5c0.1-0.2,0.5-0.6,1.2-0.6c0.6,0,1.4,0.2,1.4,1.2V42.8
		L730.1,42.8z M732.2,42.8h-0.7l-1.2-3.5h0.8l0.8,2.7h0.1l0.8-2.7h0.8l0.8,2.7l0.9-2.7h0.7l-1.2,3.5h-0.8l-0.8-2.7h-0.1L732.2,42.8
		L732.2,42.8z M736,39.4h0.7v3.5H736V39.4L736,39.4z M736,38.1h0.7v0.6H736V38.1z M740.8,42.8h-0.7v-0.5c-0.3,0.5-0.8,0.6-1.2,0.6
		c-1.3,0-1.7-1.2-1.7-1.9c0-1,0.6-1.7,1.7-1.7c0.7,0,1.1,0.4,1.2,0.6v-1.7h0.8L740.8,42.8L740.8,42.8z M739,42.5
		c0.4,0,1.1-0.3,1.1-1.2c0-0.6-0.1-1.5-1.1-1.5c-1.1,0-1.2,0.9-1.2,1.3C737.8,41.9,738.2,42.5,739,42.5L739,42.5z M744.9,41.8
		c0,0.1-0.2,0.6-0.8,0.9c-0.2,0.2-0.4,0.3-1.1,0.3c-1.2,0-1.8-0.8-1.8-1.7c0-1.1,0.6-1.9,1.9-1.9c1.2,0,1.8,0.8,1.8,2h-3.1
		c0,0.7,0.5,1.2,1.2,1.2c0.7,0,1.1-0.5,1.1-0.7L744.9,41.8L744.9,41.8L744.9,41.8z M744.2,40.8c0-0.6-0.3-1.1-1.2-1.1
		c-0.6,0-1.2,0.5-1.2,1.1H744.2z M747.3,39.4h0.7v3.5h-0.7V39.4L747.3,39.4z M747.3,38.1h0.7v0.6h-0.7V38.1z M750.9,40.3
		c0-0.2-0.1-0.6-1-0.6c-0.2,0-0.9,0.1-0.9,0.5c0,0.3,0.3,0.4,0.8,0.5l0.7,0.2c0.9,0.1,1.2,0.4,1.2,0.9c0,0.7-0.7,1.2-1.6,1.2
		c-1.5,0-1.7-0.8-1.7-1.3h0.7c0,0.3,0.1,0.8,1.1,0.8c0.6,0,1-0.2,1-0.6c0-0.3-0.2-0.4-0.8-0.5l-0.9-0.2c-0.6-0.1-0.9-0.4-0.9-0.9
		c0-0.8,0.7-1.1,1.5-1.1c1.4,0,1.5,0.9,1.5,1.1L750.9,40.3L750.9,40.3z M755.6,39.3c1.3,0,1.9,1,1.9,1.8c0,0.9-0.6,1.8-1.9,1.8
		c-1.2,0-1.9-1-1.9-1.8C753.7,40.2,754.4,39.3,755.6,39.3z M755.6,42.5c1,0,1.2-0.9,1.2-1.3c0-0.5-0.3-1.3-1.2-1.3
		c-1,0-1.2,0.9-1.2,1.3C754.5,41.6,754.7,42.5,755.6,42.5z M761.3,42.8h-0.7v-2.1c0-0.7-0.2-1-0.9-1c-0.4,0-1.1,0.3-1.1,1.2v1.9
		h-0.8v-3.5h0.7v0.5c0.2-0.2,0.6-0.6,1.3-0.6c0.7,0,1.4,0.2,1.4,1.2V42.8L761.3,42.8z M766.2,39.4h0.8c-0.5,1.2-1,2.2-1.4,3.4
		c-0.7,1.4-0.8,1.5-1.6,1.5c-0.1,0-0.2-0.1-0.3-0.1v-0.5h0.4c0.4,0,0.4-0.1,0.8-0.8l-1.5-3.6h0.8l1.2,2.8L766.2,39.4L766.2,39.4z
		 M768.7,39.3c1.3,0,1.9,1,1.9,1.8c0,0.9-0.6,1.8-1.9,1.8c-1.3,0-1.9-1-1.9-1.8C766.8,40.2,767.4,39.3,768.7,39.3z M768.7,42.5
		c1.1,0,1.2-0.9,1.2-1.3c0-0.5-0.2-1.3-1.2-1.3c-1,0-1.2,0.9-1.2,1.3C767.5,41.6,767.7,42.5,768.7,42.5z M773.7,42.8v-0.5
		c-0.3,0.4-0.7,0.6-1.2,0.6c-0.7,0-1.3-0.3-1.3-1.1v-2.5h0.7v2.3c0,0.6,0.4,0.8,0.8,0.8c0.9,0,1.2-0.7,1.2-1.2v-1.9h0.7v3.5
		L773.7,42.8L773.7,42.8L773.7,42.8z M775.8,42.8h-0.7v-3.5h0.7V40c0.3-0.4,0.7-0.7,1.2-0.7h0.2v0.6h-0.3c-0.6,0-1.1,0.5-1.1,1V42.8
		L775.8,42.8z M781.5,40.3c0-0.2-0.1-0.6-1-0.6c-0.3,0-0.9,0.1-0.9,0.5c0,0.3,0.2,0.4,0.8,0.5l0.7,0.2c0.9,0.1,1.2,0.4,1.2,0.9
		c0,0.7-0.7,1.2-1.6,1.2c-1.6,0-1.7-0.8-1.7-1.3h0.7c0,0.3,0.1,0.8,1.1,0.8c0.5,0,1-0.2,1-0.6c0-0.3-0.2-0.4-0.9-0.5l-0.8-0.2
		c-0.6-0.1-1-0.4-1-0.9c0-0.8,0.8-1.1,1.5-1.1c1.5,0,1.6,0.9,1.6,1.1L781.5,40.3L781.5,40.3L781.5,40.3z M782.7,39.4h0.7v3.5h-0.7
		V39.4L782.7,39.4z M782.7,38.1h0.7v0.6h-0.7V38.1z M787.4,42.8h-0.6v-0.5h-0.1c-0.3,0.5-0.8,0.6-1.2,0.6c-1.3,0-1.7-1.2-1.7-1.9
		c0-1,0.6-1.7,1.6-1.7c0.8,0,1.1,0.4,1.2,0.6v-1.7h0.7V42.8L787.4,42.8z M785.6,42.5c0.5,0,1.2-0.3,1.2-1.2c0-0.6-0.1-1.5-1.1-1.5
		c-1.1,0-1.2,0.9-1.2,1.3C784.5,41.9,784.9,42.5,785.6,42.5L785.6,42.5z M791.5,41.8c0,0.1-0.2,0.6-0.8,0.9
		c-0.2,0.2-0.4,0.3-1.1,0.3c-1.2,0-1.8-0.8-1.8-1.7c0-1.1,0.6-1.9,1.9-1.9c1.2,0,1.7,0.8,1.7,2h-3c0,0.7,0.4,1.2,1.2,1.2
		c0.6,0,1-0.5,1.1-0.7L791.5,41.8L791.5,41.8L791.5,41.8z M790.9,40.8c0-0.6-0.3-1.1-1.2-1.1c-0.6,0-1.2,0.5-1.2,1.1H790.9
		L790.9,40.8z M699.9,38.1l0.7,0.2l-0.2-0.5L699.9,38.1L699.9,38.1z"/>
	<path class="st0" d="M702.9,37.8H702v-0.5c0,0,0.2-0.4-0.7-0.4h-5.2c0,0-1.2,0.3-1.2-0.8c0,0,0.1-1,1.1-1.2
		c0.5-0.1,0.6-0.5,0.6-0.5v-28c0,0-0.2-1.4,0.8-2.3c0,0-2.5-0.3-3.3,1.5c0,0-2.3,1.4-2.6,2.7c0,0-0.3,0.8-1.1,1.4
		c0,0-2.6,2.3-2.4,5.5c0,0-2.2,2.8-1.1,6c0,0-0.8,1.5-0.6,3.6c0,0-0.6,1.6-0.5,2.8l-0.3-0.1c0,0-0.3,2.4,0.3,3.3l-0.3-0.1
		c0,0,0.5,2.5,1,3.1h-0.3c0,0,0.8,2.5,1.8,3.1h-8.8c0,0,1.8,1.8,2.2,1.9l0.3,0.6c0,0,1.3,0.8,2,0.5c0,0,0.7,0.9,2.1,1.3
		c0,0,0-0.7,0.2-1c0,0,3.3,1.5,6.9,2.1c0,0,0.2,1.2,0.9,1.4c0,0,0.1-1,1.1-1h0.9c0,0,0.7,0.1,0.5,1c0,0,0.3,0,1-0.3
		c0,0,0.8-0.4,1.1-0.9c0,0,0.2-0.5-0.6-0.9l-1.2-0.6c0,0,3.1-1.1,3.9-1.6c0,0,0.9-0.6,1.2-0.3c0,0,0.3,0.7,0.2,0.9
		c0,0,1.2-0.8,1.5-1.5C703.4,38.7,703.6,37.9,702.9,37.8L702.9,37.8z M702.4,39.1c0,0-0.6-0.2-0.7-0.3c-0.2-0.1-0.9-0.2-1.4,0.3
		c-0.6,0.5-2.1,1-2.1,1s0.3-0.4,0.4-0.8c0.1-0.3-0.8-0.5-0.8-0.5l0.8-0.7l-0.3-0.6h3.1c0,0-0.1,0.2-0.2,0.5
		c-0.1,0.2,0.1,0.4,0.1,0.4h1.3C703.1,38.4,702.4,39.1,702.4,39.1L702.4,39.1z"/>
	<path class="st0" d="M696.2,5c0,0-1.6,0.2-2.3,2.9c0,0-1.1,3.1,0.2,10.1l-0.6,0.5c0,0-1.7-6.7-0.4-10.8c0,0-4,3-1.1,12.3l-0.4,0.5
		c0,0-2.3-5.8-1.1-9.4c0,0-3.7,2.5-0.1,11l-0.5,0.6c0,0-1.4-3.4-1.7-5.6c0,0-2.2,1.9,0.8,7.4l-0.1,0.8c0,0-1.2-1.7-1.3-2.2
		c0,0-1.2,2,0.7,3.7l0.2,0.9c0,0-1.2-0.8-1.7-1.2c0,0-0.5,2.4,1.5,3.2l0.1,0.7c0,0-1.6-0.6-1.9-1.1c0,0-0.3,2.5,2.1,3l0.1,0.7
		c0,0-1.5-0.4-2-0.8c0,0,0.5,2.2,2.6,2.8l0.3,0.8c0,0-1.7-0.3-2-0.7c0,0,0.7,1.6,2.4,2.6H681c0,0,0.3,0.8,1.9,1.1l-0.4,0.4
		c0,0,0.8,0.7,1.2,0.4c0,0,0.3-0.2,0.7-0.2c0,0,0,0.8,1.1,1.2c0,0-0.1-0.7,0.2-0.8c0,0,0.2,0,0.7,0.2c0,0,3.8,1.5,7.1,1.9
		c0,0,0.5,0,0.3,0.6c0,0-0.1,0.3,0.1,0.7c0,0,0.5-0.4,0.6-0.6c0,0,1.3-0.1,2.1,0.1c0,0,0.4,0.3,0.3,0.7l0.8-0.7l-2.9-1.3
		c0,0,2.6-0.4,2.9-1.3c0,0,0.6-0.5-0.9-0.9l0.7-0.7c0,0,0.7-0.5-0.4-0.6c0,0-0.8-0.1-1.6-0.2c-0.9,0-2.3-1.7,0.5-3.3V6.6
		C695.9,6.6,695.9,5.6,696.2,5L696.2,5z"/>
	<path class="st0" d="M700.5,42.4c0-0.8,0.7-1.5,1.5-1.5c0,0,0,0,0,0c0.9,0,1.5,0.7,1.5,1.5c0,0.9-0.7,1.5-1.5,1.5
		C701.2,43.9,700.5,43.2,700.5,42.4C700.5,42.4,700.5,42.4,700.5,42.4z M702,43.6c0.7,0,1.2-0.5,1.2-1.2c0-0.8-0.6-1.2-1.2-1.2
		s-1.2,0.5-1.2,1.2C700.8,43.1,701.3,43.6,702,43.6z M701.7,43.2h-0.3v-1.7h0.7c0.4,0,0.6,0.1,0.6,0.5c0,0.3-0.2,0.5-0.4,0.5
		l0.5,0.8h-0.3l-0.5-0.8h-0.3V43.2L701.7,43.2z M702,42.3c0.2,0,0.4,0,0.4-0.3c0-0.2-0.2-0.3-0.4-0.3h-0.3v0.6L702,42.3L702,42.3z"
		/>
</g>
<g id="layer1" transform="translate(224.86482,-17.553735)">
	<g id="g2500">
		<path id="path2436" class="st1" d="M-192.6,26.8l-27.9,9.1l9.1,27.9l24.5-8l-2.1-6.6h-7.9l-1,3h-3.7l6.4-19.8h4.5L-192.6,26.8z
			 M-193,37.2l-2.9,8.8h5.7L-193,37.2z"/>
		<path id="path2444" class="st1" d="M-159.4,39.2c-0.4-1.6-1.6-3.8-4.7-3.8c-3.8,0-5.3,3.5-5.3,6.9c0,3.4,1.6,6.9,5.3,6.9
			c2.5,0,4.8-1.9,4.8-4.6h-4.7v-3.3h7.9v10.8h-3.1v-1.7c-1.2,1.5-3.3,2.2-5,2.2c-6,0-9-4.8-9-10.4c0-5.6,3.4-10.4,9-10.4
			c3.8,0,6.6,2,8,5.8L-159.4,39.2"/>
		<path id="path2448" class="st1" d="M-150,42.4c0,3.4,1.6,6.9,5.4,6.9c3.8,0,5.4-3.5,5.4-6.9c0-3.4-1.6-6.9-5.4-6.9
			C-148.4,35.5-150,39-150,42.4z M-135.4,42.4c0,5.6-3.5,10.4-9.2,10.4c-5.8,0-9.2-4.8-9.2-10.4c0-5.6,3.5-10.4,9.2-10.4
			C-138.8,32-135.4,36.8-135.4,42.4"/>
		<path id="path2452" class="st1" d="M-173.5,48.8H-184v-5.1h7.5v-3.3h-7.5V36h9.9v-3.4h-13.6v9.3l3.4,10.4h10.9V48.8"/>
		<path id="path2456" class="st1" d="M-121.2,32.5v13.4l-8.2-13.4h-3.5v19.8h3.4V38.7l8.4,13.5h3.4V32.5H-121.2"/>
		<path id="path2460" class="st1" d="M-129.6,57h-53.2l0.7,2h52.6V57"/>
	</g>
</g>
<g transform="matrix(1,0,0,1,-53,-35)">
	<path class="st1" d="M246.3,58.1c-0.8,3.4-6.3,15-12.9,19.1c0.5-0.4,1-0.9,1.4-1.5c3.5-5.5-1-15.3-7.4-21.4c0,0,0,0,0,0
		c2.7-5.1,6.6-9,10.9-9c1,0,2,0.2,2.9,0.6C246.7,48.3,247.4,53.4,246.3,58.1z"/>
	<path class="st1" d="M227.4,54.3c6.4,6.1,10.9,15.8,7.4,21.4c-0.4,0.6-0.9,1.2-1.4,1.5c0,0,0,0,0,0c-0.2,0.1-0.3,0.2-0.5,0.3
		c-0.3,0.1-0.5,0.2-0.8,0.3c-0.1,0-0.1,0-0.2,0.1c0,0-0.1,0-0.2,0c-0.1,0-0.3,0.1-0.4,0.1c0,0,0,0-0.1,0c-0.1,0-0.1,0-0.2,0
		c-0.6,0.1-1.3,0-2-0.1c0,0,0,0-0.1,0c-0.6-0.2-1.2-0.5-1.8-1C222.1,72.8,223.3,62.1,227.4,54.3C227.4,54.3,227.4,54.3,227.4,54.3
		C227.4,54.3,227.4,54.3,227.4,54.3z"/>
	<path class="st1" d="M233.4,77.2c-0.2,0.1-0.3,0.2-0.5,0.3C233,77.4,233.2,77.3,233.4,77.2C233.4,77.2,233.4,77.2,233.4,77.2
		C233.4,77.2,233.4,77.2,233.4,77.2z"/>
	<path class="st1" d="M231.9,77.8c0.1,0,0.1,0,0.2-0.1C232,77.8,232,77.8,231.9,77.8z"/>
	<path class="st1" d="M231.4,78c0.1,0,0.3-0.1,0.4-0.1C231.6,77.9,231.5,78,231.4,78z"/>
	<path class="st1" d="M229.1,77.9C229.1,77.9,229.1,77.9,229.1,77.9C229.1,77.9,229.1,77.9,229.1,77.9c0.7,0.1,1.4,0.2,2,0.1
		C230.5,78.1,229.8,78,229.1,77.9z"/>
	<path class="st1" d="M229.1,77.9c-7.6-1.8-16.5-10.9-18.4-13.9c-2.6-4.1-3.5-9.2,0.9-13.2c1.5-1.3,3.2-1.9,5-1.9
		c3.5,0,7.4,2.2,10.8,5.4c0,0,0,0,0,0c-4.1,7.8-5.2,18.5-0.1,22.6C227.8,77.4,228.4,77.7,229.1,77.9z"/>
	<rect x="263.8" y="73.6" class="st1" width="0.8" height="4.4"/>
	<path class="st1" d="M270.1,73.6v3.1l-2.3-3.1H267V78h0.8v-3.2l2.3,3.2h0.7v-4.4"/>
	<path class="st1" d="M273.2,76.8c0.3,0.3,0.8,0.6,1.4,0.6c0.6,0,0.9-0.3,0.9-0.6c0-0.4-0.5-0.5-1-0.7c-0.7-0.2-1.6-0.4-1.6-1.3
		c0-0.7,0.6-1.3,1.6-1.3c0.7,0,1.2,0.2,1.7,0.6l-0.4,0.6c-0.3-0.3-0.8-0.5-1.3-0.5c-0.5,0-0.7,0.2-0.7,0.5c0,0.3,0.5,0.5,1,0.6
		c0.7,0.2,1.6,0.4,1.6,1.4c0,0.7-0.5,1.4-1.7,1.4c-0.8,0-1.4-0.3-1.8-0.7"/>
	<path class="st1" d="M278.2,73.6h0.8v2.6c0,0.7,0.4,1.2,1.1,1.2c0.7,0,1.1-0.5,1.1-1.2v-2.6h0.8v2.7c0,1.1-0.6,1.8-1.9,1.8
		c-1.3,0-1.9-0.7-1.9-1.8"/>
	<path class="st1" d="M285.6,76.3h-0.8V78h-0.8v-4.4h1.9c0.9,0,1.4,0.6,1.4,1.4c0,0.8-0.5,1.2-1,1.3l1.1,1.7h-0.9L285.6,76.3z
		 M285.9,74.3h-1.1v1.4h1.1c0.4,0,0.8-0.3,0.8-0.7C286.7,74.5,286.4,74.3,285.9,74.3z"/>
	<path class="st1" d="M290.9,73.6l-1.7,4.4h0.8l0.3-0.8h2.1l0.3,0.8h0.8l-1.7-4.4H290.9z M291.4,74.2l0.8,2.2h-1.7"/>
	<path class="st1" d="M298.4,73.6v3.1l-2.3-3.1h-0.8V78h0.8v-3.2l2.3,3.2h0.7v-4.4"/>
	<path class="st1" d="M300.9,75.8c0-1.4,1-2.3,2.3-2.3c0.9,0,1.5,0.5,1.8,1l-0.7,0.3c-0.2-0.4-0.6-0.6-1.1-0.6
		c-0.8,0-1.5,0.7-1.5,1.6c0,0.9,0.6,1.6,1.5,1.6c0.5,0,0.9-0.3,1.1-0.6l0.7,0.3c-0.3,0.5-0.9,1-1.8,1
		C301.9,78.1,300.9,77.1,300.9,75.8z"/>
	<path class="st1" d="M306.8,73.6V78h3v-0.7h-2.3v-1.2h2.2v-0.7h-2.2v-1.1h2.3v-0.7"/>
	<path class="st1" d="M293.2,53.7c0-1.6,1.3-3,3-3c1.6,0,3,1.3,3,3c0,1.6-1.3,3-3,3C294.5,56.6,293.2,55.3,293.2,53.7z"/>
	<path class="st1" d="M256.5,70.5c-0.8,1-2.5,1.7-4.3,1.7c-2.1,0-4.9-1.4-4.9-4.7c0-3.5,2.8-4.4,4.9-4.4c1.8,0,3.5,0.6,4.3,1.6v-1.6
		c0-1-0.9-1.8-2.6-1.8c-1.3,0-2.8,0.5-3.9,1.4l-1.8-3.3c1.9-1.5,4.5-2.1,6.7-2.1c3.5,0,6.9,1.2,6.9,5.9v8.6h-5.3V70.5z M256.5,67.2
		c-0.4-0.5-1.3-0.8-2.1-0.8c-0.9,0-1.8,0.3-1.8,1.2c0,0.9,1,1.1,1.8,1.1c0.8,0,1.7-0.3,2.1-0.8"/>
	<path class="st1" d="M270.4,57.3c3.2,0,5.2,1.5,6,2.7l-3.4,3.2c-0.4-0.7-1.3-1.2-2.4-1.2c-1.5,0-2.8,0.9-2.8,2.8
		c0,1.8,1.3,2.8,2.8,2.8c1.1,0,1.9-0.6,2.4-1.2l3.4,3.2c-0.8,1.2-2.8,2.7-6,2.7c-4.5,0-7.9-2.9-7.9-7.4
		C262.4,60.2,265.9,57.3,270.4,57.3z"/>
	<path class="st1" d="M286.7,70.2c-0.8,0.9-2.4,1.9-4.9,1.9c-3.3,0-4.7-2-4.7-4.4V57.6h5.3v7.9c0,1.4,0.8,2,2,2
		c1.2,0,1.8-0.6,2.2-1.1v-8.7h5.3v14.2h-5.3"/>
	<path class="st1" d="M321.1,57.6l-2.4,7.2l-2.6-7.2h-8.7v-3.9h-5.3v3.9h-2.3v4.6h2.3v5.5c0,1.3,0.1,2.3,0.7,3
		c0.8,1,1.8,1.4,3.5,1.4c1.6,0,3.1-0.4,4.6-2.1l-1.3-3.2c-0.2,0.2-0.8,0.4-1.2,0.4c-0.7,0-1-0.5-1-1.2v-3.8h4.8
		c1.7,3.8,4,8.8,4.2,9.3c-0.4,1.6-1.8,1.9-4.5,2c0,0.9,0,2.8,0,4.5c2.6,0,7.1-0.4,9.1-4.8c2-4.5,6.2-15.5,6.2-15.5"/>
	<rect x="293.5" y="57.6" class="st1" width="5.3" height="14.2"/>
	<path class="st1" d="M328.8,57.9h-0.7v-0.2h1.6v0.2H329v1.9h-0.3"/>
	<path class="st1" d="M331.8,58l-0.7,1.7H331l-0.7-1.7v1.7H330v-2.1h0.4l0.6,1.6l0.6-1.6h0.4v2.1h-0.3"/>
</g>
<g id="layer1_00000054260647840977626100000016387272721056641937_" transform="translate(-35.649058,-46.436721)">
	<g id="g8078">
		<g id="text7174" transform="matrix(5.1465542,0,0,5.1897876,-321.04549,-889.05545)">
			<g id="g8146">
				<g id="g8200">
					<g id="g246" transform="matrix(0.4909332,0,0,-0.48684349,79.17128,180.25635)">
						<path id="path248" class="st1" d="M196.6-4.6h-8.5c-1,0-1.9-0.9-1.9-1.9v0v-8.4c0-1,0.8-1.9,1.8-1.9h8.5c1,0,1.9,0.9,1.9,1.9
							l0,8.4C198.5-5.4,197.6-4.6,196.6-4.6 M189.1-15.8l-0.5,0c-0.6,0-1,0.5-1,1l0,0.1V-7l0,0.4c0,0.6,0.4,1,1,1h0.9
							c0.9,0,1.5-0.7,1.5-1.6c0-0.4-0.2-0.8-0.4-1.1l-2.4-2.4l2.3-2.3c0.3-0.3,0.5-0.7,0.5-1.1C191-15.1,190.1-15.8,189.1-15.8
							 M196-15.8l-4.2,0c0,0,0.5,1.1,0.5,1.7c0,0.8-0.3,1.5-0.7,2l-1.4,1.5l1.5,1.5c0.4,0.4,0.7,1.1,0.7,2c0,0.7-0.2,1.2-0.5,1.7h1
							c0.9,0,1.5-0.7,1.5-1.6c0-0.4-0.2-0.8-0.4-1.1l-2.4-2.4l4.9-5C196.4-15.8,196.2-15.8,196-15.8 M197.1-14.3l-3.5,3.6l1.7,1.7
							c0.3,0.4,0.6,1.1,0.6,1.8c0,0.7-0.2,1.3-0.5,1.7l0.7,0c0.6,0,1-0.5,1-1L197.1-14.3z"/>
					</g>
					<g id="g3232" transform="matrix(0.19430477,0,0,0.19268612,62.380668,171.30864)">
						<g id="g8829" transform="matrix(0.47418011,0,0,0.47239199,-122.00159,68.21275)">
							<g id="g140" transform="matrix(1.9934946,0,0,-1.9059367,534.08704,12.273574)">
								<path id="path142" class="st1" d="M502.5,2c0.1,0.1,0.3,0.3,0.5,0.6c0.2,0.2,0.4,0.5,0.6,0.8c0.2,0.3,0.3,0.7,0.5,1
									c0.1,0.4,0.2,0.8,0.2,1.2c0,0.9-0.1,1.6-0.4,2.4c-0.3,0.7-0.7,1.4-1.3,1.9c-0.6,0.6-1.4,1-2.3,1.3c-0.9,0.3-2,0.5-3.2,0.5h0
									h-3.5h-0.9h-3.6v-4V-6v-4.1h8.7c1.3,0,2.4,0.2,3.3,0.5c0.9,0.3,1.7,0.8,2.4,1.4c0.6,0.6,1.1,1.3,1.4,2.1
									c0.3,0.8,0.5,1.7,0.5,2.6c0,1.2-0.3,2.3-0.8,3.3C503.9,0.7,503.3,1.5,502.5,2 M498.7,7.7c0.3-0.1,0.5-0.3,0.7-0.4
									c0.5-0.5,0.7-1,0.7-1.7c0-0.6-0.1-1.1-0.3-1.5c-0.2-0.4-0.4-0.7-0.6-0.9h-6.1V8h3.8C497.6,8,498.2,7.9,498.7,7.7 M498-0.6
									c1.1,0,1.9-0.3,2.4-0.9c0.5-0.6,0.7-1.2,0.7-2c0-0.8-0.3-1.5-0.9-2c-0.6-0.6-1.5-0.8-2.8-0.8h-0.5h-3.9v5.7H498z"/>
							</g>
							<g id="g144" transform="matrix(1.9934946,0,0,-1.9059367,602.03735,22.224471)">
								<path id="path146" class="st1" d="M486.1,4.5c0.7,0.4,1.2,1,1.6,1.6s0.8,1.2,1,2c0.2,0.7,0.3,1.5,0.3,2.2
									c0,1-0.2,1.9-0.5,2.7c-0.3,0.8-0.8,1.5-1.5,2.1c-0.6,0.6-1.5,1.1-2.4,1.4c-1,0.3-2.1,0.5-3.4,0.5h-0.1h-8.4h-0.1V-4.9h4.1
									v8.1h2.3l5.7-8.1h4.8l-5.9,8.4C484.6,3.7,485.4,4.1,486.1,4.5 M481.3,13.2c0.3,0,0.5,0,0.7,0c0.7-0.1,1.3-0.4,1.8-0.8
									c0.6-0.6,0.9-1.3,0.9-2.1c0-0.4-0.1-0.8-0.2-1.2c-0.1-0.4-0.3-0.7-0.6-1c-0.3-0.3-0.7-0.5-1.1-0.7c-0.5-0.2-1-0.3-1.6-0.3
									h-4.4v6.2H481.3z"/>
							</g>
							<g id="g148" transform="matrix(1.9934946,0,0,-1.9059367,621.56562,-23.619026)">
								<path id="path150" class="st1" d="M481.3-7.1L481.3-7.1c0,0-0.1,0-0.1,0h0v0v-8v-5.7v-8.1h4.2v21.8H481.3z"/>
							</g>
						</g>
					</g>
					<g id="g8119" transform="matrix(0.98573157,0,0,0.99057678,1.5590238,1.7127305)">
						<path id="path7528" class="st1" d="M186.9,183.6h0.4v3.8h-0.4V183.6z"/>
						<path id="path7530" class="st1" d="M188.2,184.6h0.4v2.7h-0.4V184.6z M188.2,183.6h0.4v0.4h-0.4V183.6z"/>
						<path id="path7532" class="st1" d="M189.5,185h-0.4v-0.4h0.4v-0.2c0-0.3,0.1-0.5,0.2-0.7c0.1-0.1,0.4-0.2,0.6-0.2h0.1v0.4
							h-0.1c-0.1,0-0.3,0-0.3,0.1c-0.1,0.1-0.1,0.2-0.1,0.4v0.2h0.5v0.4h-0.5v2.4h-0.4L189.5,185z"/>
						<path id="path7534" class="st1" d="M193.4,186.7c-0.1,0.1-0.1,0.2-0.2,0.3s-0.2,0.2-0.3,0.2c-0.1,0.1-0.2,0.1-0.4,0.2
							c-0.1,0-0.3,0.1-0.4,0.1c-0.2,0-0.4,0-0.6-0.1c-0.2-0.1-0.3-0.2-0.4-0.3c-0.1-0.1-0.2-0.3-0.3-0.4c-0.1-0.2-0.1-0.4-0.1-0.6
							c0-0.2,0-0.4,0.1-0.6c0.1-0.2,0.2-0.3,0.3-0.5c0.1-0.1,0.3-0.2,0.4-0.3c0.2-0.1,0.4-0.1,0.6-0.1c0.2,0,0.4,0,0.6,0.1
							s0.3,0.2,0.4,0.3c0.1,0.1,0.2,0.3,0.3,0.5c0.1,0.2,0.1,0.4,0.1,0.7h-2.4c0,0.1,0.1,0.2,0.1,0.3c0.1,0.1,0.1,0.2,0.2,0.3
							c0.1,0.1,0.2,0.1,0.3,0.2c0.1,0,0.2,0.1,0.4,0.1c0.2,0,0.3,0,0.5-0.1c0.1-0.1,0.3-0.2,0.4-0.3L193.4,186.7z M193.1,185.8
							c0-0.1,0-0.2-0.1-0.3c-0.1-0.1-0.1-0.2-0.2-0.3c-0.1-0.1-0.2-0.1-0.3-0.2c-0.1,0-0.2-0.1-0.4-0.1c-0.1,0-0.3,0-0.4,0.1
							s-0.2,0.1-0.3,0.2c-0.1,0.1-0.1,0.2-0.2,0.3c-0.1,0.1-0.1,0.2-0.1,0.3H193.1z"/>
					</g>
				</g>
			</g>
		</g>
	</g>
</g>
<g>
	<path class="st1" d="M341.3,11.6c0,0-0.1,0-0.1,0C341.3,11.6,341.3,11.6,341.3,11.6C341.3,11.6,341.3,11.6,341.3,11.6z"/>
	<path class="st1" d="M341.3,45.9L341.3,45.9C341.3,45.9,341.3,45.9,341.3,45.9c0,0-0.1,0-0.1,0C341.2,45.9,341.3,45.9,341.3,45.9z"
		/>
	<path class="st1" d="M354.4,17.4C354.4,17.4,354.4,17.4,354.4,17.4c0,0,0.1,0.1,0.1,0.1C354.5,17.5,354.4,17.5,354.4,17.4z"/>
	<path class="st1" d="M355.2,18.4c-0.1-0.1-0.2-0.2-0.3-0.3C355,18.2,355.1,18.3,355.2,18.4C355.2,18.4,355.2,18.4,355.2,18.4z"/>
	<path class="st1" d="M328.1,39.8C328.1,39.8,328.1,39.8,328.1,39.8C328.1,39.8,328.1,39.8,328.1,39.8
		C328.1,39.8,328.1,39.8,328.1,39.8z"/>
	<path class="st1" d="M337.8,24.4c4.9-3.9,11.1-6,17.4-6c-0.1-0.1-0.2-0.2-0.2-0.3c-0.2-0.2-0.3-0.4-0.5-0.6c0,0-0.1-0.1-0.1-0.1
		c-6-1.1-12.1-0.3-17.6,2.4c-5.4,2.7-9.8,7-12.5,12.4c0,0,0,0,0,0c0.1,0.4,0.2,0.8,0.3,1.2c0.1,0.2,0.1,0.4,0.2,0.6
		c0.1,0.3,0.2,0.6,0.4,1c0.1,0.2,0.2,0.5,0.3,0.7c0.1,0.3,0.3,0.5,0.4,0.8c0.1,0.2,0.2,0.4,0.3,0.5c0.2,0.4,0.4,0.7,0.7,1.1
		c0.1,0.2,0.2,0.3,0.3,0.5c0.2,0.2,0.3,0.5,0.5,0.7c0.1,0.2,0.3,0.3,0.4,0.5c0,0,0,0,0,0C329.5,33.7,332.9,28.3,337.8,24.4z"/>
	<path class="st1" d="M324.3,32.3C324.3,32.3,324.3,32.3,324.3,32.3C324.3,32.3,324.3,32.3,324.3,32.3
		C324.3,32.3,324.3,32.3,324.3,32.3z"/>
	<path class="st1" d="M333.5,44c0.1,0.1,0.3,0.1,0.4,0.2C333.8,44.2,333.6,44.1,333.5,44C333.5,44,333.5,44,333.5,44z"/>
	<path class="st1" d="M343.1,45.8c-0.6,0.1-1.1,0.1-1.7,0.1C341.9,45.9,342.5,45.8,343.1,45.8z"/>
	<path class="st1" d="M344.4,45.6c0.1,0,0.2,0,0.3-0.1c-0.5,0.1-1.1,0.2-1.6,0.2C343.6,45.7,344,45.7,344.4,45.6z"/>
	<path class="st1" d="M324.3,24.9C324.3,24.9,324.3,24.9,324.3,24.9c0.1-0.4,0.2-0.8,0.3-1.2C324.5,24.2,324.4,24.6,324.3,24.9z"/>
	<path class="st1" d="M336,12.4c-0.4,0.1-0.9,0.3-1.3,0.5C335.1,12.7,335.6,12.5,336,12.4C336,12.4,336,12.4,336,12.4z"/>
	<path class="st1" d="M344.9,11.9C344.9,11.9,344.9,11.9,344.9,11.9c0.5,0.1,0.9,0.2,1.3,0.3C345.8,12.1,345.3,12,344.9,11.9z"/>
	<path class="st1" d="M352.8,15.9c-0.1-0.1-0.2-0.1-0.2-0.2C352.7,15.8,352.8,15.8,352.8,15.9C352.8,15.9,352.8,15.9,352.8,15.9z"/>
	<path class="st1" d="M348.1,44.5c2.2-0.9,4.3-2.3,6-4.1c1.8-1.9,3-4.1,3.8-6.5C356.4,38.7,352.8,42.6,348.1,44.5z"/>
	<path class="st1" d="M357.3,22.1c0.2,0.5,0.4,0.9,0.5,1.4C357.7,23,357.5,22.6,357.3,22.1z"/>
	<path class="st1" d="M358.3,32.4c0.1-0.3,0.1-0.5,0.2-0.8C358.4,31.9,358.3,32.1,358.3,32.4z"/>
	<path class="st1" d="M358.5,31.1c0-0.2,0.1-0.4,0.1-0.6c0.2-2.3,0-4.5-0.7-6.7c0.5,1.6,0.7,3.2,0.7,5
		C358.7,29.5,358.6,30.3,358.5,31.1z"/>
	<path class="st1" d="M356.2,19.8C356.2,19.8,356.2,19.8,356.2,19.8c0.1,0.2,0.2,0.3,0.3,0.5C356.4,20.2,356.3,20,356.2,19.8z"/>
	<path class="st1" d="M328.5,17.1c-0.2,0.2-0.3,0.4-0.5,0.6c0.3-0.4,0.6-0.7,1-1C328.8,16.8,328.6,17,328.5,17.1z"/>
	<path class="st1" d="M358.5,31.1c0.1-0.8,0.2-1.6,0.2-2.4c0-1.7-0.3-3.4-0.7-5c0-0.1,0-0.2-0.1-0.2c-0.2-0.5-0.3-1-0.5-1.4
		c0-0.1-0.1-0.1-0.1-0.2c-0.2-0.4-0.4-0.8-0.6-1.2c-0.1-0.1-0.1-0.2-0.2-0.3c-0.1-0.2-0.2-0.3-0.3-0.5c-5.9,1.1-11.3,4-15.4,8.4
		c-4.1,4.3-6.6,9.9-7.3,15.8c0.1,0.1,0.3,0.1,0.4,0.2c0.3,0.1,0.6,0.3,0.9,0.4c0.2,0.1,0.4,0.1,0.6,0.2c0.4,0.2,0.9,0.3,1.3,0.4
		c0.3,0.1,0.6,0.2,0.9,0.2c0.2,0,0.4,0.1,0.6,0.1c0.4,0.1,0.7,0.1,1.1,0.2c0.2,0,0.3,0,0.5,0c0.5,0,0.9,0.1,1.4,0.1
		c0.1,0,0.1,0,0.2,0c0.6,0,1.1,0,1.7-0.1c0,0,0.1,0,0.1,0c0.5-0.1,1.1-0.1,1.6-0.2c0.1,0,0.2,0,0.3-0.1c0.5-0.1,0.9-0.2,1.4-0.3
		c0.1,0,0.2-0.1,0.3-0.1c0.5-0.1,0.9-0.3,1.4-0.5c0,0,0.1,0,0.1-0.1c4.6-2,8.3-5.8,9.8-10.6c0,0,0-0.1,0-0.1
		c0.1-0.5,0.3-0.9,0.4-1.4c0.1-0.3,0.1-0.5,0.2-0.8C358.5,31.4,358.5,31.3,358.5,31.1z"/>
	<path class="st1" d="M343.1,45.8C343.1,45.8,343.1,45.8,343.1,45.8C343.1,45.8,343.1,45.8,343.1,45.8z"/>
	<path class="st1" d="M358.3,32.4c-0.1,0.5-0.2,0.9-0.4,1.4C358.1,33.3,358.2,32.9,358.3,32.4z"/>
	<path class="st1" d="M357.9,23.5c0,0.1,0.1,0.2,0.1,0.2C357.9,23.7,357.9,23.6,357.9,23.5z"/>
	<path class="st1" d="M358.5,31.1c0,0.2-0.1,0.3-0.1,0.5C358.5,31.4,358.5,31.3,358.5,31.1z"/>
	<path class="st1" d="M333.9,17.6c3.7-1.7,7.8-2.6,11.8-2.6c0,0,0,0,0,0c0,0,0,0,0,0h0h0c2.4,0,4.7,0.3,7,0.9
		c-0.1-0.1-0.1-0.1-0.2-0.2c-0.2-0.1-0.3-0.3-0.5-0.4c-0.3-0.2-0.5-0.4-0.8-0.6c-0.2-0.1-0.4-0.3-0.6-0.4c-0.3-0.2-0.5-0.3-0.8-0.5
		c-0.2-0.1-0.4-0.2-0.6-0.3c-0.3-0.2-0.6-0.3-1-0.5c-0.2-0.1-0.4-0.2-0.6-0.3c-0.3-0.1-0.7-0.2-1-0.4c-0.2-0.1-0.4-0.1-0.5-0.2
		c-0.4-0.1-0.9-0.2-1.3-0.3c-0.1,0-0.2,0-0.3-0.1c-0.4-0.1-0.9-0.1-1.3-0.2c-0.1,0-0.2,0-0.4,0c-0.5,0-1.1-0.1-1.6-0.1
		c-0.1,0-0.1,0-0.2,0c-0.5,0-1,0-1.5,0.1c-0.1,0-0.1,0-0.2,0c-0.5,0.1-1,0.1-1.5,0.2c-0.1,0-0.2,0-0.3,0.1c-0.4,0.1-0.9,0.2-1.3,0.3
		c-0.1,0-0.2,0-0.2,0.1c-0.5,0.1-0.9,0.3-1.4,0.5c-0.1,0-0.2,0.1-0.3,0.1c-0.4,0.2-0.8,0.4-1.2,0.6c0,0-0.1,0-0.1,0.1
		c-0.4,0.2-0.9,0.5-1.3,0.8c-0.1,0-0.1,0.1-0.2,0.1c-0.4,0.3-0.8,0.5-1.1,0.8c0,0-0.1,0-0.1,0.1c-0.4,0.3-0.8,0.7-1.1,1
		c-0.1,0.1-0.1,0.1-0.2,0.2c-0.3,0.3-0.6,0.7-1,1c0,0-0.1,0.1-0.1,0.1c-0.3,0.4-0.6,0.8-0.9,1.2c-0.1,0.1-0.1,0.2-0.2,0.2
		c-0.2,0.3-0.4,0.7-0.6,1c-0.1,0.1-0.1,0.2-0.2,0.3c-0.2,0.4-0.4,0.8-0.6,1.2c-0.1,0.2-0.1,0.3-0.2,0.5c-0.1,0.3-0.2,0.6-0.3,0.9
		c-0.1,0.2-0.1,0.3-0.2,0.5c-0.1,0.4-0.2,0.8-0.3,1.1C327,21.8,330.2,19.3,333.9,17.6z"/>
</g>
<path class="st1" d="M362.7,14h12.1v3.2h-8.3v5.8h6.9v3.2h-6.9v8.3h-3.8L362.7,14L362.7,14z M384.1,19.6c-2.3,0-4.1,1.7-4.8,3.8
	h-0.1c0-0.3,0.1-0.7,0.1-1v-2.5h-3.6v14.7h3.7v-5.9c0-0.8,0.1-1.6,0.3-2.4c0.7-2.2,2.5-3.1,4.1-3.1c0.3,0,0.6,0,0.9,0.1v-3.6
	C384.5,19.6,384.3,19.6,384.1,19.6z M392.6,19.5c4.3,0,6.6,3.1,6.6,7c0,0.4-0.1,1.4-0.1,1.4h-10.3c0.2,2.6,2.3,3.9,4.5,3.9
	c2.4,0,4.3-1.6,4.3-1.6l1.5,2.6c-1.7,1.4-3.8,2.1-6,2.1c-5,0-8.1-3.5-8.1-7.7C385,22.7,388.2,19.5,392.6,19.5z M395.5,25.4
	c-0.1-2-1.3-3.1-3-3.1c-1.9,0-3.2,1.2-3.6,3.1H395.5z M407.9,19.5c4.3,0,6.7,3.1,6.7,7c0,0.4-0.1,1.4-0.1,1.4h-10.4
	c0.2,2.6,2.3,3.9,4.5,3.9c2.4,0,4.3-1.6,4.3-1.6l1.4,2.6c-1.7,1.4-3.8,2.1-6,2.1c-5,0-8.1-3.5-8.1-7.7
	C400.3,22.7,403.4,19.5,407.9,19.5z M410.8,25.4c-0.1-2-1.3-3.1-3-3.1c-1.9,0-3.2,1.2-3.6,3.1H410.8z M447.2,25.3h0.5v-0.2
	c0-1.9-1.2-2.6-2.9-2.6c-2.1,0-4.1,1.4-4.1,1.4l-1.4-2.6c1.7-1.2,3.8-1.8,5.9-1.8c3.9,0,6.2,2.1,6.2,5.9v9.3h-3.4v-1.2
	c0-0.3,0-0.7,0.1-1h-0.1c0,0-1.1,2.6-4.6,2.6c-2.7,0-5.1-1.7-5.1-4.6C438.3,25.6,444.7,25.3,447.2,25.3z M444.3,32.1
	c2,0,3.4-2.1,3.4-3.9v-0.3H447c-1.9,0-5,0.3-5,2.3C442,31.2,442.8,32.1,444.3,32.1z M462.9,19.9l-2.9,8.5c-0.2,0.6-0.4,1.3-0.5,1.9
	h-0.1c-0.1-0.7-0.3-1.3-0.6-2l-3.1-8.4h-4.2l6.3,14.5l-0.5,1.1c-0.6,1.3-1.6,1.9-2.6,1.9c-0.6,0-1.2-0.3-1.7-0.6l-1.2,2.8
	c0.9,0.6,2,0.9,3.1,1c2.2,0,4.2-1.1,5.3-3.7l6.7-16.9L462.9,19.9z M434.2,19.9l-2.6,9.6c-0.2,0.8-0.3,1.6-0.3,1.6h-0.1
	c0,0-0.1-0.8-0.3-1.6l-2.7-9.6h-3.4l-2.8,9.6c-0.2,0.8-0.4,1.6-0.4,1.6h-0.1c-0.1-0.5-0.2-1-0.3-1.6l-2.6-9.6h-3.9l4.6,14.7h4.2
	l2.5-8.4c0.2-0.5,0.3-1.1,0.4-1.6h0.1c0,0,0.1,0.8,0.4,1.6l2.5,8.4h4.1l4.5-14.7L434.2,19.9L434.2,19.9z M362.7,37.5h1.1v5.9h-1.1
	V37.5z M369.8,37.5h1.1l2.3,3.4c0.2,0.3,0.3,0.6,0.5,0.9c0,0-0.1-0.6-0.1-0.9v-3.4h1.1v5.9h-1.1l-2.3-3.4c-0.2-0.3-0.3-0.6-0.5-0.9
	h0c0,0,0.1,0.6,0.1,0.9v3.4h-1.1L369.8,37.5z M381.4,41.9c0.4,0.4,0.9,0.6,1.5,0.6c0.5,0,0.9-0.2,0.9-0.7c0-1-2.8-0.9-2.8-2.7
	c0-1,0.9-1.7,2-1.7c0.7,0,1.3,0.2,1.8,0.6l-0.5,0.9c-0.4-0.3-0.8-0.5-1.3-0.5c-0.5,0-0.9,0.3-0.9,0.7c0,1,2.8,0.8,2.8,2.7
	c0,0.9-0.7,1.7-2,1.7c-0.8,0-1.5-0.3-2.1-0.8L381.4,41.9z M390.9,37.5h1.1v3.8c0,0.8,0.5,1.2,1.3,1.2c0.8,0,1.3-0.4,1.3-1.2v-3.8
	h1.1v3.8c0,1.3-1,2.2-2.4,2.2c-1.4,0-2.4-0.9-2.4-2.2V37.5L390.9,37.5z M401.8,37.5h1.9c0.4,0,0.8,0,1.2,0.2
	c0.3,0.1,0.6,0.4,0.7,0.7c0.2,0.3,0.3,0.6,0.2,1c0,0.3-0.1,0.7-0.3,1c-0.2,0.3-0.4,0.5-0.8,0.7c0.1,0.1,0.1,0.2,0.2,0.3l1.2,2.2
	h-1.2l-1.2-2.2h-1.1v2.2h-1.1L401.8,37.5L401.8,37.5z M403.9,40.3c0.2,0,0.5,0,0.6-0.2c0.2-0.2,0.3-0.4,0.3-0.7
	c0-0.6-0.2-0.9-1.1-0.9h-0.8v1.8L403.9,40.3z M416.1,41.9H414l-0.5,1.5h-1.1l2.1-5.9h1.1l2.1,5.9h-1.1L416.1,41.9z M415.1,38.6
	c0,0-0.1,0.6-0.2,0.9l-0.5,1.6h1.6l-0.5-1.6C415.2,39.2,415.2,38.9,415.1,38.6L415.1,38.6z M423.8,37.5h1.1l2.3,3.4
	c0.2,0.3,0.3,0.6,0.5,0.9h0c0,0-0.1-0.6-0.1-0.9v-3.4h1.1v5.9h-1.1l-2.3-3.4c-0.2-0.3-0.3-0.6-0.5-0.9c0,0,0.1,0.6,0.1,0.9v3.4h-1.1
	L423.8,37.5L423.8,37.5z M437.9,37.4c0.8,0,1.6,0.3,2.2,0.8l-0.5,0.8c-0.5-0.4-1-0.6-1.6-0.6c-0.5,0-1,0.2-1.4,0.5
	c-0.4,0.3-0.6,0.8-0.6,1.3v0.2c0,1.1,0.8,2.1,2,2.1c0.6,0,1.3-0.3,1.7-0.7l0.6,0.8c-0.6,0.6-1.5,1-2.3,1c-0.8,0-1.6-0.3-2.2-0.9
	c-0.6-0.6-0.9-1.3-0.9-2.1c0-0.8,0.3-1.6,0.9-2.1C436.3,37.8,437.1,37.5,437.9,37.4L437.9,37.4z M446.3,37.5h3.3v0.9h-2.2V40h2v0.9
	h-2v1.6h2.2v0.9h-3.3L446.3,37.5L446.3,37.5z M465.6,38.8c0,0,0-0.1-0.1-0.1c0.2-0.1,0.4-0.3,0.4-0.5c0-0.2,0-0.3-0.2-0.4
	c-0.1-0.1-0.3-0.2-0.5-0.2h-0.8v2h0.5v-0.7h0.3l0.4,0.7h0.5L465.6,38.8z M465.1,38.4h-0.3v-0.6h0.3c0.1,0,0.1,0,0.2,0.1
	c0.1,0,0.1,0.1,0.1,0.2c0,0,0,0,0,0.1c0,0.1,0,0.1-0.1,0.2C465.3,38.4,465.2,38.4,465.1,38.4L465.1,38.4L465.1,38.4z"/>
<path class="st1" d="M465,36.6c-0.4,0-0.8,0.1-1.1,0.3c-0.3,0.2-0.6,0.5-0.7,0.9c-0.2,0.4-0.2,0.8-0.1,1.1c0.1,0.4,0.3,0.7,0.5,1
	c0.6,0.6,1.4,0.7,2.2,0.4c0.4-0.1,0.7-0.4,0.9-0.7c0.5-0.8,0.4-1.8-0.2-2.5C466.1,36.8,465.6,36.6,465,36.6z M465,40
	c-0.3,0-0.6-0.1-0.8-0.2c-0.2-0.2-0.4-0.4-0.5-0.7c-0.2-0.6-0.1-1.2,0.3-1.6c0.4-0.4,1.1-0.5,1.6-0.3c0.3,0.1,0.5,0.3,0.7,0.5
	c0.4,0.6,0.3,1.4-0.2,1.9C465.8,39.8,465.4,40,465,40L465,40z"/>
</svg>
