<?xml version="1.0" encoding="utf-8"?>
<!-- Generator: Adobe Illustrator 28.1.0, SVG Export Plug-In . SVG Version: 6.00 Build 0)  -->
<svg version="1.1" id="Layer_1" xmlns="http://www.w3.org/2000/svg" xmlns:xlink="http://www.w3.org/1999/xlink" x="0px" y="0px"
	 viewBox="0 0 800 161.1" style="enable-background:new 0 0 800 161.1;" xml:space="preserve">
<style type="text/css">
	.st0{fill-rule:evenodd;clip-rule:evenodd;fill:#4595D1;}
	.st1{fill-rule:evenodd;clip-rule:evenodd;}
	.st2{fill-rule:evenodd;clip-rule:evenodd;fill:#FFFFFF;}
	.st3{fill:#1477C6;}
	.st4{fill:#BE2019;}
	.st5{fill:#FF5475;}
	.st6{fill:#FF3C35;}
	.st7{fill:#CE2627;}
	.st8{fill:#595B60;}
	.st9{fill:#2B2E34;}
	.st10{fill:#00529C;}
	.st11{fill:#F36F21;}
	.st12{fill:#FFFFFF;}
	.st13{fill:#0047BB;}
	.st14{fill:#78BE21;}
</style>
<g>
	<path class="st0" d="M474.6,104.1H486v39.4h-12.2l-24.1-23.3v23.3h-11.5v-39.4h12.1l24.5,23.1V104.1z M503.5,104.3h3.2V122h-3.4
		l-6.8-12.6V122h-3.2v-17.7h3.6l6.6,12.2V104.3L503.5,104.3z M511.5,121.8h-3.6l5.9-17.7h3.9l5.9,17.7H520l-1-3.6h-6.3L511.5,121.8
		L511.5,121.8z M513.7,115.2h4.2l-2-7L513.7,115.2L513.7,115.2z M529.5,121.8h-3.4v-14.4H521v-3.1h13.6v3.1h-5.1V121.8z
		 M535.4,104.3h3.4V122h-3.4V104.3z M548.3,103.8c2,0,8,1,8,9.3s-5.9,9.3-8,9.3c-2.2,0-8-1-8-9.3
		C540.3,104.6,546.1,103.8,548.3,103.8z M548.3,119.2c1.9,0,4.4-1.4,4.4-6.3c0-4.9-2.5-6.3-4.4-6.3c-2,0-4.6,1.4-4.6,6.3
		C543.7,117.9,546.5,119.2,548.3,119.2z M569.2,104.3h3.1V122h-3.4l-6.6-12.6h-0.2V122H559v-17.7h3.6l6.5,12.2h0.2L569.2,104.3
		L569.2,104.3z M574,104.3h3.6c2,9.7,2.4,10.9,2.5,12.9h0.2c0.3-1.9,0.5-3.6,2.2-12.9h3.6c2,9.7,2,10.5,2.5,12.9
		c0.3-1.7,0.5-3.2,2.5-12.9h3.6l-4.8,17.7h-3.2c-1.9-8.7-2-10.4-2.5-13.8c-0.5,3.4-0.8,4.6-2.5,13.8h-3.2L574,104.3L574,104.3z
		 M596.9,104.3h3.4V122h-3.4V104.3z M602.7,104.3h7.1c5.8,0,6.8,5.1,6.8,8.3c0,3.9-1.5,9.3-6.8,9.3h-7.1V104.3z M606.1,118.7h3.4
		c2.7,0,3.7-2.9,3.7-5.9c0-5.3-2.2-5.6-3.7-5.6h-3.4V118.7z M631.2,107.4h-8.8v3.7h8v3.1h-8v4.6h9.2v3.1H619v-17.5h12.2V107.4
		L631.2,107.4z M493.3,126.4h3.6v17.5h-3.6V126.4z M510.3,126.4h3.4v17.5h-3.6l-7-12.6v12.6h-3.4v-17.5h3.7l6.8,12.2L510.3,126.4
		L510.3,126.4z M519.5,138.4c0,1,0.5,2.7,3.6,2.7c1.9,0,3.6-0.3,3.6-2c0-1.5-1.4-1.9-3.1-2.2l-1.9-0.5c-2.7-0.7-5.4-1.2-5.4-5.1
		c0-2,1-5.4,6.5-5.4c5.3,0,6.6,3.4,6.6,5.8h-3.4c-0.2-0.8-0.5-2.7-3.6-2.7c-1.4,0-2.9,0.5-2.9,2s1.2,1.7,1.9,1.9l4.2,1.2
		c2.2,0.7,4.4,1.5,4.4,4.8c0,5.3-5.3,5.8-6.6,5.8c-6.3,0-7.3-3.7-7.3-5.9L519.5,138.4L519.5,138.4L519.5,138.4z M546.6,137.8
		c0,4.6-2.7,6.5-7,6.5c-1.7,0-3.9-0.3-5.4-2c-1-1.2-1.4-2.4-1.5-4.2v-11.5h3.7v11.2c0,2.4,1.4,3.6,2.9,3.6c2.4,0,3.6-1.2,3.6-3.4
		v-11.4h3.6L546.6,137.8L546.6,137.8L546.6,137.8z M550.2,126.4h8.7c4.6,0,5.4,3.4,5.4,4.9c0,2-0.8,3.6-2.5,4.2
		c1.5,0.7,2.2,1.2,2.2,4.4c0,2.5,0,3.2,0.7,3.4v0.5h-3.9c-0.2-0.8-0.3-1.7-0.3-3.6c0-2.2-0.2-3.2-2.7-3.2h-3.7v6.8h-3.6v-17.5H550.2
		z M558,134c1.9,0,2.7-0.7,2.7-2.4c0-0.8-0.5-2.2-2.5-2.2h-4.4v4.8L558,134L558,134z M570.4,143.9h-3.7l6.1-17.5h4.1l6.1,17.5h-3.9
		l-1-3.6h-6.3L570.4,143.9z M572.6,137.2h4.4l-2-6.8h-0.2L572.6,137.2L572.6,137.2z M594.9,126.4h3.2v17.5h-3.4l-7-12.6h-0.2v12.6
		h-3.2v-17.5h3.7l6.8,12.2L594.9,126.4L594.9,126.4z M612.5,132.1c-0.2-1.2-0.8-3.1-3.7-3.1c-1.7,0-4.2,1.2-4.2,6.3
		c0,3.1,1.4,6.1,4.2,6.1c2,0,3.4-1.2,3.7-3.4h3.6c-0.7,3.9-3.1,6.5-7.3,6.5c-4.6,0-7.8-3.1-7.8-9.2c0-6.3,3.4-9.3,7.8-9.3
		c5.1,0,7.1,3.6,7.3,6.3L612.5,132.1L612.5,132.1z M631,129.4h-8.8v3.6h8.2v3.2h-8.2v4.6h9.3v3.1h-12.7v-17.5H631V129.4L631,129.4z"
		/>
	<path class="st1" d="M499.4,146.6h1.4v8h-1.5l-4.9-6.5v6.5h-1.2v-8h1.5l4.8,6.3L499.4,146.6L499.4,146.6z M502.1,150.5
		c0-1.5,1.2-2,2.7-2c0.7,0,2.5,0.2,2.5,1.7v3.4c0,0.2,0.2,0.3,0.3,0.3c0.2,0,0.3,0,0.5-0.2v0.8c-0.3,0-0.5,0.2-0.7,0.2
		c-1.2,0-1.4-0.5-1.4-1c-0.5,0.5-1.2,1-2.4,1c-1.4,0-2.2-0.7-2.2-1.7c0-0.7,0.2-1.9,2-2l2-0.2c0.3,0,0.7-0.2,0.7-0.7
		c0-0.7-0.5-1-1.7-1c-1.4,0-1.5,0.7-1.7,1.2L502.1,150.5L502.1,150.5z M506.4,151.7c-0.2,0-0.5,0.2-2,0.3c-0.7,0-1.5,0.2-1.5,1
		c0,0.7,0.3,1,1.4,1c1,0,2-0.7,2-1.5L506.4,151.7L506.4,151.7z M510.3,149.6v3.7c0,0.5,0.5,0.5,0.7,0.5h0.5v0.8h-0.8
		c-1.2,0-1.5-0.5-1.5-1.2v-3.9h-1v-0.8h1v-1.7h1.2v1.7h1.2v0.8H510.3L510.3,149.6L510.3,149.6z M512.2,148.8h1.2v5.9h-1.2V148.8
		L512.2,148.8z M512.2,146.6h1.2v1h-1.2V146.6z M517.4,148.6c2,0,3.2,1.7,3.2,3.1c0,1.5-1.2,3.1-3.2,3.1c-2.2,0-3.2-1.7-3.2-3.1
		C514.2,150.1,515.2,148.6,517.4,148.6z M517.4,154.1c1.7,0,2-1.5,2-2.2c0-0.8-0.3-2.2-2-2.2c-1.9,0-2,1.5-2,2.2
		C515.2,152.5,515.6,154.1,517.4,154.1z M527.1,154.6h-1.2V151c0-1.2-0.5-1.7-1.7-1.7c-0.7,0-1.9,0.5-1.9,2v3.2h-1.2v-5.9h1.2v0.8
		c0.2-0.3,0.8-1,2-1c1,0,2.4,0.3,2.4,2v4.1H527.1z M530.7,154.6h-1.2l-2-5.9h1.4l1.4,4.6h0.2l1.4-4.6h1.4l1.4,4.6l1.5-4.6h1.2
		l-2,5.9h-1.4l-1.4-4.6h-0.2L530.7,154.6L530.7,154.6z M537.1,148.8h1.2v5.9h-1.2V148.8L537.1,148.8z M537.1,146.6h1.2v1h-1.2V146.6
		z M545.3,154.6h-1.2v-0.8c-0.5,0.8-1.4,1-2,1c-2.2,0-2.9-2-2.9-3.2c0-1.7,1-2.9,2.9-2.9c1.2,0,1.9,0.7,2,1v-2.9h1.4L545.3,154.6
		L545.3,154.6z M542.2,154.1c0.7,0,1.9-0.5,1.9-2c0-1-0.2-2.5-1.9-2.5c-1.9,0-2,1.5-2,2.2C540.2,153,540.9,154.1,542.2,154.1
		L542.2,154.1z M552.2,152.9c0,0.2-0.3,1-1.4,1.5c-0.3,0.3-0.7,0.5-1.9,0.5c-2,0-3.1-1.4-3.1-2.9c0-1.9,1-3.2,3.2-3.2
		c2,0,3.1,1.4,3.1,3.4H547c0,1.2,0.8,2,2,2c1.2,0,1.9-0.8,1.9-1.2L552.2,152.9L552.2,152.9L552.2,152.9z M551,151.2
		c0-1-0.5-1.9-2-1.9c-1,0-2,0.8-2,1.9H551z M556.3,148.8h1.2v5.9h-1.2V148.8L556.3,148.8z M556.3,146.6h1.2v1h-1.2V146.6z
		 M562.4,150.3c0-0.3-0.2-1-1.7-1c-0.3,0-1.5,0.2-1.5,0.8c0,0.5,0.5,0.7,1.4,0.8l1.2,0.3c1.5,0.2,2,0.7,2,1.5c0,1.2-1.2,2-2.7,2
		c-2.5,0-2.9-1.4-2.9-2.2h1.2c0,0.5,0.2,1.4,1.9,1.4c1,0,1.7-0.3,1.7-1c0-0.5-0.3-0.7-1.4-0.8l-1.5-0.3c-1-0.2-1.5-0.7-1.5-1.5
		c0-1.4,1.2-1.9,2.5-1.9c2.4,0,2.5,1.5,2.5,1.9H562.4L562.4,150.3z M570.4,148.6c2.2,0,3.2,1.7,3.2,3.1c0,1.5-1,3.1-3.2,3.1
		c-2,0-3.2-1.7-3.2-3.1C567.2,150.1,568.4,148.6,570.4,148.6z M570.4,154.1c1.7,0,2-1.5,2-2.2c0-0.8-0.5-2.2-2-2.2
		c-1.7,0-2,1.5-2,2.2C568.5,152.5,568.9,154.1,570.4,154.1z M580.1,154.6h-1.2V151c0-1.2-0.3-1.7-1.5-1.7c-0.7,0-1.9,0.5-1.9,2v3.2
		h-1.4v-5.9h1.2v0.8c0.3-0.3,1-1,2.2-1c1.2,0,2.4,0.3,2.4,2v4.1H580.1z M588.4,148.8h1.4c-0.8,2-1.7,3.7-2.4,5.8
		c-1.2,2.4-1.4,2.5-2.7,2.5c-0.2,0-0.3-0.2-0.5-0.2v-0.8h0.7c0.7,0,0.7-0.2,1.4-1.4l-2.5-6.1h1.4l2,4.8L588.4,148.8L588.4,148.8z
		 M592.6,148.6c2.2,0,3.2,1.7,3.2,3.1c0,1.5-1,3.1-3.2,3.1c-2.2,0-3.2-1.7-3.2-3.1C589.4,150.1,590.4,148.6,592.6,148.6z
		 M592.6,154.1c1.9,0,2-1.5,2-2.2c0-0.8-0.3-2.2-2-2.2s-2,1.5-2,2.2C590.6,152.5,590.9,154.1,592.6,154.1z M601.1,154.6v-0.8
		c-0.5,0.7-1.2,1-2,1c-1.2,0-2.2-0.5-2.2-1.9v-4.2h1.2v3.9c0,1,0.7,1.4,1.4,1.4c1.5,0,2-1.2,2-2v-3.2h1.2v5.9L601.1,154.6
		L601.1,154.6L601.1,154.6z M604.7,154.6h-1.2v-5.9h1.2v1.2c0.5-0.7,1.2-1.2,2-1.2h0.3v1h-0.5c-1,0-1.9,0.8-1.9,1.7L604.7,154.6
		L604.7,154.6z M614.4,150.3c0-0.3-0.2-1-1.7-1c-0.5,0-1.5,0.2-1.5,0.8c0,0.5,0.3,0.7,1.4,0.8l1.2,0.3c1.5,0.2,2,0.7,2,1.5
		c0,1.2-1.2,2-2.7,2c-2.7,0-2.9-1.4-2.9-2.2h1.2c0,0.5,0.2,1.4,1.9,1.4c0.8,0,1.7-0.3,1.7-1c0-0.5-0.3-0.7-1.5-0.8l-1.4-0.3
		c-1-0.2-1.7-0.7-1.7-1.5c0-1.4,1.4-1.9,2.5-1.9c2.5,0,2.7,1.5,2.7,1.9H614.4L614.4,150.3L614.4,150.3z M616.4,148.8h1.2v5.9h-1.2
		V148.8L616.4,148.8z M616.4,146.6h1.2v1h-1.2V146.6z M624.4,154.6h-1v-0.8h-0.2c-0.5,0.8-1.4,1-2,1c-2.2,0-2.9-2-2.9-3.2
		c0-1.7,1-2.9,2.7-2.9c1.4,0,1.9,0.7,2,1v-2.9h1.2v7.8H624.4z M621.3,154.1c0.8,0,2-0.5,2-2c0-1-0.2-2.5-1.9-2.5c-1.9,0-2,1.5-2,2.2
		C619.5,153,620.2,154.1,621.3,154.1L621.3,154.1z M631.4,152.9c0,0.2-0.3,1-1.4,1.5c-0.3,0.3-0.7,0.5-1.9,0.5c-2,0-3.1-1.4-3.1-2.9
		c0-1.9,1-3.2,3.2-3.2c2,0,2.9,1.4,2.9,3.4h-5.1c0,1.2,0.7,2,2,2c1,0,1.7-0.8,1.9-1.2L631.4,152.9L631.4,152.9L631.4,152.9z
		 M630.3,151.2c0-1-0.5-1.9-2-1.9c-1,0-2,0.8-2,1.9H630.3L630.3,151.2z M475.8,146.6l1.2,0.3l-0.3-0.8L475.8,146.6L475.8,146.6z"/>
	<path class="st1" d="M480.9,146.1h-1.5v-0.8c0,0,0.3-0.7-1.2-0.7h-8.8c0,0-2,0.5-2-1.4c0,0,0.2-1.7,1.9-2c0.8-0.2,1-0.8,1-0.8V92.8
		c0,0-0.3-2.4,1.4-3.9c0,0-4.2-0.5-5.6,2.5c0,0-3.9,2.4-4.4,4.6c0,0-0.5,1.4-1.9,2.4c0,0-4.4,3.9-4.1,9.3c0,0-3.7,4.8-1.9,10.2
		c0,0-1.4,2.5-1,6.1c0,0-1,2.7-0.8,4.8l-0.5-0.2c0,0-0.5,4.1,0.5,5.6l-0.5-0.2c0,0,0.8,4.2,1.7,5.3h-0.5c0,0,1.4,4.2,3.1,5.3h-14.9
		c0,0,3.1,3.1,3.7,3.2l0.5,1c0,0,2.2,1.4,3.4,0.8c0,0,1.2,1.5,3.6,2.2c0,0,0-1.2,0.3-1.7c0,0,5.6,2.5,11.7,3.6c0,0,0.3,2,1.5,2.4
		c0,0,0.2-1.7,1.9-1.7h1.5c0,0,1.2,0.2,0.8,1.7c0,0,0.5,0,1.7-0.5c0,0,1.4-0.7,1.9-1.5c0,0,0.3-0.8-1-1.5l-2-1c0,0,5.3-1.9,6.6-2.7
		c0,0,1.5-1,2-0.5c0,0,0.5,1.2,0.3,1.5c0,0,2-1.4,2.5-2.5C481.8,147.6,482.1,146.2,480.9,146.1L480.9,146.1z M480.1,148.3
		c0,0-1-0.3-1.2-0.5c-0.3-0.2-1.5-0.3-2.4,0.5c-1,0.8-3.6,1.7-3.6,1.7s0.5-0.7,0.7-1.4c0.2-0.5-1.4-0.8-1.4-0.8l1.4-1.2l-0.5-1h5.3
		c0,0-0.2,0.3-0.3,0.8c-0.2,0.3,0.2,0.7,0.2,0.7h2.2C481.3,147.1,480.1,148.3,480.1,148.3L480.1,148.3z"/>
	<path class="st2" d="M469.5,90.4c0,0-2.7,0.3-3.9,4.9c0,0-1.9,5.3,0.3,17.2l-1,0.8c0,0-2.9-11.4-0.7-18.3c0,0-6.8,5.1-1.9,20.9
		l-0.7,0.8c0,0-3.9-9.8-1.9-16c0,0-6.3,4.2-0.2,18.7l-0.8,1c0,0-2.4-5.8-2.9-9.5c0,0-3.7,3.2,1.4,12.6l-0.2,1.4c0,0-2-2.9-2.2-3.7
		c0,0-2,3.4,1.2,6.3l0.3,1.5c0,0-2-1.4-2.9-2c0,0-0.8,4.1,2.5,5.4l0.2,1.2c0,0-2.7-1-3.2-1.9c0,0-0.5,4.2,3.6,5.1l0.2,1.2
		c0,0-2.5-0.7-3.4-1.4c0,0,0.8,3.7,4.4,4.8l0.5,1.4c0,0-2.9-0.5-3.4-1.2c0,0,1.2,2.7,4.1,4.4h-15.3c0,0,0.5,1.4,3.2,1.9l-0.7,0.7
		c0,0,1.4,1.2,2,0.7c0,0,0.5-0.3,1.2-0.3c0,0,0,1.4,1.9,2c0,0-0.2-1.2,0.3-1.4c0,0,0.3,0,1.2,0.3c0,0,6.5,2.5,12.1,3.2
		c0,0,0.8,0,0.5,1c0,0-0.2,0.5,0.2,1.2c0,0,0.8-0.7,1-1c0,0,2.2-0.2,3.6,0.2c0,0,0.7,0.5,0.5,1.2l1.4-1.2l-4.9-2.2
		c0,0,4.4-0.7,4.9-2.2c0,0,1-0.8-1.5-1.5l1.2-1.2c0,0,1.2-0.8-0.7-1c0,0-1.4-0.2-2.7-0.3c-1.5,0-3.9-2.9,0.8-5.6V93.1
		C469,93.1,469,91.4,469.5,90.4L469.5,90.4z"/>
	<path class="st1" d="M476.8,153.9c0-1.4,1.2-2.5,2.5-2.5l0,0c1.5,0,2.5,1.2,2.5,2.5c0,1.5-1.2,2.5-2.5,2.5S476.8,155.2,476.8,153.9
		L476.8,153.9z M479.4,155.9c1.2,0,2-0.8,2-2c0-1.4-1-2-2-2c-1,0-2,0.8-2,2S478.2,155.9,479.4,155.9z M478.9,155.2h-0.5v-2.9h1.2
		c0.7,0,1,0.2,1,0.8c0,0.5-0.3,0.8-0.7,0.8l0.8,1.4h-0.5l-0.8-1.4h-0.5V155.2L478.9,155.2z M479.4,153.7c0.3,0,0.7,0,0.7-0.5
		c0-0.3-0.3-0.5-0.7-0.5h-0.5v1H479.4L479.4,153.7z"/>
</g>
<g id="layer1" transform="translate(224.86482,-17.553735)">
	<g id="g2500">
		<path id="path2436" class="st3" d="M-173.1,23.8l-47.4,15.5l15.5,47.4l41.6-13.6l-3.6-11.2h-13.4l-1.7,5.1h-6.3l10.9-33.6h7.6
			L-173.1,23.8z M-173.8,41.5l-4.9,14.9h9.7L-173.8,41.5z"/>
		<path id="path2444" d="M-116.7,44.9c-0.7-2.7-2.7-6.5-8-6.5c-6.5,0-9,5.9-9,11.7s2.7,11.7,9,11.7c4.2,0,8.2-3.2,8.2-7.8h-8v-5.6
			h13.4v18.3h-5.3v-2.9c-2,2.5-5.6,3.7-8.5,3.7c-10.2,0-15.3-8.2-15.3-17.7s5.8-17.7,15.3-17.7c6.5,0,11.2,3.4,13.6,9.8L-116.7,44.9
			"/>
		<path id="path2448" d="M-100.8,50.3c0,5.8,2.7,11.7,9.2,11.7c6.5,0,9.2-5.9,9.2-11.7s-2.7-11.7-9.2-11.7
			C-98.1,38.6-100.8,44.5-100.8,50.3z M-76,50.3c0,9.5-5.9,17.7-15.6,17.7c-9.8,0-15.6-8.2-15.6-17.7s5.9-17.7,15.6-17.7
			C-81.8,32.6-76,40.8-76,50.3"/>
		<path id="path2452" d="M-140.7,61.2h-17.8v-8.7h12.7v-5.6h-12.7v-7.5h16.8v-5.8h-23.1v15.8l5.8,17.7h18.5v-5.9"/>
		<path id="path2456" d="M-51.9,33.5v22.8l-13.9-22.8h-5.9v33.6h5.8V44l14.3,22.9h5.8V33.5H-51.9"/>
		<path id="path2460" d="M-66.1,75.1h-90.3l1.2,3.4H-66v-3.4"/>
	</g>
</g>
<g transform="matrix(1,0,0,1,-53,-35)">
	<path class="st4" d="M378.2,64.8c-1.4,5.8-10.7,25.5-21.9,32.4c0.8-0.7,1.7-1.5,2.4-2.5c5.9-9.3-1.7-26-12.6-36.3l0,0
		c4.6-8.7,11.2-15.3,18.5-15.3c1.7,0,3.4,0.3,4.9,1C378.9,48.1,380.1,56.8,378.2,64.8z"/>
	<path class="st5" d="M346.1,58.3c10.9,10.4,18.5,26.8,12.6,36.3c-0.7,1-1.5,2-2.4,2.5l0,0c-0.3,0.2-0.5,0.3-0.8,0.5
		c-0.5,0.2-0.8,0.3-1.4,0.5c-0.2,0-0.2,0-0.3,0.2c0,0-0.2,0-0.3,0c-0.2,0-0.5,0.2-0.7,0.2c0,0,0,0-0.2,0s-0.2,0-0.3,0
		c-1,0.2-2.2,0-3.4-0.2c0,0,0,0-0.2,0c-1-0.3-2-0.8-3.1-1.7C337.1,89.7,339.1,71.6,346.1,58.3L346.1,58.3L346.1,58.3z"/>
	<path class="st6" d="M356.3,97.2c-0.3,0.2-0.5,0.3-0.8,0.5C355.6,97.5,356,97.4,356.3,97.2L356.3,97.2L356.3,97.2z"/>
	<path class="st6" d="M353.7,98.2c0.2,0,0.2,0,0.3-0.2C353.9,98.2,353.9,98.2,353.7,98.2z"/>
	<path class="st6" d="M352.9,98.6c0.2,0,0.5-0.2,0.7-0.2C353.2,98.4,353.1,98.6,352.9,98.6z"/>
	<path class="st7" d="M349,98.4L349,98.4L349,98.4c1.2,0.2,2.4,0.3,3.4,0.2C351.4,98.7,350.2,98.6,349,98.4z"/>
	<path class="st6" d="M349,98.4c-12.9-3.1-28-18.5-31.2-23.6c-4.4-7-5.9-15.6,1.5-22.4c2.5-2.2,5.4-3.2,8.5-3.2
		c5.9,0,12.6,3.7,18.3,9.2l0,0c-7,13.2-8.8,31.4-0.2,38.4C346.8,97.5,347.8,98.1,349,98.4z"/>
	<rect x="407.9" y="91.1" class="st8" width="1.4" height="7.5"/>
	<path class="st8" d="M418.6,91.1v5.3l-3.9-5.3h-1.4v7.5h1.4v-5.4l3.9,5.4h1.2v-7.5"/>
	<path class="st8" d="M423.9,96.5c0.5,0.5,1.4,1,2.4,1c1,0,1.5-0.5,1.5-1c0-0.7-0.8-0.8-1.7-1.2c-1.2-0.3-2.7-0.7-2.7-2.2
		c0-1.2,1-2.2,2.7-2.2c1.2,0,2,0.3,2.9,1l-0.7,1c-0.5-0.5-1.4-0.8-2.2-0.8c-0.8,0-1.2,0.3-1.2,0.8s0.8,0.8,1.7,1
		c1.2,0.3,2.7,0.7,2.7,2.4c0,1.2-0.8,2.4-2.9,2.4c-1.4,0-2.4-0.5-3.1-1.2"/>
	<path class="st8" d="M432.4,91.1h1.4v4.4c0,1.2,0.7,2,1.9,2s1.9-0.8,1.9-2v-4.4h1.4v4.6c0,1.9-1,3.1-3.2,3.1
		c-2.2,0-3.2-1.2-3.2-3.1"/>
	<path class="st8" d="M444.9,95.7h-1.4v2.9h-1.4v-7.5h3.2c1.5,0,2.4,1,2.4,2.4c0,1.4-0.8,2-1.7,2.2l1.9,2.9h-1.5L444.9,95.7z
		 M445.4,92.3h-1.9v2.4h1.9c0.7,0,1.4-0.5,1.4-1.2C446.8,92.6,446.3,92.3,445.4,92.3z"/>
	<path class="st8" d="M453.9,91.1l-2.9,7.5h1.4l0.5-1.4h3.6l0.5,1.4h1.4l-2.9-7.5H453.9z M454.8,92.1l1.4,3.7h-2.9"/>
	<path class="st8" d="M466.7,91.1v5.3l-3.9-5.3h-1.4v7.5h1.4v-5.4l3.9,5.4h1.2v-7.5"/>
	<path class="st8" d="M470.9,94.8c0-2.4,1.7-3.9,3.9-3.9c1.5,0,2.5,0.8,3.1,1.7l-1.2,0.5c-0.3-0.7-1-1-1.9-1c-1.4,0-2.5,1.2-2.5,2.7
		c0,1.5,1,2.7,2.5,2.7c0.8,0,1.5-0.5,1.9-1l1.2,0.5c-0.5,0.8-1.5,1.7-3.1,1.7C472.6,98.7,470.9,97,470.9,94.8z"/>
	<path class="st8" d="M480.9,91.1v7.5h5.1v-1.2h-3.9v-2h3.7v-1.2h-3.7v-1.9h3.9v-1.2"/>
	<path class="st9" d="M457.8,57.3c0-2.7,2.2-5.1,5.1-5.1c2.7,0,5.1,2.2,5.1,5.1c0,2.7-2.2,5.1-5.1,5.1C460,62.2,457.8,60,457.8,57.3
		z"/>
	<path class="st9" d="M395.5,85.8c-1.4,1.7-4.2,2.9-7.3,2.9c-3.6,0-8.3-2.4-8.3-8c0-5.9,4.8-7.5,8.3-7.5c3.1,0,5.9,1,7.3,2.7v-2.7
		c0-1.7-1.5-3.1-4.4-3.1c-2.2,0-4.8,0.8-6.6,2.4l-3.1-5.6c3.2-2.5,7.6-3.6,11.4-3.6c5.9,0,11.7,2,11.7,10V88h-9V85.8z M395.5,80.2
		c-0.7-0.8-2.2-1.4-3.6-1.4c-1.5,0-3.1,0.5-3.1,2c0,1.5,1.7,1.9,3.1,1.9s2.9-0.5,3.6-1.4"/>
	<path class="st9" d="M419.1,63.4c5.4,0,8.8,2.5,10.2,4.6l-5.8,5.4c-0.7-1.2-2.2-2-4.1-2c-2.5,0-4.8,1.5-4.8,4.8
		c0,3.1,2.2,4.8,4.8,4.8c1.9,0,3.2-1,4.1-2l5.8,5.4c-1.4,2-4.8,4.6-10.2,4.6c-7.6,0-13.4-4.9-13.4-12.6
		C405.5,68.3,411.5,63.4,419.1,63.4z"/>
	<path class="st9" d="M446.8,85.3c-1.4,1.5-4.1,3.2-8.3,3.2c-5.6,0-8-3.4-8-7.5V63.9h9v13.4c0,2.4,1.4,3.4,3.4,3.4
		c2,0,3.1-1,3.7-1.9V64.1h9v24.1h-9"/>
	<path class="st9" d="M505.2,63.9l-4.1,12.2l-4.4-12.2h-14.8v-6.6h-9v6.6H469v7.8h3.9v9.3c0,2.2,0.2,3.9,1.2,5.1
		c1.4,1.7,3.1,2.4,5.9,2.4c2.7,0,5.3-0.7,7.8-3.6l-2.2-5.4c-0.3,0.3-1.4,0.7-2,0.7c-1.2,0-1.7-0.8-1.7-2v-6.5h8.2
		c2.9,6.5,6.8,14.9,7.1,15.8c-0.7,2.7-3.1,3.2-7.6,3.4c0,1.5,0,4.8,0,7.6c4.4,0,12.1-0.7,15.5-8.2c3.4-7.6,10.5-26.3,10.5-26.3"/>
	<rect x="458.3" y="63.9" class="st9" width="9" height="24.1"/>
	<path class="st9" d="M518.3,64.4h-1.2v-0.3h2.7v0.3h-1.2v3.2h-0.5"/>
	<path class="st9" d="M523.4,64.6l-1.2,2.9H522l-1.2-2.9v2.9h-0.5v-3.6h0.7l1,2.7l1-2.7h0.7v3.6h-0.5"/>
</g>
<g id="layer1_00000054260647840977626100000016387272721056641937_" transform="translate(-35.649058,-46.436721)">
	<g id="g8078">
		<g id="text7174" transform="matrix(5.1465542,0,0,5.1897876,-321.04549,-889.05545)">
			<g id="g8146">
				<g id="g8200">
					<g id="g246" transform="matrix(0.4909332,0,0,-0.48684349,79.17128,180.25635)">
						<path id="path248" class="st10" d="M61.8-40.2H47.4c-1.7,0-3.2-1.5-3.2-3.2l0,0v-14.3c0-1.7,1.4-3.2,3.1-3.2h14.4
							c1.7,0,3.2,1.5,3.2,3.2v14.3C65.1-41.6,63.5-40.2,61.8-40.2 M49.1-59.2h-0.8c-1,0-1.7,0.8-1.7,1.7v0.2v13.1v0.7
							c0,1,0.7,1.7,1.7,1.7h1.5c1.5,0,2.5-1.2,2.5-2.7c0-0.7-0.3-1.4-0.7-1.9l-4.1-4.1l3.9-3.9c0.5-0.5,0.8-1.2,0.8-1.9
							C52.3-58.1,50.8-59.2,49.1-59.2 M60.8-59.2h-7.1c0,0,0.8,1.9,0.8,2.9c0,1.4-0.5,2.5-1.2,3.4L51-50.4l2.5,2.5
							c0.7,0.7,1.2,1.9,1.2,3.4c0,1.2-0.3,2-0.8,2.9h1.7c1.5,0,2.5-1.2,2.5-2.7c0-0.7-0.3-1.4-0.7-1.9l-4.1-4.1l8.3-8.5
							C61.5-59.2,61.2-59.2,60.8-59.2 M62.7-56.7l-5.9,6.1l2.9,2.9c0.5,0.7,1,1.9,1,3.1s-0.3,2.2-0.8,2.9H61c1,0,1.7-0.8,1.7-1.7
							V-56.7z"/>
					</g>
					<g id="g3232" transform="matrix(0.19430477,0,0,0.19268612,62.380668,171.30864)">
						<g id="g8829" transform="matrix(0.47418011,0,0,0.47239199,-122.00159,68.21275)">
							<g id="g140" transform="matrix(1.9934946,0,0,-1.9059367,534.08704,12.273574)">
								<path id="path142" class="st10" d="M159.4-108.9c0.2,0.2,0.5,0.5,0.8,1c0.3,0.3,0.7,0.8,1,1.4c0.3,0.5,0.5,1.2,0.8,1.7
									c0.2,0.7,0.3,1.4,0.3,2c0,1.5-0.2,2.7-0.7,4.1c-0.5,1.2-1.2,2.4-2.2,3.2c-1,1-2.4,1.7-3.9,2.2c-1.5,0.5-3.4,0.8-5.4,0.8l0,0
									h-5.9h-1.5h-6.1v-6.8v-23.3v-7h14.8c2.2,0,4.1,0.3,5.6,0.8c1.5,0.5,2.9,1.4,4.1,2.4c1,1,1.9,2.2,2.4,3.6
									c0.5,1.4,0.8,2.9,0.8,4.4c0,2-0.5,3.9-1.4,5.6C161.8-111.1,160.7-109.8,159.4-108.9 M152.9-99.3c0.5-0.2,0.8-0.5,1.2-0.7
									c0.8-0.8,1.2-1.7,1.2-2.9c0-1-0.2-1.9-0.5-2.5c-0.3-0.7-0.7-1.2-1-1.5h-10.4v8.2h6.5C151.1-98.7,152.1-98.9,152.9-99.3
									 M151.7-113.3c1.9,0,3.2-0.5,4.1-1.5c0.8-1,1.2-2,1.2-3.4s-0.5-2.5-1.5-3.4c-1-1-2.5-1.4-4.8-1.4h-0.8h-6.6v9.7
									C143.2-113.3,151.7-113.3,151.7-113.3z"/>
							</g>
							<g id="g144" transform="matrix(1.9934946,0,0,-1.9059367,602.03735,22.224471)">
								<path id="path146" class="st10" d="M155.3-108.3c1.2,0.7,2,1.7,2.7,2.7s1.4,2,1.7,3.4c0.3,1.2,0.5,2.5,0.5,3.7
									c0,1.7-0.3,3.2-0.8,4.6c-0.5,1.4-1.4,2.5-2.5,3.6c-1,1-2.5,1.9-4.1,2.4c-1.7,0.5-3.6,0.8-5.8,0.8h-0.2h-14.3h-0.2v-37.2h7
									v13.8h3.9l9.7-13.8h8.2l-10,14.3C152.8-109.7,154.1-109,155.3-108.3 M147.2-93.6c0.5,0,0.8,0,1.2,0c1.2-0.2,2.2-0.7,3.1-1.4
									c1-1,1.5-2.2,1.5-3.6c0-0.7-0.2-1.4-0.3-2c-0.2-0.7-0.5-1.2-1-1.7c-0.5-0.5-1.2-0.8-1.9-1.2c-0.8-0.3-1.7-0.5-2.7-0.5h-7.5
									v10.5h7.6V-93.6z"/>
							</g>
							<g id="g148" transform="matrix(1.9934946,0,0,-1.9059367,621.56562,-23.619026)">
								<path id="path150" class="st10" d="M154-111.2L154-111.2h-0.2l0,0l0,0v-13.6v-9.7v-13.8h7.1v37
									C161-111.2,154-111.2,154-111.2z"/>
							</g>
						</g>
					</g>
					<g id="g8119" transform="matrix(0.98573157,0,0,0.99057678,1.5590238,1.7127305)">
						<path id="path7528" class="st11" d="M126.9,201.9h0.7v6.5h-0.7V201.9z"/>
						<path id="path7530" class="st11" d="M129.1,203.6h0.7v4.6h-0.7V203.6z M129.1,201.9h0.7v0.7h-0.7V201.9z"/>
						<path id="path7532" class="st11" d="M131.4,204.2h-0.7v-0.7h0.7v-0.3c0-0.5,0.2-0.8,0.3-1.2c0.2-0.2,0.7-0.3,1-0.3h0.2v0.7
							h-0.2c-0.2,0-0.5,0-0.5,0.2c-0.2,0.2-0.2,0.3-0.2,0.7v0.3h0.8v0.7H132v4.1h-0.7V204.2z"/>
						<path id="path7534" class="st11" d="M138,207.1c-0.2,0.2-0.2,0.3-0.3,0.5c-0.2,0.2-0.3,0.3-0.5,0.3c-0.2,0.2-0.3,0.2-0.7,0.3
							c-0.2,0-0.5,0.2-0.7,0.2c-0.3,0-0.7,0-1-0.2c-0.3-0.2-0.5-0.3-0.7-0.5c-0.2-0.2-0.3-0.5-0.5-0.7c-0.2-0.3-0.2-0.7-0.2-1
							c0-0.3,0-0.7,0.2-1c0.2-0.3,0.3-0.5,0.5-0.8c0.2-0.2,0.5-0.3,0.7-0.5c0.3-0.2,0.7-0.2,1-0.2c0.3,0,0.7,0,1,0.2
							c0.3,0.2,0.5,0.3,0.7,0.5c0.2,0.2,0.3,0.5,0.5,0.8s0.2,0.7,0.2,1.2h-4.1c0,0.2,0.2,0.3,0.2,0.5c0.2,0.2,0.2,0.3,0.3,0.5
							c0.2,0.2,0.3,0.2,0.5,0.3c0.2,0,0.3,0.2,0.7,0.2s0.5,0,0.8-0.2c0.2-0.2,0.5-0.3,0.7-0.5L138,207.1z M137.5,205.6
							c0-0.2,0-0.3-0.2-0.5c-0.2-0.2-0.2-0.3-0.3-0.5c-0.2-0.2-0.3-0.2-0.5-0.3c-0.2,0-0.3-0.2-0.7-0.2c-0.2,0-0.5,0-0.7,0.2
							c-0.2,0.2-0.3,0.2-0.5,0.3c-0.2,0.2-0.2,0.3-0.3,0.5c-0.2,0.2-0.2,0.3-0.2,0.5H137.5z"/>
					</g>
				</g>
			</g>
		</g>
	</g>
</g>
<g>
	<path class="st12" d="M576.5,10.2h-0.2C576.5,10.2,576.5,10.2,576.5,10.2L576.5,10.2z"/>
	<path class="st12" d="M576.5,68.5L576.5,68.5L576.5,68.5h-0.2C576.3,68.5,576.5,68.5,576.5,68.5z"/>
	<path class="st13" d="M598.8,20.1L598.8,20.1l0.2,0.2C598.9,20.3,598.8,20.3,598.8,20.1z"/>
	<path class="st13" d="M600.1,21.8c-0.2-0.2-0.3-0.3-0.5-0.5C599.8,21.5,599.9,21.6,600.1,21.8L600.1,21.8z"/>
	<path class="st13" d="M554.1,58.1L554.1,58.1L554.1,58.1L554.1,58.1z"/>
	<path class="st13" d="M570.6,32c8.3-6.6,18.8-10.2,29.5-10.2c-0.2-0.2-0.3-0.3-0.3-0.5c-0.3-0.3-0.5-0.7-0.8-1l-0.2-0.2
		c-10.2-1.9-20.5-0.5-29.9,4.1c-9.2,4.6-16.6,11.9-21.2,21.1l0,0c0.2,0.7,0.3,1.4,0.5,2c0.2,0.3,0.2,0.7,0.3,1
		c0.2,0.5,0.3,1,0.7,1.7c0.2,0.3,0.3,0.8,0.5,1.2c0.2,0.5,0.5,0.8,0.7,1.4c0.2,0.3,0.3,0.7,0.5,0.8c0.3,0.7,0.7,1.2,1.2,1.9
		c0.2,0.3,0.3,0.5,0.5,0.8c0.3,0.3,0.5,0.8,0.8,1.2c0.2,0.3,0.5,0.5,0.7,0.8l0,0C556.5,47.8,562.3,38.6,570.6,32z"/>
	<path class="st13" d="M547.6,45.4L547.6,45.4L547.6,45.4L547.6,45.4z"/>
	<path class="st14" d="M563.3,65.3c0.2,0.2,0.5,0.2,0.7,0.3C563.8,65.6,563.4,65.4,563.3,65.3L563.3,65.3z"/>
	<path class="st14" d="M579.6,68.3c-1,0.2-1.9,0.2-2.9,0.2C577.5,68.5,578.6,68.3,579.6,68.3z"/>
	<path class="st14" d="M581.8,68c0.2,0,0.3,0,0.5-0.2c-0.8,0.2-1.9,0.3-2.7,0.3C580.4,68.1,581.1,68.1,581.8,68z"/>
	<path class="st14" d="M547.6,32.8L547.6,32.8c0.2-0.7,0.3-1.4,0.5-2C548,31.6,547.8,32.3,547.6,32.8z"/>
	<path class="st14" d="M567.5,11.6c-0.7,0.2-1.5,0.5-2.2,0.8C566,12.1,566.8,11.8,567.5,11.6L567.5,11.6z"/>
	<path class="st14" d="M582.6,10.8L582.6,10.8c0.8,0.2,1.5,0.3,2.2,0.5C584.2,11.1,583.3,10.9,582.6,10.8z"/>
	<path class="st14" d="M596,17.5c-0.2-0.2-0.3-0.2-0.3-0.3C595.9,17.4,596,17.4,596,17.5L596,17.5z"/>
	<path class="st14" d="M588.1,66.1c3.7-1.5,7.3-3.9,10.2-7c3.1-3.2,5.1-7,6.5-11C602.2,56.3,596,62.9,588.1,66.1z"/>
	<path class="st14" d="M603.7,28.1c0.3,0.8,0.7,1.5,0.8,2.4C604.4,29.6,604,28.9,603.7,28.1z"/>
	<path class="st14" d="M605.4,45.6c0.2-0.5,0.2-0.8,0.3-1.4C605.6,44.7,605.4,45.1,605.4,45.6z"/>
	<path class="st14" d="M605.7,43.4c0-0.3,0.2-0.7,0.2-1c0.3-3.9,0-7.6-1.2-11.4c0.8,2.7,1.2,5.4,1.2,8.5
		C606.1,40.6,605.9,42,605.7,43.4z"/>
	<path class="st14" d="M601.8,24.2L601.8,24.2c0.2,0.3,0.3,0.5,0.5,0.8C602.2,24.8,602,24.5,601.8,24.2z"/>
	<path class="st14" d="M554.8,19.6c-0.3,0.3-0.5,0.7-0.8,1c0.5-0.7,1-1.2,1.7-1.7C555.3,19.1,554.9,19.4,554.8,19.6z"/>
	<path class="st14" d="M605.7,43.4c0.2-1.4,0.3-2.7,0.3-4.1c0-2.9-0.5-5.8-1.2-8.5c0-0.2,0-0.3-0.2-0.3c-0.3-0.8-0.5-1.7-0.8-2.4
		c0-0.2-0.2-0.2-0.2-0.3c-0.3-0.7-0.7-1.4-1-2c-0.2-0.2-0.2-0.3-0.3-0.5c-0.2-0.3-0.3-0.5-0.5-0.8c-10,1.9-19.2,6.8-26.2,14.3
		c-7,7.3-11.2,16.8-12.4,26.8c0.2,0.2,0.5,0.2,0.7,0.3c0.5,0.2,1,0.5,1.5,0.7c0.3,0.2,0.7,0.2,1,0.3c0.7,0.3,1.5,0.5,2.2,0.7
		c0.5,0.2,1,0.3,1.5,0.3c0.3,0,0.7,0.2,1,0.2c0.7,0.2,1.2,0.2,1.9,0.3c0.3,0,0.5,0,0.8,0c0.8,0,1.5,0.2,2.4,0.2c0.2,0,0.2,0,0.3,0
		c1,0,1.9,0,2.9-0.2h0.2c0.8-0.2,1.9-0.2,2.7-0.3c0.2,0,0.3,0,0.5-0.2c0.8-0.2,1.5-0.3,2.4-0.5c0.2,0,0.3-0.2,0.5-0.2
		c0.8-0.2,1.5-0.5,2.4-0.8c0,0,0.2,0,0.2-0.2c7.8-3.4,14.1-9.8,16.6-18v-0.2c0.2-0.8,0.5-1.5,0.7-2.4c0.2-0.5,0.2-0.8,0.3-1.4
		C605.7,43.9,605.7,43.7,605.7,43.4z"/>
	<path class="st14" d="M579.6,68.3L579.6,68.3L579.6,68.3z"/>
	<path class="st14" d="M605.4,45.6c-0.2,0.8-0.3,1.5-0.7,2.4C605,47.1,605.2,46.4,605.4,45.6z"/>
	<path class="st14" d="M604.7,30.5c0,0.2,0.2,0.3,0.2,0.3C604.7,30.8,604.7,30.6,604.7,30.5z"/>
	<path class="st14" d="M605.7,43.4c0,0.3-0.2,0.5-0.2,0.8C605.7,43.9,605.7,43.7,605.7,43.4z"/>
	<path class="st14" d="M563.9,20.4c6.3-2.9,13.2-4.4,20-4.4l0,0l0,0l0,0l0,0c4.1,0,8,0.5,11.9,1.5c-0.2-0.2-0.2-0.2-0.3-0.3
		c-0.3-0.2-0.5-0.5-0.8-0.7c-0.5-0.3-0.8-0.7-1.4-1c-0.3-0.2-0.7-0.5-1-0.7c-0.5-0.3-0.8-0.5-1.4-0.8c-0.3-0.2-0.7-0.3-1-0.5
		c-0.5-0.3-1-0.5-1.7-0.8c-0.3-0.2-0.7-0.3-1-0.5c-0.5-0.2-1.2-0.3-1.7-0.7c-0.3-0.2-0.7-0.2-0.8-0.3c-0.7-0.2-1.5-0.3-2.2-0.5
		c-0.2,0-0.3,0-0.5-0.2c-0.7-0.2-1.5-0.2-2.2-0.3c-0.2,0-0.3,0-0.7,0c-0.8,0-1.9-0.2-2.7-0.2c-0.2,0-0.2,0-0.3,0
		c-0.8,0-1.7,0-2.5,0.2c-0.2,0-0.2,0-0.3,0c-0.8,0.2-1.7,0.2-2.5,0.3c-0.2,0-0.3,0-0.5,0.2c-0.7,0.2-1.5,0.3-2.2,0.5
		c-0.2,0-0.3,0-0.3,0.2c-0.8,0.2-1.5,0.5-2.4,0.8c-0.2,0-0.3,0.2-0.5,0.2c-0.7,0.3-1.4,0.7-2,1c0,0-0.2,0-0.2,0.2
		c-0.7,0.3-1.5,0.8-2.2,1.4c-0.2,0-0.2,0.2-0.3,0.2c-0.7,0.5-1.4,0.8-1.9,1.4c0,0-0.2,0-0.2,0.2c-0.7,0.5-1.4,1.2-1.9,1.7
		c-0.2,0.2-0.2,0.2-0.3,0.3c-0.5,0.5-1,1.2-1.7,1.7l-0.2,0.2c-0.5,0.7-1,1.4-1.5,2c-0.2,0.2-0.2,0.3-0.3,0.3c-0.3,0.5-0.7,1.2-1,1.7
		c-0.2,0.2-0.2,0.3-0.3,0.5c-0.3,0.7-0.7,1.4-1,2c-0.2,0.3-0.2,0.5-0.3,0.8c-0.2,0.5-0.3,1-0.5,1.5c-0.2,0.3-0.2,0.5-0.3,0.8
		c-0.2,0.7-0.3,1.4-0.5,1.9C552.2,27.6,557.7,23.3,563.9,20.4z"/>
</g>
<path class="st13" d="M612.9,14.3h20.5v5.4h-14.1v9.8H631V35h-11.7v14.1h-6.5V14.3L612.9,14.3z M649.2,23.8c-3.9,0-7,2.9-8.2,6.5
	h-0.2c0-0.5,0.2-1.2,0.2-1.7v-4.2h-6.1v25h6.3v-10c0-1.4,0.2-2.7,0.5-4.1c1.2-3.7,4.2-5.3,7-5.3c0.5,0,1,0,1.5,0.2V24
	C649.9,23.8,649.5,23.8,649.2,23.8z M663.6,23.7c7.3,0,11.2,5.3,11.2,11.9c0,0.7-0.2,2.4-0.2,2.4h-17.5c0.3,4.4,3.9,6.6,7.6,6.6
	c4.1,0,7.3-2.7,7.3-2.7l2.5,4.4c-2.9,2.4-6.5,3.6-10.2,3.6c-8.5,0-13.8-5.9-13.8-13.1C650.7,29.1,656.2,23.7,663.6,23.7z
	 M668.6,33.7c-0.2-3.4-2.2-5.3-5.1-5.3c-3.2,0-5.4,2-6.1,5.3H668.6z M689.6,23.7c7.3,0,11.4,5.3,11.4,11.9c0,0.7-0.2,2.4-0.2,2.4
	h-17.7c0.3,4.4,3.9,6.6,7.6,6.6c4.1,0,7.3-2.7,7.3-2.7l2.4,4.4c-2.9,2.4-6.5,3.6-10.2,3.6c-8.5,0-13.8-5.9-13.8-13.1
	C676.7,29.1,682,23.7,689.6,23.7z M694.5,33.7c-0.2-3.4-2.2-5.3-5.1-5.3c-3.2,0-5.4,2-6.1,5.3H694.5z M756.3,33.5h0.8v-0.3
	c0-3.2-2-4.4-4.9-4.4c-3.6,0-7,2.4-7,2.4l-2.4-4.4c2.9-2,6.5-3.1,10-3.1c6.6,0,10.5,3.6,10.5,10v15.8h-5.8v-2c0-0.5,0-1.2,0.2-1.7
	h-0.2c0,0-1.9,4.4-7.8,4.4c-4.6,0-8.7-2.9-8.7-7.8C741.2,34,752.1,33.5,756.3,33.5z M751.4,45.1c3.4,0,5.8-3.6,5.8-6.6v-0.5H756
	c-3.2,0-8.5,0.5-8.5,3.9C747.5,43.5,748.9,45.1,751.4,45.1z M783,24.3l-4.9,14.4c-0.3,1-0.7,2.2-0.8,3.2h-0.2
	c-0.2-1.2-0.5-2.2-1-3.4l-5.3-14.3h-7.1L774.3,49l-0.8,1.9c-1,2.2-2.7,3.2-4.4,3.2c-1,0-2-0.5-2.9-1l-2,4.8c1.5,1,3.4,1.5,5.3,1.7
	c3.7,0,7.1-1.9,9-6.3l11.4-28.7L783,24.3z M734.3,24.3l-4.4,16.3c-0.3,1.4-0.5,2.7-0.5,2.7h-0.2c0,0-0.2-1.4-0.5-2.7l-4.6-16.3h-5.8
	l-4.8,16.3c-0.3,1.4-0.7,2.7-0.7,2.7h-0.2c-0.2-0.8-0.3-1.7-0.5-2.7l-4.4-16.3h-6.6l7.8,25h7.1l4.2-14.3c0.3-0.8,0.5-1.9,0.7-2.7
	h0.2c0,0,0.2,1.4,0.7,2.7l4.2,14.3h7l7.6-25L734.3,24.3L734.3,24.3z M612.9,54.2h1.9v10h-1.9V54.2z M624.9,54.2h1.9l3.9,5.8
	c0.3,0.5,0.5,1,0.8,1.5c0,0-0.2-1-0.2-1.5v-5.8h1.9v10h-1.9l-3.9-5.8c-0.3-0.5-0.5-1-0.8-1.5l0,0c0,0,0.2,1,0.2,1.5v5.8h-1.9V54.2z
	 M644.6,61.7c0.7,0.7,1.5,1,2.5,1c0.8,0,1.5-0.3,1.5-1.2c0-1.7-4.8-1.5-4.8-4.6c0-1.7,1.5-2.9,3.4-2.9c1.2,0,2.2,0.3,3.1,1l-0.8,1.5
	c-0.7-0.5-1.4-0.8-2.2-0.8s-1.5,0.5-1.5,1.2c0,1.7,4.8,1.4,4.8,4.6c0,1.5-1.2,2.9-3.4,2.9c-1.4,0-2.5-0.5-3.6-1.4L644.6,61.7z
	 M660.7,54.2h1.9v6.5c0,1.4,0.8,2,2.2,2s2.2-0.7,2.2-2v-6.5h1.9v6.5c0,2.2-1.7,3.7-4.1,3.7s-4.1-1.5-4.1-3.7V54.2L660.7,54.2z
	 M679.2,54.2h3.2c0.7,0,1.4,0,2,0.3c0.5,0.2,1,0.7,1.2,1.2c0.3,0.5,0.5,1,0.3,1.7c0,0.5-0.2,1.2-0.5,1.7c-0.3,0.5-0.7,0.8-1.4,1.2
	c0.2,0.2,0.2,0.3,0.3,0.5l2,3.7h-2l-2-3.7h-1.9v3.7h-1.9L679.2,54.2L679.2,54.2z M682.8,59c0.3,0,0.8,0,1-0.3
	c0.3-0.3,0.5-0.7,0.5-1.2c0-1-0.3-1.5-1.9-1.5h-1.4V59L682.8,59z M703.5,61.7H700l-0.8,2.5h-1.9l3.6-10h1.9l3.6,10h-1.9L703.5,61.7z
	 M701.8,56.1c0,0-0.2,1-0.3,1.5l-0.8,2.7h2.7l-0.8-2.7C702,57.1,702,56.6,701.8,56.1L701.8,56.1z M716.6,54.2h1.9l3.9,5.8
	c0.3,0.5,0.5,1,0.8,1.5l0,0c0,0-0.2-1-0.2-1.5v-5.8h1.9v10h-1.9l-3.9-5.8c-0.3-0.5-0.5-1-0.8-1.5c0,0,0.2,1,0.2,1.5v5.8h-1.9V54.2
	L716.6,54.2z M740.6,54.1c1.4,0,2.7,0.5,3.7,1.4l-0.8,1.4c-0.8-0.7-1.7-1-2.7-1c-0.8,0-1.7,0.3-2.4,0.8c-0.7,0.5-1,1.4-1,2.2v0.3
	c0,1.9,1.4,3.6,3.4,3.6c1,0,2.2-0.5,2.9-1.2l1,1.4c-1,1-2.5,1.7-3.9,1.7s-2.7-0.5-3.7-1.5c-1-1-1.5-2.2-1.5-3.6s0.5-2.7,1.5-3.6
	C737.8,54.7,739.2,54.2,740.6,54.1L740.6,54.1z M754.8,54.2h5.6v1.5h-3.7v2.7h3.4V60h-3.4v2.7h3.7v1.5h-5.6V54.2L754.8,54.2z
	 M787.6,56.4c0,0,0-0.2-0.2-0.2c0.3-0.2,0.7-0.5,0.7-0.8c0-0.3,0-0.5-0.3-0.7c-0.2-0.2-0.5-0.3-0.8-0.3h-1.4v3.4h0.8v-1.2h0.5
	l0.7,1.2h0.8L787.6,56.4z M786.7,55.8h-0.5v-1h0.5c0.2,0,0.2,0,0.3,0.2c0.2,0,0.2,0.2,0.2,0.3c0,0,0,0,0,0.2s0,0.2-0.2,0.3
	C787.1,55.8,786.9,55.8,786.7,55.8L786.7,55.8L786.7,55.8z"/>
<path class="st13" d="M786.6,52.7c-0.7,0-1.4,0.2-1.9,0.5c-0.5,0.3-1,0.8-1.2,1.5c-0.3,0.7-0.3,1.4-0.2,1.9c0.2,0.7,0.5,1.2,0.8,1.7
	c1,1,2.4,1.2,3.7,0.7c0.7-0.2,1.2-0.7,1.5-1.2c0.8-1.4,0.7-3.1-0.3-4.2C788.4,53,787.6,52.7,786.6,52.7z M786.6,58.5
	c-0.5,0-1-0.2-1.4-0.3c-0.3-0.3-0.7-0.7-0.8-1.2c-0.3-1-0.2-2,0.5-2.7c0.7-0.7,1.9-0.8,2.7-0.5c0.5,0.2,0.8,0.5,1.2,0.8
	c0.7,1,0.5,2.4-0.3,3.2C787.9,58.1,787.2,58.5,786.6,58.5L786.6,58.5z"/>
</svg>
