<?xml version="1.0" encoding="utf-8"?>
<!-- Generator: Adobe Illustrator 25.2.3, SVG Export Plug-In . SVG Version: 6.00 Build 0)  -->
<svg version="1.1" id="Layer_1" xmlns="http://www.w3.org/2000/svg" xmlns:xlink="http://www.w3.org/1999/xlink" x="0px" y="0px"
	 viewBox="0 0 236.8 83.6" style="enable-background:new 0 0 236.8 83.6;" xml:space="preserve">
<style type="text/css">
	.st0{fill:#C01818;}
	.st1{fill:#75160D;}
	.st2{fill:#808080;}
</style>
<g>
	<g id="layer1" transform="translate(298.45945,-232.33395)">
		<g id="g7392" transform="translate(0.2645818,-0.26457794)">
			<polygon id="polygon6863" class="st0" points="-262.4,249.4 -298.7,232.6 -298.7,299.4 -262.4,316.2 -262.4,299.8 -283.8,289.9 
				-283.8,255.9 -262.4,265.8 			"/>
			<polygon id="polygon6865" class="st1" points="-262.4,249.4 -226,232.6 -226,299.4 -262.4,316.2 -262.4,299.8 -240.9,289.9 
				-240.9,255.9 -262.4,265.8 			"/>
		</g>
	</g>
	<g>
		<path class="st2" d="M97.1,41.6c-2.2-0.9-3.5-1.2-5.8-1.2c-2.5,0-5.4,0.9-5.4,4c0,5.7,13.2,4.4,13.2,14.2c0,6.3-5.1,8.9-11.2,8.9
			c-2.2,0-4.3-0.6-6.3-1.2l0.4-4c1.5,0.6,4.1,1.4,6.4,1.4c2.5,0,6-1.4,6-4.9c0-6.6-13.2-4.8-13.2-14.1c0-5.3,4.3-8.1,9.8-8.1
			c2,0,4.4,0.3,6.5,1.1L97.1,41.6z"/>
		<path class="st2" d="M105.4,37.1h17.2v3.7h-12.8v8.7h11.6v3.7h-11.6v9.8h12.8v3.7h-17.2V37.1z"/>
		<path class="st2" d="M149,42c-1.9-1.1-4.1-1.7-6.3-1.7c-7.1,0-11.8,4.9-11.8,11.6c0,7,5.2,11.6,11.6,11.6c2.2,0,5.1-0.6,6.7-1.4
			l0.3,4.1c-2.3,0.9-5.2,1.1-7,1.1c-9.7,0-16.2-6-16.2-15.5c0-9.2,6.9-15.2,16.2-15.2c2.4,0,4.7,0.3,6.9,1.3L149,42z"/>
		<path class="st2" d="M176.7,54.5c0,8.3-4.3,12.8-11.9,12.8c-7.6,0-11.9-4.5-11.9-12.8V37.1h4.4V54c0,5.7,1.8,9.6,7.5,9.6
			c5.7,0,7.5-3.9,7.5-9.6V37.1h4.4V54.5z"/>
		<path class="st2" d="M183.7,37.1h7.5c6.1,0,11.9,0.9,11.9,8.1c0,3.6-2.8,6.2-6.3,6.8V52c1.4,0.5,2,1.1,3,3l5.8,11.8h-5l-4.7-10.3
			c-1.4-2.9-2.8-2.9-5.1-2.9h-2.6v13.2h-4.4V37.1z M188.1,49.9h3.7c4.2,0,6.6-1.8,6.6-4.6c0-2.7-2.1-4.4-6.1-4.4h-4.2V49.9z"/>
		<path class="st2" d="M210.5,37.1h17.2v3.7h-12.8v8.7h11.6v3.7h-11.6v9.8h12.8v3.7h-17.2V37.1z"/>
	</g>
	<path id="path6847" class="st0" d="M135.6,25.6l-5.3-3.1l-0.4,0.6c-1.2,1.9-2.8,2.8-4.9,2.8c-3.5,0-6.1-2.6-6.1-6.1
		c0-3.5,2.6-6.1,6.1-6.1c2.1,0,3.6,0.9,4.9,2.8l0.4,0.6l5.3-3.1l-0.5-0.7C132.6,9.7,129.3,8,125,8c-8.1,0-12.4,6.1-12.4,11.9
		c0,5.8,4.3,11.9,12.4,11.9c4.1,0,8-2.1,10.1-5.5L135.6,25.6z"/>
	<path id="path6849" class="st0" d="M135.3,31.7h7.3l2.2-5.4h10.9l2.2,5.4h7.3l-13-31.5h-6.5l1.7,4.2L135.3,31.7 M150.3,12.6
		l2.9,7.4h-6L150.3,12.6z"/>
	<path id="path6851" class="st0" d="M168.2,31.8h6.4V17.6h4.2v-6h-4.2V8.8c0-1.2,0.8-2.5,2.3-2.5c0.8,0,1.3,0.1,1.8,0.3l0.7,0.3
		l2.6-5.8l-0.7-0.2c-1.2-0.5-2.8-0.7-4-0.7c-2.9,0-5.3,0.9-6.9,2.7c-1.4,1.6-2.2,3.7-2.2,6.1v2.6h-2.8v6h2.8V31.8z"/>
	<polygon id="polygon6853" class="st0" points="102.9,13.6 102.9,31.7 109.9,31.7 109.9,0 96.2,10.3 82.5,0 82.5,31.7 89.4,31.7 
		89.4,13.6 96.2,18.6 	"/>
	<path id="path6855" class="st0" d="M193.2,8c-8,0-12.4,6.1-12.4,11.9c0,5.8,4.3,11.9,12.4,11.9c3.7,0,7.1-1.7,9.8-4.8l-5.2-2.8
		c-1.3,1.4-3,2.1-4.8,2.1c-2.6,0-5-1.7-5.6-4.1h17.4v-1.6C204.9,11.9,198,8,193.2,8L193.2,8z M187.6,17c0.9-2.2,2.6-3.4,5-3.4
		c2.4,0,4.2,1.2,5.2,3.5L187.6,17z"/>
	<path id="path6857" class="st0" d="M219.3,8c-8,0-12.4,6.1-12.4,11.9c0,5.8,4.3,11.9,12.4,11.9c3.7,0,7.1-1.7,9.8-4.8l-5.2-2.8
		c-1.3,1.4-3,2.1-4.8,2.1c-2.6,0-5-1.7-5.6-4.1H231v-1.6C231,12,224.2,8,219.3,8L219.3,8z M213.7,17c0.9-2.2,2.6-3.5,5-3.4
		c2.4,0,4.2,1.2,5.2,3.5L213.7,17z"/>
	<path id="path6859" class="st0" d="M230.2,6.9h2.7v0.5h-1.1v2.8h-0.6V7.5h-1V6.9z"/>
	<path id="path6861" class="st0" d="M233.3,6.9h0.8l0.9,2.6l0.9-2.6h0.8v3.4h-0.6V7.7l-0.9,2.6h-0.5l-0.9-2.6v2.6h-0.6L233.3,6.9
		L233.3,6.9z"/>
</g>
</svg>
