<?xml version="1.0" encoding="utf-8"?>
<!-- Generator: Adobe Illustrator 28.1.0, SVG Export Plug-In . SVG Version: 6.00 Build 0)  -->
<svg version="1.1" id="Layer_1" xmlns="http://www.w3.org/2000/svg" xmlns:xlink="http://www.w3.org/1999/xlink" x="0px" y="0px"
	 viewBox="0 0 2500 930.4" style="enable-background:new 0 0 2500 930.4;" xml:space="preserve">
<style type="text/css">
	.st0{fill-rule:evenodd;clip-rule:evenodd;fill:#1F2937;}
</style>
<g>
	<path class="st0" d="M541.2,237.7h134.6v463.6H531.6L246.9,426.2v275.1H110.3V237.7h142.3l288.5,273.2V237.7z M881.6,239.6h38.5
		v207.7h-40.4l-80.8-148.1v148.1h-38.5V239.6h42.3l78.9,144.3L881.6,239.6L881.6,239.6z M975.9,447.3h-42.3l69.2-207.7h46.2
		l69.2,207.7H1074l-11.5-42.3h-73.1L975.9,447.3L975.9,447.3z M1000.9,368.5h50l-25-82.7L1000.9,368.5L1000.9,368.5z M1187.5,447.3
		h-40.4V276.1h-59.6v-36.5h159.7v36.5h-59.6V447.3z M1256.7,239.6h40.4v207.7h-40.4V239.6z M1410.6,233.8c25,0,94.3,11.5,94.3,109.6
		c0,98.1-69.3,109.6-94.3,109.6c-26.9,0-94.3-11.5-94.3-109.6C1316.4,245.3,1383.7,233.8,1410.6,233.8z M1410.6,416.6
		c21.2,0,51.9-15.4,51.9-73.1s-30.8-73.1-51.9-73.1c-23.1,0-53.9,15.4-53.9,73.1S1387.5,416.6,1410.6,416.6z M1656.8,239.6h36.5
		v207.7H1653l-78.9-148.1h-1.9v148.1h-36.6V239.6h42.3l76.9,144.3h1.9L1656.8,239.6L1656.8,239.6z M1712.6,239.6h42.3
		c25,113.5,28.9,128.9,30.8,152h1.9c3.9-21.2,5.8-42.3,26.9-152h42.3c23.1,113.5,25,125,30.8,152c3.9-19.2,5.8-38.5,30.8-152h42.3
		L1905,447.3h-38.5c-21.2-102-23.1-121.2-30.8-161.6c-5.8,40.4-9.6,53.9-30.8,161.6h-38.5L1712.6,239.6L1712.6,239.6z M1981.9,239.6
		h40.4v207.7h-40.4V239.6z M2051.2,239.6h84.6c67.3,0,80.8,59.6,80.8,98.1c0,46.2-17.3,109.6-80.8,109.6h-84.6V239.6z M2089.6,410.8
		h40.4c32.7,0,44.2-34.6,44.2-69.2c0-61.6-26.9-65.4-44.2-65.4h-40.4V410.8z M2385.9,276.1H2282v44.2h94.3v36.5H2282v53.9h107.7
		v36.6h-148.1V239.6h144.3L2385.9,276.1L2385.9,276.1z M760.5,501.2h42.3V707h-42.3V501.2z M960.5,501.2h40.4V707h-42.3l-82.7-148.1
		V707h-40.4V501.2h44.3l80.8,144.3V501.2z M1070.1,643.5c0,11.6,5.8,32.7,42.3,32.7c21.2,0,42.3-3.9,42.3-25
		c0-17.3-15.4-21.2-36.5-26.9l-21.2-5.8c-32.7-7.7-63.5-13.5-63.5-59.6c0-23.1,11.5-63.5,76.9-63.5c61.6,0,78.9,40.4,78.9,67.3H1149
		c-1.9-9.6-5.8-32.7-42.3-32.7c-15.4,0-34.6,5.8-34.6,25c0,17.3,13.5,19.2,21.2,21.2l50,13.5c26.9,7.7,51.9,17.3,51.9,55.8
		c0,61.6-61.6,67.3-78.9,67.3c-73.1,0-86.6-44.3-86.6-69.3L1070.1,643.5L1070.1,643.5L1070.1,643.5z M1389.5,635.8
		c0,53.9-32.7,77-82.7,77c-19.2,0-46.2-3.9-63.5-25c-11.5-13.5-15.4-28.9-17.3-50V501.2h44.3v132.7c0,28.9,15.4,42.3,34.6,42.3
		c28.9,0,42.3-13.5,42.3-40.4V501.2h42.3L1389.5,635.8L1389.5,635.8L1389.5,635.8z M1431.8,501.2h102c53.9,0,63.5,40.4,63.5,57.7
		c0,23.1-9.6,42.3-30.8,50c17.3,7.7,26.9,13.5,26.9,51.9c0,30.8,0,38.5,7.7,40.4v5.8h-46.2c-1.9-9.6-3.9-19.2-3.9-42.3
		c0-26.9-1.9-38.5-32.7-38.5h-44.2V707h-42.3V501.2z M1524.1,591.6c21.2,0,32.7-7.7,32.7-28.9c0-9.6-5.8-26.9-30.8-26.9h-51.9v55.8
		L1524.1,591.6L1524.1,591.6z M1670.3,707h-44.2l71.2-205.8h48.1l71.2,205.8h-46.2l-11.6-42.3h-75L1670.3,707z M1695.3,628.1h52
		l-25-80.8h-1.9L1695.3,628.1L1695.3,628.1z M1958.8,501.2h38.5V707h-40.4l-82.7-148.1h-1.9V707h-38.5V501.2h44.2l80.8,144.3
		L1958.8,501.2L1958.8,501.2z M2166.6,568.5c-1.9-13.5-9.6-36.5-44.3-36.5c-19.2,0-50,13.4-50,73.1c0,36.5,15.4,71.2,50,71.2
		c23.1,0,40.4-13.5,44.3-40.4h42.3c-7.7,46.2-36.5,77-86.6,77c-53.9,0-92.3-36.5-92.3-107.7c0-73.1,40.4-109.6,92.3-109.6
		c59.6,0,84.6,42.3,86.6,73.1L2166.6,568.5L2166.6,568.5z M2383.9,537.7h-103.9V580h96.2v36.5h-96.2v53.9h109.6V707h-150V501.2
		h144.3L2383.9,537.7L2383.9,537.7z"/>
	<path class="st0" d="M833.6,739.7h15.4V834h-17.3l-57.7-77v77h-13.5v-94.3h17.3l55.8,75V739.7z M864.3,785.9
		c0-17.3,13.5-23.1,32.7-23.1c7.7,0,30.8,1.9,30.8,19.2v40.4c0,1.9,1.9,3.9,3.8,3.9c1.9,0,3.9,0,5.8-1.9v9.6c-3.9,0-5.8,1.9-7.7,1.9
		c-13.5,0-15.4-5.8-15.4-11.6c-5.8,5.8-13.5,11.6-28.9,11.6c-15.4,0-26.9-7.7-26.9-19.2c0-7.7,1.9-21.2,25-23.1l23.1-1.9
		c3.8,0,7.7-1.9,7.7-7.7c0-7.7-5.8-11.5-19.2-11.5c-15.4,0-17.3,7.7-19.2,13.4L864.3,785.9L864.3,785.9z M914.3,799.3
		c-1.9,0-5.8,1.9-23.1,3.9c-7.7,0-17.3,1.9-17.3,11.5c0,7.7,3.8,11.6,15.4,11.6c11.5,0,25-7.7,25-17.3L914.3,799.3L914.3,799.3z
		 M960.5,774.3v44.2c0,5.8,5.8,5.8,7.7,5.8h5.8v9.6h-9.6c-13.5,0-17.3-5.8-17.3-13.5v-46.2h-11.5v-9.6H947v-19.2h13.5v19.2H974v9.6
		L960.5,774.3L960.5,774.3L960.5,774.3z M983.6,764.7h13.5V834h-13.5V764.7L983.6,764.7z M983.6,739.7h13.5v11.5h-13.5V739.7z
		 M1045.1,762.8c25,0,38.5,19.2,38.5,36.5c0,17.3-13.5,36.5-38.5,36.5c-26.9,0-38.5-19.2-38.5-36.5
		C1006.7,782,1018.2,762.8,1045.1,762.8z M1045.1,826.3c19.2,0,23.1-17.3,23.1-26.9c0-9.6-3.9-26.9-23.1-26.9
		c-21.2,0-25,17.3-25,26.9C1020.1,808.9,1024,826.3,1045.1,826.3z M1158.6,834h-13.5v-42.3c0-13.4-5.8-19.2-19.2-19.2
		c-7.7,0-21.2,5.8-21.2,23.1V834h-13.5v-69.3h13.5v9.6c1.9-3.9,9.6-11.6,25-11.6c11.5,0,28.9,3.9,28.9,23.1V834L1158.6,834z
		 M1200.9,834h-13.5l-25-69.3h15.4l15.4,53.9h1.9l15.4-53.9h15.4l15.4,53.9l17.3-53.9h13.5L1249,834h-15.4l-15.4-53.9h-1.9
		L1200.9,834L1200.9,834z M1277.9,764.7h13.4V834h-13.4V764.7L1277.9,764.7z M1277.9,739.7h13.4v11.5h-13.4V739.7z M1374.1,834
		h-13.4v-9.6c-5.8,9.6-15.4,11.6-25,11.6c-26.9,0-34.6-23.1-34.6-38.5c0-19.2,11.5-34.6,34.6-34.6c13.4,0,21.2,7.7,23.1,11.6v-34.6
		h15.4L1374.1,834L1374.1,834z M1337.5,826.3c7.7,0,21.2-5.8,21.2-23.1c0-11.6-1.9-30.8-21.2-30.8c-21.2,0-23.1,17.3-23.1,26.9
		C1314.4,814.7,1322.1,826.3,1337.5,826.3L1337.5,826.3z M1454.9,812.8c0,1.9-3.9,11.6-15.4,17.3c-3.9,3.9-7.7,5.8-21.2,5.8
		c-23.1,0-36.5-15.4-36.5-34.6c0-21.2,11.6-38.5,38.5-38.5c25,0,36.5,15.4,36.5,40.4h-61.6c0,13.4,9.6,23.1,25,23.1
		c13.4,0,21.2-9.6,21.2-13.5L1454.9,812.8L1454.9,812.8L1454.9,812.8z M1441.4,793.6c0-11.6-5.8-21.2-23.1-21.2
		c-11.6,0-23.1,9.6-23.1,21.2H1441.4z M1502.9,764.7h13.5V834h-13.5V764.7L1502.9,764.7z M1502.9,739.7h13.5v11.5h-13.5V739.7z
		 M1576.1,783.9c0-3.9-1.9-11.5-19.2-11.5c-3.9,0-17.3,1.9-17.3,9.6c0,5.8,5.8,7.7,15.4,9.6l13.5,3.9c17.3,1.9,23.1,7.7,23.1,17.3
		c0,13.5-13.4,23.1-32.7,23.1c-30.8,0-34.6-15.4-34.6-25h13.5c0,5.8,1.9,15.4,21.2,15.4c11.6,0,19.2-3.9,19.2-11.6
		c0-5.8-3.9-7.7-15.4-9.6l-17.3-3.9c-11.6-1.9-17.3-7.7-17.3-17.3c0-15.4,13.5-21.2,30.8-21.2c28.9,0,30.8,17.3,30.8,21.2
		L1576.1,783.9L1576.1,783.9z M1670.3,762.8c27,0,38.5,19.2,38.5,36.5c0,17.3-11.5,36.5-38.5,36.5c-25,0-38.5-19.2-38.5-36.5
		C1631.8,782,1645.3,762.8,1670.3,762.8z M1670.3,826.3c19.2,0,25-17.3,25-26.9c0-9.6-5.7-26.9-25-26.9c-19.2,0-23.1,17.3-23.1,26.9
		C1647.2,808.9,1651.1,826.3,1670.3,826.3z M1783.8,834h-13.5v-42.3c0-13.4-3.9-19.2-17.3-19.2c-7.7,0-21.2,5.8-21.2,23.1V834h-15.4
		v-69.3h13.4v9.6c3.9-3.9,11.6-11.6,25-11.6c13.4,0,28.9,3.9,28.9,23.1V834L1783.8,834z M1881.9,764.7h15.4
		c-9.6,23.1-19.2,44.2-28.9,67.3c-13.5,28.9-15.4,30.8-32.7,30.8c-1.9,0-3.9-1.9-5.8-1.9v-9.6h7.7c7.7,0,7.7-1.9,15.4-15.4
		l-30.8-71.2h15.4l23.1,55.8L1881.9,764.7L1881.9,764.7z M1931.9,762.8c26.9,0,38.5,19.2,38.5,36.5c0,17.3-11.5,36.5-38.5,36.5
		c-25,0-38.5-19.2-38.5-36.5C1893.4,782,1906.9,762.8,1931.9,762.8z M1931.9,826.3c21.2,0,25-17.3,25-26.9c0-9.6-3.9-26.9-25-26.9
		c-19.2,0-23.1,17.3-23.1,26.9C1908.8,808.9,1912.7,826.3,1931.9,826.3z M2031.9,834v-9.6c-5.8,7.7-13.4,11.6-25,11.6
		c-13.5,0-26.9-5.8-26.9-21.2v-50h13.4v46.2c0,11.6,7.7,15.4,15.4,15.4c17.3,0,23.1-13.5,23.1-23.1v-38.5h13.5V834L2031.9,834
		L2031.9,834L2031.9,834z M2074.3,834h-13.5v-69.3h13.5v11.6c5.8-7.7,13.4-13.5,23.1-13.5h3.9v11.6h-5.8c-11.6,0-21.2,9.6-21.2,19.2
		V834L2074.3,834z M2187.7,783.9c0-3.9-1.9-11.5-19.2-11.5c-5.8,0-17.3,1.9-17.3,9.6c0,5.8,3.9,7.7,15.4,9.6l13.4,3.9
		c17.3,1.9,23.1,7.7,23.1,17.3c0,13.5-13.4,23.1-32.7,23.1c-32.7,0-34.6-15.4-34.6-25h13.4c0,5.8,1.9,15.4,21.2,15.4
		c9.6,0,19.2-3.9,19.2-11.6c0-5.8-3.9-7.7-17.3-9.6l-15.4-3.9c-11.6-1.9-19.2-7.7-19.2-17.3c0-15.4,15.4-21.2,30.8-21.2
		c30.8,0,32.7,17.3,32.7,21.2L2187.7,783.9L2187.7,783.9L2187.7,783.9z M2212.7,764.7h13.5V834h-13.5V764.7L2212.7,764.7z
		 M2212.7,739.7h13.5v11.5h-13.5V739.7z M2307,834h-11.6v-9.6h-1.9c-5.7,9.6-15.4,11.6-23.1,11.6c-26.9,0-34.6-23.1-34.6-38.5
		c0-19.2,11.6-34.6,32.7-34.6c15.4,0,21.2,7.7,25,11.6v-34.6h13.5L2307,834L2307,834z M2270.4,826.3c9.6,0,23.1-5.8,23.1-23.1
		c0-11.6-1.9-30.8-21.2-30.8c-21.2,0-23.1,17.3-23.1,26.9C2249.3,814.7,2257,826.3,2270.4,826.3L2270.4,826.3z M2389.7,812.8
		c0,1.9-3.9,11.6-15.4,17.3c-3.9,3.9-7.7,5.8-21.2,5.8c-23.1,0-36.5-15.4-36.5-34.6c0-21.2,11.5-38.5,38.5-38.5
		c23.1,0,34.6,15.4,34.6,40.4h-59.6c0,13.4,7.7,23.1,25,23.1c11.6,0,19.2-9.6,21.2-13.5L2389.7,812.8L2389.7,812.8L2389.7,812.8z
		 M2376.3,793.6c0-11.6-5.8-21.2-23.1-21.2c-11.5,0-23.1,9.6-23.1,21.2H2376.3L2376.3,793.6z M554.6,739.7l13.5,3.9l-3.9-9.6
		L554.6,739.7L554.6,739.7z"/>
	<path class="st0" d="M614.3,733.9h-17.3v-9.6c0,0,3.9-7.7-13.5-7.7H479.6c0,0-25,5.7-23.1-15.4c0,0,1.9-19.2,21.2-23.1
		c9.6-1.9,11.5-9.6,11.5-9.6V108.8c0,0-3.9-28.9,15.4-46.2c0,0-50-5.8-65.4,30.8c0,0-46.2,28.9-51.9,53.9c0,0-5.8,15.4-21.2,28.9
		c0,0-51.9,46.2-48.1,109.6c0,0-44.2,55.8-21.2,119.3c0,0-15.4,30.8-11.5,71.2c0,0-11.5,32.7-9.6,55.8l-5.8-1.9
		c0,0-5.8,48.1,5.8,65.4l-5.8-1.9c0,0,9.6,50,19.2,61.6h-5.8c0,0,15.4,50,36.5,61.6H143c0,0,36.5,36.5,44.2,38.5l5.8,11.6
		c0,0,26.9,15.4,40.4,9.6c0,0,13.5,17.3,42.3,26.9c0,0,0-13.5,3.8-19.2c0,0,65.4,30.8,138.5,42.3c0,0,3.8,25,17.3,28.9
		c0,0,1.9-19.2,21.2-19.2h17.3c0,0,13.5,1.9,9.6,19.2c0,0,5.8,0,19.2-5.8c0,0,15.4-7.7,21.2-17.3c0,0,3.9-9.6-11.5-17.3l-25-11.5
		c0,0,61.6-21.2,78.9-32.7c0,0,17.3-11.6,23.1-5.8c0,0,5.8,13.5,3.9,17.3c0,0,23.1-15.4,30.8-30.8
		C623.9,751.2,629.7,735.9,614.3,733.9L614.3,733.9z M604.7,758.9c0,0-11.5-3.9-13.5-5.8c-3.9-1.9-17.3-3.9-28.9,5.8
		c-11.5,9.6-42.3,19.2-42.3,19.2s5.8-7.7,7.7-15.4c1.9-5.8-15.4-9.6-15.4-9.6l15.4-13.4l-5.8-11.6h61.6c0,0-1.9,3.9-3.8,9.6
		c-1.9,3.9,1.9,7.7,1.9,7.7h26.9C618.1,745.5,604.7,758.9,604.7,758.9L604.7,758.9z"/>
	<path class="st0" d="M479.6,76.1c0,0-32.7,3.8-46.2,57.7c0,0-21.2,61.6,3.8,202l-11.5,9.6c0,0-34.6-134.6-7.7-215.4
		c0,0-80.8,59.6-21.2,246.2l-7.7,9.6c0,0-46.2-115.4-21.2-188.5c0,0-73.1,50-1.9,221.2l-9.6,11.5c0,0-28.9-67.3-34.6-111.6
		c0,0-44.3,38.5,15.4,148.1l-1.9,15.4c0,0-23.1-34.6-26.9-44.3c0,0-23.1,40.4,13.5,75l3.8,17.3c0,0-25-15.4-34.6-25
		c0,0-9.6,48.1,30.8,63.5l1.9,13.4c0,0-32.7-11.6-38.5-21.2c0,0-5.8,50,42.3,59.6l1.9,13.4c0,0-30.8-7.7-40.4-15.4
		c0,0,9.6,44.2,51.9,55.8l5.8,15.4c0,0-34.6-5.7-40.4-13.4c0,0,13.5,32.7,48.1,51.9H175.7c0,0,5.8,15.4,38.5,21.2l-7.7,7.7
		c0,0,15.4,13.5,25,7.7c0,0,5.8-3.9,13.5-3.9c0,0,0,15.4,21.2,25c0,0-1.9-13.4,3.9-15.4c0,0,3.9,0,13.5,3.9
		c0,0,76.9,30.8,142.3,38.5c0,0,9.6,0,5.8,11.6c0,0-1.9,5.8,1.9,13.4c0,0,9.6-7.7,11.5-11.5c0,0,26.9-1.9,42.3,1.9
		c0,0,7.7,5.8,5.8,13.4l15.4-13.4l-57.7-26.9c0,0,51.9-7.7,57.7-26.9c0,0,11.5-9.6-17.3-17.3l13.5-13.4c0,0,13.5-9.6-7.7-11.6
		c0,0-15.4-1.9-32.7-3.9c-17.3,0-46.2-34.6,9.6-65.4v-554C473.9,108.8,473.9,87.6,479.6,76.1L479.6,76.1z"/>
	<path class="st0" d="M566.2,824.3c-0.2-16.8,13.2-30.6,30-30.8c0.3,0,0.5,0,0.8,0c17.3,0,30.8,13.5,30.8,30.8
		c0,17.3-13.5,30.8-30.8,30.8c-16.8,0.2-30.6-13.2-30.8-30C566.2,824.9,566.2,824.6,566.2,824.3z M596.9,849.3c13.5,0,25-9.6,25-25
		c0-15.4-11.5-25-25-25c-13.5,0-25,9.6-25,25C572,839.7,583.5,849.3,596.9,849.3z M591.2,841.6h-5.8V807h13.5
		c7.7,0,11.5,1.9,11.5,9.6c0,5.8-3.9,9.6-7.7,9.6l9.6,15.4h-5.8l-9.6-15.4h-5.8L591.2,841.6L591.2,841.6z M596.9,822.4
		c3.9,0,7.7,0,7.7-5.8c0-3.9-3.8-5.8-7.7-5.8h-5.8v11.6L596.9,822.4L596.9,822.4z"/>
</g>
</svg>
