<?xml version="1.0" encoding="utf-8"?>
<!-- Generator: Adobe Illustrator 28.1.0, SVG Export Plug-In . SVG Version: 6.00 Build 0)  -->
<svg version="1.1" id="Layer_1" xmlns="http://www.w3.org/2000/svg" xmlns:xlink="http://www.w3.org/1999/xlink" x="0px" y="0px"
	 viewBox="0 0 2500 504.8" style="enable-background:new 0 0 2500 504.8;" xml:space="preserve">
<style type="text/css">
	.st0{fill-rule:evenodd;clip-rule:evenodd;fill:#1F2937;}
</style>
<g>
	<path class="st0" d="M594.9,413.3l-3.6-2.4c-15.7-8.5-23-32.6-30.2-53.2l-85.8-227.2l-81-1.2v8.5l4.8,1.2c0,0,3.6,1.2,6,2.4
		c4.8,3.6,8.5,8.5,3.6,23c-2.4,7.3-4.8,12.1-4.8,12.1l-66.5,181.3c-7.3,19.3-13.3,44.7-30.2,53.2l-6,2.4v7.3h91.9v-7.3l-7.3-2.4
		c-7.3-3.6-9.7-12.1-1.2-36.3l10.9-32.7h96.7c2.4,6.1,4.8,15.7,9.7,30.2c4.8,13.3,12.1,32.6,2.4,38.7l-6,2.4v7.3h96.7V413.3z
		 M476.5,296h-65.3l32.6-89.4L476.5,296z M1187.2,129.3v7.3l7.3,3.6c9.7,3.6,9.7,30.2,9.7,47.1v175.2c0,14.5,0,43.5-9.7,48.4
		l-7.3,2.4v7.3h93v-7.3l-6-2.4c-10.9-4.8-10.9-33.8-9.7-48.4V187.3c-1.2-24.2,2.4-44.7,9.7-47.1l6-3.6v-7.3L1187.2,129.3
		L1187.2,129.3L1187.2,129.3z M839.1,129.3v7.3l6,3.6c10.9,3.6,10.9,30.2,9.7,47.1v175.2c0,14.5,1.2,43.5-9.7,48.4l-6,2.4v7.3h93.1
		v-7.3l-7.3-2.4c-9.7-4.8-9.7-33.8-9.7-48.4V187.3c0-24.2,2.4-44.7,9.7-47.1l7.3-3.6v-7.3L839.1,129.3L839.1,129.3z M1861.5,187.3
		c1.2-16.9,1.2-43.5-9.6-47.1l-6.1-3.6v-7.3h93.1v7.3l-7.3,3.6c-7.3,2.4-9.7,23-9.7,47.1v175.2c0,14.5,0,43.5,9.7,48.4l7.3,2.4v7.3
		h-93.1v-7.3l6.1-2.4c10.9-4.8,10.9-33.8,9.6-48.4V187.3z M318.2,105.1c-20.5-20.5-52-32.6-88.2-32.6H110.3v7.3l6,2.4
		c15.7,7.3,14.5,44.7,14.5,72.5v191c0,20.5,1.2,58-14.5,64l-6,3.6v7.3h108.8v-7.3l-4.8-2.4c-19.3-13.3-19.3-41.1-19.3-70.1v-61.7
		L207,284c0,0,18.1,6.1,35,6.1c50.8,0,105.1-35.1,105.1-111.2C347.2,149.8,337.5,124.4,318.2,105.1L318.2,105.1z M210.6,262.2h-9.7
		l-6,1.2V132.9c7.3-1.2,15.7-1.2,26.6-1.2c23,0,39.9,6,50.8,15.7c9.7,9.7,14.5,23,14.5,41.1C286.7,233.2,248.1,259.8,210.6,262.2
		L210.6,262.2z M808.9,342l-2.4,1.2c-2.4,2.4-6,4.8-6,4.8c-16.9,10.9-43.5,24.2-72.5,24.2c-23,0-42.3-7.3-55.6-21.8
		c-18.1-18.1-29-47.1-29-82.2c0-53.2,31.4-89.4,76.1-89.4c21.8,0,43.5,7.3,62.9,20.5l6,4.8l10.9,7.3v-76.1l-8.5-1.2
		c-26.6-7.3-49.5-10.9-70.1-10.9c-38.7,0-72.5,13.3-97.9,38.6c-27.8,27.8-42.3,67.7-42.3,112.4c0,45.9,13.3,84.6,41.1,111.2
		c26.6,26.6,65.3,41.1,111.2,41.1c23,0,43.5-4.8,60.4-13.3h1.2l2.4-1.2l1.2-2.4l19.3-67.7L808.9,342L808.9,342L808.9,342z
		 M1524.3,342l-7.2,6.1c-18.1,10.9-44.7,24.2-73.7,24.2c-23,0-41.1-7.3-55.6-21.8c-18.1-18.1-27.8-47.1-27.8-82.2
		c0-53.2,31.4-89.4,76.1-89.4c20.5,0,42.3,7.3,62.9,20.5l15.7,12.1v-76.1l-7.2-1.2c-27.8-7.3-49.5-10.9-70.1-10.9
		c-39.9,0-73.7,13.3-99.1,38.6c-26.6,27.8-42.3,67.7-42.3,112.4c0,45.9,14.5,84.6,41.1,111.2c26.6,26.6,65.3,41.1,111.2,41.1
		c23,0,43.5-4.8,61.7-13.3l3.6-1.2L1534,342L1524.3,342L1524.3,342z M1137.6,130.5l-76.1-1.2h-93.1v7.3l6,3.6
		c10.9,3.6,10.9,30.2,10.9,47.1v175.2c0,14.5,0,43.5-10.9,48.4l-6,2.4v7.3h93.1v-7.3l-6-2.4c-10.9-4.8-10.9-33.8-10.9-48.4v-58h52
		c0,0,23-1.2,25.4,7.3l2.4,4.8l6,1.2l3.6-78.6h-7.2l-2.4,4.8c-1.2,7.3-21.8,8.5-27.8,8.5h-52V180h68.9c15.7,0,24.2,3.6,26.6,12.1
		l1.2,4.8h7.2l16.9-68.9C1165.4,128.1,1143.6,130.5,1137.6,130.5L1137.6,130.5z M2143.1,130.5l-77.3-1.2h-93.1v7.3l6,3.6
		c10.9,3.6,10.9,30.2,10.9,47.1v175.2c0,14.5,0,43.5-9.7,48.4l-7.3,2.4v7.3h93.1v-7.3l-6.1-2.4c-10.9-4.8-10.9-33.8-10.9-48.4v-58
		h52c0,0,23-1.2,26.6,7.3l1.2,4.8l6,1.2l3.6-78.6h-7.3l-1.2,4.8c-2.4,7.3-23,8.5-29,8.5h-52V180h70.1c14.5,0,23,3.6,25.4,12.1
		l2.4,4.8h6.1l16.9-68.9C2169.8,128.1,2148,130.5,2143.1,130.5L2143.1,130.5z M2382.5,349.2c-18.1,14.5-47.1,23-76.1,23
		c-30.2,0-43.5-4.8-43.5-4.8v-73.7h42.3c1.2,0,23-1.2,26.6,7.3l1.2,3.6l6,1.2l4.8-71.3h-8.5l-1.2,4.8c-2.4,6-21.7,7.3-26.6,7.3
		h-44.7V180h55.6c14.5,0,29,0,33.8,12.1l1.2,4.8h7.3l13.3-68.9c0,0-21.8,1.2-26.6,1.2h-160.7v7.3l6,3.6
		c10.9,3.6,10.9,30.2,10.9,47.1v175.2c0,14.5,0,42.3-8.5,48.4c-2.4,1.2-8.5,2.4-8.5,2.4v7.3h184.9l18.1-71.3L2382.5,349.2
		L2382.5,349.2L2382.5,349.2z M1826.5,333.5l-3.6,2.4c-24.2,21.8-53.2,32.6-84.6,32.6c-30.2,0-43.5-1.2-43.5-1.2v-226
		c0-19.3,0-53.2,18.1-59.2l6-2.4v-7.3h-107.6v7.3l6.1,2.4c14.5,6,13.3,39.9,13.3,59.2v210.3c0,19.3,1.2,53.2-13.3,59.2l-6.1,2.4v7.3
		h193.4l30.2-87L1826.5,333.5L1826.5,333.5L1826.5,333.5z"/>
</g>
</svg>
