<?xml version="1.0" encoding="utf-8"?>
<!-- Generator: Adobe Illustrator 28.1.0, SVG Export Plug-In . SVG Version: 6.00 Build 0)  -->
<svg version="1.1" id="Layer_1" xmlns="http://www.w3.org/2000/svg" xmlns:xlink="http://www.w3.org/1999/xlink" x="0px" y="0px"
	 viewBox="0 0 2388.3 576.6" style="enable-background:new 0 0 2388.3 576.6;" xml:space="preserve">
<style type="text/css">
	.st0{fill:#1F2937;}
</style>
<g>
	<path class="st0" d="M1496.5,473.9c0-25.5-6.1-29.6-17.3-34.6c13.5-4.5,21.1-17.5,21.1-32.5c0-11.8-6.6-38.4-42.9-38.4h-68.8v136.2
		h0h0h27.8v-53.3h29.4c21,0,22.2,7.3,22.2,25.9c0,14.1,1.1,21.1,3,27.5h31.5v-3.5C1496.5,498.8,1496.5,493.9,1496.5,473.9z
		 M1449.8,428.3h-33.4h0v-36.6h35.5c16.7,0,19.9,10.7,19.9,17.9C1471.8,423.2,1464.6,428.3,1449.8,428.3z"/>
	<path class="st0" d="M534,70.5C505.4,44,470.7,39.2,314,39.2c-156.4,0-191.3,4.8-219.9,31.3c-28.7,26.4-37,72.6-37,198.7
		c0,133.1,7.9,177.7,37,204.9c28.7,26.5,63.5,31.3,221.1,31.3c154.9,0,190.2-4.8,218.8-31.3c28.6-26.5,37-71.8,37-202.2
		C571,142.5,562.5,96.9,534,70.5z M329.3,479.1c-60.5,2.8-140.3-11.5-161.1-84h74.4c17.4,32.3,54.2,48.5,86.7,45.1
		c34.9-3.6,80.3-16.5,72.2-75.3l0,0H156.7c-13.1-119,82-157.2,164.7-154.5c57.3,1.8,127.1,18.5,151,82.6H398
		c-13.2-31.4-46-45.6-82.3-44.6c-36.7,1.1-74.6,16-78.8,76.9h244.8C496.8,443.4,404.1,475.7,329.3,479.1z M551.1,299.4L314,121.2
		L77,299.4v-58.5L314,62.7l237,178.2V299.4z"/>
	<path class="st0" d="M1635.4,368.4l-48.5,136.2h29.9l9.5-28.2h0h50.2l8.7,28.2h30.9l-47.9-136.2H1635.4z M1633.8,453l17.4-53.9h0.4
		l16.9,53.9H1633.8z"/>
	<polygon class="st0" points="1458,169.7 1312.2,169.7 1312.2,114.2 1465.6,114.2 1465.6,44.9 1250.2,44.9 1250.2,339 1312.2,339 
		1312.2,237.1 1458,237.1 	"/>
	<path class="st0" d="M874.8,172.7c-13.1-12-26.3-14.1-93.6-17.2c-43.2-1.8-60-3.1-65.4-5.3c-6.3-2.2-9.1-8-9.1-18.9
		c0-21.8,4.2-23.4,56.8-23.4c44.1,0,51.7,0.7,56.9,5.3c4.5,4,5.4,8,6.2,24.1h59.8c0.4-5.6,0.4-11.8,0.4-13.6
		c0-34.8-4.9-53.3-17.2-65.3c-14.3-14.1-35.7-18.1-95-18.1c-48.9,0-77.1,1.8-89,5.4c-28.1,8.7-39.2,33.9-39.2,89.9
		c0,64.7,14.1,83.2,64.6,85.6l16.5,0.7l33,2.3l48.9,2.5c19.9,0.5,24.5,4.9,24.5,22.5c0,26.1,0,26.1-66.5,26.1
		c-43.9,0-50.6-0.9-56.4-6.2c-4.9-4.5-6.2-10.2-6.2-27.8h-60.2v0.1h0v14c0,40.6,4.5,57.8,18.7,70.7c14.3,13.2,39.2,17.2,102.4,17.2
		c60.9,0,86.5-2.4,98.8-8.9c21-11.6,29.6-36.6,29.6-87.8C894,205.9,888.9,186,874.8,172.7z"/>
	<polygon class="st0" points="1571.5,221.7 1727.7,221.7 1727.7,157 1571.5,157 1571.5,114.2 1735.9,114.2 1735.9,44.9 1510.4,44.9 
		1510.4,339 1737.2,339 1737.2,268.5 1571.5,268.5 	"/>
	<path class="st0" d="M1111.8,44.9h-96.5L907.3,339h71.1l17.4-49.9h134.7l17.6,49.9h70.5L1111.8,44.9z M1017.7,224.8l39.5-111.5
		h12.2l39.5,111.5H1017.7z"/>
	<path class="st0" d="M2035.6,253.4c0-4.3-0.4-11.1-0.7-27.7h-62.4c-0.2,43.7-1.1,44.1-69.3,44.1c-65.5,0-66.4-0.9-66.4-76.3
		c0-44.4,2.4-61.6,9.8-70.5c6-7.1,17.4-8.7,56.2-8.7c39.2,0,57.1,2.5,61.8,8.3c3.6,4.3,4.2,8.3,4.9,27.7h62v-14.5
		c0-47.1-6.2-68.9-23.6-81.6c-14-10.5-33-13.8-87.4-13.8c-106.8,0-129.1,7.6-140.2,47.3c-4.5,16.3-5.8,40.6-5.8,106.2
		c0,37.5,0.7,61.6,1.6,74.9c2.4,30.1,8.5,46.4,21.9,57.5c16.5,13.6,42.3,17.2,122,17.2c45.3,0,67.6-2.7,84.1-10.3
		C2027.1,322.7,2035.6,301.1,2035.6,253.4z"/>
	<path class="st0" d="M2316.4,323c15.6-17,20.1-46.6,20.1-131.3c0-84.3-4.5-113.9-20.1-131.1c-15.6-17-34.4-20.3-119.9-20.3
		c-85.4,0-104.2,3.3-119.8,20.3c-15.6,17.2-20.1,47.3-20.1,129.3c0,86.5,4.2,115.5,20.1,133.1c15.6,17.4,34.4,20.5,120.4,20.5
		C2281.6,343.5,2300.8,340.4,2316.4,323z M2265.2,256.5c-8.2,8.9-18.3,10.5-68.2,10.5c-51.3,0-61.1-1.3-69.5-10.5
		c-7.3-8.3-9.1-20.3-9.1-56.7c0-37.5,1.3-54.4,4.9-64.6c6.2-17.1,12-18.5,73.1-18.5v0c57,0,63.7,1.5,70.5,13.2
		c5.6,9.8,7.4,26.5,7.4,70.2C2274.5,235.8,2272.3,248.5,2265.2,256.5z"/>
	<rect x="645.9" y="368.4" class="st0" width="28.5" height="136.2"/>
	<path class="st0" d="M1050.7,427l-33.3-8.2c-5.7-1.3-14.4-3.6-14.4-14.2c0-12.3,12.9-16.3,23.7-16.3c24.8,0,27.1,14.4,27.9,20.5
		h27.2c-0.2-16.7-11.3-43.9-52.9-43.9c-44.1,0-52.2,26.6-52.2,41.7c0,30,21.2,35,43.1,40.1l14.6,3.4c14.5,3.4,24.8,6.3,24.8,16.9
		c0,14.4-15,17.7-28.5,17.7c-24.9,0-28.7-14.4-28.9-22l0,0h-27.2c0,16.9,8.5,45.3,58.2,45.3c12,0,53.6-3.6,53.6-44.4
		C1086.2,439.2,1069.3,431.6,1050.7,427z"/>
	<polygon class="st0" points="855.9,463.3 855.5,463.3 801.5,368.4 771.6,368.4 771.6,504.6 798.1,504.6 798.1,407.5 798.5,407.5 
		854,504.6 882.4,504.6 882.4,368.4 855.9,368.4 	"/>
	<path class="st0" d="M1259.9,458.1c0,16.5-8,26-27.6,26c-13.3,0-24.3-8.3-24.3-27.3v-88.3h-28.9v90.2c0.4,13.7,3.2,24.6,10.6,33
		c12.1,13.4,30.7,16.4,43.2,16.4c34.4,0,55.9-15.3,55.9-51.1h0v-88.5h-28.9V458.1z"/>
	<polygon class="st0" points="2101.7,413.1 2101.7,413.1 2101.7,413.1 	"/>
	<polygon class="st0" points="1889.3,368.4 1889.3,463.3 1889,463.3 1834.9,368.4 1805.1,368.4 1805.1,504.6 1831.5,504.6 
		1831.5,407.5 1831.9,407.5 1887.4,504.6 1915.8,504.6 1915.8,368.4 1889.3,368.4 	"/>
	<path class="st0" d="M2071.6,483.4c-24.1,0-33.7-21.9-33.7-46.3c0-38.4,20.1-47.4,33.7-47.4c23.5,0,27.8,15.3,30.1,23.4v0h28.4
		c-1.5-20-18-48.1-58.7-48.1c-35,0-62.4,24.3-62.4,71.7c0,46.9,25.9,71.3,62.1,71.3c34.1,0,53.4-20.7,59.1-50.2h-28.4
		C2098.3,474.5,2087.3,483.4,2071.6,483.4z"/>
	<polygon class="st0" points="2251.5,445.4 2317.8,445.4 2317.8,421.4 2251.5,421.4 2251.5,392.4 2323.7,392.4 2323.7,368.4 
		2223.6,368.4 2223.6,504.6 2326.9,504.6 2326.9,480.6 2251.5,480.6 	"/>
</g>
</svg>
